<?xml version="1.0" encoding="UTF-8"?>
<svg version="1.1" xmlns="http://www.w3.org/2000/svg" width="204" height="192">
<path d="M0 0 C67.32 0 134.64 0 204 0 C204 63.36 204 126.72 204 192 C136.68 192 69.36 192 0 192 C0 128.64 0 65.28 0 0 Z " fill="#FDFDFE" transform="translate(0,0)"/>
<path d="M0 0 C67.32 0 134.64 0 204 0 C204 27.72 204 55.44 204 84 C203.67 84 203.34 84 203 84 C202.731875 83.05125 202.46375 82.1025 202.1875 81.125 C201.25013412 77.74732727 201.25013412 77.74732727 198 76 C195.03157342 75.54084493 195.03157342 75.54084493 191.8125 75.375 C190.72582031 75.30023438 189.63914063 75.22546875 188.51953125 75.1484375 C187.27236328 75.07496094 187.27236328 75.07496094 186 75 C185.67 76.32 185.34 77.64 185 79 C185 77.68 185 76.36 185 75 C180.05 75 175.1 75 170 75 C170 81.93 170 88.86 170 96 C174.95 96 179.9 96 185 96 C185 94.35 185 92.7 185 91 C181.7 91 178.4 91 175 91 C175 90.01 175 89.02 175 88 C178.3 88 181.6 88 185 88 C185.33 86.68 185.66 85.36 186 84 C186.33 88.29 186.66 92.58 187 97 C178.75 97 170.5 97 162 97 C162.33 91.39 162.66 85.78 163 80 C164.65 80 166.3 80 168 80 C168 78.35 168 76.7 168 75 C167.40574219 75.03552979 166.81148437 75.07105957 166.19921875 75.10766602 C163.46652377 75.26677219 160.73332905 75.41470317 158 75.5625 C156.59814453 75.64661133 156.59814453 75.64661133 155.16796875 75.73242188 C149.61487364 76.02366812 144.49386553 75.87461303 139 75 C139 75.66 139 76.32 139 77 C138.34 77 137.68 77 137 77 C137 79.31 137 81.62 137 84 C139.64 85.32 142.28 86.64 145 88 C144.67 89.32 144.34 90.64 144 92 C143.0925 91.773125 142.185 91.54625 141.25 91.3125 C138.00496499 90.67394455 138.00496499 90.67394455 135.625 92.4375 C135.08875 92.953125 134.5525 93.46875 134 94 C131.70620251 90.55930376 131 89.27709699 131 85 C130.34 85 129.68 85 129 85 C128.01 80.545 128.01 80.545 127 76 C125.68 76 124.36 76 123 76 C122.72285156 76.69738281 122.44570312 77.39476563 122.16015625 78.11328125 C120.94079748 81.14730863 119.69381491 84.16859403 118.4375 87.1875 C118.00308594 88.23292969 117.56867188 89.27835937 117.12109375 90.35546875 C116.45680074 91.92245958 115.76114985 93.4777003 115 95 C113.515 94.505 113.515 94.505 112 94 C109.39955041 87.64334544 109.38787868 80.78787697 109 74 C107.02 74.33 105.04 74.66 103 75 C102.87882812 75.64066406 102.75765625 76.28132813 102.6328125 76.94140625 C101.64320773 82.04928933 100.51489049 87.02250269 99 92 C96.23559788 89.23559788 95.7926617 86.0592418 94.875 82.375 C94.69324219 81.66859375 94.51148437 80.9621875 94.32421875 80.234375 C93.8766359 78.49115757 93.43750538 76.74577389 93 75 C91.35 75 89.7 75 88 75 C87.51637304 77.16567544 87.03832683 79.33259741 86.5625 81.5 C86.29566406 82.7065625 86.02882813 83.913125 85.75390625 85.15625 C84.98576039 89.0725999 84.49501895 93.03984838 84 97 C78.39 97 72.78 97 67 97 C67 95.35 67 93.7 67 92 C64.03 92 61.06 92 58 92 C58 86.72 58 81.44 58 76 C55.03 76.495 55.03 76.495 52 77 C49.03 76.505 49.03 76.505 46 76 C46 82.93 46 89.86 46 97 C45.01 96.67 44.02 96.34 43 96 C43.33 89.07 43.66 82.14 44 75 C42.35 75 40.7 75 39 75 C39 77.64 39 80.28 39 83 C36.03 83 33.06 83 30 83 C30 80.36 30 77.72 30 75 C28.02 75 26.04 75 24 75 C23.67 75.66 23.34 76.32 23 77 C22.505 76.505 22.505 76.505 22 76 C19.92176348 75.8209429 17.83546283 75.73192129 15.75 75.6875 C14.61046875 75.65011719 13.4709375 75.61273438 12.296875 75.57421875 C8.36302792 76.08226298 6.80278727 77.25803271 4 80 C1.17271701 84.5775058 1.81834482 89.80264349 2 95 C1.01 95.495 1.01 95.495 0 96 C0 64.32 0 32.64 0 0 Z " fill="#FDFDFE" transform="translate(0,0)"/>
<path d="M0 0 C1.2065625 0.0309375 1.2065625 0.0309375 2.4375 0.0625 C4.51885307 5.36048964 6.15041613 10.51813871 7.4375 16.0625 C9.49162525 10.97184177 10.76614815 6.54520676 11.4375 1.0625 C12.4375 0.0625 12.4375 0.0625 15.5 0 C16.9540625 0.0309375 16.9540625 0.0309375 18.4375 0.0625 C19.92675122 3.04100244 20.04374338 6.22997435 20.4375 9.5 C21.07606819 14.85247193 21.07606819 14.85247193 22.4375 20.0625 C23.0975 20.3925 23.7575 20.7225 24.4375 21.0625 C24.80875 19.8559375 24.80875 19.8559375 25.1875 18.625 C27.19005481 12.91771879 29.70453384 7.45522786 32.4375 2.0625 C33.7575 2.0625 35.0775 2.0625 36.4375 2.0625 C37.4275 6.5175 37.4275 6.5175 38.4375 11.0625 C39.0975 11.0625 39.7575 11.0625 40.4375 11.0625 C41.4275 13.7025 42.4175 16.3425 43.4375 19.0625 C44.159375 18.546875 44.88125 18.03125 45.625 17.5 C48.8570366 15.84807018 50.05358307 15.99898325 53.4375 17.0625 C53.4375 16.0725 53.4375 15.0825 53.4375 14.0625 C52.303125 13.588125 51.16875 13.11375 50 12.625 C46.4375 11.0625 46.4375 11.0625 45.4375 10.0625 C45.72480055 7.72305264 46.05686779 5.3885857 46.4375 3.0625 C47.0975 3.0625 47.7575 3.0625 48.4375 3.0625 C48.4375 2.4025 48.4375 1.7425 48.4375 1.0625 C58.0075 1.0625 67.5775 1.0625 77.4375 1.0625 C77.4375 2.7125 77.4375 4.3625 77.4375 6.0625 C75.7875 6.0625 74.1375 6.0625 72.4375 6.0625 C72.4375 11.3425 72.4375 16.6225 72.4375 22.0625 C92.2375 22.5575 92.2375 22.5575 112.4375 23.0625 C112.4375 24.7125 112.4375 26.3625 112.4375 28.0625 C81.4175 28.0625 50.3975 28.0625 18.4375 28.0625 C17.4475 23.4425 16.4575 18.8225 15.4375 14.0625 C14.9425 13.0725 14.9425 13.0725 14.4375 12.0625 C14.24414062 12.71476562 14.05078125 13.36703125 13.8515625 14.0390625 C12.45109552 18.7396398 11.02541274 23.42090891 9.4375 28.0625 C8.1175 28.0625 6.7975 28.0625 5.4375 28.0625 C4.76650016 25.45938008 4.10054662 22.85514602 3.4375 20.25 C3.24671875 19.51201172 3.0559375 18.77402344 2.859375 18.01367188 C2.08487086 14.95714659 1.4375 12.22876522 1.4375 9.0625 C0.7775 9.0625 0.1175 9.0625 -0.5625 9.0625 C-0.52125 9.97 -0.48 10.8775 -0.4375 11.8125 C-0.59810068 17.27292318 -1.66442377 22.67404262 -2.5625 28.0625 C-15.7625 28.0625 -28.9625 28.0625 -42.5625 28.0625 C-42.5625 27.7325 -42.5625 27.4025 -42.5625 27.0625 C-41.97235107 27.00715088 -41.38220215 26.95180176 -40.77416992 26.89477539 C-38.09908792 26.64182313 -35.42455397 26.383473 -32.75 26.125 C-31.82123047 26.03798828 -30.89246094 25.95097656 -29.93554688 25.86132812 C-29.04287109 25.77431641 -28.15019531 25.68730469 -27.23046875 25.59765625 C-26.40828857 25.519104 -25.5861084 25.44055176 -24.73901367 25.35961914 C-22.38762578 25.10698955 -22.38762578 25.10698955 -19.5625 24.0625 C-17.33431559 23.99312938 -15.10415476 23.97792916 -12.875 24 C-11.10576172 24.01353516 -11.10576172 24.01353516 -9.30078125 24.02734375 C-8.39714844 24.03894531 -7.49351563 24.05054687 -6.5625 24.0625 C-6.624375 22.86625 -6.68625 21.67 -6.75 20.4375 C-6.77110986 13.83011514 -5.24912386 7.42448015 -3.5625 1.0625 C-2.5625 0.0625 -2.5625 0.0625 0 0 Z " fill="#ECC1C1" transform="translate(90.5625,73.9375)"/>
<path d="M0 0 C1.70736328 0.05414063 1.70736328 0.05414063 3.44921875 0.109375 C4.39410156 0.15578125 5.33898437 0.2021875 6.3125 0.25 C6.9725 0.25 7.6325 0.25 8.3125 0.25 C10.3125 0.25 12.3125 0.25 14.3125 0.25 C14.3125 2.89 14.3125 5.53 14.3125 8.25 C17.2825 8.25 20.2525 8.25 23.3125 8.25 C23.3125 5.61 23.3125 2.97 23.3125 0.25 C24.9625 0.25 26.6125 0.25 28.3125 0.25 C28.3125 7.18 28.3125 14.11 28.3125 21.25 C28.9725 21.58 29.6325 21.91 30.3125 22.25 C30.3125 15.32 30.3125 8.39 30.3125 1.25 C34.2725 1.25 38.2325 1.25 42.3125 1.25 C42.3125 6.53 42.3125 11.81 42.3125 17.25 C45.2825 17.25 48.2525 17.25 51.3125 17.25 C51.3125 18.9 51.3125 20.55 51.3125 22.25 C56.9225 22.25 62.5325 22.25 68.3125 22.25 C68.3125 22.58 68.3125 22.91 68.3125 23.25 C66.95705078 23.34087891 66.95705078 23.34087891 65.57421875 23.43359375 C63.80498047 23.55927734 63.80498047 23.55927734 62 23.6875 C60.82824219 23.76871094 59.65648438 23.84992188 58.44921875 23.93359375 C55.28659042 24.1367371 55.28659042 24.1367371 52.3125 25.25 C49.41466737 25.65551897 46.53388405 26.00928653 43.625 26.3125 C42.75738037 26.40337891 41.88976074 26.49425781 40.99584961 26.58789062 C32.74806749 27.3637407 24.54971964 27.37339184 16.27270508 27.17602539 C15.30743896 27.15918701 14.34217285 27.14234863 13.34765625 27.125 C12.4956665 27.10179688 11.64367676 27.07859375 10.76586914 27.0546875 C7.95856046 27.2781771 5.89763398 28.16425933 3.3125 29.25 C-1.50093312 29.79345213 -4.41435166 29.81133538 -8.5 27.125 C-12.16049415 24.14144655 -14.28456055 21.08192657 -14.96484375 16.30078125 C-15.18978148 11.57708893 -14.33565617 8.26789212 -11.6875 4.25 C-7.80457888 0.43617001 -5.394141 -0.22142426 0 0 Z " fill="#F2F6FA" transform="translate(15.6875,74.75)"/>
<path d="M0 0 C1.2065625 0.0309375 1.2065625 0.0309375 2.4375 0.0625 C4.51885307 5.36048964 6.15041613 10.51813871 7.4375 16.0625 C9.49162525 10.97184177 10.76614815 6.54520676 11.4375 1.0625 C12.4375 0.0625 12.4375 0.0625 15.5 0 C16.9540625 0.0309375 16.9540625 0.0309375 18.4375 0.0625 C19.90179901 2.99109801 20.04269386 6.09853124 20.4375 9.3125 C21.02052344 13.92202907 21.67317122 18.47652733 22.4375 23.0625 C66.9875 23.5575 66.9875 23.5575 112.4375 24.0625 C112.4375 25.3825 112.4375 26.7025 112.4375 28.0625 C81.4175 28.0625 50.3975 28.0625 18.4375 28.0625 C17.4475 23.4425 16.4575 18.8225 15.4375 14.0625 C14.9425 13.0725 14.9425 13.0725 14.4375 12.0625 C14.24414062 12.71476562 14.05078125 13.36703125 13.8515625 14.0390625 C12.45109552 18.7396398 11.02541274 23.42090891 9.4375 28.0625 C8.1175 28.0625 6.7975 28.0625 5.4375 28.0625 C4.76650016 25.45938008 4.10054662 22.85514602 3.4375 20.25 C3.24671875 19.51201172 3.0559375 18.77402344 2.859375 18.01367188 C2.08487086 14.95714659 1.4375 12.22876522 1.4375 9.0625 C0.7775 9.0625 0.1175 9.0625 -0.5625 9.0625 C-0.52125 9.97 -0.48 10.8775 -0.4375 11.8125 C-0.59810068 17.27292318 -1.66442377 22.67404262 -2.5625 28.0625 C-15.7625 28.0625 -28.9625 28.0625 -42.5625 28.0625 C-42.5625 27.7325 -42.5625 27.4025 -42.5625 27.0625 C-41.97235107 27.00715088 -41.38220215 26.95180176 -40.77416992 26.89477539 C-38.09908792 26.64182313 -35.42455397 26.383473 -32.75 26.125 C-31.82123047 26.03798828 -30.89246094 25.95097656 -29.93554688 25.86132812 C-29.04287109 25.77431641 -28.15019531 25.68730469 -27.23046875 25.59765625 C-26.40828857 25.519104 -25.5861084 25.44055176 -24.73901367 25.35961914 C-22.38762578 25.10698955 -22.38762578 25.10698955 -19.5625 24.0625 C-17.33431559 23.99312938 -15.10415476 23.97792916 -12.875 24 C-11.10576172 24.01353516 -11.10576172 24.01353516 -9.30078125 24.02734375 C-8.39714844 24.03894531 -7.49351563 24.05054687 -6.5625 24.0625 C-6.624375 22.86625 -6.68625 21.67 -6.75 20.4375 C-6.77110986 13.83011514 -5.24912386 7.42448015 -3.5625 1.0625 C-2.5625 0.0625 -2.5625 0.0625 0 0 Z " fill="#C50F0F" transform="translate(90.5625,73.9375)"/>
<path d="M0 0 C3.96 0 7.92 0 12 0 C12 5.28 12 10.56 12 16 C14.97 16 17.94 16 21 16 C21 17.65 21 19.3 21 21 C26.61 21 32.22 21 38 21 C38 21.33 38 21.66 38 22 C37.09636719 22.06058594 36.19273438 22.12117188 35.26171875 22.18359375 C33.49248047 22.30927734 33.49248047 22.30927734 31.6875 22.4375 C29.92986328 22.55931641 29.92986328 22.55931641 28.13671875 22.68359375 C24.97409042 22.8867371 24.97409042 22.8867371 22 24 C7.66455955 25.98780905 -6.54816412 26.25568028 -21 26 C-21 24.35 -21 22.7 -21 21 C-14.07 21 -7.14 21 0 21 C0 14.07 0 7.14 0 0 Z " fill="#B4C1E0" transform="translate(46,76)"/>
<path d="M0 0 C1.72476562 0.03673828 1.72476562 0.03673828 3.484375 0.07421875 C6.25 0.3125 6.25 0.3125 7.25 1.3125 C7.29063832 2.97867115 7.292721 4.64638095 7.25 6.3125 C6.26 5.9825 5.27 5.6525 4.25 5.3125 C-0.0177344 4.83306759 -3.53991204 4.55619502 -7.25 6.875 C-9.25133412 10.12716794 -9.68311096 12.49982499 -9.75 16.3125 C-8.38571607 19.23596557 -7.02249091 21.04000909 -4.75 23.3125 C-0.57016197 23.51475023 3.24047425 23.64900858 7.25 22.3125 C7.25 24.2925 7.25 26.2725 7.25 28.3125 C2.69596786 29.83051071 -2.29010862 30.44483095 -6.71875 28.40625 C-10.78922224 25.71559886 -13.17765438 23.02953687 -14.75 18.3125 C-15.51704915 12.92154895 -14.79712485 8.93572391 -11.75 4.3125 C-7.86328866 0.4950705 -5.40252044 -0.17723201 0 0 Z " fill="#1765BB" transform="translate(15.75,74.6875)"/>
<path d="M0 0 C9.9609375 -0.1953125 9.9609375 -0.1953125 13 0 C15 2 15 2 15.375 5.375 C15 9 15 9 13 11.4375 C12.01 12.2109375 12.01 12.2109375 11 13 C11.66 13 12.32 13 13 13 C16 17.38461538 16 17.38461538 16 20 C13.8125 20.5 13.8125 20.5 11 20 C9.4610868 18.04575512 8.29691519 16.03371633 7.11328125 13.84765625 C6.12923023 11.84157239 6.12923023 11.84157239 4 11 C4 13.64 4 16.28 4 19 C2.68 19 1.36 19 0 19 C0 12.73 0 6.46 0 0 Z " fill="#C60D0D" transform="translate(187,76)"/>
<path d="M0 0 C1.65 0 3.3 0 5 0 C5 2.31 5 4.62 5 7 C7.97 7 10.94 7 14 7 C14 4.69 14 2.38 14 0 C15.32 0 16.64 0 18 0 C18 6.27 18 12.54 18 19 C16.68 19 15.36 19 14 19 C14 16.36 14 13.72 14 11 C11.03 11 8.06 11 5 11 C5 13.97 5 16.94 5 20 C3.35 20 1.7 20 0 20 C0 13.4 0 6.8 0 0 Z " fill="#1260BA" transform="translate(25,76)"/>
<path d="M0 0 C0.33 0.99 0.66 1.98 1 3 C4.96 3.33 8.92 3.66 13 4 C12.34 6.64 11.68 9.28 11 12 C8.69 12 6.38 12 4 12 C4 11.34 4 10.68 4 10 C3.34 10 2.68 10 2 10 C2.33 8.68 2.66 7.36 3 6 C2.34 6 1.68 6 1 6 C1 7.32 1 8.64 1 10 C-0.64574566 10.02688151 -2.29161413 10.04634123 -3.9375 10.0625 C-4.85402344 10.07410156 -5.77054688 10.08570312 -6.71484375 10.09765625 C-9 10 -9 10 -10 9 C-10.99 9 -11.98 9 -13 9 C-13.99 9 -14.98 9 -16 9 C-16.33 8.67 -16.66 8.34 -17 8 C-17 8.33 -17 8.66 -17 9 C-18.65 9 -20.3 9 -22 9 C-21.67 7.68 -21.34 6.36 -21 5 C-18.00519083 4.1276588 -15.36424089 3.89170234 -12.25 3.9375 C-11.45078125 3.94652344 -10.6515625 3.95554687 -9.828125 3.96484375 C-9.22484375 3.97644531 -8.6215625 3.98804687 -8 4 C-7.67 3.34 -7.34 2.68 -7 2 C-2.66666667 0 -2.66666667 0 0 0 Z " fill="#C6D5EC" transform="translate(58,105)"/>
<path d="M0 0 C4.29 0 8.58 0 13 0 C13 0.99 13 1.98 13 3 C10.03 3 7.06 3 4 3 C4 4.32 4 5.64 4 7 C6.97 7 9.94 7 13 7 C13 8.32 13 9.64 13 11 C10.03 11 7.06 11 4 11 C4 12.32 4 13.64 4 15 C7.3 15 10.6 15 14 15 C14 16.32 14 17.64 14 19 C9.38 19 4.76 19 0 19 C0 12.73 0 6.46 0 0 Z " fill="#C71010" transform="translate(171,76)"/>
<path d="M0 0 C7.50769231 -0.36923077 7.50769231 -0.36923077 10 1.5 C10.495 2.2425 10.495 2.2425 11 3 C7.91190305 4.76462683 6.76687864 5 3 5 C2.67 5.99 2.34 6.98 2 8 C3.11375 8.1546875 3.11375 8.1546875 4.25 8.3125 C7.17014018 9.04253504 8.73187554 10.06789398 11 12 C10.6875 15.375 10.6875 15.375 10 19 C6.79619983 21.13586678 5.98060033 21.23132175 2.3125 21.125 C1.50425781 21.10695313 0.69601563 21.08890625 -0.13671875 21.0703125 C-0.75160156 21.04710938 -1.36648437 21.02390625 -2 21 C-2.33 19.68 -2.66 18.36 -3 17 C0 15 0 15 2.6875 15.375 C3.450625 15.58125 4.21375 15.7875 5 16 C5 15.01 5 14.02 5 13 C3.865625 12.525625 2.73125 12.05125 1.5625 11.5625 C-2 10 -2 10 -3 9 C-2.71269945 6.66055264 -2.38063221 4.3260857 -2 2 C-1.34 2 -0.68 2 0 2 C0 1.34 0 0.68 0 0 Z " fill="#C71515" transform="translate(139,75)"/>
<path d="M0 0 C1.32 0 2.64 0 4 0 C4.66 2.97 5.32 5.94 6 9 C6.66 9 7.32 9 8 9 C9.31626692 12.61973402 10 15.09567131 10 19 C8.0625 18.625 8.0625 18.625 6 18 C5.67 17.34 5.34 16.68 5 16 C1.58357241 15.74984127 1.58357241 15.74984127 -2 16 C-2.66 16.99 -3.32 17.98 -4 19 C-4.99 19 -5.98 19 -7 19 C-6.2861382 12.03984747 -3.10840976 6.1610633 0 0 Z " fill="#C60C0C" transform="translate(123,76)"/>
<path d="M0 0 C9.24 0 18.48 0 28 0 C28 0.33 28 0.66 28 1 C24.37 1 20.74 1 17 1 C17 7.27 17 13.54 17 20 C18.32 20.33 19.64 20.66 21 21 C19.35 21 17.7 21 16 21 C15.67 18.36 15.34 15.72 15 13 C11.7 13 8.4 13 5 13 C5 12.67 5 12.34 5 12 C7.97 12 10.94 12 14 12 C14 10.68 14 9.36 14 8 C11.03 8 8.06 8 5 8 C5 6.68 5 5.36 5 4 C7.97 4 10.94 4 14 4 C14 3.01 14 2.02 14 1 C9.71 1 5.42 1 1 1 C1 7.27 1 13.54 1 20 C5.62 20 10.24 20 15 20 C15 20.33 15 20.66 15 21 C10.05 21 5.1 21 0 21 C0 14.07 0 7.14 0 0 Z " fill="#E4A6A6" transform="translate(170,75)"/>
<path d="M0 0 C14.85 0 29.7 0 45 0 C41.17384734 2.55076844 37.65008233 2.70914129 33.1875 3.125 C31.88377441 3.25237549 31.88377441 3.25237549 30.55371094 3.38232422 C20.37961311 4.28174197 10.20337675 4.19025229 0 4 C0 2.68 0 1.36 0 0 Z " fill="#0355B2" transform="translate(26,98)"/>
<path d="M0 0 C1.65 0 3.3 0 5 0 C5.02887814 3.47914941 5.04675687 6.95826831 5.0625 10.4375 C5.07087891 11.43072266 5.07925781 12.42394531 5.08789062 13.44726562 C5.09111328 14.39150391 5.09433594 15.33574219 5.09765625 16.30859375 C5.10289307 17.18314209 5.10812988 18.05769043 5.11352539 18.95874023 C5 21 5 21 4 22 C1.64686445 22.07271741 -0.70833668 22.08370868 -3.0625 22.0625 C-4.35285156 22.05347656 -5.64320312 22.04445313 -6.97265625 22.03515625 C-7.97167969 22.02355469 -8.97070312 22.01195313 -10 22 C-9.67 18.7 -9.34 15.4 -9 12 C-6.03 12 -3.06 12 0 12 C0 14.64 0 17.28 0 20 C1.32 20 2.64 20 4 20 C4 13.73 4 7.46 4 1 C2.68 0.67 1.36 0.34 0 0 Z " fill="#DFE6F3" transform="translate(39,75)"/>
<path d="M0 0 C0.99 0.33 1.98 0.66 3 1 C3 1.66 3 2.32 3 3 C8.28 3 13.56 3 19 3 C18.67 4.65 18.34 6.3 18 8 C17.67 7.01 17.34 6.02 17 5 C15.68 5.99 14.36 6.98 13 8 C12.67 7.01 12.34 6.02 12 5 C11.67 5.99 11.34 6.98 11 8 C8.36 8 5.72 8 3 8 C3 9.32 3 10.64 3 12 C2.34 12 1.68 12 1 12 C1 11.01 1 10.02 1 9 C-1.97 8.67 -4.94 8.34 -8 8 C-7.67 6.35 -7.34 4.7 -7 3 C-6.34 3 -5.68 3 -5 3 C-5 3.99 -5 4.98 -5 6 C-4.34 6 -3.68 6 -3 6 C-3 5.01 -3 4.02 -3 3 C-2.34 3 -1.68 3 -1 3 C-0.67 2.01 -0.34 1.02 0 0 Z " fill="#4F84C9" transform="translate(164,106)"/>
<path d="M0 0 C5.28 0 10.56 0 16 0 C16 0.99 16 1.98 16 3 C14.02 3 12.04 3 10 3 C10 8.28 10 13.56 10 19 C8.68 19 7.36 19 6 19 C6 13.72 6 8.44 6 3 C4.02 3 2.04 3 0 3 C0 2.01 0 1.02 0 0 Z " fill="#C30000" transform="translate(152,76)"/>
<path d="M0 0 C0.33 0 0.66 0 1 0 C2.23402862 4.77092956 2.11265112 9.42469446 2.0625 14.3125 C2.05798828 15.14845703 2.05347656 15.98441406 2.04882812 16.84570312 C2.03710548 18.89716649 2.01917203 20.94859273 2 23 C1.67 23 1.34 23 1 23 C1 21.35 1 19.7 1 18 C-4.28 18 -9.56 18 -15 18 C-13.68 17.67 -12.36 17.34 -11 17 C-11 14.03 -11 11.06 -11 8 C-7 10 -7 10 -5.5625 13.0625 C-4.30607568 16.24420891 -4.30607568 16.24420891 -1.3125 16.875 C-0.549375 16.91625 0.21375 16.9575 1 17 C0.505 16.21625 0.01 15.4325 -0.5 14.625 C-2 12 -2 12 -2 10 C-2.66 10 -3.32 10 -4 10 C-3.67 9.01 -3.34 8.02 -3 7 C-2.34 6.67 -1.68 6.34 -1 6 C-0.34227572 2.97065509 -0.34227572 2.97065509 0 0 Z " fill="#F9EAEA" transform="translate(202,79)"/>
<path d="M0 0 C1.32 0 2.64 0 4 0 C4 5.28 4 10.56 4 16 C6.97 16 9.94 16 13 16 C13 16.99 13 17.98 13 19 C8.71 19 4.42 19 0 19 C0 12.73 0 6.46 0 0 Z " fill="#0459B6" transform="translate(54,76)"/>
<path d="M0 0 C1.32 0 2.64 0 4 0 C4 5.28 4 10.56 4 16 C6.64 16 9.28 16 12 16 C12 16.99 12 17.98 12 19 C8.04 19 4.08 19 0 19 C0 12.73 0 6.46 0 0 Z " fill="#0056B5" transform="translate(69,76)"/>
<path d="M0 0 C1.65 0 3.3 0 5 0 C5 6.6 5 13.2 5 20 C3.35 20 1.7 20 0 20 C0 13.4 0 6.8 0 0 Z " fill="#236ABD" transform="translate(46,76)"/>
<path d="M0 0 C4.29 0 8.58 0 13 0 C12.34 2.64 11.68 5.28 11 8 C8.69 8 6.38 8 4 8 C4 7.34 4 6.68 4 6 C3.34 6 2.68 6 2 6 C2.33 4.68 2.66 3.36 3 2 C2.34 2 1.68 2 1 2 C0.67 2.99 0.34 3.98 0 5 C-0.33 4.01 -0.66 3.02 -1 2 C-0.67 1.34 -0.34 0.68 0 0 Z " fill="#94B3DD" transform="translate(58,109)"/>
<path d="M0 0 C3.375 -0.1875 3.375 -0.1875 7 0 C7.66 0.99 8.32 1.98 9 3 C9.99 3.33 10.98 3.66 12 4 C12.33 3.34 12.66 2.68 13 2 C13.66 2 14.32 2 15 2 C15.99 3.32 16.98 4.64 18 6 C9.75 6 1.5 6 -7 6 C-7 5.67 -7 5.34 -7 5 C-5.02 5 -3.04 5 -1 5 C-0.67 3.35 -0.34 1.7 0 0 Z " fill="#F7E2E2" transform="translate(121,91)"/>
<path d="M0 0 C1.32 0.33 2.64 0.66 4 1 C3.34 1 2.68 1 2 1 C2 1.66 2 2.32 2 3 C2.66 3.33 3.32 3.66 4 4 C3.01 4 2.02 4 1 4 C1 4.66 1 5.32 1 6 C1.66 6 2.32 6 3 6 C3 6.66 3 7.32 3 8 C1.906875 7.95875 0.81375 7.9175 -0.3125 7.875 C-4.08892229 7.67925334 -4.08892229 7.67925334 -7 10 C-8.32 10 -9.64 10 -11 10 C-10.67 9.34 -10.34 8.68 -10 8 C-10.33 7.67 -10.66 7.34 -11 7 C-10.30769231 3.30769231 -10.30769231 3.30769231 -9 2 C-7.33382885 1.95936168 -5.66611905 1.957279 -4 2 C-3.67 2.66 -3.34 3.32 -3 4 C-2.34 4 -1.68 4 -1 4 C-0.67 2.68 -0.34 1.36 0 0 Z " fill="#B4C9E6" transform="translate(144,107)"/>
<path d="M0 0 C1.98 0 3.96 0 6 0 C6 0.99 6 1.98 6 3 C4.68 3 3.36 3 2 3 C2.98267859 4.20561184 2.98267859 4.20561184 4.84765625 4.09765625 C6.8984375 4.06510417 8.94921875 4.03255208 11 4 C10.67 5.65 10.34 7.3 10 9 C9.34 9 8.68 9 8 9 C7.67 8.67 7.34 8.34 7 8 C6.67 8.66 6.34 9.32 6 10 C3.36 10 0.72 10 -2 10 C-1.34 6.7 -0.68 3.4 0 0 Z " fill="#83A7D7" transform="translate(121,105)"/>
<path d="M0 0 C1.8871875 0.0309375 1.8871875 0.0309375 3.8125 0.0625 C2.8225 0.7225 1.8325 1.3825 0.8125 2.0625 C4.1125 2.3925 7.4125 2.7225 10.8125 3.0625 C10.8125 3.3925 10.8125 3.7225 10.8125 4.0625 C-1.7275 4.0625 -14.2675 4.0625 -27.1875 4.0625 C-27.1875 3.7325 -27.1875 3.4025 -27.1875 3.0625 C-26.30227661 2.97947632 -26.30227661 2.97947632 -25.39916992 2.89477539 C-22.72408792 2.64182313 -20.04955397 2.383473 -17.375 2.125 C-16.44623047 2.03798828 -15.51746094 1.95097656 -14.56054688 1.86132812 C-13.2215332 1.73081055 -13.2215332 1.73081055 -11.85546875 1.59765625 C-11.03328857 1.519104 -10.2111084 1.44055176 -9.36401367 1.35961914 C-6.06379548 0.90910141 -3.38065284 -0.05542054 0 0 Z " fill="#B1131D" transform="translate(75.1875,97.9375)"/>
<path d="M0 0 C1.51400391 0.01740234 1.51400391 0.01740234 3.05859375 0.03515625 C4.07050781 0.04417969 5.08242187 0.05320312 6.125 0.0625 C7.29869141 0.07990234 7.29869141 0.07990234 8.49609375 0.09765625 C8.16609375 1.74765625 7.83609375 3.39765625 7.49609375 5.09765625 C3.53609375 5.09765625 -0.42390625 5.09765625 -4.50390625 5.09765625 C-3.26129105 0.12719544 -3.26129105 0.12719544 0 0 Z " fill="#5F8DCC" transform="translate(109.50390625,108.90234375)"/>
<path d="M0 0 C0.99 0.33 1.98 0.66 3 1 C3 4.63 3 8.26 3 12 C2.34 12 1.68 12 1 12 C1 11.01 1 10.02 1 9 C-1.97 8.67 -4.94 8.34 -8 8 C-7.67 6.35 -7.34 4.7 -7 3 C-6.34 3 -5.68 3 -5 3 C-5 3.99 -5 4.98 -5 6 C-4.34 6 -3.68 6 -3 6 C-3 5.01 -3 4.02 -3 3 C-2.34 3 -1.68 3 -1 3 C-0.67 2.01 -0.34 1.02 0 0 Z " fill="#97B3DD" transform="translate(164,106)"/>
<path d="M0 0 C0.99773437 0.02320312 1.99546875 0.04640625 3.0234375 0.0703125 C4.52777344 0.09738281 4.52777344 0.09738281 6.0625 0.125 C6.83335938 0.14820312 7.60421875 0.17140625 8.3984375 0.1953125 C8.0684375 1.8453125 7.7384375 3.4953125 7.3984375 5.1953125 C7.0684375 4.2053125 6.7384375 3.2153125 6.3984375 2.1953125 C5.4084375 2.6903125 5.4084375 2.6903125 4.3984375 3.1953125 C4.0684375 4.1853125 3.7384375 5.1753125 3.3984375 6.1953125 C1.0884375 6.1953125 -1.2215625 6.1953125 -3.6015625 6.1953125 C-4.2265625 4.3203125 -4.2265625 4.3203125 -4.6015625 2.1953125 C-2.6015625 0.1953125 -2.6015625 0.1953125 0 0 Z " fill="#6594CF" transform="translate(78.6015625,108.8046875)"/>
<path d="M0 0 C1.51400391 0.01740234 1.51400391 0.01740234 3.05859375 0.03515625 C4.07050781 0.04417969 5.08242188 0.05320312 6.125 0.0625 C7.29869141 0.07990234 7.29869141 0.07990234 8.49609375 0.09765625 C8.16609375 1.74765625 7.83609375 3.39765625 7.49609375 5.09765625 C5.49654629 5.14019981 3.49567739 5.13846408 1.49609375 5.09765625 C1.16609375 4.76765625 0.83609375 4.43765625 0.49609375 4.09765625 C0.49609375 4.42765625 0.49609375 4.75765625 0.49609375 5.09765625 C-1.15390625 5.09765625 -2.80390625 5.09765625 -4.50390625 5.09765625 C-3.38261259 0.13192717 -3.38261259 0.13192717 0 0 Z " fill="#467FC6" transform="translate(40.50390625,108.90234375)"/>
<path d="M0 0 C-0.33 2.31 -0.66 4.62 -1 7 C-2.98 7 -4.96 7 -7 7 C-7.33 5.68 -7.66 4.36 -8 3 C-8.33 3.99 -8.66 4.98 -9 6 C-9.33 5.01 -9.66 4.02 -10 3 C-9.67 2.34 -9.34 1.68 -9 1 C-5.98003217 0.45091494 -3.07380605 0 0 0 Z " fill="#81A6D7" transform="translate(201,108)"/>
<path d="M0 0 C0.33 0 0.66 0 1 0 C1.90413673 3.83724172 2.10576898 7.37502274 2.0625 11.3125 C2.05347656 12.38113281 2.04445312 13.44976562 2.03515625 14.55078125 C2.02355469 15.35902344 2.01195312 16.16726562 2 17 C-2 12.25 -2 12.25 -2 10 C-2.66 10 -3.32 10 -4 10 C-3.67 9.01 -3.34 8.02 -3 7 C-2.34 6.67 -1.68 6.34 -1 6 C-0.34227572 2.97065509 -0.34227572 2.97065509 0 0 Z " fill="#FBF4F4" transform="translate(202,79)"/>
<path d="M0 0 C1.98 0 3.96 0 6 0 C5.34 2.64 4.68 5.28 4 8 C3.34 8 2.68 8 2 8 C2 7.01 2 6.02 2 5 C1.01 5 0.02 5 -1 5 C-0.67 3.35 -0.34 1.7 0 0 Z " fill="#477FC6" transform="translate(150,109)"/>
<path d="M0 0 C0.66 0 1.32 0 2 0 C1.34 2.64 0.68 5.28 0 8 C-1.98 8 -3.96 8 -6 8 C-5.67 6.68 -5.34 5.36 -5 4 C-3.35 3.67 -1.7 3.34 0 3 C0 2.01 0 1.02 0 0 Z " fill="#427CC5" transform="translate(94,106)"/>
<path d="M0 0 C0.66 0 1.32 0 2 0 C2 0.99 2 1.98 2 3 C2.99 3 3.98 3 5 3 C5.33 2.34 5.66 1.68 6 1 C5.67 3.31 5.34 5.62 5 8 C4.34 8 3.68 8 3 8 C3 7.34 3 6.68 3 6 C2.01 5.67 1.02 5.34 0 5 C0 5.99 0 6.98 0 8 C-0.66 8 -1.32 8 -2 8 C-1.47731534 5.23723823 -0.89130413 2.6739124 0 0 Z " fill="#2B68BD" transform="translate(29,106)"/>
<path d="M0 0 C1.65 0 3.3 0 5 0 C5.66 1.32 6.32 2.64 7 4 C6 5 6 5 2.9375 5.0625 C1.4834375 5.0315625 1.4834375 5.0315625 0 5 C0 3.35 0 1.7 0 0 Z " fill="#F2D5D5" transform="translate(191,79)"/>
<path d="M0 0 C0 0.66 0 1.32 0 2 C-0.99 2.33 -1.98 2.66 -3 3 C-3.33 3.99 -3.66 4.98 -4 6 C-3.01 6.33 -2.02 6.66 -1 7 C-2.65 7.33 -4.3 7.66 -6 8 C-6.6875 6.25 -6.6875 6.25 -7 4 C-4.96738407 0.1487277 -4.56536841 0 0 0 Z " fill="#417AC4" transform="translate(105,106)"/>
<path d="M0 0 C1.8871875 0.0309375 1.8871875 0.0309375 3.8125 0.0625 C-0.05983424 2.64405616 -1.72286019 3.18384154 -6.3125 3.125 C-7.22257812 3.11597656 -8.13265625 3.10695313 -9.0703125 3.09765625 C-9.76898438 3.08605469 -10.46765625 3.07445313 -11.1875 3.0625 C-7.38236939 1.09432899 -4.31111928 -0.07067409 0 0 Z " fill="#A41029" transform="translate(75.1875,97.9375)"/>
<path d="M0 0 C0.66 0.33 1.32 0.66 2 1 C1.67 1.66 1.34 2.32 1 3 C1.66 2.34 2.32 1.68 3 1 C3.66 0.67 4.32 0.34 5 0 C4.67 1.98 4.34 3.96 4 6 C2.35 6.33 0.7 6.66 -1 7 C-0.67 6.34 -0.34 5.68 0 5 C-0.33 4.67 -0.66 4.34 -1 4 C-0.5625 1.9375 -0.5625 1.9375 0 0 Z " fill="#2B6BBD" transform="translate(134,110)"/>
<path d="M0 0 C1.32 0 2.64 0 4 0 C3.67 1.65 3.34 3.3 3 5 C1.68 5 0.36 5 -1 5 C-0.67 3.35 -0.34 1.7 0 0 Z " fill="#467DC6" transform="translate(114,109)"/>
<path d="M0 0 C1.67542976 0.28604898 3.34385343 0.61781233 5 1 C4.67 2.65 4.34 4.3 4 6 C3.34 6 2.68 6 2 6 C1.67 5.34 1.34 4.68 1 4 C0.34 4.66 -0.32 5.32 -1 6 C-1.042721 4.33388095 -1.04063832 2.66617115 -1 1 C-0.67 0.67 -0.34 0.34 0 0 Z " fill="#477EC5" transform="translate(51,108)"/>
<path d="M0 0 C1.65 0 3.3 0 5 0 C5.625 2.3125 5.625 2.3125 6 5 C5.01 6.485 5.01 6.485 4 8 C3.01 7.67 2.02 7.34 1 7 C1.20625 6.21625 1.4125 5.4325 1.625 4.625 C1.74875 3.75875 1.8725 2.8925 2 2 C1.34 1.34 0.68 0.68 0 0 Z " fill="#BFCFE9" transform="translate(144,106)"/>
<path d="M0 0 C0.66 0 1.32 0 2 0 C2 0.99 2 1.98 2 3 C2.66 3 3.32 3 4 3 C4 2.01 4 1.02 4 0 C4.66 0.33 5.32 0.66 6 1 C5.34 2.32 4.68 3.64 4 5 C2.35 5 0.7 5 -1 5 C-0.67 3.35 -0.34 1.7 0 0 Z " fill="#497FC6" transform="translate(157,109)"/>
<path d="M0 0 C1.65 0 3.3 0 5 0 C5 0.66 5 1.32 5 2 C4.01 2 3.02 2 2 2 C2 2.66 2 3.32 2 4 C2.66 4.33 3.32 4.66 4 5 C2.68 5 1.36 5 0 5 C-0.33 5.99 -0.66 6.98 -1 8 C-0.67 5.36 -0.34 2.72 0 0 Z " fill="#296ABE" transform="translate(167,109)"/>
<path d="M0 0 C1.98 0.495 1.98 0.495 4 1 C3.34 1 2.68 1 2 1 C2 1.66 2 2.32 2 3 C2.66 3.33 3.32 3.66 4 4 C3.01 4 2.02 4 1 4 C1 4.66 1 5.32 1 6 C1.66 6.33 2.32 6.66 3 7 C1.68 7 0.36 7 -1 7 C-0.67 4.69 -0.34 2.38 0 0 Z " fill="#2B6BBE" transform="translate(144,107)"/>
<path d="M0 0 C1.65 0 3.3 0 5 0 C4.67 1.65 4.34 3.3 4 5 C3.34 5 2.68 5 2 5 C1.67 4.67 1.34 4.34 1 4 C0.01 4.495 0.01 4.495 -1 5 C-0.67 3.35 -0.34 1.7 0 0 Z " fill="#4478C3" transform="translate(127,109)"/>
<path d="M0 0 C2.0625 0.4375 2.0625 0.4375 4 1 C4 1.66 4 2.32 4 3 C3.34 3.66 2.68 4.32 2 5 C0.68 5 -0.64 5 -2 5 C-1.125 1.125 -1.125 1.125 0 0 Z " fill="#3E7AC4" transform="translate(186,109)"/>
<path d="M0 0 C1.65 0 3.3 0 5 0 C4.67 1.65 4.34 3.3 4 5 C3.67 4.01 3.34 3.02 3 2 C2.34 2 1.68 2 1 2 C0.67 2.99 0.34 3.98 0 5 C-0.33 4.01 -0.66 3.02 -1 2 C-0.67 1.34 -0.34 0.68 0 0 Z " fill="#316CBE" transform="translate(58,109)"/>
<path d="M0 0 C1.65 0 3.3 0 5 0 C4.67 1.65 4.34 3.3 4 5 C3.67 4.01 3.34 3.02 3 2 C2.34 2 1.68 2 1 2 C0.67 2.99 0.34 3.98 0 5 C-0.33 4.01 -0.66 3.02 -1 2 C-0.67 1.34 -0.34 0.68 0 0 Z " fill="#346FBF" transform="translate(192,109)"/>
<path d="M0 0 C1.0625 1.875 1.0625 1.875 2 4 C0.74821404 6.50357192 -0.99981158 8.06433379 -3 10 C-2.49287967 6.28111761 -1.88391785 3.26545761 0 0 Z " fill="#F3D7D7" transform="translate(105,84)"/>
<path d="M0 0 C0.66 0 1.32 0 2 0 C1.625 2.4375 1.625 2.4375 1 5 C0.01 5.495 0.01 5.495 -1 6 C-1 5.34 -1 4.68 -1 4 C-1.99 4 -2.98 4 -4 4 C-3.67 3.01 -3.34 2.02 -3 1 C-3 1.66 -3 2.32 -3 3 C-2.01 3 -1.02 3 0 3 C0 2.01 0 1.02 0 0 Z " fill="#2168BD" transform="translate(68,110)"/>
<path d="M0 0 C0.99 0 1.98 0 3 0 C3.33 0.99 3.66 1.98 4 3 C3.34 3.66 2.68 4.32 2 5 C1.01 4.67 0.02 4.34 -1 4 C-0.67 2.68 -0.34 1.36 0 0 Z " fill="#EAF1F9" transform="translate(102,108)"/>
<path d="M0 0 C1.65 0 3.3 0 5 0 C4.67 1.65 4.34 3.3 4 5 C3.67 4.01 3.34 3.02 3 2 C1.68 2.99 0.36 3.98 -1 5 C-0.67 3.35 -0.34 1.7 0 0 Z " fill="#326CBE" transform="translate(82,109)"/>
<path d="M0 0 C0.66 0 1.32 0 2 0 C2.66 1.65 3.32 3.3 4 5 C2.35 5 0.7 5 -1 5 C-0.67 3.35 -0.34 1.7 0 0 Z " fill="#E7ACAC" transform="translate(123,83)"/>
<path d="M0 0 C0.33 0 0.66 0 1 0 C1.75 2.75 1.75 2.75 2 6 C0.1875 8.375 0.1875 8.375 -2 10 C-2.66 10 -3.32 10 -4 10 C-3.67 9.01 -3.34 8.02 -3 7 C-2.34 6.67 -1.68 6.34 -1 6 C-0.34227572 2.97065509 -0.34227572 2.97065509 0 0 Z " fill="#ECBFBF" transform="translate(202,79)"/>
</svg>
