<?xml version="1.0" encoding="UTF-8"?>
<svg version="1.1" xmlns="http://www.w3.org/2000/svg" width="204" height="192">
<path d="M0 0 C67.32 0 134.64 0 204 0 C204 63.36 204 126.72 204 192 C136.68 192 69.36 192 0 192 C0 128.64 0 65.28 0 0 Z " fill="#FEFDFD" transform="translate(0,0)"/>
<path d="M0 0 C0.84820312 0.31710938 1.69640625 0.63421875 2.5703125 0.9609375 C6.09477225 2.02871232 9.20670957 2.40041079 12.875 2.625 C14.60363281 2.73714844 14.60363281 2.73714844 16.3671875 2.8515625 C17.67042969 2.92503906 17.67042969 2.92503906 19 3 C18.67 3.99 18.34 4.98 18 6 C16.68 6 15.36 6 14 6 C14.33 6.804375 14.66 7.60875 15 8.4375 C16.58586562 14.08714627 16.85816114 18.89360446 14.625 24.375 C13.45089946 26.27162394 12.23732894 28.14400659 11 30 C10.34 30 9.68 30 9 30 C9 30.66 9 31.32 9 32 C8.360625 32.103125 7.72125 32.20625 7.0625 32.3125 C6.381875 32.539375 5.70125 32.76625 5 33 C4.67 33.99 4.34 34.98 4 36 C1.03 35.67 -1.94 35.34 -5 35 C-5.33 35.99 -5.66 36.98 -6 38 C-6.99 37.67 -7.98 37.34 -9 37 C-9 36.34 -9 35.68 -9 35 C-9.66 35 -10.32 35 -11 35 C-11.433125 33.783125 -11.86625 32.56625 -12.3125 31.3125 C-13.56079535 27.95399109 -15.11477808 25.05226406 -17 22 C-17 21.34 -17 20.68 -17 20 C-4.625 19.505 -4.625 19.505 8 19 C8 16.69 8 14.38 8 12 C8.28520405 10.32442621 8.59955696 8.65182755 9 7 C5.35930335 8.73607666 5.35930335 8.73607666 3.1875 11.9375 C3.00445487 13.95099648 3 15.9782004 3 18 C1.68 18 0.36 18 -1 18 C-1.33 16.02 -1.66 14.04 -2 12 C-2.66 12 -3.32 12 -4 12 C-4 13.65 -4 15.3 -4 17 C-5.32 17.33 -6.64 17.66 -8 18 C-8.37851209 12.06997733 -7.10575375 7.52760359 -5 2 C-3.35 1.67 -1.7 1.34 0 1 C0 0.67 0 0.34 0 0 Z " fill="#F6C3AF" transform="translate(157,77)"/>
<path d="M0 0 C67.32 0 134.64 0 204 0 C204 0.99 204 1.98 204 3 C136.68 3 69.36 3 0 3 C0 2.01 0 1.02 0 0 Z " fill="#0A0A0A" transform="translate(0,189)"/>
<path d="M0 0 C1.27270752 0.2688501 2.54541504 0.5377002 3.85668945 0.81469727 C10.42566793 2.29818969 10.42566793 2.29818969 12.9375 3.125 C13.4325 4.115 13.4325 4.115 13.9375 5.125 C7.71422674 4.6063939 1.95716123 3.47721172 -4.0703125 1.84375 C-12.27058961 -0.12602936 -20.36723281 -0.05840085 -28.75 -0.0625 C-30.6980957 -0.08086914 -30.6980957 -0.08086914 -32.68554688 -0.09960938 C-43.64371174 -0.11612092 -54.06431766 0.87792892 -64.375 4.75 C-65.05578613 5.00434814 -65.73657227 5.25869629 -66.43798828 5.52075195 C-72.12964479 7.82086127 -75.74765025 10.90800492 -79.0625 16.125 C-79.7225 17.115 -80.3825 18.105 -81.0625 19.125 C-82.05200797 26.06197164 -81.56830595 32.10084305 -77.7265625 38.03515625 C-71.54009478 45.80454646 -64.03622122 50.11643417 -55.0625 54.125 C-55.4375 56.5625 -55.4375 56.5625 -56.0625 59.125 C-57.0525 59.62 -57.0525 59.62 -58.0625 60.125 C-68.95559185 54.6319024 -78.00081116 46.69817529 -84.0625 36.125 C-84.43503906 35.48304687 -84.80757812 34.84109375 -85.19140625 34.1796875 C-86.98278156 29.95429103 -86.73685746 25.59705472 -86.0625 21.125 C-82.09240578 11.43249411 -75.39610427 6.30990672 -65.9921875 2.2578125 C-45.24025715 -5.76626723 -21.42418064 -4.53777789 0 0 Z " fill="#EB681E" transform="translate(114.0625,59.875)"/>
<path d="M0 0 C0.84820312 0.31710938 1.69640625 0.63421875 2.5703125 0.9609375 C6.09477225 2.02871232 9.20670957 2.40041079 12.875 2.625 C14.60363281 2.73714844 14.60363281 2.73714844 16.3671875 2.8515625 C17.67042969 2.92503906 17.67042969 2.92503906 19 3 C18.67 3.99 18.34 4.98 18 6 C16.68 6 15.36 6 14 6 C13.86722656 6.62648438 13.73445313 7.25296875 13.59765625 7.8984375 C13.33275391 9.12433594 13.33275391 9.12433594 13.0625 10.375 C12.80146484 11.59316406 12.80146484 11.59316406 12.53515625 12.8359375 C12 15 12 15 11 17 C10.34 17 9.68 17 9 17 C9 13.7 9 10.4 9 7 C5.35930335 8.73607666 5.35930335 8.73607666 3.1875 11.9375 C3.00445487 13.95099648 3 15.9782004 3 18 C1.68 18 0.36 18 -1 18 C-1.33 16.02 -1.66 14.04 -2 12 C-2.66 12 -3.32 12 -4 12 C-4 13.65 -4 15.3 -4 17 C-5.32 17.33 -6.64 17.66 -8 18 C-8.37851209 12.06997733 -7.10575375 7.52760359 -5 2 C-3.35 1.67 -1.7 1.34 0 1 C0 0.67 0 0.34 0 0 Z " fill="#CDBD9C" transform="translate(157,77)"/>
<path d="M0 0 C2.375 0.1875 2.375 0.1875 5 1 C6.3125 3.5625 6.3125 3.5625 7 6 C7.99 4.02 8.98 2.04 10 0 C11.32 0 12.64 0 14 0 C13.52396226 2.12570312 13.04407402 4.25054427 12.5625 6.375 C12.29566406 7.55835937 12.02882813 8.74171875 11.75390625 9.9609375 C11 13 11 13 10 15 C8.35 14.67 6.7 14.34 5 14 C4.67 12.02 4.34 10.04 4 8 C3.34 8 2.68 8 2 8 C1.67 10.31 1.34 12.62 1 15 C-0.65 15 -2.3 15 -4 15 C-2.07289294 4.44191344 -2.07289294 4.44191344 0 0 Z " fill="#508A2B" transform="translate(100,80)"/>
<path d="M0 0 C9.625 -0.25 9.625 -0.25 13 2 C13.4375 4.375 13.4375 4.375 13 7 C11.66666667 8.33333333 10.33333333 9.66666667 9 11 C9.13641377 13.21858253 9.13641377 13.21858253 10 15 C8.35 14.67 6.7 14.34 5 14 C4.67 13.01 4.34 12.02 4 11 C3.34 11 2.68 11 2 11 C1.67 12.32 1.34 13.64 1 15 C-0.32 15 -1.64 15 -3 15 C-2.01 10.05 -1.02 5.1 0 0 Z " fill="#4A8723" transform="translate(54,80)"/>
<path d="M0 0 C1.27270752 0.2688501 2.54541504 0.5377002 3.85668945 0.81469727 C10.42566793 2.29818969 10.42566793 2.29818969 12.9375 3.125 C13.4325 4.115 13.4325 4.115 13.9375 5.125 C7.71422674 4.6063939 1.95716123 3.47721172 -4.0703125 1.84375 C-12.27058961 -0.12602936 -20.36723281 -0.05840085 -28.75 -0.0625 C-30.6980957 -0.08086914 -30.6980957 -0.08086914 -32.68554688 -0.09960938 C-44.37675256 -0.11722546 -54.97278566 1.44478507 -66.0625 5.125 C-66.0625 4.135 -66.0625 3.145 -66.0625 2.125 C-63.94099937 1.46776277 -61.81505686 0.82485978 -59.6875 0.1875 C-58.50414062 -0.17214844 -57.32078125 -0.53179687 -56.1015625 -0.90234375 C-38.14662012 -5.66736983 -17.93585473 -3.79892825 0 0 Z " fill="#EF8957" transform="translate(114.0625,59.875)"/>
<path d="M0 0 C2.375 0.3125 2.375 0.3125 5 1 C5.66 1.99 6.32 2.98 7 4 C7.598125 3.34 8.19625 2.68 8.8125 2 C11 0 11 0 14 0 C13 5 12 10 11 15 C10.01 15 9.02 15 8 15 C8 13.02 8 11.04 8 9 C7.67 9.66 7.34 10.32 7 11 C5.68 11 4.36 11 3 11 C3 10.34 3 9.68 3 9 C2.34 9 1.68 9 1 9 C0.67 10.98 0.34 12.96 0 15 C-0.99 15 -1.98 15 -3 15 C-2.69163768 12.87439563 -2.37818386 10.74952935 -2.0625 8.625 C-1.88847656 7.44164063 -1.71445313 6.25828125 -1.53515625 5.0390625 C-1 2 -1 2 0 0 Z " fill="#4D8927" transform="translate(121,80)"/>
<path d="M0 0 C0 1.32 0 2.64 0 4 C-1.299375 3.979375 -2.59875 3.95875 -3.9375 3.9375 C-5.29165633 3.91600546 -6.64756083 3.92851801 -8 4 C-9.35618499 5.12534105 -9.35618499 5.12534105 -9.0625 8.0625 C-9.041875 9.031875 -9.02125 10.00125 -9 11 C-7.68 11.33 -6.36 11.66 -5 12 C-5 11.01 -5 10.02 -5 9 C-5.66 9 -6.32 9 -7 9 C-7 8.01 -7 7.02 -7 6 C-4.69 6 -2.38 6 0 6 C-0.75 12.75 -0.75 12.75 -3 15 C-5.09375 15.30078125 -5.09375 15.30078125 -7.5 15.3125 C-8.2940625 15.32925781 -9.088125 15.34601563 -9.90625 15.36328125 C-10.5971875 15.24339844 -11.288125 15.12351562 -12 15 C-14.4677205 11.29841925 -14.65647105 8.29297513 -14 4 C-10.9733152 -1.50306327 -5.53719757 -0.38041815 0 0 Z " fill="#45841D" transform="translate(50,80)"/>
<path d="M0 0 C3.96 0 7.92 0 12 0 C12 0.99 12 1.98 12 3 C9.03 3 6.06 3 3 3 C3 3.99 3 4.98 3 6 C5.31 6 7.62 6 10 6 C9.67 6.99 9.34 7.98 9 9 C6.36 9 3.72 9 1 9 C1 9.99 1 10.98 1 12 C3.64 12 6.28 12 9 12 C9 12.99 9 13.98 9 15 C4.71 15 0.42 15 -4 15 C-3.52396226 12.87429688 -3.04407402 10.74945573 -2.5625 8.625 C-2.29566406 7.44164063 -2.02882813 6.25828125 -1.75390625 5.0390625 C-1 2 -1 2 0 0 Z " fill="#46841D" transform="translate(85,80)"/>
<path d="M0 0 C0.66 0.33 1.32 0.66 2 1 C2.4474152 8.45691994 1.19095758 12.71356363 -3 19 C-3.66 19 -4.32 19 -5 19 C-5 19.66 -5 20.32 -5 21 C-5.639375 21.103125 -6.27875 21.20625 -6.9375 21.3125 C-7.618125 21.539375 -8.29875 21.76625 -9 22 C-9.33 22.99 -9.66 23.98 -10 25 C-12.97 24.67 -15.94 24.34 -19 24 C-19.33 24.99 -19.66 25.98 -20 27 C-20.99 26.67 -21.98 26.34 -23 26 C-23 25.34 -23 24.68 -23 24 C-23.66 24 -24.32 24 -25 24 C-25 23.01 -25 22.02 -25 21 C-16.585 20.505 -16.585 20.505 -8 20 C-8 18.68 -8 17.36 -8 16 C-9.32 15.67 -10.64 15.34 -12 15 C-10.68 15 -9.36 15 -8 15 C-8 14.34 -8 13.68 -8 13 C-8.99 12.67 -9.98 12.34 -11 12 C-9.68 12 -8.36 12 -7 12 C-6.67 11.34 -6.34 10.68 -6 10 C-6 11.32 -6 12.64 -6 14 C-5.34 14.33 -4.68 14.66 -4 15 C-0.56227273 11.56227273 -0.02872226 7.89039016 0.125 3.125 C0.08375 2.09375 0.0425 1.0625 0 0 Z " fill="#EB6720" transform="translate(171,88)"/>
<path d="M0 0 C5.28 0 10.56 0 16 0 C15.67 0.66 15.34 1.32 15 2 C14.01 2 13.02 2 12 2 C12.33 3.98 12.66 5.96 13 8 C12.34 8 11.68 8 11 8 C11 7.01 11 6.02 11 5 C9.35 5 7.7 5 6 5 C6 4.34 6 3.68 6 3 C5.01 2.67 4.02 2.34 3 2 C3.33 3.32 3.66 4.64 4 6 C4.66 6 5.32 6 6 6 C6 6.99 6 7.98 6 9 C6.33 8.01 6.66 7.02 7 6 C7.66 6 8.32 6 9 6 C9 6.99 9 7.98 9 9 C12.3 9 15.6 9 19 9 C19 8.34 19 7.68 19 7 C20.32 7 21.64 7 23 7 C23 8.32 23 9.64 23 11 C17.40456084 12.59674727 11.7123444 13.25289338 6 12 C3.03357749 9.06541745 1.40331005 5.90876316 0 2 C0 1.34 0 0.68 0 0 Z " fill="#F3AB8C" transform="translate(140,97)"/>
<path d="M0 0 C3.96 0 7.92 0 12 0 C12 0.99 12 1.98 12 3 C9.03 3 6.06 3 3 3 C3 3.99 3 4.98 3 6 C5.31 6 7.62 6 10 6 C10 6.99 10 7.98 10 9 C6.92382812 9.29296875 6.92382812 9.29296875 3.84765625 9.5859375 C3.23792969 9.72257812 2.62820312 9.85921875 2 10 C1.67 10.66 1.34 11.32 1 12 C3.64 12 6.28 12 9 12 C9 12.99 9 13.98 9 15 C5.04 15 1.08 15 -3 15 C-1.125 4.5 -1.125 4.5 0 0 Z " fill="#47851E" transform="translate(70,80)"/>
<path d="M0 0 C1.32 0 2.64 0 4 0 C5.32286246 4.96073422 5.08893197 9.91111512 5 15 C3.68 15 2.36 15 1 15 C1 14.34 1 13.68 1 13 C-1.97 13.66 -4.94 14.32 -8 15 C-6.58104674 9.46608227 -3.90291763 4.20170558 0 0 Z " fill="#77A35D" transform="translate(142,80)"/>
<path d="M0 0 C1.12758089 3.38274266 0.81750262 4.76778223 0.0625 8.1875 C-0.13214844 9.08855469 -0.32679688 9.98960938 -0.52734375 10.91796875 C-0.68332031 11.60503906 -0.83929688 12.29210937 -1 13 C-0.01 13.33 0.98 13.66 2 14 C-0.66673742 14.02727345 -3.33318869 14.04696948 -6 14.0625 C-7.11568359 14.07506836 -7.11568359 14.07506836 -8.25390625 14.08789062 C-13.26148844 14.10966272 -18.04279032 13.71541549 -23 13 C-22.360625 12.896875 -21.72125 12.79375 -21.0625 12.6875 C-20.0415625 12.3471875 -20.0415625 12.3471875 -19 12 C-18.67 11.01 -18.34 10.02 -18 9 C-17.67 9.99 -17.34 10.98 -17 12 C-16.01 11.67 -15.02 11.34 -14 11 C-13.67 9.35 -13.34 7.7 -13 6 C-12.34 6 -11.68 6 -11 6 C-10.67 7.98 -10.34 9.96 -10 12 C-8.68 12 -7.36 12 -6 12 C-6.2475 10.9275 -6.495 9.855 -6.75 8.75 C-7 5 -7 5 -5.25 2.625 C-3 1 -3 1 0 0 Z " fill="#F3F6F1" transform="translate(166,83)"/>
<path d="M0 0 C3.375 -0.125 3.375 -0.125 7 0 C7.66 0.66 8.32 1.32 9 2 C8.67983624 4.43324458 8.0823356 6.6981028 7.4375 9.0625 C6.85315942 11.31924716 6.85315942 11.31924716 7 15 C5.68 15 4.36 15 3 15 C2.67 13.02 2.34 11.04 2 9 C1.34 9 0.68 9 0 9 C0 10.65 0 12.3 0 14 C-1.32 14.33 -2.64 14.66 -4 15 C-4.125 8.375 -4.125 8.375 -3 5 C-2.34 5 -1.68 5 -1 5 C-0.67 4.34 -0.34 3.68 0 3 C0.33 4.32 0.66 5.64 1 7 C2.32 6.34 3.64 5.68 5 5 C5 4.34 5 3.68 5 3 C2.525 2.01 2.525 2.01 0 1 C0 0.67 0 0.34 0 0 Z " fill="#4C8827" transform="translate(153,80)"/>
<path d="M0 0 C0 0.66 0 1.32 0 2 C-1.57421875 3.078125 -1.57421875 3.078125 -3.6875 4.25 C-8.84567679 7.33577656 -11.66907113 11.00360669 -15 16 C-15.334421 18.77273108 -15.44093414 21.51892246 -15.55859375 24.30859375 C-16.05359883 27.32681058 -16.99394137 28.73716586 -19 31 C-21.01511634 26.96976731 -20.59292711 22.37071981 -20 18 C-16.86048887 10.28701418 -9.30491833 0 0 0 Z " fill="#EC6B25" transform="translate(48,63)"/>
<path d="M0 0 C3.96 0 7.92 0 12 0 C13.19431563 6.18872644 13.05928533 9.44796366 10 15 C9.01 15.495 9.01 15.495 8 16 C8 15.01 8 14.02 8 13 C5.36 13 2.72 13 0 13 C0.33 12.01 0.66 11.02 1 10 C3.64 10 6.28 10 9 10 C9 9.01 9 8.02 9 7 C6.69 7 4.38 7 2 7 C2 6.01 2 5.02 2 4 C4.97 4 7.94 4 11 4 C11 3.01 11 2.02 11 1 C7.37 1 3.74 1 0 1 C0 0.67 0 0.34 0 0 Z " fill="#D6E2D0" transform="translate(71,79)"/>
<path d="M0 0 C0.99 0 1.98 0 3 0 C2.52229477 1.93786085 2.04278429 3.87527674 1.5625 5.8125 C1.29566406 6.89144531 1.02882813 7.97039062 0.75390625 9.08203125 C0.23922588 11.0740843 -0.34937175 13.04811524 -1 15 C0.32 15.33 1.64 15.66 3 16 C1.35 16 -0.3 16 -2 16 C-2.33 14.68 -2.66 13.36 -3 12 C-5.64 12 -8.28 12 -11 12 C-11 11.01 -11 10.02 -11 9 C-8.36 9 -5.72 9 -3 9 C-3 8.34 -3 7.68 -3 7 C-5.97 6.505 -5.97 6.505 -9 6 C-9 5.01 -9 4.02 -9 3 C-6.03 3 -3.06 3 0 3 C0 2.01 0 1.02 0 0 Z " fill="#E0E8DB" transform="translate(97,80)"/>
<path d="M0 0 C0.99 0.33 1.98 0.66 3 1 C2.25 8.625 2.25 8.625 0 12 C-0.66 11.67 -1.32 11.34 -2 11 C-1.67 9.02 -1.34 7.04 -1 5 C-3.31 5 -5.62 5 -8 5 C-8 5.99 -8 6.98 -8 8 C-7.34 8 -6.68 8 -6 8 C-6 8.99 -6 9.98 -6 11 C-7.65 10.67 -9.3 10.34 -11 10 C-11.125 7.125 -11.125 7.125 -11 4 C-9 2 -9 2 -7.0546875 1.8046875 C-5.03645833 1.86979167 -3.01822917 1.93489583 -1 2 C-0.67 1.34 -0.34 0.68 0 0 Z " fill="#E8EEE5" transform="translate(51,81)"/>
<path d="M0 0 C0.33 0 0.66 0 1 0 C1.25 2.25 1.25 2.25 1 5 C-0.33333333 6.33333333 -1.66666667 7.66666667 -3 9 C-2.86358623 11.21858253 -2.86358623 11.21858253 -2 13 C-4.3125 12.875 -4.3125 12.875 -7 12 C-8.9375 9.25 -8.9375 9.25 -10 6 C-9.1875 3.125 -9.1875 3.125 -8 1 C-3.25 1.875 -3.25 1.875 -1 3 C-0.67 2.01 -0.34 1.02 0 0 Z " fill="#4E8929" transform="translate(66,82)"/>
<path d="M0 0 C3.63 0 7.26 0 11 0 C10.67 0.99 10.34 1.98 10 3 C8.68 3 7.36 3 6 3 C5.86722656 3.62648438 5.73445312 4.25296875 5.59765625 4.8984375 C5.33275391 6.12433594 5.33275391 6.12433594 5.0625 7.375 C4.88847656 8.18710938 4.71445313 8.99921875 4.53515625 9.8359375 C4 12 4 12 3 14 C2.34 14 1.68 14 1 14 C1.33 10.37 1.66 6.74 2 3 C1.34 3 0.68 3 0 3 C0 2.01 0 1.02 0 0 Z " fill="#498620" transform="translate(165,80)"/>
<path d="M0 0 C0.66 0.33 1.32 0.66 2 1 C2.4474152 8.45691994 1.19095758 12.71356363 -3 19 C-3.66 19 -4.32 19 -5 19 C-5 19.66 -5 20.32 -5 21 C-5.66 20.67 -6.32 20.34 -7 20 C-7.625 17.9375 -7.625 17.9375 -8 16 C-9.32 15.67 -10.64 15.34 -12 15 C-10.68 15 -9.36 15 -8 15 C-8 14.34 -8 13.68 -8 13 C-8.99 12.67 -9.98 12.34 -11 12 C-9.68 12 -8.36 12 -7 12 C-6.67 11.34 -6.34 10.68 -6 10 C-6 11.32 -6 12.64 -6 14 C-5.34 14.33 -4.68 14.66 -4 15 C-0.56227273 11.56227273 -0.02872226 7.89039016 0.125 3.125 C0.063125 1.578125 0.063125 1.578125 0 0 Z " fill="#EF8754" transform="translate(171,88)"/>
<path d="M0 0 C-1 5 -2 10 -3 15 C-3.99 15 -4.98 15 -6 15 C-5.125 9.25 -5.125 9.25 -4 7 C-4.99 7 -5.98 7 -7 7 C-6.22006468 2.47637516 -4.81844319 0 0 0 Z " fill="#47851E" transform="translate(135,80)"/>
<path d="M0 0 C0.90492187 0.02320312 1.80984375 0.04640625 2.7421875 0.0703125 C4.10730469 0.09738281 4.10730469 0.09738281 5.5 0.125 C6.19867188 0.14820312 6.89734375 0.17140625 7.6171875 0.1953125 C7.6171875 1.5153125 7.6171875 2.8353125 7.6171875 4.1953125 C4.9771875 4.1953125 2.3371875 4.1953125 -0.3828125 4.1953125 C-1.0428125 6.1753125 -1.7028125 8.1553125 -2.3828125 10.1953125 C-3.7028125 8.8753125 -5.0228125 7.5553125 -6.3828125 6.1953125 C-3.63053977 0.29758523 -3.63053977 0.29758523 0 0 Z " fill="#488620" transform="translate(42.3828125,79.8046875)"/>
<path d="M0 0 C1.25541557 3.76624671 0.37061958 5.37188934 -1 9 C2.96 9 6.92 9 11 9 C11 9.33 11 9.66 11 10 C4.73 10 -1.54 10 -8 10 C-6.68 9.67 -5.36 9.34 -4 9 C-4.66 7.35 -5.32 5.7 -6 4 C-4.02 2.68 -2.04 1.36 0 0 Z " fill="#D5E1CF" transform="translate(68,86)"/>
<path d="M0 0 C2.31 0 4.62 0 7 0 C5.68 0.33 4.36 0.66 3 1 C3 1.66 3 2.32 3 3 C4.65 3 6.3 3 8 3 C8 3.99 8 4.98 8 6 C8.66 6 9.32 6 10 6 C9.67 4.02 9.34 2.04 9 0 C9.99 0 10.98 0 12 0 C12 2.31 12 4.62 12 7 C10.02 7 8.04 7 6 7 C6 6.01 6 5.02 6 4 C5.34 4 4.68 4 4 4 C4.33 4.99 4.66 5.98 5 7 C4.34 7 3.68 7 3 7 C3 6.01 3 5.02 3 4 C2.34 4 1.68 4 1 4 C0.67 2.68 0.34 1.36 0 0 Z " fill="#FADFD4" transform="translate(143,99)"/>
<path d="M0 0 C0.99 0 1.98 0 3 0 C3.125 3.375 3.125 3.375 3 7 C2.34 7.66 1.68 8.32 1 9 C0.67 8.34 0.34 7.68 0 7 C-0.33 7.66 -0.66 8.32 -1 9 C-0.34 9.33 0.32 9.66 1 10 C1 10.66 1 11.32 1 12 C-0.65 12 -2.3 12 -4 12 C-3.71640113 10.5608866 -3.42278601 9.12374482 -3.125 7.6875 C-2.96257812 6.88699219 -2.80015625 6.08648437 -2.6328125 5.26171875 C-2 3 -2 3 0 0 Z " fill="#3E8115" transform="translate(142,80)"/>
<path d="M0 0 C1.485 0.99 1.485 0.99 3 2 C3.81490438 6.13843596 3.63235128 9.91973323 1.5 13.5625 C1.005 14.036875 0.51 14.51125 0 15 C-1.30459914 12.39080172 -1.1326594 10.41057385 -1.125 7.5 C-1.12757812 6.5203125 -1.13015625 5.540625 -1.1328125 4.53125 C-1 2 -1 2 0 0 Z " fill="#ED7839" transform="translate(29,79)"/>
<path d="M0 0 C0.66 0.33 1.32 0.66 2 1 C2.625 3.5625 2.625 3.5625 3 6 C2.34 6 1.68 6 1 6 C1 7.65 1 9.3 1 11 C-0.32 11.33 -1.64 11.66 -3 12 C-3.125 5.375 -3.125 5.375 -2 2 C-1.34 2 -0.68 2 0 2 C0 1.34 0 0.68 0 0 Z " fill="#3F8113" transform="translate(152,83)"/>
<path d="M0 0 C0.66 0 1.32 0 2 0 C2.33 2.31 2.66 4.62 3 7 C4.32 7.33 5.64 7.66 7 8 C1.22240116 8.12036664 -4.27959989 7.8320582 -10 7 C-9.360625 6.896875 -8.72125 6.79375 -8.0625 6.6875 C-7.381875 6.460625 -6.70125 6.23375 -6 6 C-5.67 5.01 -5.34 4.02 -5 3 C-4.67 3.99 -4.34 4.98 -4 6 C-3.01 5.67 -2.02 5.34 -1 5 C-0.67 3.35 -0.34 1.7 0 0 Z " fill="#E7EEE4" transform="translate(153,89)"/>
<path d="M0 0 C2.4294516 3.6441774 2.16179575 5.71241272 2 10 C0.1875 11.0625 0.1875 11.0625 -2 12 C-2.99 11.67 -3.98 11.34 -5 11 C-5.25 4.375 -5.25 4.375 -3 1 C-3.33 3.64 -3.66 6.28 -4 9 C-3.34 9 -2.68 9 -2 9 C-1.34 6.03 -0.68 3.06 0 0 Z " fill="#CAD4BA" transform="translate(170,85)"/>
<path d="M0 0 C0.33 0 0.66 0 1 0 C1.1875 3.375 1.1875 3.375 1 7 C0.01 7.66 -0.98 8.32 -2 9 C-2 8.01 -2 7.02 -2 6 C-4.64 6 -7.28 6 -10 6 C-9.67 5.01 -9.34 4.02 -9 3 C-6.36 3 -3.72 3 -1 3 C-0.67 2.01 -0.34 1.02 0 0 Z " fill="#E5ECE1" transform="translate(81,86)"/>
<path d="M0 0 C-0.6875 2.875 -0.6875 2.875 -2 6 C-4.625 7.375 -4.625 7.375 -7 8 C-6.67 7.01 -6.34 6.02 -6 5 C-6.33 4.01 -6.66 3.02 -7 2 C-7.99 2 -8.98 2 -10 2 C-10 1.34 -10 0.68 -10 0 C-2.25 -1.125 -2.25 -1.125 0 0 Z " fill="#F5BBA5" transform="translate(171,97)"/>
<path d="M0 0 C2.31 0 4.62 0 7 0 C6.74438677 2.3431213 6.40729228 4.67843403 6 7 C5.01 7.495 5.01 7.495 4 8 C3.34 7.67 2.68 7.34 2 7 C2 5.68 2 4.36 2 3 C1.34 3 0.68 3 0 3 C0 2.01 0 1.02 0 0 Z " fill="#518B2C" transform="translate(43,86)"/>
<path d="M0 0 C0.99 0.33 1.98 0.66 3 1 C2.25 8.625 2.25 8.625 0 12 C-0.66 11.67 -1.32 11.34 -2 11 C-1.67 9.02 -1.34 7.04 -1 5 C-1.66 5 -2.32 5 -3 5 C-3 3 -3 3 -1.5 1.375 C-1.005 0.92125 -0.51 0.4675 0 0 Z " fill="#DBE6D6" transform="translate(51,81)"/>
<path d="M0 0 C3.96 0 7.92 0 12 0 C12 0.99 12 1.98 12 3 C7.71 3 3.42 3 -1 3 C-0.67 2.01 -0.34 1.02 0 0 Z " fill="#508B2D" transform="translate(82,92)"/>
<path d="M0 0 C0.99 0 1.98 0 3 0 C3 2.64 3 5.28 3 8 C1.35 8 -0.3 8 -2 8 C-1.125 2.25 -1.125 2.25 0 0 Z " fill="#568F32" transform="translate(98,87)"/>
<path d="M0 0 C0 0.99 0 1.98 0 3 C-3.96 3 -7.92 3 -12 3 C-12 2.34 -12 1.68 -12 1 C-8.0186217 -0.3271261 -4.14954773 -0.06915913 0 0 Z " fill="#4A8725" transform="translate(79,92)"/>
<path d="M0 0 C3.465 1.485 3.465 1.485 7 3 C6.34 4.32 5.68 5.64 5 7 C4.01 7 3.02 7 2 7 C1.67 6.01 1.34 5.02 1 4 C0.01 4.495 0.01 4.495 -1 5 C-0.67 3.35 -0.34 1.7 0 0 Z " fill="#91B47C" transform="translate(152,80)"/>
<path d="M0 0 C4.67948398 -0.27771418 7.67583336 0.45162603 11.875 2.5 C13.32519531 3.19609375 13.32519531 3.19609375 14.8046875 3.90625 C15.52914062 4.2671875 16.25359375 4.628125 17 5 C13.01754349 6.3274855 10.55210457 4.99907829 6.8125 3.5625 C5.83120117 3.19801758 5.83120117 3.19801758 4.83007812 2.82617188 C3.21696714 2.2256707 1.6080565 1.61390797 0 1 C0 0.67 0 0.34 0 0 Z " fill="#F3AB8C" transform="translate(128,65)"/>
<path d="M0 0 C0.66 0.33 1.32 0.66 2 1 C2.34649648 6.77494139 2.29726646 10.99303982 -1 16 C-1.99 16.66 -2.98 17.32 -4 18 C-3.71125 17.29875 -3.4225 16.5975 -3.125 15.875 C-2.75375 14.92625 -2.3825 13.9775 -2 13 C-1.62875 12.05125 -1.2575 11.1025 -0.875 10.125 C0.10364538 6.62983793 0.14449539 3.61238469 0 0 Z " fill="#EB621E" transform="translate(171,88)"/>
<path d="M0 0 C3.375 -0.125 3.375 -0.125 7 0 C7.66 0.66 8.32 1.32 9 2 C8.75 4.5625 8.75 4.5625 8 7 C7.01 7.495 7.01 7.495 6 8 C5.9071875 6.824375 5.9071875 6.824375 5.8125 5.625 C5.544375 4.75875 5.27625 3.8925 5 3 C2.52363988 1.62533375 2.52363988 1.62533375 0 1 C0 0.67 0 0.34 0 0 Z " fill="#3E8011" transform="translate(153,80)"/>
<path d="M0 0 C1 3 1 3 0 6 C1.65 6 3.3 6 5 6 C5 6.33 5 6.66 5 7 C2.03 7.66 -0.94 8.32 -4 9 C-2.94124926 5.59687262 -1.99097846 2.98646769 0 0 Z " fill="#609441" transform="translate(138,86)"/>
<path d="M0 0 C-0.875 6.875 -0.875 6.875 -2 8 C-3.66617115 8.04063832 -5.33388095 8.042721 -7 8 C-5.68 7.67 -4.36 7.34 -3 7 C-3.66 5.35 -4.32 3.7 -5 2 C-2 0 -2 0 0 0 Z " fill="#E9EFE6" transform="translate(67,88)"/>
<path d="M0 0 C0.66 0.66 1.32 1.32 2 2 C1.45652174 8.08695652 1.45652174 8.08695652 0 11 C-0.66 11 -1.32 11 -2 11 C-1.125 3.375 -1.125 3.375 0 0 Z " fill="#3B7F0D" transform="translate(168,83)"/>
<path d="M0 0 C2.17581687 2.84881728 4.20937999 5.76084088 6.1875 8.75 C6.71730469 9.54921875 7.24710938 10.3484375 7.79296875 11.171875 C8.19128906 11.77515625 8.58960938 12.3784375 9 13 C2.40909091 9.81818182 2.40909091 9.81818182 0.8125 6.625 C0 4 0 4 0 0 Z " fill="#EC702A" transform="translate(32,91)"/>
<path d="M0 0 C1.0625 1.8125 1.0625 1.8125 2 4 C1.67 4.99 1.34 5.98 1 7 C1.99 7.33 2.98 7.66 4 8 C1.03 8 -1.94 8 -5 8 C-4.67 7.01 -4.34 6.02 -4 5 C-4 5.66 -4 6.32 -4 7 C-3.01 7 -2.02 7 -1 7 C-0.67 4.69 -0.34 2.38 0 0 Z " fill="#CAD9C3" transform="translate(133,88)"/>
<path d="M0 0 C0.66 0.33 1.32 0.66 2 1 C1.34 3.97 0.68 6.94 0 10 C-1.32 8.68 -2.64 7.36 -4 6 C-2.84826645 3.53199953 -1.95216435 1.95216435 0 0 Z " fill="#5E933C" transform="translate(40,80)"/>
<path d="M0 0 C2.31 0 4.62 0 7 0 C7.33 1.65 7.66 3.3 8 5 C7.01 5 6.02 5 5 5 C4.67 4.34 4.34 3.68 4 3 C1.97536745 2.34786708 1.97536745 2.34786708 0 2 C0 1.34 0 0.68 0 0 Z " fill="#3E800F" transform="translate(58,81)"/>
<path d="M0 0 C0.66 0 1.32 0 2 0 C1.67 0.99 1.34 1.98 1 3 C0.67 2.01 0.34 1.02 0 0 Z M-2 3 C-1.34 3.33 -0.68 3.66 0 4 C0 5.98 0 7.96 0 10 C-1.32 9.67 -2.64 9.34 -4 9 C-3.34 7.02 -2.68 5.04 -2 3 Z " fill="#3E8011" transform="translate(71,83)"/>
<path d="M0 0 C1.125 3.75 1.125 3.75 0 6 C0.99 6 1.98 6 3 6 C2.67 7.32 2.34 8.64 2 10 C1.01 10 0.02 10 -1 10 C-1.125 3.375 -1.125 3.375 0 0 Z " fill="#75A25A" transform="translate(150,85)"/>
<path d="M0 0 C-4.95 1.485 -4.95 1.485 -10 3 C-10 2.01 -10 1.02 -10 0 C-4.5 -2.25 -4.5 -2.25 0 0 Z " fill="#EE7B43" transform="translate(58,62)"/>
<path d="M0 0 C1.65 0.33 3.3 0.66 5 1 C4.67 1.99 4.34 2.98 4 4 C2.35 4 0.7 4 -1 4 C-0.67 2.68 -0.34 1.36 0 0 Z " fill="#D9E4D4" transform="translate(58,83)"/>
<path d="M0 0 C3.96 0 7.92 0 12 0 C12 0.33 12 0.66 12 1 C10.02 1 8.04 1 6 1 C5.67 1.99 5.34 2.98 5 4 C4.01 3.67 3.02 3.34 2 3 C2 2.34 2 1.68 2 1 C1.34 0.67 0.68 0.34 0 0 Z " fill="#EF8A59" transform="translate(146,111)"/>
<path d="M0 0 C0.33 1.98 0.66 3.96 1 6 C0.34 6 -0.32 6 -1 6 C-1 5.01 -1 4.02 -1 3 C-2.65 3 -4.3 3 -6 3 C-6 2.34 -6 1.68 -6 1 C-3.92446352 0.4465236 -2.15634036 0 0 0 Z " fill="#F4B195" transform="translate(152,99)"/>
<path d="M0 0 C3.63 0.33 7.26 0.66 11 1 C11 1.33 11 1.66 11 2 C9.741875 2.185625 8.48375 2.37125 7.1875 2.5625 C6.12595703 2.71912109 6.12595703 2.71912109 5.04296875 2.87890625 C3 3 3 3 0 2 C0 1.34 0 0.68 0 0 Z " fill="#EA6110" transform="translate(146,109)"/>
</svg>
