<?xml version="1.0" encoding="UTF-8"?>
<svg version="1.1" xmlns="http://www.w3.org/2000/svg" width="204" height="192">
<path d="M0 0 C67.32 0 134.64 0 204 0 C204 63.36 204 126.72 204 192 C136.68 192 69.36 192 0 192 C0 128.64 0 65.28 0 0 Z " fill="#E9E9E9" transform="translate(0,0)"/>
<path d="M0 0 C0 0.66 0 1.32 0 2 C1.299375 2.226875 2.59875 2.45375 3.9375 2.6875 C9.06436664 3.7069634 14.05044146 5.09331242 19.0625 6.5625 C19.8248999 6.78446045 20.5872998 7.0064209 21.37280273 7.23510742 C26.87255074 8.87255074 26.87255074 8.87255074 28 10 C28.08748207 11.92667507 28.10697334 13.85651861 28.09765625 15.78515625 C28.09282227 17.53989258 28.09282227 17.53989258 28.08789062 19.33007812 C28.07532227 21.17762695 28.07532227 21.17762695 28.0625 23.0625 C28.05798828 24.29806641 28.05347656 25.53363281 28.04882812 26.80664062 C28.03699608 29.87114117 28.02051173 32.93554721 28 36 C28.66 36 29.32 36 30 36 C29.34 38.97 28.68 41.94 28 45 C29.093125 44.773125 30.18625 44.54625 31.3125 44.3125 C35 44 35 44 36.9375 45.4375 C37.288125 45.953125 37.63875 46.46875 38 47 C38.99 46.01 39.98 45.02 41 44 C41.33 44.99 41.66 45.98 42 47 C40.625 48.5 40.625 48.5 39 50 C38.34 50 37.68 50 37 50 C37.33 50.66 37.66 51.32 38 52 C39.32 51.34 40.64 50.68 42 50 C42.62891566 58.17590361 42.62891566 58.17590361 40.1875 61.375 C39.465625 61.91125 38.74375 62.4475 38 63 C37.525625 63.556875 37.05125 64.11375 36.5625 64.6875 C34.49373756 66.42526045 32.63840503 66.64345878 30 67 C31.98 67.99 31.98 67.99 34 69 C31.36095629 70.41377341 28.92879371 71.37240135 26 72 C27.32 72.33 28.64 72.66 30 73 C29.67 73.66 29.34 74.32 29 75 C26.36 75 23.72 75 21 75 C22.32 75.33 23.64 75.66 25 76 C24.505 77.485 24.505 77.485 24 79 C20.28400809 79.20086443 19.22791555 79.1519437 16 77 C16 77.66 16 78.32 16 79 C17.32 79.66 18.64 80.32 20 81 C19.67 81.33 19.34 81.66 19 82 C16.30917128 81.82364548 13.67148554 81.38164079 11 81 C11.99 81.99 12.98 82.98 14 84 C12.02 84 10.04 84 8 84 C8 84.66 8 85.32 8 86 C5.75 86.25 5.75 86.25 3 86 C0.6875 84 0.6875 84 -1 82 C-0.34 80.35 0.32 78.7 1 77 C1.66 77 2.32 77 3 77 C3 76.34 3 75.68 3 75 C3.99 75 4.98 75 6 75 C6 74.01 6 73.02 6 72 C12.625 70.875 12.625 70.875 16 72 C15.67 71.01 15.34 70.02 15 69 C15.66 69 16.32 69 17 69 C16.34 66.69 15.68 64.38 15 62 C12.03 62.99 9.06 63.98 6 65 C6 65.66 6 66.32 6 67 C-4.12603617 71.11906556 -4.12603617 71.11906556 -9.6484375 68.96875 C-21.30347806 62.69039004 -29.19326168 52.64916917 -33.41015625 40.0234375 C-33.60480469 39.35570312 -33.79945312 38.68796875 -34 38 C-34.20496094 37.31164062 -34.40992187 36.62328125 -34.62109375 35.9140625 C-36.71859294 27.43727268 -36.16991238 18.66553127 -36 10 C-28.89658479 7.14282345 -21.8742407 4.52362993 -14.4375 2.67578125 C-11.94106257 2.03814961 -11.94106257 2.03814961 -9.42578125 0.92578125 C-6.22234383 -0.29678665 -3.39611039 -0.1331808 0 0 Z " fill="#D2A747" transform="translate(106,28)"/>
<path d="M0 0 C1.89510699 -0.08160748 3.79124504 -0.13946459 5.6875 -0.1875 C6.74324219 -0.22230469 7.79898438 -0.25710937 8.88671875 -0.29296875 C12.35422768 0.03333385 14.18432448 1.00969875 17 3 C17 2.34 17 1.68 17 1 C20.28519475 -0.09506492 22.73663415 -0.09960608 26.1875 -0.0625 C27.81751953 -0.04896484 27.81751953 -0.04896484 29.48046875 -0.03515625 C30.31191406 -0.02355469 31.14335938 -0.01195312 32 0 C32 0.99 32 1.98 32 3 C32.66 3 33.32 3 34 3 C34 9.6 34 16.2 34 23 C21.98678657 23.60826397 10.03114926 24.13367944 -2 24 C-2 16.74 -2 9.48 -2 2 C-1.34 2 -0.68 2 0 2 C0 1.34 0 0.68 0 0 Z " fill="#ECE3D0" transform="translate(86,48)"/>
<path d="M0 0 C0.66 0 1.32 0 2 0 C2 0.99 2 1.98 2 3 C2.66 3 3.32 3 4 3 C3.34 5.97 2.68 8.94 2 12 C3.093125 11.773125 4.18625 11.54625 5.3125 11.3125 C9 11 9 11 10.9375 12.4375 C11.288125 12.953125 11.63875 13.46875 12 14 C12.99 13.01 13.98 12.02 15 11 C15.495 12.485 15.495 12.485 16 14 C14.625 15.5 14.625 15.5 13 17 C12.34 17 11.68 17 11 17 C11.495 17.99 11.495 17.99 12 19 C13.32 18.34 14.64 17.68 16 17 C16.62891566 25.17590361 16.62891566 25.17590361 14.1875 28.375 C13.465625 28.91125 12.74375 29.4475 12 30 C11.525625 30.556875 11.05125 31.11375 10.5625 31.6875 C8.49373756 33.42526045 6.63840503 33.64345878 4 34 C5.32 34.66 6.64 35.32 8 36 C5.36095629 37.41377341 2.92879371 38.37240135 0 39 C1.32 39.33 2.64 39.66 4 40 C3.67 40.66 3.34 41.32 3 42 C0.36 42 -2.28 42 -5 42 C-3.68 42.33 -2.36 42.66 -1 43 C-1.33 43.99 -1.66 44.98 -2 46 C-5.71599191 46.20086443 -6.77208445 46.1519437 -10 44 C-10 44.66 -10 45.32 -10 46 C-8.68 46.66 -7.36 47.32 -6 48 C-6.33 48.33 -6.66 48.66 -7 49 C-9.69082872 48.82364548 -12.32851446 48.38164079 -15 48 C-14.01 48.99 -13.02 49.98 -12 51 C-13.98 51 -15.96 51 -18 51 C-18 51.66 -18 52.32 -18 53 C-20.25 53.25 -20.25 53.25 -23 53 C-25.3125 51 -25.3125 51 -27 49 C-26.34 47.35 -25.68 45.7 -25 44 C-24.34 44 -23.68 44 -23 44 C-23 43.34 -23 42.68 -23 42 C-22.01 42 -21.02 42 -20 42 C-20 41.01 -20 40.02 -20 39 C-13.375 37.875 -13.375 37.875 -10 39 C-10.33 38.01 -10.66 37.02 -11 36 C-10.34 36 -9.68 36 -9 36 C-9.66 33.69 -10.32 31.38 -11 29 C-12.32 29.33 -13.64 29.66 -15 30 C-14.67 29.34 -14.34 28.68 -14 28 C-13.34 28 -12.68 28 -12 28 C-11.773125 27.278125 -11.54625 26.55625 -11.3125 25.8125 C-10 23 -10 23 -7.59375 20.90625 C-4.19664539 17.09985568 -3.36181243 13.56570936 -2.1875 8.6875 C-1.97158203 7.85154297 -1.75566406 7.01558594 -1.53320312 6.15429688 C-1.00669687 4.10677256 -0.50120272 2.05386477 0 0 Z " fill="#EAEBEA" transform="translate(132,61)"/>
<path d="M0 0 C2.47682859 3.71524288 2.43538538 6.69638294 2 11 C1 14 1 14 0 16 C-0.99 16 -1.98 16 -3 16 C-3.2475 16.721875 -3.495 17.44375 -3.75 18.1875 C-5.84258363 22.89581317 -8.25716364 25.96735584 -13 28 C-14.051875 28.70125 -15.10375 29.4025 -16.1875 30.125 C-20.23333002 32.45812444 -24.42518686 32.98411678 -29 32 C-30.59765625 30.546875 -30.59765625 30.546875 -32 29 C-34.59915538 27.80972016 -34.59915538 27.80972016 -37 27 C-37 26.34 -37 25.68 -37 25 C-37.66 25 -38.32 25 -39 25 C-39 24.01 -39 23.02 -39 22 C-39.99 22 -40.98 22 -42 22 C-42 21.34 -42 20.68 -42 20 C-42.66 20 -43.32 20 -44 20 C-46 17 -46 17 -45.75 14.5 C-45 12 -45 12 -43 9 C-40.20076329 8.82934293 -37.63729503 8.84154486 -34.8515625 8.99609375 C-34.04262543 9.02727798 -33.23368835 9.05846222 -32.40023804 9.09059143 C-29.80765262 9.19177669 -27.21655909 9.31291505 -24.625 9.4375 C-22.04059899 9.55696124 -19.45634324 9.6718547 -16.8711853 9.7736969 C-15.26137169 9.83750762 -13.65192592 9.91162312 -12.04312134 9.99717712 C-8.17679493 10.15443479 -5.26722545 10.23424543 -2 8 C-2.04125 7.05125 -2.0825 6.1025 -2.125 5.125 C-2 2 -2 2 0 0 Z " fill="#D2A743" transform="translate(126,63)"/>
<path d="M0 0 C1.98 0 3.96 0 6 0 C6 0.66 6 1.32 6 2 C8.97 2 11.94 2 15 2 C15.33 1.34 15.66 0.68 16 0 C16 0.66 16 1.32 16 2 C16.90363281 1.97679687 17.80726563 1.95359375 18.73828125 1.9296875 C19.91777344 1.91164062 21.09726563 1.89359375 22.3125 1.875 C24.07013672 1.84019531 24.07013672 1.84019531 25.86328125 1.8046875 C29 2 29 2 32 4 C27.38 4 22.76 4 18 4 C18.495 5.485 18.495 5.485 19 7 C23.29 7 27.58 7 32 7 C32 8.32 32 9.64 32 11 C30.35 11.33 28.7 11.66 27 12 C27.495 12.99 27.495 12.99 28 14 C24.24151826 15.25282725 20.74509081 15.12381835 16.83203125 15.09765625 C16.03721848 15.0962413 15.2424057 15.09482635 14.42350769 15.09336853 C11.88646675 15.08777378 9.34951425 15.07522228 6.8125 15.0625 C5.09179815 15.05748432 3.37109492 15.05292153 1.65039062 15.04882812 C-2.5664403 15.03780607 -6.78320516 15.02054506 -11 15 C-10.67 14.01 -10.34 13.02 -10 12 C-11.32 11.67 -12.64 11.34 -14 11 C-13.67 8.69 -13.34 6.38 -13 4 C-14.65 4 -16.3 4 -18 4 C-18 3.34 -18 2.68 -18 2 C-12.06 2 -6.12 2 0 2 C0 1.34 0 0.68 0 0 Z " fill="#E9E9E9" transform="translate(163,177)"/>
<path d="M0 0 C5.21460651 3.33155416 6.87015789 7.43147425 9 13 C7.02 13 5.04 13 3 13 C2.67 13.99 2.34 14.98 2 16 C1.67 16.66 1.34 17.32 1 18 C1.99 18 2.98 18 4 18 C4.33 20.31 4.66 22.62 5 25 C5.66 24.01 6.32 23.02 7 22 C9 24 9 24 10 26 C10 25.34 10 24.68 10 24 C10.99 24.33 11.98 24.66 13 25 C14.1875 28.0625 14.1875 28.0625 15 31 C14.34 31 13.68 31 13 31 C13 31.66 13 32.32 13 33 C10.03 33.495 10.03 33.495 7 34 C6.67 33.34 6.34 32.68 6 32 C2.97065509 31.34227572 2.97065509 31.34227572 0 31 C0 30.01 0 29.02 0 28 C-1.65 27.67 -3.3 27.34 -5 27 C-4.67 26.01 -4.34 25.02 -4 24 C-2.68 24 -1.36 24 0 24 C0 23.34 0 22.68 0 22 C-0.928125 22.20625 -1.85625 22.4125 -2.8125 22.625 C-6 23 -6 23 -9 21 C-10.33925525 18.69350484 -11.15274412 16.54176763 -12 14 C-10.35 14.33 -8.7 14.66 -7 15 C-7.5775 14.731875 -8.155 14.46375 -8.75 14.1875 C-11.05550043 12.97070811 -13.02056192 11.69666121 -15 10 C-15 9.34 -15 8.68 -15 8 C-13.02 8.495 -13.02 8.495 -11 9 C-10.67 8.34 -10.34 7.68 -10 7 C-11.32 7 -12.64 7 -14 7 C-14.66 5.35 -15.32 3.7 -16 2 C-13 3 -13 3 -11 5 C-10.54625 4.34 -10.0925 3.68 -9.625 3 C-9.08875 2.34 -8.5525 1.68 -8 1 C-7.34 1 -6.68 1 -6 1 C-6 1.99 -6 2.98 -6 4 C-5.34 4 -4.68 4 -4 4 C-3.67 4.99 -3.34 5.98 -3 7 C-2.67 5.35 -2.34 3.7 -2 2 C-1.34 2 -0.68 2 0 2 C0 1.34 0 0.68 0 0 Z M0 3 C1 5 1 5 1 5 Z " fill="#E1E0DF" transform="translate(73,76)"/>
<path d="M0 0 C1.7492214 -0.08142927 3.49954542 -0.13938541 5.25 -0.1875 C6.22453125 -0.22230469 7.1990625 -0.25710937 8.203125 -0.29296875 C11 0 11 0 13.34375 0.9375 C16.06465233 4.32579346 15.41876878 7.99099933 15.25 12.1875 C15.23195313 13.03248047 15.21390625 13.87746094 15.1953125 14.74804688 C15.14820586 16.83251573 15.07646233 18.91640144 15 21 C14.34 21 13.68 21 13 21 C13 21.33 13 21.66 13 22 C8.05 22 3.1 22 -2 22 C-2 16.06 -2 10.12 -2 4 C-1.34 4 -0.68 4 0 4 C0 2.68 0 1.36 0 0 Z " fill="#EFEBE2" transform="translate(87,48)"/>
<path d="M0 0 C2.97 0 5.94 0 9 0 C9 0.33 9 0.66 9 1 C7.35 1 5.7 1 4 1 C4 2.65 4 4.3 4 6 C5.32 6 6.64 6 8 6 C7.67 6.99 7.34 7.98 7 9 C6.01 8.67 5.02 8.34 4 8 C4 9.65 4 11.3 4 13 C4.66 13 5.32 13 6 13 C6.33 12.34 6.66 11.68 7 11 C7.66 12.98 8.32 14.96 9 17 C8.01 16.67 7.02 16.34 6 16 C6.33 16.598125 6.66 17.19625 7 17.8125 C8 20 8 20 8 23 C7.195625 23.12375 6.39125 23.2475 5.5625 23.375 C4.716875 23.58125 3.87125 23.7875 3 24 C2.67 24.66 2.34 25.32 2 26 C2 25.34 2 24.68 2 24 C0.35 24 -1.3 24 -3 24 C-2.65213292 25.97536745 -2.65213292 25.97536745 -2 28 C-1.34 28.33 -0.68 28.66 0 29 C-0.66 29.66 -1.32 30.32 -2 31 C-5.125 30.625 -5.125 30.625 -8 30 C-8.33 30.99 -8.66 31.98 -9 33 C-9.66 33 -10.32 33 -11 33 C-11.33 31.02 -11.66 29.04 -12 27 C-11.34 27 -10.68 27 -10 27 C-10 26.34 -10 25.68 -10 25 C-11.98491642 25.26676204 -11.98491642 25.26676204 -14 26 C-14.89130413 28.6739124 -15.47731534 31.23723823 -16 34 C-16.66 33.67 -17.32 33.34 -18 33 C-18 32.34 -18 31.68 -18 31 C-19.32 31 -20.64 31 -22 31 C-21.30058404 27.85262818 -20.23921302 24.97411124 -19 22 C-16.03 22 -13.06 22 -10 22 C-10 21.01 -10 20.02 -10 19 C-9.34 19 -8.68 19 -8 19 C-7.67 19.66 -7.34 20.32 -7 21 C-5.02 20.34 -3.04 19.68 -1 19 C-1 19.66 -1 20.32 -1 21 C-0.01 20.67 0.98 20.34 2 20 C1.67 19.01 1.34 18.02 1 17 C0.67 17.99 0.34 18.98 0 20 C-1.0625 18.1875 -1.0625 18.1875 -2 16 C-1.67 15.01 -1.34 14.02 -1 13 C-0.77548542 10.77425665 -0.59217122 8.54418481 -0.4375 6.3125 C-0.35371094 5.13300781 -0.26992187 3.95351562 -0.18359375 2.73828125 C-0.09271484 1.38283203 -0.09271484 1.38283203 0 0 Z " fill="#EDE9E0" transform="translate(106,126)"/>
<path d="M0 0 C0.66 0.33 1.32 0.66 2 1 C2.33 1.99 2.66 2.98 3 4 C3.33 3.01 3.66 2.02 4 1 C7.96 1 11.92 1 16 1 C16 3.97 16 6.94 16 10 C17.32 10.33 18.64 10.66 20 11 C20 7.7 20 4.4 20 1 C20.99 1 21.98 1 23 1 C22.88601335 2.62580966 22.75844341 4.25067157 22.625 5.875 C22.55539063 6.77992188 22.48578125 7.68484375 22.4140625 8.6171875 C22 11 22 11 20 13 C18.01171875 13.16015625 18.01171875 13.16015625 15.6875 13.0625 C10.52148628 12.95487471 6.56994798 13.46114001 2 16 C1.34 15.34 0.68 14.68 0 14 C-0.66 14 -1.32 14 -2 14 C-5.5 13.6875 -5.5 13.6875 -9 13 C-11.13586678 9.79619983 -11.23132175 8.98060033 -11.125 5.3125 C-11.10695313 4.50425781 -11.08890625 3.69601563 -11.0703125 2.86328125 C-11.04710938 2.24839844 -11.02390625 1.63351563 -11 1 C-10.01 1 -9.02 1 -8 1 C-8 4.3 -8 7.6 -8 11 C-6.68 10.67 -5.36 10.34 -4 10 C-3.67 7.03 -3.34 4.06 -3 1 C-2.01 0.67 -1.02 0.34 0 0 Z M-5 14 C-4.01 14 -3.02 14 -2 14 C-2.33 14.66 -2.66 15.32 -3 16 C-3.66 15.34 -4.32 14.68 -5 14 Z " fill="#DFDFE0" transform="translate(128,128)"/>
<path d="M0 0 C2.63785053 0.92324769 3.6904018 1.80688777 5.5 3.875 C6.16 4.205 6.82 4.535 7.5 4.875 C7.5 5.865 7.5 6.855 7.5 7.875 C9.10875 7.75125 9.10875 7.75125 10.75 7.625 C14.5 7.875 14.5 7.875 16.9375 9.6875 C18.5 11.875 18.5 11.875 18.5 14.875 C17.51 14.875 16.52 14.875 15.5 14.875 C16.49 16.855 17.48 18.835 18.5 20.875 C16.1875 23.375 16.1875 23.375 13.5 25.875 C12.51 25.875 11.52 25.875 10.5 25.875 C10.5 25.215 10.5 24.555 10.5 23.875 C8.52 23.875 6.54 23.875 4.5 23.875 C4.5 23.215 4.5 22.555 4.5 21.875 C6.5 20.25 6.5 20.25 8.5 18.875 C8.39386164 16.42275306 8.39386164 16.42275306 7.5 13.875 C5.02363988 12.50033375 5.02363988 12.50033375 2.5 11.875 C2.83 13.525 3.16 15.175 3.5 16.875 C0.7160817 15.48304085 0.52101003 13.71924221 -0.5 10.875 C-1.49 12.36 -1.49 12.36 -2.5 13.875 C-3.5 12.875 -3.5 12.875 -3.5625 9.3125 C-3.541875 8.178125 -3.52125 7.04375 -3.5 5.875 C-4.49 5.875 -5.48 5.875 -6.5 5.875 C-5.22271586 2.04314759 -4.32867962 -0.21643398 0 0 Z " fill="#E9E8E9" transform="translate(80.5,88.125)"/>
<path d="M0 0 C3 0 3 0 4.6875 1.5 C5.120625 1.995 5.55375 2.49 6 3 C6.99 2.01 7.98 1.02 9 0 C9.33 0.99 9.66 1.98 10 3 C8.625 4.5 8.625 4.5 7 6 C6.34 6 5.68 6 5 6 C5.33 6.66 5.66 7.32 6 8 C7.32 7.34 8.64 6.68 10 6 C10.62891566 14.17590361 10.62891566 14.17590361 8.1875 17.375 C7.465625 17.91125 6.74375 18.4475 6 19 C5.525625 19.556875 5.05125 20.11375 4.5625 20.6875 C2.49373756 22.42526045 0.63840503 22.64345878 -2 23 C-0.68 23.66 0.64 24.32 2 25 C-0.63904371 26.41377341 -3.07120629 27.37240135 -6 28 C-4.68 28.33 -3.36 28.66 -2 29 C-2.33 29.66 -2.66 30.32 -3 31 C-8.75 31.125 -8.75 31.125 -11 30 C-11.125 24.25 -11.125 24.25 -10 22 C-9.34 22 -8.68 22 -8 22 C-7.71125 21.4225 -7.4225 20.845 -7.125 20.25 C-6.08333333 18.16666667 -5.04166667 16.08333333 -4 14 C-3.34 14 -2.68 14 -2 14 C-2 13.67 -2 13.34 -2 13 C-1.67619874 11.66431979 -1.34342449 10.33076989 -1 9 C-0.34 9.33 0.32 9.66 1 10 C0.67 8.35 0.34 6.7 0 5 C0.99 5.66 1.98 6.32 3 7 C2.5359375 6.1028125 2.5359375 6.1028125 2.0625 5.1875 C1 3 1 3 0 0 Z " fill="#D3D3D3" transform="translate(138,72)"/>
<path d="M0 0 C1.5675 0.020625 3.135 0.04125 4.75 0.0625 C4.75 5.6725 4.75 11.2825 4.75 17.0625 C0.46 17.0625 -3.83 17.0625 -8.25 17.0625 C-8.58 17.7225 -8.91 18.3825 -9.25 19.0625 C-9.25 13.1225 -9.25 7.1825 -9.25 1.0625 C-5.84112017 0.21028004 -3.44565369 -0.04533755 0 0 Z " fill="#ECE9E9" transform="translate(112.25,48.9375)"/>
<path d="M0 0 C0.33 0.66 0.66 1.32 1 2 C3.97 2 6.94 2 10 2 C10.33 1.34 10.66 0.68 11 0 C11 0.66 11 1.32 11 2 C11.90363281 1.97679687 12.80726563 1.95359375 13.73828125 1.9296875 C14.91777344 1.91164062 16.09726563 1.89359375 17.3125 1.875 C19.07013672 1.84019531 19.07013672 1.84019531 20.86328125 1.8046875 C24 2 24 2 27 4 C22.38 4 17.76 4 13 4 C13.33 4.99 13.66 5.98 14 7 C18.29 7 22.58 7 27 7 C27 8.32 27 9.64 27 11 C25.35 11.33 23.7 11.66 22 12 C22.33 12.66 22.66 13.32 23 14 C16.25 15.125 16.25 15.125 14 14 C14 13.01 14 12.02 14 11 C12.35 11 10.7 11 9 11 C8.67 9.35 8.34 7.7 8 6 C7.34 6 6.68 6 6 6 C6.66 6.33 7.32 6.66 8 7 C8 8.32 8 9.64 8 11 C6.02 11 4.04 11 2 11 C1.34 9.35 0.68 7.7 0 6 C0.33 5.67 0.66 5.34 1 5 C-0.32 4.67 -1.64 4.34 -3 4 C-3 3.34 -3 2.68 -3 2 C-2.01 1.34 -1.02 0.68 0 0 Z " fill="#E3E3E3" transform="translate(168,177)"/>
<path d="M0 0 C0.04125 0.61875 0.0825 1.2375 0.125 1.875 C0.41375 2.57625 0.7025 3.2775 1 4 C3.99615946 5.3045656 3.99615946 5.3045656 7 6 C6.67 6.99 6.34 7.98 6 9 C2.28400809 9.20086443 1.22791555 9.1519437 -2 7 C-2 7.66 -2 8.32 -2 9 C-0.68 9.66 0.64 10.32 2 11 C1.67 11.33 1.34 11.66 1 12 C-1.69082872 11.82364548 -4.32851446 11.38164079 -7 11 C-6.01 11.99 -5.02 12.98 -4 14 C-5.98 14 -7.96 14 -10 14 C-10 14.66 -10 15.32 -10 16 C-12.25 16.25 -12.25 16.25 -15 16 C-17.3125 14 -17.3125 14 -19 12 C-18.34 10.35 -17.68 8.7 -17 7 C-16.34 7 -15.68 7 -15 7 C-15 6.34 -15 5.68 -15 5 C-14.01 5 -13.02 5 -12 5 C-12 4.01 -12 3.02 -12 2 C-8.6875 1.3125 -8.6875 1.3125 -5 1 C-3.0625 2.4375 -3.0625 2.4375 -2 4 C-1.34 2.68 -0.68 1.36 0 0 Z " fill="#656768" transform="translate(124,98)"/>
<path d="M0 0 C1.65 0.33 3.3 0.66 5 1 C4.67 2.65 4.34 4.3 4 6 C5.65 6 7.3 6 9 6 C9 4.35 9 2.7 9 1 C10.32 1 11.64 1 13 1 C13 4.63 13 8.26 13 12 C11.68 12 10.36 12 9 12 C9 10.68 9 9.36 9 8 C7.01508358 8.26676204 7.01508358 8.26676204 5 9 C4.67 9.99 4.34 10.98 4 12 C1.9375 12.6875 1.9375 12.6875 0 13 C0 10.36 0 7.72 0 5 C-2.97 4.505 -2.97 4.505 -6 4 C-5.67 4.99 -5.34 5.98 -5 7 C-3.35 7 -1.7 7 0 7 C-0.33 8.65 -0.66 10.3 -1 12 C-3.31 12.33 -5.62 12.66 -8 13 C-8 13.66 -8 14.32 -8 15 C-8.66 15 -9.32 15 -10 15 C-10 14.34 -10 13.68 -10 13 C-10.66 12.67 -11.32 12.34 -12 12 C-12.20145347 8.50813979 -12.34907805 5.80082611 -10.9375 2.5625 C-8.02493265 0.21365537 -5.61438752 0.66533449 -2 1 C-1.67 1.33 -1.34 1.66 -1 2 C-0.67 1.34 -0.34 0.68 0 0 Z " fill="#DEDEE0" transform="translate(75,128)"/>
<path d="M0 0 C2.31 0 4.62 0 7 0 C7 0.99 7 1.98 7 3 C8.65 3 10.3 3 12 3 C12 4.32 12 5.64 12 7 C11.34 7 10.68 7 10 7 C10.185625 8.134375 10.37125 9.26875 10.5625 10.4375 C10.706875 11.613125 10.85125 12.78875 11 14 C10 15 10 15 6.9375 15.0625 C5.968125 15.041875 4.99875 15.02125 4 15 C4 15.66 4 16.32 4 17 C2.35 16.67 0.7 16.34 -1 16 C-1.02701408 13.89590361 -1.04640223 11.79170822 -1.0625 9.6875 C-1.07410156 8.51574219 -1.08570312 7.34398437 -1.09765625 6.13671875 C-1 3 -1 3 0 0 Z " fill="#EAE9E7" transform="translate(88,49)"/>
<path d="M0 0 C2.31 0 4.62 0 7 0 C8.125 4.75 8.125 4.75 7 7 C7.99 7 8.98 7 10 7 C10.33 8.32 10.66 9.64 11 11 C11.33 8.36 11.66 5.72 12 3 C13.32 3.33 14.64 3.66 16 4 C15.67 7.3 15.34 10.6 15 14 C10.05 14 5.1 14 0 14 C0 9.38 0 4.76 0 0 Z " fill="#7A7A7A" transform="translate(34,126)"/>
<path d="M0 0 C0.66 0 1.32 0 2 0 C2 0.99 2 1.98 2 3 C2.66 3 3.32 3 4 3 C3.34 5.97 2.68 8.94 2 12 C3.65 12 5.3 12 7 12 C7 12.99 7 13.98 7 15 C6.34 15 5.68 15 5 15 C5 15.99 5 16.98 5 18 C2.50935112 18.68707555 0.62113708 19 -2 19 C-4.7349101 21.93026082 -6.72575695 24.17727085 -8 28 C-9.875 29.25 -9.875 29.25 -12 30 C-12.99 29.67 -13.98 29.34 -15 29 C-14.01 28.67 -13.02 28.34 -12 28 C-11.71125 27.2575 -11.4225 26.515 -11.125 25.75 C-10 23 -10 23 -7.60546875 20.91015625 C-4.19621945 17.10222413 -3.36375188 13.57376602 -2.1875 8.6875 C-1.97158203 7.85154297 -1.75566406 7.01558594 -1.53320312 6.15429688 C-1.00669687 4.10677256 -0.50120272 2.05386477 0 0 Z " fill="#F1EADF" transform="translate(132,61)"/>
<path d="M0 0 C0.66 0 1.32 0 2 0 C2.25394531 0.66386719 2.50789063 1.32773438 2.76953125 2.01171875 C4.55725066 6.59818989 6.38388256 10.8142121 9 15 C9 15.66 9 16.32 9 17 C9.66 17 10.32 17 11 17 C11 17.66 11 18.32 11 19 C11.99 19 12.98 19 14 19 C14 19.99 14 20.98 14 22 C14.66 22 15.32 22 16 22 C16 22.66 16 23.32 16 24 C16.763125 24.12375 17.52625 24.2475 18.3125 24.375 C21 25 21 25 24 27 C24 27.66 24 28.32 24 29 C30.16479841 28.84302597 34.19209092 27.74673355 39.17578125 24.05859375 C41 23 41 23 45 23 C43.71034824 24.37562854 42.37310707 25.70766393 41 27 C40.34 27 39.68 27 39 27 C39 27.66 39 28.32 39 29 C28.87396383 33.11906556 28.87396383 33.11906556 23.3515625 30.96875 C12.99079878 25.38759361 7.59956678 18.1936386 2 8 C1.42185547 6.98679687 1.42185547 6.98679687 0.83203125 5.953125 C0 4 0 4 0 0 Z " fill="#C7AE69" transform="translate(73,66)"/>
<path d="M0 0 C1.66666667 1.66666667 3.33333333 3.33333333 5 5 C5.928125 5.886875 6.85625 6.77375 7.8125 7.6875 C10 10 10 10 10 12 C10.70125 12.268125 11.4025 12.53625 12.125 12.8125 C15 14 15 14 17.75 15.6875 C23.22632352 17.89909219 28.43115582 16.46150662 34 15 C34 14.34 34 13.68 34 13 C35.65 12.34 37.3 11.68 39 11 C38.6875 12.875 38.6875 12.875 38 15 C35 17 35 17 32 17 C31.855625 17.639375 31.71125 18.27875 31.5625 18.9375 C31 21 31 21 30 22 C28.33382885 22.04063832 26.66611905 22.042721 25 22 C25 22.66 25 23.32 25 24 C24.01 23.67 23.02 23.34 22 23 C22.33 22.34 22.66 21.68 23 21 C21.68 20.34 20.36 19.68 19 19 C19 18.34 19 17.68 19 17 C16.03 16.67 13.06 16.34 10 16 C10 15.01 10 14.02 10 13 C8.88625 12.690625 8.88625 12.690625 7.75 12.375 C4.12544526 10.56272263 2.93319696 8.52118018 1 5 C0.25 2.125 0.25 2.125 0 0 Z " fill="#F0E6CF" transform="translate(78,80)"/>
<path d="M0 0 C0.66 0 1.32 0 2 0 C2.33 2.31 2.66 4.62 3 7 C3.66 6.01 4.32 5.02 5 4 C7 6 7 6 8 8 C8 7.34 8 6.68 8 6 C8.99 6.33 9.98 6.66 11 7 C12.1875 10.0625 12.1875 10.0625 13 13 C12.34 13 11.68 13 11 13 C11 13.66 11 14.32 11 15 C9.02 15.33 7.04 15.66 5 16 C4.67 15.34 4.34 14.68 4 14 C0.97065509 13.34227572 0.97065509 13.34227572 -2 13 C-2 12.01 -2 11.02 -2 10 C-3.65 9.67 -5.3 9.34 -7 9 C-6.67 8.01 -6.34 7.02 -6 6 C-4.68 6 -3.36 6 -2 6 C-1.34 4.02 -0.68 2.04 0 0 Z " fill="#97979A" transform="translate(75,94)"/>
<path d="M0 0 C6.0546875 -0.1953125 6.0546875 -0.1953125 8 0 C12.02969068 4.02969068 11.2131958 10.23318519 11.25 15.625 C11.270625 16.388125 11.29125 17.15125 11.3125 17.9375 C11.35087043 23.40528592 11.35087043 23.40528592 9.97631836 25.73510742 C6.85181415 27.73486731 3.6235507 27.25215569 0.05078125 27.07421875 C-0.72183548 27.04777786 -1.49445221 27.02133698 -2.29048157 26.99409485 C-4.75694302 26.90635819 -7.22192743 26.7972037 -9.6875 26.6875 C-11.3599732 26.62423822 -13.03249982 26.56237225 -14.70507812 26.50195312 C-18.80418099 26.35082229 -22.90208864 26.18047878 -27 26 C-27 25.67 -27 25.34 -27 25 C-15.30972892 24.28841828 -3.71286474 23.89254253 8 24 C8 17.4 8 10.8 8 4 C7.34 4 6.68 4 6 4 C6 3.01 6 2.02 6 1 C4.02 1 2.04 1 0 1 C0 0.67 0 0.34 0 0 Z " fill="#CCAC63" transform="translate(112,47)"/>
<path d="M0 0 C2.14681531 0.47474775 4.29243228 0.95491749 6.4375 1.4375 C8.22994141 1.83775391 8.22994141 1.83775391 10.05859375 2.24609375 C13 3 13 3 14 4 C14.08713831 5.70772358 14.10700007 7.41898649 14.09765625 9.12890625 C14.09443359 10.16337891 14.09121094 11.19785156 14.08789062 12.26367188 C14.07951172 13.35228516 14.07113281 14.44089844 14.0625 15.5625 C14.05798828 16.65498047 14.05347656 17.74746094 14.04882812 18.87304688 C14.03699826 21.58208495 14.02051543 24.29101599 14 27 C13.34 27 12.68 27 12 27 C11.8453125 28.670625 11.8453125 28.670625 11.6875 30.375 C11.05694352 35.33952218 10.08470174 40.42969234 8 45 C6.515 45.495 6.515 45.495 5 46 C3.93283296 47.79932579 3.93283296 47.79932579 3 50 C1.5 52.75 1.5 52.75 0 55 C-0.66 55 -1.32 55 -2 55 C-0.66629231 51.40924853 0.80987082 48.15378602 3 45 C4.485 44.505 4.485 44.505 6 44 C6.96556547 41.44540449 6.96556547 41.44540449 7.5625 38.375 C8.29066352 35.10854895 9.01939417 31.94008714 10.05078125 28.75390625 C11.25247401 24.00153282 11.45626002 19.44541303 11.625 14.5625 C11.66367188 13.64017578 11.70234375 12.71785156 11.7421875 11.76757812 C11.83568676 9.51190857 11.9214391 7.25623084 12 5 C11.38511719 4.95101562 10.77023438 4.90203125 10.13671875 4.8515625 C8.92435547 4.73941406 8.92435547 4.73941406 7.6875 4.625 C6.88699219 4.55539063 6.08648437 4.48578125 5.26171875 4.4140625 C3 4 3 4 0 2 C0 1.34 0 0.68 0 0 Z " fill="#C7AF6D" transform="translate(120,34)"/>
<path d="M0 0 C1.33333333 0.66666667 2.66666667 1.33333333 4 2 C5.32 2 6.64 2 8 2 C7.67 6.29 7.34 10.58 7 15 C4.03 15 1.06 15 -2 15 C-3.10962199 10.56151204 -3.2982655 6.54854894 -3 2 C-2.01 1.34 -1.02 0.68 0 0 Z " fill="#E0E0E0" transform="translate(54,127)"/>
<path d="M0 0 C0.66 0 1.32 0 2 0 C3.625 2.5 3.625 2.5 5 5 C6.65 4.67 8.3 4.34 10 4 C9.67 4.99 9.34 5.98 9 7 C5.4375 8.1875 5.4375 8.1875 2 9 C3.32 9.66 4.64 10.32 6 11 C3.36095629 12.41377341 0.92879371 13.37240135 -2 14 C-0.68 14.33 0.64 14.66 2 15 C1.67 15.66 1.34 16.32 1 17 C-4.75 17.125 -4.75 17.125 -7 16 C-7.125 10.25 -7.125 10.25 -6 8 C-5.34 8 -4.68 8 -4 8 C-3.71125 7.4225 -3.4225 6.845 -3.125 6.25 C-2.08333333 4.16666667 -1.04166667 2.08333333 0 0 Z " fill="#696969" transform="translate(134,86)"/>
<path d="M0 0 C0.99 0 1.98 0 3 0 C3.33 1.32 3.66 2.64 4 4 C4.66 4 5.32 4 6 4 C5.67 2.68 5.34 1.36 5 0 C5.99 0.33 6.98 0.66 8 1 C7.67 2.98 7.34 4.96 7 7 C5.68 6.67 4.36 6.34 3 6 C3 7.65 3 9.3 3 11 C1.68 11 0.36 11 -1 11 C-1.33 11.66 -1.66 12.32 -2 13 C-3.32 12.67 -4.64 12.34 -6 12 C-7 4.375 -7 4.375 -7 1 C-5.68 1 -4.36 1 -3 1 C-3 1.66 -3 2.32 -3 3 C-2.34 3 -1.68 3 -1 3 C-0.67 2.01 -0.34 1.02 0 0 Z " fill="#DBDBDB" transform="translate(165,129)"/>
<path d="M0 0 C0.66 0 1.32 0 2 0 C2.66 1.32 3.32 2.64 4 4 C4.66 3.34 5.32 2.68 6 2 C7.03039555 6.53374042 7.17766075 7.64467851 5 12 C1.04 12 -2.92 12 -7 12 C-7 11.34 -7 10.68 -7 10 C-7.99 10.33 -8.98 10.66 -10 11 C-10 9.35 -10 7.7 -10 6 C-4.555 5.505 -4.555 5.505 1 5 C0.67 3.35 0.34 1.7 0 0 Z " fill="#EAE6DB" transform="translate(113,144)"/>
<path d="M0 0 C0.33 1.32 0.66 2.64 1 4 C0.34 4 -0.32 4 -1 4 C-1 9.94 -1 15.88 -1 22 C5.435 21.505 5.435 21.505 12 21 C11.34 20.34 10.68 19.68 10 19 C11.65 19.33 13.3 19.66 15 20 C15.33 14.39 15.66 8.78 16 3 C16.33 3 16.66 3 17 3 C17.33 9.27 17.66 15.54 18 22 C22.95 22 27.9 22 33 22 C33 22.33 33 22.66 33 23 C21.31910824 23.62868813 9.70055325 24.12857751 -2 24 C-2 16.74 -2 9.48 -2 2 C-1.34 2 -0.68 2 0 2 C0 1.34 0 0.68 0 0 Z " fill="#E1CEA8" transform="translate(86,48)"/>
<path d="M0 0 C1.65 0 3.3 0 5 0 C5 2.97 5 5.94 5 9 C6.32 9.33 7.64 9.66 9 10 C9 6.7 9 3.4 9 0 C9.99 0 10.98 0 12 0 C11.88601335 1.62580966 11.75844341 3.25067157 11.625 4.875 C11.55539063 5.77992188 11.48578125 6.68484375 11.4140625 7.6171875 C11 10 11 10 9 12 C6.8359375 12.1953125 6.8359375 12.1953125 4.375 12.125 C3.55773437 12.10695312 2.74046875 12.08890625 1.8984375 12.0703125 C1.27195313 12.04710937 0.64546875 12.02390625 0 12 C0 11.34 0 10.68 0 10 C-1.32 10 -2.64 10 -4 10 C-4 7.36 -4 4.72 -4 2 C-3.01 2 -2.02 2 -1 2 C-0.67 1.34 -0.34 0.68 0 0 Z " fill="#E5E5E7" transform="translate(139,129)"/>
<path d="M0 0 C0 1.32 0 2.64 0 4 C-1.98 4.33 -3.96 4.66 -6 5 C-6.33 13.58 -6.66 22.16 -7 31 C-10.20559685 24.58880629 -10.13517946 18.63577217 -10.0625 11.625 C-10.05798828 10.79355469 -10.05347656 9.96210937 -10.04882812 9.10546875 C-10.03713164 7.07028103 -10.01919935 5.03513077 -10 3 C-3.375 0 -3.375 0 0 0 Z " fill="#CDB173" transform="translate(80,35)"/>
<path d="M0 0 C3 0 3 0 6 1 C7.25 2.9375 7.25 2.9375 8 5 C7.67 5.66 7.34 6.32 7 7 C7.99 7 8.98 7 10 7 C9.67 7.99 9.34 8.98 9 10 C8.01 9.67 7.02 9.34 6 9 C5.67 9.99 5.34 10.98 5 12 C4.01 11.34 3.02 10.68 2 10 C2 9.34 2 8.68 2 8 C-0.31 8.33 -2.62 8.66 -5 9 C-4.34 6.36 -3.68 3.72 -3 1 C-2.34 1 -1.68 1 -1 1 C-1 1.99 -1 2.98 -1 4 C-0.34 4 0.32 4 1 4 C0.67 2.68 0.34 1.36 0 0 Z " fill="#E5E5E9" transform="translate(139,64)"/>
<path d="M0 0 C5.61 0 11.22 0 17 0 C17 0.66 17 1.32 17 2 C15.02 2 13.04 2 11 2 C11 2.99 11 3.98 11 5 C11.66 5 12.32 5 13 5 C12.6875 6.9375 12.6875 6.9375 12 9 C8.71023192 10.09658936 7.28696233 9.79953138 4 9 C4.33 6.69 4.66 4.38 5 2 C3.35 2 1.7 2 0 2 C0 1.34 0 0.68 0 0 Z M8 10 C8 13 8 13 8 13 Z " fill="#D0D0D0" transform="translate(145,179)"/>
<path d="M0 0 C2.97 0 5.94 0 9 0 C9 0.33 9 0.66 9 1 C7.35 1 5.7 1 4 1 C4 2.65 4 4.3 4 6 C5.32 6 6.64 6 8 6 C7.67 6.99 7.34 7.98 7 9 C6.01 8.67 5.02 8.34 4 8 C4 9.65 4 11.3 4 13 C4.66 13 5.32 13 6 13 C6.33 12.34 6.66 11.68 7 11 C7.66 12.98 8.32 14.96 9 17 C5.7 16.34 2.4 15.68 -1 15 C-0.67 10.05 -0.34 5.1 0 0 Z " fill="#838383" transform="translate(106,126)"/>
<path d="M0 0 C0.66 0.33 1.32 0.66 2 1 C2 1.99 2 2.98 2 4 C2.66 4 3.32 4 4 4 C4 6.64 4 9.28 4 12 C1.1875 12.625 1.1875 12.625 -2 13 C-5.85772618 10.42818254 -6.56426362 8.30720915 -8 4 C-5.03 4.495 -5.03 4.495 -2 5 C-1.34 3.35 -0.68 1.7 0 0 Z " fill="#ABABAE" transform="translate(69,86)"/>
<path d="M0 0 C3 1 3 1 6 3 C10.31372096 5.46498341 14.31529649 6.64814707 19.14453125 7.5703125 C21 8 21 8 22 9 C22.10004903 11.24816065 22.12966884 13.49961907 22.125 15.75 C22.12886719 17.59851562 22.12886719 17.59851562 22.1328125 19.484375 C22.02005368 22.46916727 21.69588968 25.10598262 21 28 C20.67 28 20.34 28 20 28 C19.67 22.06 19.34 16.12 19 10 C17.55367187 9.59007812 16.10734375 9.18015625 14.6171875 8.7578125 C12.70310485 8.21361253 10.78904347 7.66933776 8.875 7.125 C7.92367187 6.85558594 6.97234375 6.58617187 5.9921875 6.30859375 C1.29088592 4.97002872 -3.37987216 3.60226656 -8 2 C-4.94736336 1.01879536 -3.05263664 1.01879536 0 2 C0 1.34 0 0.68 0 0 Z " fill="#EADEBA" transform="translate(114,28)"/>
<path d="M0 0 C0 0.66 0 1.32 0 2 C1.01320313 2.18175781 1.01320313 2.18175781 2.046875 2.3671875 C3.38492188 2.61855469 3.38492188 2.61855469 4.75 2.875 C5.63171875 3.03742187 6.5134375 3.19984375 7.421875 3.3671875 C9.86947744 3.96796264 11.80599857 4.77997117 14 6 C9.73622305 6.15227775 6.05777264 6.14496813 1.9375 5 C-5.50342507 3.00330389 -11.69658502 4.50732271 -19.01171875 6.44140625 C-21.8554394 6.97297756 -23.32814748 6.98162952 -26 6 C-25.04738281 5.73445313 -24.09476562 5.46890625 -23.11328125 5.1953125 C-21.85902344 4.84210937 -20.60476562 4.48890625 -19.3125 4.125 C-18.07113281 3.77695312 -16.82976562 3.42890625 -15.55078125 3.0703125 C-12.10161331 2.09480348 -12.10161331 2.09480348 -9.28125 0.875 C-6.15004038 -0.32601191 -3.31857408 -0.13014016 0 0 Z " fill="#CCAA62" transform="translate(106,28)"/>
<path d="M0 0 C2.31 0 4.62 0 7 0 C7.94324258 4.31196609 8.48041715 8.62065881 9 13 C8.34 13 7.68 13 7 13 C6.67 11.35 6.34 9.7 6 8 C4.68 7.67 3.36 7.34 2 7 C2.33 9.31 2.66 11.62 3 14 C2.01 14 1.02 14 0 14 C0 9.38 0 4.76 0 0 Z " fill="#383838" transform="translate(34,126)"/>
<path d="M0 0 C0.99 0.33 1.98 0.66 3 1 C4.1875 3.5625 4.1875 3.5625 5 6 C5 5.01 5 4.02 5 3 C5 2.34 5 1.68 5 1 C7.62187494 2.04874998 8.79371361 2.64931313 10.25 5.125 C10.4975 5.74375 10.745 6.3625 11 7 C8.6875 9.5 8.6875 9.5 6 12 C5.01 12 4.02 12 3 12 C3 11.34 3 10.68 3 10 C1.02 10 -0.96 10 -3 10 C-3 9.34 -3 8.68 -3 8 C-1 6.375 -1 6.375 1 5 C0.67 3.35 0.34 1.7 0 0 Z " fill="#636364" transform="translate(88,102)"/>
<path d="M0 0 C0.66 0 1.32 0 2 0 C2.33 4.29 2.66 8.58 3 13 C5.64 13.33 8.28 13.66 11 14 C11 14.66 11 15.32 11 16 C12.32 16.66 13.64 17.32 15 18 C10.05 18 5.1 18 0 18 C0 12.06 0 6.12 0 0 Z " fill="#E6DAC0" transform="translate(85,52)"/>
<path d="M0 0 C0.33 0 0.66 0 1 0 C1.02578125 1.11375 1.0515625 2.2275 1.078125 3.375 C1.50896591 16.31164039 3.0237851 28.3207686 9 40 C9 40.66 9 41.32 9 42 C8.01 41.67 7.02 41.34 6 41 C6 39.68 6 38.36 6 37 C5.34 37 4.68 37 4 37 C0.57716405 29.05550595 -0.65815722 22.054085 -0.8125 13.4375 C-0.85052734 12.35919922 -0.88855469 11.28089844 -0.92773438 10.16992188 C-1.15937593 2.31875185 -1.15937593 2.31875185 0 0 Z " fill="#F5E6C9" transform="translate(69,38)"/>
<path d="M0 0 C0 0.66 0 1.32 0 2 C0.66 2 1.32 2 2 2 C2 1.34 2 0.68 2 0 C2.66 0 3.32 0 4 0 C4 1.98 4 3.96 4 6 C2.68 6 1.36 6 0 6 C-0.33 6.99 -0.66 7.98 -1 9 C-1.66 9 -2.32 9 -3 9 C-3.33 7.02 -3.66 5.04 -4 3 C-3.34 3 -2.68 3 -2 3 C-2 2.34 -2 1.68 -2 1 C-3.98491642 1.26676204 -3.98491642 1.26676204 -6 2 C-6.33 2.99 -6.66 3.98 -7 5 C-7.99 5 -8.98 5 -10 5 C-10.33 3.68 -10.66 2.36 -11 1 C-9.5437328 0.63743142 -8.08488815 0.28520207 -6.625 -0.0625 C-5.40683594 -0.35833984 -5.40683594 -0.35833984 -4.1640625 -0.66015625 C-2 -1 -2 -1 0 0 Z " fill="#E1DACB" transform="translate(98,150)"/>
<path d="M0 0 C1.32 0 2.64 0 4 0 C4 3.63 4 7.26 4 11 C2.68 11 1.36 11 0 11 C0 9.68 0 8.36 0 7 C-1.98491642 7.26676204 -1.98491642 7.26676204 -4 8 C-4.33 8.99 -4.66 9.98 -5 11 C-5.66 11 -6.32 11 -7 11 C-7 7.7 -7 4.4 -7 1 C-6.34 1 -5.68 1 -5 1 C-5 2.32 -5 3.64 -5 5 C-3.35 5 -1.7 5 0 5 C0 3.35 0 1.7 0 0 Z " fill="#626263" transform="translate(84,129)"/>
<path d="M0 0 C1.32 0 2.64 0 4 0 C4 0.66 4 1.32 4 2 C3.34 2 2.68 2 2 2 C2 9.26 2 16.52 2 24 C1.01 24 0.02 24 -1 24 C-1.18451025 7.1070615 -1.18451025 7.1070615 0 0 Z " fill="#C9A54B" transform="translate(82,48)"/>
<path d="M0 0 C0.66 0 1.32 0 2 0 C2.33 2.31 2.66 4.62 3 7 C3.66 6.01 4.32 5.02 5 4 C7.35953094 6.35953094 7.49141413 7.77895617 8 11 C3.545 11.495 3.545 11.495 -1 12 C-1 11.34 -1 10.68 -1 10 C-0.34 9.67 0.32 9.34 1 9 C-1.31 8.67 -3.62 8.34 -6 8 C-6 7.34 -6 6.68 -6 6 C-4.68 6 -3.36 6 -2 6 C-1.34 4.02 -0.68 2.04 0 0 Z " fill="#5A5A5B" transform="translate(75,94)"/>
<path d="M0 0 C0.33 0.66 0.66 1.32 1 2 C3.97 2 6.94 2 10 2 C10.33 1.34 10.66 0.68 11 0 C11 0.66 11 1.32 11 2 C11.90363281 1.97679687 12.80726563 1.95359375 13.73828125 1.9296875 C14.91777344 1.91164062 16.09726563 1.89359375 17.3125 1.875 C19.07013672 1.84019531 19.07013672 1.84019531 20.86328125 1.8046875 C24 2 24 2 27 4 C22.38 4 17.76 4 13 4 C13 4.66 13 5.32 13 6 C12.34 6 11.68 6 11 6 C11 5.34 11 4.68 11 4 C6.38 4 1.76 4 -3 4 C-3 3.34 -3 2.68 -3 2 C-2.01 1.34 -1.02 0.68 0 0 Z " fill="#C1C1C1" transform="translate(168,177)"/>
<path d="M0 0 C1.32 0 2.64 0 4 0 C4 1.98 4 3.96 4 6 C5.65 6 7.3 6 9 6 C9 6.99 9 7.98 9 9 C9.66 9.33 10.32 9.66 11 10 C6.05 10 1.1 10 -4 10 C-4 8.68 -4 7.36 -4 6 C-1.69 6 0.62 6 3 6 C3 4.68 3 3.36 3 2 C2.01 1.67 1.02 1.34 0 1 C0 0.67 0 0.34 0 0 Z " fill="#EBEBEB" transform="translate(173,182)"/>
<path d="M0 0 C2.64 0 5.28 0 8 0 C8 1.32 8 2.64 8 4 C6.35 4.33 4.7 4.66 3 5 C3.33 5.66 3.66 6.32 4 7 C-2.75 8.125 -2.75 8.125 -5 7 C-5.625 4.9375 -5.625 4.9375 -6 3 C-5.01 3 -4.02 3 -3 3 C-2.34 2.34 -1.68 1.68 -1 1 C-1 1.66 -1 2.32 -1 3 C-0.34 3 0.32 3 1 3 C0.67 2.01 0.34 1.02 0 0 Z " fill="#E3E3E3" transform="translate(187,184)"/>
<path d="M0 0 C0.33 0.66 0.66 1.32 1 2 C-0.8125 4 -0.8125 4 -3 6 C-3.99 6 -4.98 6 -6 6 C-6.144375 6.639375 -6.28875 7.27875 -6.4375 7.9375 C-7 10 -7 10 -8 11 C-9.66617115 11.04063832 -11.33388095 11.042721 -13 11 C-13 11.66 -13 12.32 -13 13 C-13.99 12.67 -14.98 12.34 -16 12 C-15.67 11.34 -15.34 10.68 -15 10 C-15.66 9.67 -16.32 9.34 -17 9 C-16.360625 8.87625 -15.72125 8.7525 -15.0625 8.625 C-14.381875 8.41875 -13.70125 8.2125 -13 8 C-12.67 7.34 -12.34 6.68 -12 6 C-10.15234375 5.3671875 -10.15234375 5.3671875 -7.9375 4.875 C-7.20402344 4.70742187 -6.47054687 4.53984375 -5.71484375 4.3671875 C-5.14894531 4.24601562 -4.58304688 4.12484375 -4 4 C-4 3.34 -4 2.68 -4 2 C-2.68 1.34 -1.36 0.68 0 0 Z " fill="#F1E7D4" transform="translate(116,91)"/>
<path d="M0 0 C3 0 3 0 4.6875 1.5 C5.120625 1.995 5.55375 2.49 6 3 C6.99 2.01 7.98 1.02 9 0 C9.33 0.99 9.66 1.98 10 3 C8.625 4.5 8.625 4.5 7 6 C6.34 6 5.68 6 5 6 C5.33 6.66 5.66 7.32 6 8 C7.32 7.34 8.64 6.68 10 6 C8.9024777 8.99324263 8.32317108 9.84610901 5.375 11.25 C4.59125 11.4975 3.8075 11.745 3 12 C1.4375 10.1875 1.4375 10.1875 0 8 C0.33 7.01 0.66 6.02 1 5 C1.66 5.66 2.32 6.32 3 7 C2.690625 6.401875 2.38125 5.80375 2.0625 5.1875 C1 3 1 3 0 0 Z " fill="#505050" transform="translate(138,72)"/>
<path d="M0 0 C0.061875 0.928125 0.061875 0.928125 0.125 1.875 C0.41375 2.57625 0.7025 3.2775 1 4 C3.99615946 5.3045656 3.99615946 5.3045656 7 6 C6.67 6.99 6.34 7.98 6 9 C2.95613276 9.08226668 0.92824652 8.97608217 -2 8 C-4.63804589 8.39397335 -4.63804589 8.39397335 -7 9 C-6.6875 6.625 -6.6875 6.625 -6 4 C-5.01 3.34 -4.02 2.68 -3 2 C-2.67 2.66 -2.34 3.32 -2 4 C-1.34 2.68 -0.68 1.36 0 0 Z " fill="#5E5E5F" transform="translate(124,98)"/>
<path d="M0 0 C1.04449911 3.13349732 0.93423645 3.98968256 0 7 C0.94875 7.12375 1.8975 7.2475 2.875 7.375 C6 8 6 8 8 10 C7.67 10.33 7.34 10.66 7 11 C2.50397765 10.66067756 -0.73831047 10.26168953 -4 7 C-4 6.34 -4 5.68 -4 5 C-4.99 5.495 -4.99 5.495 -6 6 C-6 4.35 -6 2.7 -6 1 C-4.02 0.67 -2.04 0.34 0 0 Z " fill="#D3D3D5" transform="translate(118,99)"/>
<path d="M0 0 C1.08667969 0.01804688 2.17335938 0.03609375 3.29296875 0.0546875 C4.54013672 0.08949219 4.54013672 0.08949219 5.8125 0.125 C5.8125 1.115 5.8125 2.105 5.8125 3.125 C6.4725 3.125 7.1325 3.125 7.8125 3.125 C7.8125 9.725 7.8125 16.325 7.8125 23.125 C7.4825 23.125 7.1525 23.125 6.8125 23.125 C6.47448848 20.58387768 6.14196621 18.04223254 5.8125 15.5 C5.71710938 14.78714844 5.62171875 14.07429688 5.5234375 13.33984375 C5.38808594 12.28603516 5.38808594 12.28603516 5.25 11.2109375 C5.16621094 10.5720459 5.08242187 9.9331543 4.99609375 9.27490234 C4.76488585 6.56743323 4.8125 3.84232333 4.8125 1.125 C0.1925 1.455 -4.4275 1.785 -9.1875 2.125 C-5.66070901 -0.22619399 -4.15870515 -0.08943452 0 0 Z " fill="#ECDDB4" transform="translate(112.1875,47.875)"/>
<path d="M0 0 C0.99 0.66 1.98 1.32 3 2 C2.67 3.32 2.34 4.64 2 6 C1.34 5.01 0.68 4.02 0 3 C0.33 5.64 0.66 8.28 1 11 C0.01 9.68 -0.98 8.36 -2 7 C-1.67 9.64 -1.34 12.28 -1 15 C-1.66 13.68 -2.32 12.36 -3 11 C-3.66 11 -4.32 11 -5 11 C-5 9.35 -5 7.7 -5 6 C-5.66 6 -6.32 6 -7 6 C-7.66 6.99 -8.32 7.98 -9 9 C-9 7.35 -9 5.7 -9 4 C-6.66666667 4 -4.33333333 4 -2 4 C-2 3.01 -2 2.02 -2 1 C-1.34 0.67 -0.68 0.34 0 0 Z " fill="#DBDBDB" transform="translate(139,75)"/>
<path d="M0 0 C0.94875 0.350625 1.8975 0.70125 2.875 1.0625 C2.215 1.7225 1.555 2.3825 0.875 3.0625 C0.875 3.7225 0.875 4.3825 0.875 5.0625 C0.215 5.0625 -0.445 5.0625 -1.125 5.0625 C-1.125 5.7225 -1.125 6.3825 -1.125 7.0625 C-1.785 7.0625 -2.445 7.0625 -3.125 7.0625 C-3.125 7.7225 -3.125 8.3825 -3.125 9.0625 C-6.095 8.5675 -6.095 8.5675 -9.125 8.0625 C-8.135 7.0725 -7.145 6.0825 -6.125 5.0625 C-7.445 4.4025 -8.765 3.7425 -10.125 3.0625 C-8.475 2.7325 -6.825 2.4025 -5.125 2.0625 C-5.125 1.4025 -5.125 0.7425 -5.125 0.0625 C-3.125 -0.9375 -3.125 -0.9375 0 0 Z " fill="#E0E1E2" transform="translate(103.125,105.9375)"/>
<path d="M0 0 C0.99 0 1.98 0 3 0 C3.33 1.32 3.66 2.64 4 4 C4.66 4 5.32 4 6 4 C5.67 2.68 5.34 1.36 5 0 C5.99 0.33 6.98 0.66 8 1 C7.67 2.98 7.34 4.96 7 7 C5.68 6.67 4.36 6.34 3 6 C3 7.65 3 9.3 3 11 C2.01 11 1.02 11 0 11 C0 7.37 0 3.74 0 0 Z " fill="#797979" transform="translate(165,129)"/>
<path d="M0 0 C3.3 0 6.6 0 10 0 C9.67 0.99 9.34 1.98 9 3 C8.34 2.67 7.68 2.34 7 2 C7 4.97 7 7.94 7 11 C6.01 11 5.02 11 4 11 C4 8.03 4 5.06 4 2 C2.68 2.33 1.36 2.66 0 3 C0 2.01 0 1.02 0 0 Z " fill="#696969" transform="translate(89,129)"/>
<path d="M0 0 C0.89203125 0.00902344 1.7840625 0.01804688 2.703125 0.02734375 C3.37859375 0.03894531 4.0540625 0.05054688 4.75 0.0625 C4.75 2.0425 4.75 4.0225 4.75 6.0625 C4.09 6.0625 3.43 6.0625 2.75 6.0625 C2.09 5.0725 1.43 4.0825 0.75 3.0625 C-2.55 3.3925 -5.85 3.7225 -9.25 4.0625 C-9.25 3.0725 -9.25 2.0825 -9.25 1.0625 C-6.09493858 0.12630187 -3.28413498 -0.0432123 0 0 Z " fill="#F1E8D9" transform="translate(112.25,48.9375)"/>
<path d="M0 0 C0.66 0 1.32 0 2 0 C2.33 2.31 2.66 4.62 3 7 C4.32 7.33 5.64 7.66 7 8 C7.33 7.01 7.66 6.02 8 5 C8.66 5 9.32 5 10 5 C10 6.32 10 7.64 10 9 C7.69 9.33 5.38 9.66 3 10 C3 10.66 3 11.32 3 12 C2.34 12 1.68 12 1 12 C1 11.34 1 10.68 1 10 C0.34 9.67 -0.32 9.34 -1 9 C-1.125 2.25 -1.125 2.25 0 0 Z " fill="#969697" transform="translate(64,131)"/>
<path d="M0 0 C1.32 0.66 2.64 1.32 4 2 C3.67 2.66 3.34 3.32 3 4 C3.66 4.33 4.32 4.66 5 5 C5 7.64 5 10.28 5 13 C4.34 13 3.68 13 3 13 C2.67 12.01 2.34 11.02 2 10 C1.34 11.65 0.68 13.3 0 15 C-0.68707555 12.50935112 -1 10.62113708 -1 8 C-0.34 8 0.32 8 1 8 C0.67 5.36 0.34 2.72 0 0 Z " fill="#DBDDDD" transform="translate(122,89)"/>
<path d="M0 0 C2.97 0.495 2.97 0.495 6 1 C5.67 1.66 5.34 2.32 5 3 C4.34 3 3.68 3 3 3 C3 4.32 3 5.64 3 7 C3.66 7 4.32 7 5 7 C5 7.66 5 8.32 5 9 C1.77208445 11.1519437 0.71599191 11.20086443 -3 11 C-1.25 7.125 -1.25 7.125 1 6 C1.33 5.01 1.66 4.02 2 3 C1.34 3 0.68 3 0 3 C-0.33 3.66 -0.66 4.32 -1 5 C-0.67 3.35 -0.34 1.7 0 0 Z " fill="#ECECEC" transform="translate(156,181)"/>
<path d="M0 0 C0.99 0 1.98 0 3 0 C2.88601335 1.62580966 2.75844341 3.25067157 2.625 4.875 C2.55539063 5.77992188 2.48578125 6.68484375 2.4140625 7.6171875 C2 10 2 10 0 12 C-2.5 12.3125 -2.5 12.3125 -5 12 C-7.67927341 7.98108988 -7.15601248 5.75838077 -7 1 C-6.34 1 -5.68 1 -5 1 C-4.67 3.64 -4.34 6.28 -4 9 C-2.68 9.33 -1.36 9.66 0 10 C0 6.7 0 3.4 0 0 Z " fill="#6B6B6C" transform="translate(148,129)"/>
<path d="M0 0 C2.31 0 4.62 0 7 0 C6.67 0.99 6.34 1.98 6 3 C5.01 2.67 4.02 2.34 3 2 C3 4.97 3 7.94 3 11 C2.01 11 1.02 11 0 11 C0 7.37 0 3.74 0 0 Z " fill="#656567" transform="translate(132,129)"/>
<path d="M0 0 C0.66 0 1.32 0 2 0 C2.33 0.66 2.66 1.32 3 2 C4.64363134 2.72159424 6.31050386 3.39351421 8 4 C7.67 6.64 7.34 9.28 7 12 C6.67 10.68 6.34 9.36 6 8 C5.34 8 4.68 8 4 8 C3.67 8.66 3.34 9.32 3 10 C3 9.34 3 8.68 3 8 C2.01 7.67 1.02 7.34 0 7 C0 4.66666667 0 2.33333333 0 0 Z " fill="#E3E7E3" transform="translate(124,86)"/>
<path d="M0 0 C3 0 6 0 9 0 C9 1.65 9 3.3 9 5 C6.03 5 3.06 5 0 5 C0 3.35 0 1.7 0 0 Z " fill="#DBD5C4" transform="translate(109,150)"/>
<path d="M0 0 C1.093125 0.350625 2.18625 0.70125 3.3125 1.0625 C6.90920373 2.33039454 6.90920373 2.33039454 10 1 C9.34 2.65 8.68 4.3 8 6 C7.34 6 6.68 6 6 6 C5.67 6.66 5.34 7.32 5 8 C5 7.34 5 6.68 5 6 C4.01 6 3.02 6 2 6 C0 3 0 3 0 0 Z " fill="#696868" transform="translate(56,71)"/>
<path d="M0 0 C5.875 0.875 5.875 0.875 7 2 C7.10004903 4.24816065 7.12966884 6.49961907 7.125 8.75 C7.12757813 9.98234375 7.13015625 11.2146875 7.1328125 12.484375 C7.02005368 15.46916727 6.69588968 18.10598262 6 21 C5.67 21 5.34 21 5 21 C4.97421875 19.73542969 4.9484375 18.47085938 4.921875 17.16796875 C4.86559734 15.50777782 4.80824993 13.8476229 4.75 12.1875 C4.73582031 11.35412109 4.72164062 10.52074219 4.70703125 9.66210938 C4.64313081 4.77923838 4.64313081 4.77923838 1.953125 0.92578125 C1.30859375 0.62027344 0.6640625 0.31476562 0 0 Z " fill="#F1E5C9" transform="translate(129,35)"/>
<path d="M0 0 C0.6875 1.8125 0.6875 1.8125 1 4 C-0.375 5.5625 -0.375 5.5625 -2 7 C-2.33 7.99 -2.66 8.98 -3 10 C-4.875 11.25 -4.875 11.25 -7 12 C-7.99 11.67 -8.98 11.34 -10 11 C-9.01 10.67 -8.02 10.34 -7 10 C-6.71125 9.2575 -6.4225 8.515 -6.125 7.75 C-4.73024988 4.34061083 -2.68504743 2.47307 0 0 Z " fill="#EEE1C0" transform="translate(127,79)"/>
<path d="M0 0 C1.23556641 0.01740234 1.23556641 0.01740234 2.49609375 0.03515625 C3.32238281 0.04417969 4.14867188 0.05320312 5 0.0625 C5.63808594 0.07410156 6.27617188 0.08570312 6.93359375 0.09765625 C4.22426238 2.80698762 1.67972814 3.16036694 -2.00390625 4.16015625 C-7.06278824 5.53790037 -7.06278824 5.53790037 -12.06640625 7.09765625 C-11.73640625 5.77765625 -11.40640625 4.45765625 -11.06640625 3.09765625 C-10.50050781 2.96488281 -9.93460937 2.83210938 -9.3515625 2.6953125 C-8.25134766 2.43041016 -8.25134766 2.43041016 -7.12890625 2.16015625 C-6.39800781 1.98613281 -5.66710937 1.81210937 -4.9140625 1.6328125 C-2.65596134 0.97877474 -2.40941238 0.11386637 0 0 Z " fill="#F4E7D2" transform="translate(83.06640625,30.90234375)"/>
<path d="M0 0 C1.65 0.33 3.3 0.66 5 1 C4.01 1.33 3.02 1.66 2 2 C2 5.3 2 8.6 2 12 C1.01 12.495 1.01 12.495 0 13 C0 10.36 0 7.72 0 5 C-2.57213134 3.38050989 -3.67669159 2.95591249 -6.75 3.375 C-7.86375 3.684375 -7.86375 3.684375 -9 4 C-9 3.01 -9 2.02 -9 1 C-6.66705225 0.95758277 -4.33297433 0.95907063 -2 1 C-1.67 1.33 -1.34 1.66 -1 2 C-0.67 1.34 -0.34 0.68 0 0 Z " fill="#C7C7C9" transform="translate(75,128)"/>
<path d="M0 0 C0.66 0 1.32 0 2 0 C3.25792333 4.27693931 2.75983132 6.92460115 1 11 C0.01 11.495 0.01 11.495 -1 12 C-2.13350534 14.01669827 -2.13350534 14.01669827 -3 16 C-4.57159226 12.85681547 -3.04018399 10.07066611 -2.0625 6.875 C-1.86720703 6.21628906 -1.67191406 5.55757813 -1.47070312 4.87890625 C-0.98695014 3.25066448 -0.49430925 1.62506818 0 0 Z " fill="#ECDBB7" transform="translate(132,61)"/>
<path d="M0 0 C0 0.33 0 0.66 0 1 C-3.3 1.33 -6.6 1.66 -10 2 C-10.33 2.99 -10.66 3.98 -11 5 C-12.74784829 5.36463732 -14.49840502 5.7163078 -16.25 6.0625 C-17.71179688 6.35833984 -17.71179688 6.35833984 -19.203125 6.66015625 C-21.868119 6.98397535 -23.48871723 6.85503199 -26 6 C-25.04738281 5.73445313 -24.09476562 5.46890625 -23.11328125 5.1953125 C-21.85902344 4.84210937 -20.60476562 4.48890625 -19.3125 4.125 C-18.07113281 3.77695312 -16.82976562 3.42890625 -15.55078125 3.0703125 C-12.10161331 2.09480348 -12.10161331 2.09480348 -9.28125 0.875 C-6.15004038 -0.32601191 -3.31857408 -0.13014016 0 0 Z " fill="#D9BF8D" transform="translate(106,28)"/>
<path d="M0 0 C5.71428571 0.71428571 5.71428571 0.71428571 7 2 C7.07179964 3.51928038 7.08392007 5.04167482 7.0625 6.5625 C7.05347656 7.38878906 7.04445313 8.21507812 7.03515625 9.06640625 C7.02355469 9.70449219 7.01195313 10.34257812 7 11 C6.01 11.33 5.02 11.66 4 12 C4.66 9.36 5.32 6.72 6 4 C4.02 4.33 2.04 4.66 0 5 C-0.5625 3.0625 -0.5625 3.0625 -1 1 C-0.67 0.67 -0.34 0.34 0 0 Z " fill="#EFEFF1" transform="translate(69,131)"/>
<path d="M0 0 C0.33 0 0.66 0 1 0 C1.09978121 3.49234244 0.77842938 6.59437148 0 10 C-1.31823302 9.40844669 -2.62947051 8.80128537 -3.9375 8.1875 C-4.66839844 7.85105469 -5.39929687 7.51460938 -6.15234375 7.16796875 C-8 6 -8 6 -9 3 C-7.02 3.66 -5.04 4.32 -3 5 C-2.525625 4.175 -2.05125 3.35 -1.5625 2.5 C-1.046875 1.675 -0.53125 0.85 0 0 Z " fill="#575755" transform="translate(67,81)"/>
<path d="M0 0 C1.32 0 2.64 0 4 0 C3.67 3.63 3.34 7.26 3 11 C2.01 11 1.02 11 0 11 C0 7.37 0 3.74 0 0 Z " fill="#686868" transform="translate(58,129)"/>
<path d="M0 0 C2 3 2 3 1.625 5.1875 C1.41875 5.785625 1.2125 6.38375 1 7 C-1.97 6.505 -1.97 6.505 -5 6 C-5 4.35 -5 2.7 -5 1 C-3.35 0.67 -1.7 0.34 0 0 Z " fill="#DDDDDD" transform="translate(115,126)"/>
<path d="M0 0 C0.66 0.33 1.32 0.66 2 1 C1.625 3.4375 1.625 3.4375 1 6 C0.01 6.495 0.01 6.495 -1 7 C-0.690625 7.61875 -0.38125 8.2375 -0.0625 8.875 C0.625 10.25 1.3125 11.625 2 13 C0.0625 12.625 0.0625 12.625 -2 12 C-3.10647808 9.78704384 -3.19588368 8.45327301 -3.25 6 C-3.27578125 5.29875 -3.3015625 4.5975 -3.328125 3.875 C-3.21984375 3.25625 -3.1115625 2.6375 -3 2 C-2.01 1.34 -1.02 0.68 0 0 Z " fill="#787878" transform="translate(54,127)"/>
<path d="M0 0 C0.66 0 1.32 0 2 0 C2 1.98 2 3.96 2 6 C3.65 6 5.3 6 7 6 C7 6.99 7 7.98 7 9 C1.25 9.125 1.25 9.125 -1 8 C-1.125 2.25 -1.125 2.25 0 0 Z " fill="#5A5A5A" transform="translate(128,94)"/>
<path d="M0 0 C0.78375 0.04125 1.5675 0.0825 2.375 0.125 C2.375 1.115 2.375 2.105 2.375 3.125 C1.715 3.125 1.055 3.125 0.375 3.125 C0.375 4.115 0.375 5.105 0.375 6.125 C-0.945 6.455 -2.265 6.785 -3.625 7.125 C-4.25 4.75 -4.25 4.75 -4.625 2.125 C-2.625 0.125 -2.625 0.125 0 0 Z " fill="#EAE9ED" transform="translate(136.625,72.875)"/>
<path d="M0 0 C0 2.64 0 5.28 0 8 C-1.98 8 -3.96 8 -6 8 C-5.6875 5.125 -5.6875 5.125 -5 2 C-2 0 -2 0 0 0 Z " fill="#EFEFEF" transform="translate(93,131)"/>
<path d="M0 0 C1.1446875 0.3403125 1.1446875 0.3403125 2.3125 0.6875 C2.3125 1.3475 2.3125 2.0075 2.3125 2.6875 C1.3225 2.6875 0.3325 2.6875 -0.6875 2.6875 C-0.6875 4.0075 -0.6875 5.3275 -0.6875 6.6875 C-3.6575 6.1925 -3.6575 6.1925 -6.6875 5.6875 C-5.36299661 1.71398982 -4.47633997 -0.52050465 0 0 Z " fill="#EDEBEF" transform="translate(80.6875,88.3125)"/>
<path d="M0 0 C1.98 1.65 3.96 3.3 6 5 C7.32 4.34 8.64 3.68 10 3 C9.375 4.875 9.375 4.875 8 7 C4.875 8.25 4.875 8.25 2 9 C0.50178941 5.62902617 0 3.79557881 0 0 Z " fill="#4F4F4F" transform="translate(136,81)"/>
<path d="M0 0 C1.32 0.99 2.64 1.98 4 3 C-0.62 3 -5.24 3 -10 3 C-10 2.34 -10 1.68 -10 1 C-6.86967764 -0.56516118 -3.40926916 -0.540337 0 0 Z " fill="#F1E8D8" transform="translate(96,67)"/>
<path d="M0 0 C1.3921875 0.2784375 1.3921875 0.2784375 2.8125 0.5625 C6.01343771 1.24123881 6.01343771 1.24123881 9 0 C8.6875 1.9375 8.6875 1.9375 8 4 C4.71023192 5.09658936 3.28696233 4.79953138 0 4 C0 2.68 0 1.36 0 0 Z M4 5 C4 8 4 8 4 8 Z " fill="#C4C4C4" transform="translate(149,184)"/>
<path d="M0 0 C0.33 0 0.66 0 1 0 C1.125 5.75 1.125 5.75 0 8 C-1.98 8 -3.96 8 -6 8 C-6.66 6.68 -7.32 5.36 -8 4 C-5.03 4.495 -5.03 4.495 -2 5 C-1.34 3.35 -0.68 1.7 0 0 Z " fill="#525254" transform="translate(69,86)"/>
<path d="M0 0 C5.28 0 10.56 0 16 0 C16 0.33 16 0.66 16 1 C14.89591797 1.19916016 14.89591797 1.19916016 13.76953125 1.40234375 C12.79371094 1.57894531 11.81789063 1.75554688 10.8125 1.9375 C9.84957031 2.11152344 8.88664062 2.28554688 7.89453125 2.46484375 C5.25760028 2.9523735 2.6280095 3.46671105 0 4 C0 2.68 0 1.36 0 0 Z " fill="#F5E9D5" transform="translate(90,27)"/>
<path d="M0 0 C0.99 0 1.98 0 3 0 C3.33 3.63 3.66 7.26 4 11 C2.68 10.34 1.36 9.68 0 9 C0 6.03 0 3.06 0 0 Z " fill="#606060" transform="translate(117,129)"/>
<path d="M0 0 C6.75 0.75 6.75 0.75 9 3 C9 3.99 9 4.98 9 6 C6.75 6.25 6.75 6.25 4 6 C1.6875 4.125 1.6875 4.125 0 2 C0 1.34 0 0.68 0 0 Z " fill="#929294" transform="translate(105,108)"/>
<path d="M0 0 C0.33 0.99 0.66 1.98 1 3 C-2.73486879 3.5745952 -6.21293268 4 -10 4 C-10 3.01 -10 2.02 -10 1 C-6.52674819 -0.1577506 -3.63932552 -0.06866652 0 0 Z " fill="#C0C0C0" transform="translate(187,184)"/>
<path d="M0 0 C0.33 1.65 0.66 3.3 1 5 C-0.98 5 -2.96 5 -5 5 C-5.33 5.66 -5.66 6.32 -6 7 C-6.33 6.01 -6.66 5.02 -7 4 C-7.66 3.67 -8.32 3.34 -9 3 C-2.25 0 -2.25 0 0 0 Z " fill="#C7C7C7" transform="translate(174,137)"/>
<path d="M0 0 C0.99 0 1.98 0 3 0 C3 3.3 3 6.6 3 10 C2.01 10 1.02 10 0 10 C0 6.7 0 3.4 0 0 Z " fill="#545454" transform="translate(153,130)"/>
<path d="M0 0 C0.66 0.66 1.32 1.32 2 2 C1.625 5.625 1.625 5.625 1 9 C-0.65 9.33 -2.3 9.66 -4 10 C-4 9.34 -4 8.68 -4 8 C-3.34 8 -2.68 8 -2 8 C-1.855625 6.865625 -1.71125 5.73125 -1.5625 4.5625 C-1 1 -1 1 0 0 Z " fill="#E3E3E3" transform="translate(124,129)"/>
<path d="M0 0 C1.77007714 -0.08114106 3.54122098 -0.13925505 5.3125 -0.1875 C6.29863281 -0.22230469 7.28476563 -0.25710937 8.30078125 -0.29296875 C11 0 11 0 12.85546875 1.51171875 C13.23316406 2.00285156 13.61085938 2.49398437 14 3 C13 4 13 4 10.4375 4.0625 C9.2309375 4.0315625 9.2309375 4.0315625 8 4 C8 3.01 8 2.02 8 1 C5.69 1 3.38 1 1 1 C0.67 1.99 0.34 2.98 0 4 C0 2.68 0 1.36 0 0 Z " fill="#F1E5C6" transform="translate(87,48)"/>
<path d="M0 0 C2.475 0.495 2.475 0.495 5 1 C4.67 2.65 4.34 4.3 4 6 C2.68 6 1.36 6 0 6 C0 4.02 0 2.04 0 0 Z " fill="#DBDBDB" transform="translate(36,133)"/>
<path d="M0 0 C0.66 0 1.32 0 2 0 C2.05422947 1.4370809 2.09289723 2.87475462 2.125 4.3125 C2.14820312 5.11300781 2.17140625 5.91351563 2.1953125 6.73828125 C2 9 2 9 0 12 C-3.125 12.1875 -3.125 12.1875 -6 12 C-4 10 -4 10 -1 9 C-0.67 6.03 -0.34 3.06 0 0 Z " fill="#ABABAB" transform="translate(125,129)"/>
<path d="M0 0 C0.66 0.33 1.32 0.66 2 1 C1.01 3.31 0.02 5.62 -1 8 C-1.33 7.34 -1.66 6.68 -2 6 C-3.32 6 -4.64 6 -6 6 C-6.66 4.35 -7.32 2.7 -8 1 C-5 2 -5 2 -3 4 C-2.01 2.68 -1.02 1.36 0 0 Z " fill="#454346" transform="translate(65,77)"/>
<path d="M0 0 C0.33 0.66 0.66 1.32 1 2 C0.67 2.66 0.34 3.32 0 4 C0.99 4 1.98 4 3 4 C2.67 4.99 2.34 5.98 2 7 C1.01 6.67 0.02 6.34 -1 6 C-1.33 6.99 -1.66 7.98 -2 9 C-2.99 8.01 -3.98 7.02 -5 6 C-4.34 5.34 -3.68 4.68 -3 4 C-3 3.01 -3 2.02 -3 1 C-2.01 0.67 -1.02 0.34 0 0 Z " fill="#CAC9CB" transform="translate(146,67)"/>
<path d="M0 0 C1.32 0 2.64 0 4 0 C4 0.66 4 1.32 4 2 C3.34 2 2.68 2 2 2 C2 8.6 2 15.2 2 22 C1.67 22 1.34 22 1 22 C0.67 14.74 0.34 7.48 0 0 Z " fill="#C6A75E" transform="translate(82,48)"/>
<path d="M0 0 C3.59634744 3.49359465 6.83451967 7.11098131 10 11 C6.81885452 10.15169454 4.54360258 9.54360258 2.1875 7.1875 C0.88192931 4.78250136 0.37500283 2.7000204 0 0 Z " fill="#EDE0B9" transform="translate(78,80)"/>
<path d="M0 0 C0.66 0.33 1.32 0.66 2 1 C2 2.32 2 3.64 2 5 C2.66 5.33 3.32 5.66 4 6 C3.67 7.32 3.34 8.64 3 10 C2.67 9.01 2.34 8.02 2 7 C0.68 7 -0.64 7 -2 7 C-1.42415568 4.61435923 -0.77772405 2.33317216 0 0 Z " fill="#E4E4DB" transform="translate(86,150)"/>
<path d="M0 0 C0.99 0.33 1.98 0.66 3 1 C0.24735748 4.05849168 -2.00751252 5.87391379 -6 7 C-6.99 6.67 -7.98 6.34 -9 6 C-8.43410156 5.65066406 -7.86820312 5.30132812 -7.28515625 4.94140625 C-6.55167969 4.48636719 -5.81820312 4.03132813 -5.0625 3.5625 C-4.33160156 3.11003906 -3.60070312 2.65757813 -2.84765625 2.19140625 C-1.06100191 1.13135967 -1.06100191 1.13135967 0 0 Z " fill="#C7A85D" transform="translate(115,88)"/>
<path d="M0 0 C0.99 0.33 1.98 0.66 3 1 C0.03 3.475 0.03 3.475 -3 6 C-3.33 5.01 -3.66 4.02 -4 3 C-5.32 3.33 -6.64 3.66 -8 4 C-8 3.01 -8 2.02 -8 1 C-7.05125 1.020625 -6.1025 1.04125 -5.125 1.0625 C-2.09333717 1.22551826 -2.09333717 1.22551826 0 0 Z " fill="#BEBCBE" transform="translate(64,76)"/>
<path d="M0 0 C3 0 3 0 4.6875 1.5 C5.120625 1.995 5.55375 2.49 6 3 C6.99 2.01 7.98 1.02 9 0 C9.33 0.99 9.66 1.98 10 3 C8 5 8 5 5.5625 5.4375 C3 5 3 5 1.1875 2.5 C0.795625 1.675 0.40375 0.85 0 0 Z " fill="#444546" transform="translate(138,72)"/>
<path d="M0 0 C2.64 0 5.28 0 8 0 C8 0.99 8 1.98 8 3 C4.94736336 3.98120464 3.05263664 3.98120464 0 3 C0 2.01 0 1.02 0 0 Z " fill="#C4C4C4" transform="translate(159,184)"/>
<path d="M0 0 C2.31 0.33 4.62 0.66 7 1 C7 3.31 7 5.62 7 8 C4.2160817 6.60804085 4.02101003 4.84424221 3 2 C2.01 3.485 2.01 3.485 1 5 C0.67 3.35 0.34 1.7 0 0 Z " fill="#CCCCCE" transform="translate(77,97)"/>
<path d="M0 0 C2.875 0.25 2.875 0.25 6 1 C7.375 3.0625 7.375 3.0625 8 5 C6.68 5.33 5.36 5.66 4 6 C4.33 5.01 4.66 4.02 5 3 C3.02 3.99 3.02 3.99 1 5 C1 4.34 1 3.68 1 3 C0.34 2.67 -0.32 2.34 -1 2 C-0.67 1.34 -0.34 0.68 0 0 Z " fill="#DADADA" transform="translate(61,69)"/>
<path d="M0 0 C1.32 0.66 2.64 1.32 4 2 C3.34 2 2.68 2 2 2 C2 2.66 2 3.32 2 4 C2.66 4.33 3.32 4.66 4 5 C2.02 5.66 0.04 6.32 -2 7 C-2.33 6.01 -2.66 5.02 -3 4 C-2.34 4 -1.68 4 -1 4 C-0.67 2.68 -0.34 1.36 0 0 Z " fill="#E2E2E2" transform="translate(163,177)"/>
<path d="M0 0 C0.33 0 0.66 0 1 0 C1.36263859 5.8022175 0.25684543 9.63999211 -2 15 C-2.33 15 -2.66 15 -3 15 C-3.42589023 9.46342706 -1.905247 5.10334017 0 0 Z " fill="#C3A65A" transform="translate(131,59)"/>
<path d="M0 0 C0 0.66 0 1.32 0 2 C-3.21451269 3.60725635 -6.43612536 3.05748185 -10 3 C-7.29536552 -0.8183075 -4.37912428 -0.24787496 0 0 Z " fill="#CFAB37" transform="translate(95,35)"/>
<path d="M0 0 C0 0.66 0 1.32 0 2 C-0.66 2 -1.32 2 -2 2 C-2 3.65 -2 5.3 -2 7 C-3.65 7 -5.3 7 -7 7 C-3.86206897 0 -3.86206897 0 0 0 Z " fill="#EFE9DD" transform="translate(96,151)"/>
<path d="M0 0 C1.65 0 3.3 0 5 0 C5 1.65 5 3.3 5 5 C3.35 5 1.7 5 0 5 C0 3.35 0 1.7 0 0 Z " fill="#DAD4C0" transform="translate(103,150)"/>
<path d="M0 0 C0 0.66 0 1.32 0 2 C-1.98 2.33 -3.96 2.66 -6 3 C-6 2.34 -6 1.68 -6 1 C-6.66 1 -7.32 1 -8 1 C-8.33 1.66 -8.66 2.32 -9 3 C-10.65 2.67 -12.3 2.34 -14 2 C-13 0 -13 0 -10.9375 -0.6875 C-7.11000622 -1.09468019 -3.80415113 -0.58029424 0 0 Z " fill="#D6D6D6" transform="translate(97,139)"/>
<path d="M0 0 C0.66 0.33 1.32 0.66 2 1 C2.33 1.99 2.66 2.98 3 4 C3.33 4.66 3.66 5.32 4 6 C2.35 6.66 0.7 7.32 -1 8 C-1.04241723 5.66705225 -1.04092937 3.33297433 -1 1 C-0.67 0.67 -0.34 0.34 0 0 Z " fill="#C8C8C9" transform="translate(128,128)"/>
<path d="M0 0 C0.66 0 1.32 0 2 0 C2.144375 1.11375 2.28875 2.2275 2.4375 3.375 C2.78372035 6.82142047 2.78372035 6.82142047 4 9 C1.525 8.01 1.525 8.01 -1 7 C-0.67 4.69 -0.34 2.38 0 0 Z " fill="#464647" transform="translate(64,131)"/>
<path d="M0 0 C0.99 0.66 1.98 1.32 3 2 C2.67 3.32 2.34 4.64 2 6 C0.35 6.33 -1.3 6.66 -3 7 C-2.25 2.25 -2.25 2.25 0 0 Z " fill="#676769" transform="translate(120,100)"/>
<path d="M0 0 C0.33 0 0.66 0 1 0 C1 2.31 1 4.62 1 7 C-4.75 8.125 -4.75 8.125 -7 7 C-7 6.34 -7 5.68 -7 5 C-5.02 5 -3.04 5 -1 5 C-0.67 3.35 -0.34 1.7 0 0 Z " fill="#434344" transform="translate(72,91)"/>
<path d="M0 0 C0.99 0 1.98 0 3 0 C2.67 1.32 2.34 2.64 2 4 C1.01 4 0.02 4 -1 4 C-1.66 5.65 -2.32 7.3 -3 9 C-3.33 8.01 -3.66 7.02 -4 6 C-2.25 2.8125 -2.25 2.8125 0 0 Z " fill="#C9AA51" transform="translate(124,75)"/>
<path d="M0 0 C4.29 0.99 8.58 1.98 13 3 C13 3.33 13 3.66 13 4 C11.39620659 4.05416188 9.79188594 4.09286638 8.1875 4.125 C7.29417969 4.14820313 6.40085937 4.17140625 5.48046875 4.1953125 C3 4 3 4 0 2 C0 1.34 0 0.68 0 0 Z " fill="#C8A967" transform="translate(120,34)"/>
<path d="M0 0 C1.98 0 3.96 0 6 0 C6 1.32 6 2.64 6 4 C4.02 4 2.04 4 0 4 C0 2.68 0 1.36 0 0 Z " fill="#C1C1C1" transform="translate(170,184)"/>
<path d="M0 0 C1.98 0 3.96 0 6 0 C6 1.32 6 2.64 6 4 C4.35 4 2.7 4 1 4 C0.67 2.68 0.34 1.36 0 0 Z " fill="#C0C0C0" transform="translate(189,184)"/>
<path d="M0 0 C1.98 0 3.96 0 6 0 C5.67 2.64 5.34 5.28 5 8 C4.01 8 3.02 8 2 8 C2.66 7.67 3.32 7.34 4 7 C3.67 5.02 3.34 3.04 3 1 C2.01 0.67 1.02 0.34 0 0 Z " fill="#F1F1F1" transform="translate(144,181)"/>
<path d="M0 0 C0.99 0 1.98 0 3 0 C2.773125 0.9075 2.54625 1.815 2.3125 2.75 C1.67394455 5.99503501 1.67394455 5.99503501 3.4375 8.375 C3.953125 8.91125 4.46875 9.4475 5 10 C1.125 9.125 1.125 9.125 0 8 C-0.14115161 5.32941149 -0.04247107 2.67567762 0 0 Z " fill="#3E3E3E" transform="translate(158,130)"/>
<path d="M0 0 C2.64 0 5.28 0 8 0 C7.690625 0.598125 7.38125 1.19625 7.0625 1.8125 C5.89790296 4.08956772 5.89790296 4.08956772 5 7 C4.34 7 3.68 7 3 7 C3 5.02 3 3.04 3 1 C2.01 0.67 1.02 0.34 0 0 Z " fill="#C5C5C5" transform="translate(153,129)"/>
<path d="M0 0 C0.99 0 1.98 0 3 0 C3 4.62 3 9.24 3 14 C2.67 14 2.34 14 2 14 C2 10.7 2 7.4 2 4 C1.34 4 0.68 4 0 4 C0 2.68 0 1.36 0 0 Z " fill="#D3A439" transform="translate(128,40)"/>
<path d="M0 0 C1.65 0 3.3 0 5 0 C4.67 0.66 4.34 1.32 4 2 C3.34 1.67 2.68 1.34 2 1 C2 2.98 2 4.96 2 7 C1.01 6.67 0.02 6.34 -1 6 C-0.67 4.02 -0.34 2.04 0 0 Z " fill="#CDCDCF" transform="translate(139,129)"/>
<path d="M0 0 C2.62187494 1.04874998 3.79371361 1.64931313 5.25 4.125 C5.4975 4.74375 5.745 5.3625 6 6 C4.02 6 2.04 6 0 6 C0.33 5.34 0.66 4.68 1 4 C0.60061233 1.90178785 0.60061233 1.90178785 0 0 Z " fill="#595A5C" transform="translate(93,103)"/>
<path d="M0 0 C0 1.65 0 3.3 0 5 C-0.66 5 -1.32 5 -2 5 C-2.33 4.01 -2.66 3.02 -3 2 C-3.33 2.99 -3.66 3.98 -4 5 C-4.66 3.68 -5.32 2.36 -6 1 C-4 0 -4 0 0 0 Z " fill="#E6E6E8" transform="translate(110,141)"/>
<path d="M0 0 C4.29 0 8.58 0 13 0 C13 0.33 13 0.66 13 1 C12.09507813 1.09087891 12.09507813 1.09087891 11.171875 1.18359375 C9.97304687 1.30927734 9.97304687 1.30927734 8.75 1.4375 C7.96109375 1.51871094 7.1721875 1.59992188 6.359375 1.68359375 C4.17635361 1.97634993 2.1226818 2.42064419 0 3 C0 2.01 0 1.02 0 0 Z " fill="#E1DCD4" transform="translate(104,66)"/>
<path d="M0 0 C1.98 0 3.96 0 6 0 C5.34 1.32 4.68 2.64 4 4 C3.01 4 2.02 4 1 4 C0.67 2.68 0.34 1.36 0 0 Z " fill="#D7D0C3" transform="translate(87,151)"/>
<path d="M0 0 C0.99 0.66 1.98 1.32 3 2 C2.67 2.99 2.34 3.98 2 5 C-0.31 4.67 -2.62 4.34 -5 4 C-5 3.34 -5 2.68 -5 2 C-2.6875 0.875 -2.6875 0.875 0 0 Z " fill="#F1F1F1" transform="translate(51,139)"/>
<path d="M0 0 C0.66 0 1.32 0 2 0 C2.625 2.375 2.625 2.375 3 5 C2.34 5.66 1.68 6.32 1 7 C-1.125 6.625 -1.125 6.625 -3 6 C-2.01 6 -1.02 6 0 6 C0 4.02 0 2.04 0 0 Z " fill="#CDCDCD" transform="translate(49,134)"/>
<path d="M0 0 C0.66 0 1.32 0 2 0 C1.67 2.31 1.34 4.62 1 7 C0.67 6.34 0.34 5.68 0 5 C-0.66 5 -1.32 5 -2 5 C-1.34 3.35 -0.68 1.7 0 0 Z " fill="#EEEEF0" transform="translate(130,134)"/>
<path d="M0 0 C1.32 0.33 2.64 0.66 4 1 C3.67 2.32 3.34 3.64 3 5 C2.01 5 1.02 5 0 5 C0 3.35 0 1.7 0 0 Z " fill="#D5D5D5" transform="translate(36,127)"/>
<path d="M0 0 C1.32 0 2.64 0 4 0 C4 1.65 4 3.3 4 5 C2.35 5 0.7 5 -1 5 C-0.67 4.34 -0.34 3.68 0 3 C0.66 3 1.32 3 2 3 C2 2.34 2 1.68 2 1 C1.34 0.67 0.68 0.34 0 0 Z " fill="#E3E3E3" transform="translate(159,187)"/>
<path d="M0 0 C0.99 1.485 0.99 1.485 2 3 C1.34 3 0.68 3 0 3 C0 2.01 0 1.02 0 0 Z M-2 1 C-1.34 2.32 -0.68 3.64 0 5 C-2.31 5 -4.62 5 -7 5 C-6.01 4.01 -5.02 3.02 -4 2 C-3.34 2.33 -2.68 2.66 -2 3 C-2 2.34 -2 1.68 -2 1 Z " fill="#EEEEF0" transform="translate(138,139)"/>
<path d="M0 0 C2.31 0 4.62 0 7 0 C7.33 1.32 7.66 2.64 8 4 C7.01 3.34 6.02 2.68 5 2 C2.35367713 2.3121764 2.35367713 2.3121764 0 3 C0 2.01 0 1.02 0 0 Z " fill="#909092" transform="translate(66,129)"/>
<path d="M0 0 C2.31 0.33 4.62 0.66 7 1 C6.67 1.66 6.34 2.32 6 3 C4.35 3 2.7 3 1 3 C0.67 2.01 0.34 1.02 0 0 Z " fill="#4C4C4E" transform="translate(119,107)"/>
<path d="M0 0 C1.98 0 3.96 0 6 0 C6 0.66 6 1.32 6 2 C4.02 2.33 2.04 2.66 0 3 C0 2.01 0 1.02 0 0 Z " fill="#49494A" transform="translate(80,107)"/>
<path d="M0 0 C0 0.33 0 0.66 0 1 C-2.31 1.33 -4.62 1.66 -7 2 C-7 2.66 -7 3.32 -7 4 C-7.99 4 -8.98 4 -10 4 C-10 3.01 -10 2.02 -10 1 C-6.61981469 -0.04005702 -3.5219721 -0.08004482 0 0 Z " fill="#C5A851" transform="translate(90,34)"/>
</svg>
