<?xml version="1.0" encoding="UTF-8"?>
<svg version="1.1" xmlns="http://www.w3.org/2000/svg" width="189" height="180">
<path d="M0 0 C62.37 0 124.74 0 189 0 C189 59.4 189 118.8 189 180 C126.63 180 64.26 180 0 180 C0 120.6 0 61.2 0 0 Z " fill="#010101" transform="translate(0,0)"/>
<path d="M0 0 C62.37 0 124.74 0 189 0 C189 4.29 189 8.58 189 13 C126.63 13 64.26 13 0 13 C0 8.71 0 4.42 0 0 Z " fill="#EFEFEF" transform="translate(0,167)"/>
<path d="M0 0 C2.97 0 5.94 0 9 0 C9 15.51 9 31.02 9 47 C9.66 47 10.32 47 11 47 C11 33.8 11 20.6 11 7 C13.97 7 16.94 7 20 7 C20 18.22 20 29.44 20 41 C20.66 41 21.32 41 22 41 C22 31.43 22 21.86 22 12 C25.63 12 29.26 12 33 12 C33 15.96 33 19.92 33 24 C36.3 24 39.6 24 43 24 C43 20.04 43 16.08 43 12 C44.65 12 46.3 12 48 12 C48 19.92 48 27.84 48 36 C46.35 36 44.7 36 43 36 C43 32.37 43 28.74 43 25 C39.37 25 35.74 25 32 25 C32 23.02 32 21.04 32 19 C30.515 19.495 30.515 19.495 29 20 C29.495 20.928125 29.495 20.928125 30 21.875 C31 24 31 24 31 26 C28.69 26 26.38 26 24 26 C24 24.02 24 22.04 24 20 C24.66 20 25.32 20 26 20 C26 19.34 26 18.68 26 18 C27.98 18 29.96 18 32 18 C32 16.35 32 14.7 32 13 C29.03 13 26.06 13 23 13 C23 22.57 23 32.14 23 42 C21.68 42 20.36 42 19 42 C19 39.69 19 37.38 19 35 C17.515 34.505 17.515 34.505 16 34 C16 33.01 16 32.02 16 31 C16.99 31 17.98 31 19 31 C19 30.34 19 29.68 19 29 C17.68 29 16.36 29 15 29 C15 30.32 15 31.64 15 33 C14.34 33 13.68 33 13 33 C13 33.99 13 34.98 13 36 C13.66 36 14.32 36 15 36 C15 37.98 15 39.96 15 42 C14.01 42.495 14.01 42.495 13 43 C12.34227572 46.02934491 12.34227572 46.02934491 12 49 C10.35 48.67 8.7 48.34 7 48 C6.87625 47.195625 6.7525 46.39125 6.625 45.5625 C6.41875 44.716875 6.2125 43.87125 6 43 C5.01 42.505 5.01 42.505 4 42 C4 41.34 4 40.68 4 40 C4.66 40 5.32 40 6 40 C6 39.01 6 38.02 6 37 C6.33 36.67 6.66 36.34 7 36 C6.67 36 6.34 36 6 36 C6 33.69 6 31.38 6 29 C5.34 28.67 4.68 28.34 4 28 C4 27.34 4 26.68 4 26 C4.99 26 5.98 26 7 26 C6.83757812 25.505 6.67515625 25.01 6.5078125 24.5 C5.79792477 21.00516809 5.85570882 17.54957763 5.875 14 C5.86919922 12.93265625 5.86919922 12.93265625 5.86328125 11.84375 C5.86966022 8.42461983 5.92799268 5.26706994 7 2 C5.68 2.33 4.36 2.66 3 3 C3.66 3.33 4.32 3.66 5 4 C5 5.32 5 6.64 5 8 C4.34 8 3.68 8 3 8 C3 8.99 3 9.98 3 11 C3.66 11.33 4.32 11.66 5 12 C5 13.65 5 15.3 5 17 C3.68 17 2.36 17 1 17 C1.66 17.99 2.32 18.98 3 20 C3.66 19.34 4.32 18.68 5 18 C5 20.31 5 22.62 5 25 C4.01 25.495 4.01 25.495 3 26 C3 28.64 3 31.28 3 34 C3.66 33.34 4.32 32.68 5 32 C5 34.31 5 36.62 5 39 C4.34 39 3.68 39 3 39 C3 39.99 3 40.98 3 42 C0.69 42 -1.62 42 -4 42 C-4 39.36 -4 36.72 -4 34 C-10.27 34 -16.54 34 -23 34 C-23 33.01 -23 32.02 -23 31 C-22.34 31 -21.68 31 -21 31 C-21 29.02 -21 27.04 -21 25 C-24.63 25 -28.26 25 -32 25 C-32 28.96 -32 32.92 -32 37 C-37.39913721 37.18944341 -41.91245442 37.09487171 -47 35 C-49.93194058 31.19933629 -50.3435992 28.42250907 -50.1875 23.6875 C-50.16042969 22.61886719 -50.13335937 21.55023438 -50.10546875 20.44921875 C-50.07066406 19.64097656 -50.03585938 18.83273438 -50 18 C-48.35 17.67 -46.7 17.34 -45 17 C-45 16.01 -45 15.02 -45 14 C-40.69214025 12.64851459 -37.58042408 12 -33 12 C-33 15.96 -33 19.92 -33 24 C-30.03 24 -27.06 24 -24 24 C-24 21.03 -24 18.06 -24 15 C-17.84765625 14.90234375 -17.84765625 14.90234375 -16 15 C-15.505 15.495 -15.505 15.495 -15 16 C-14.67 13.03 -14.34 10.06 -14 7 C-10.04 7 -6.08 7 -2 7 C-2 18.22 -2 29.44 -2 41 C-1.34 41 -0.68 41 0 41 C0 27.47 0 13.94 0 0 Z " fill="#6F7D78" transform="translate(91,36)"/>
<path d="M0 0 C0.99 0.66 1.98 1.32 3 2 C4.45848214 2 5.91676788 1.9645043 7.375 1.9375 C11 2 11 2 14 3 C14 3.66 14 4.32 14 5 C12.7625 4.7525 11.525 4.505 10.25 4.25 C7.06506005 3.86035309 6.32171577 3.79892765 3.5 5.5625 C1.58262458 8.67823506 1.47447251 10.39638292 2 14 C2.97103788 16.46186579 2.97103788 16.46186579 5 18 C8.45570193 18.35996895 10.70024471 18.09991843 14 17 C14 17.66 14 18.32 14 19 C13.34 19 12.68 19 12 19 C12 19.66 12 20.32 12 21 C11.38125 21.061875 10.7625 21.12375 10.125 21.1875 C7.75620163 21.81891092 7.75620163 21.81891092 6.8125 24.375 C6.544375 25.24125 6.27625 26.1075 6 27 C5.505 28.485 5.505 28.485 5 30 C4.01 30 3.02 30 2 30 C2 30.66 2 31.32 2 32 C2.56203125 31.67257813 3.1240625 31.34515625 3.703125 31.0078125 C6.26859964 29.88214506 7.96842277 29.7931889 10.75 29.875 C11.54921875 29.89304687 12.3484375 29.91109375 13.171875 29.9296875 C13.77515625 29.95289062 14.3784375 29.97609375 15 30 C15.495 31.98 15.495 31.98 16 34 C15.1028125 33.7215625 15.1028125 33.7215625 14.1875 33.4375 C11.83591238 32.77906313 11.83591238 32.77906313 9 34 C7.66757002 34.09670863 6.33406045 34.17925437 5 34.25 C2.89592465 34.42030812 2.89592465 34.42030812 1 35 C-1.06454002 37.40743101 -1.06454002 37.40743101 -2 40 C-2.33 39.34 -2.66 38.68 -3 38 C-2.505 37.01 -2.505 37.01 -2 36 C-2.99 35.67 -3.98 35.34 -5 35 C-5.66 36.32 -6.32 37.64 -7 39 C-7 37.35 -7 35.7 -7 34 C-8.19625 34.185625 -9.3925 34.37125 -10.625 34.5625 C-14.28622272 35.01771419 -17.39743316 34.96654232 -21 34 C-21.33 33.34 -21.66 32.68 -22 32 C-22.99 33.32 -23.98 34.64 -25 36 C-25 35.34 -25 34.68 -25 34 C-25.92232422 34.05220703 -25.92232422 34.05220703 -26.86328125 34.10546875 C-27.67152344 34.13253906 -28.47976562 34.15960938 -29.3125 34.1875 C-30.51326172 34.23970703 -30.51326172 34.23970703 -31.73828125 34.29296875 C-34.47851584 33.93801608 -35.29171079 33.10633718 -37 31 C-36.01 27.535 -36.01 27.535 -35 24 C-34.67 24.99 -34.34 25.98 -34 27 C-33.67 26.34 -33.34 25.68 -33 25 C-31.9171875 25.5259375 -31.9171875 25.5259375 -30.8125 26.0625 C-27.59938443 27.13353852 -26.21682662 26.88462732 -23 26 C-22.071875 25.814375 -21.14375 25.62875 -20.1875 25.4375 C-19.465625 25.293125 -18.74375 25.14875 -18 25 C-18 23.02 -18 21.04 -18 19 C-18.99 18.67 -19.98 18.34 -21 18 C-22.6875 14.4375 -22.6875 14.4375 -24 11 C-24.33 13.97 -24.66 16.94 -25 20 C-26.32 20 -27.64 20 -29 20 C-29 14.06 -29 8.12 -29 2 C-27.35 2 -25.7 2 -24 2 C-22.35 5.3 -20.7 8.6 -19 12 C-17.02 8.37 -15.04 4.74 -13 1 C-11.35 1 -9.7 1 -8 1 C-7.67 4.63 -7.34 8.26 -7 12 C-5.68 9.03 -4.36 6.06 -3 3 C-2.34 3 -1.68 3 -1 3 C-0.67 2.01 -0.34 1.02 0 0 Z " fill="#050606" transform="translate(99,96)"/>
<path d="M0 0 C2.97 0 5.94 0 9 0 C9 15.51 9 31.02 9 47 C9.66 47 10.32 47 11 47 C11 33.8 11 20.6 11 7 C13.97 7 16.94 7 20 7 C20 18.22 20 29.44 20 41 C20.66 41 21.32 41 22 41 C22 31.43 22 21.86 22 12 C25.63 12 29.26 12 33 12 C33 15.96 33 19.92 33 24 C36.3 24 39.6 24 43 24 C43 20.04 43 16.08 43 12 C44.65 12 46.3 12 48 12 C48 19.92 48 27.84 48 36 C46.35 36 44.7 36 43 36 C43 32.37 43 28.74 43 25 C39.37 25 35.74 25 32 25 C32 23.02 32 21.04 32 19 C31.01 19.33 30.02 19.66 29 20 C29.495 20.928125 29.495 20.928125 30 21.875 C31 24 31 24 31 26 C28.69 26 26.38 26 24 26 C24 24.02 24 22.04 24 20 C24.66 20 25.32 20 26 20 C26 19.34 26 18.68 26 18 C27.98 18 29.96 18 32 18 C32 16.35 32 14.7 32 13 C29.03 13 26.06 13 23 13 C23 22.57 23 32.14 23 42 C21.68 42 20.36 42 19 42 C19 39.69 19 37.38 19 35 C17.515 34.505 17.515 34.505 16 34 C16 33.01 16 32.02 16 31 C16.99 31 17.98 31 19 31 C19 30.34 19 29.68 19 29 C17.68 29 16.36 29 15 29 C15 30.32 15 31.64 15 33 C14.34 33 13.68 33 13 33 C13 33.99 13 34.98 13 36 C13.66 36 14.32 36 15 36 C15 37.98 15 39.96 15 42 C14.01 42.495 14.01 42.495 13 43 C12.34227572 46.02934491 12.34227572 46.02934491 12 49 C10.35 48.67 8.7 48.34 7 48 C6.87625 47.195625 6.7525 46.39125 6.625 45.5625 C6.41875 44.716875 6.2125 43.87125 6 43 C5.34 42.67 4.68 42.34 4 42 C4 41.34 4 40.68 4 40 C4.66 40 5.32 40 6 40 C6 39.01 6 38.02 6 37 C6.495 36.505 6.495 36.505 7 36 C6.67 36 6.34 36 6 36 C6 33.69 6 31.38 6 29 C5.34 28.67 4.68 28.34 4 28 C4 27.34 4 26.68 4 26 C4.99 26 5.98 26 7 26 C6.83757812 25.505 6.67515625 25.01 6.5078125 24.5 C5.79792477 21.00516809 5.85570882 17.54957763 5.875 14 C5.87113281 13.2884375 5.86726563 12.576875 5.86328125 11.84375 C5.86966022 8.42461983 5.92799268 5.26706994 7 2 C5.68 2.33 4.36 2.66 3 3 C3.66 3.33 4.32 3.66 5 4 C5 5.32 5 6.64 5 8 C4.34 8 3.68 8 3 8 C3 8.99 3 9.98 3 11 C3.66 11.33 4.32 11.66 5 12 C5 13.65 5 15.3 5 17 C3.68 17 2.36 17 1 17 C1.66 17.99 2.32 18.98 3 20 C3.66 19.34 4.32 18.68 5 18 C5 20.31 5 22.62 5 25 C4.34 25.33 3.68 25.66 3 26 C3 28.64 3 31.28 3 34 C3.66 33.34 4.32 32.68 5 32 C5 34.31 5 36.62 5 39 C4.34 39 3.68 39 3 39 C3 39.99 3 40.98 3 42 C1.02 42 -0.96 42 -3 42 C-1.515 41.505 -1.515 41.505 0 41 C0 27.47 0 13.94 0 0 Z " fill="#A2A49F" transform="translate(91,36)"/>
<path d="M0 0 C25.08 0 50.16 0 76 0 C75.34 0.33 74.68 0.66 74 1 C73.67 1.99 73.34 2.98 73 4 C70.4375 5.1875 70.4375 5.1875 68 6 C68 5.34 68 4.68 68 4 C67.01 3.505 67.01 3.505 66 3 C66 2.34 66 1.68 66 1 C65.443125 1.185625 64.88625 1.37125 64.3125 1.5625 C61.600867 2.07551165 59.65628961 1.6640724 57 1 C57 1.66 57 2.32 57 3 C56.34 3.66 55.68 4.32 55 5 C54.3574765 7.06874034 54.3574765 7.06874034 54 9 C54 8.01 54 7.02 54 6 C52.68 6 51.36 6 50 6 C50 5.34 50 4.68 50 4 C49.01 4.66 48.02 5.32 47 6 C46.83329727 9.04173894 46.83329727 9.04173894 47 12 C46 13 46 13 44.13340759 13.12025452 C43.31844315 13.11803391 42.5034787 13.11581329 41.66381836 13.11352539 C40.28249977 13.11341209 40.28249977 13.11341209 38.87327576 13.11329651 C37.87224319 13.10813522 36.87121063 13.10297394 35.83984375 13.09765625 C34.82024063 13.0962413 33.80063751 13.09482635 32.75013733 13.09336853 C29.47922893 13.08775097 26.20838787 13.0751955 22.9375 13.0625 C20.72591244 13.05748726 18.51432382 13.05292396 16.30273438 13.04882812 C10.86846346 13.03777583 5.43424316 13.02049944 0 13 C0 8.71 0 4.42 0 0 Z " fill="#FEFEFE" transform="translate(0,167)"/>
<path d="M0 0 C16.17 0 32.34 0 49 0 C49 3.96 49 7.92 49 12 C42.64625182 12.04938638 36.29261503 12.08571317 29.9387207 12.10986328 C27.77659153 12.11992951 25.614476 12.13358354 23.45239258 12.15087891 C20.34713375 12.17509978 17.2420547 12.18647681 14.13671875 12.1953125 C13.16788254 12.20563507 12.19904633 12.21595764 11.20085144 12.22659302 C10.3001442 12.22674408 9.39943695 12.22689514 8.47143555 12.22705078 C7.28229805 12.23371262 7.28229805 12.23371262 6.06913757 12.24050903 C4 12 4 12 1 10 C1.66 10 2.32 10 3 10 C3.2503577 6.62535976 3.2503577 6.62535976 3 3 C2.01 2.01 1.02 1.02 0 0 Z " fill="#FEFEFE" transform="translate(140,168)"/>
<path d="M0 0 C1.17369141 0.11794922 1.17369141 0.11794922 2.37109375 0.23828125 C4.5625 0.6875 4.5625 0.6875 7.5625 2.6875 C8.2225 1.6975 8.8825 0.7075 9.5625 -0.3125 C12.6875 -0.5 12.6875 -0.5 15.5625 -0.3125 C16.8825 1.9975 18.2025 4.3075 19.5625 6.6875 C20.14 5.6975 20.7175 4.7075 21.3125 3.6875 C22.055 2.6975 22.7975 1.7075 23.5625 0.6875 C24.8825 0.6875 26.2025 0.6875 27.5625 0.6875 C26.5738007 3.34938274 25.59501061 5.6393843 24 8 C22.07139664 11.60564977 21.90677931 14.62500416 21.5625 18.6875 C20.2425 18.6875 18.9225 18.6875 17.5625 18.6875 C17.52125 17.5325 17.48 16.3775 17.4375 15.1875 C16.8254922 9.9148174 13.95995449 6.59405317 10.5625 2.6875 C10.2325 3.3475 9.9025 4.0075 9.5625 4.6875 C10.2225 4.6875 10.8825 4.6875 11.5625 4.6875 C11.8925 6.0075 12.2225 7.3275 12.5625 8.6875 C11.5725 9.3475 10.5825 10.0075 9.5625 10.6875 C9.2325 10.0275 8.9025 9.3675 8.5625 8.6875 C7.9025 8.6875 7.2425 8.6875 6.5625 8.6875 C6.5625 11.6575 6.5625 14.6275 6.5625 17.6875 C2.48616716 19.04627761 -1.18575809 19.46189783 -5.4375 18.6875 C-9.07465985 15.64416217 -10.26048645 13.80858584 -11 9.125 C-10.35179589 5.16375263 -9.24950626 3.49950626 -6.4375 0.6875 C-3.97648622 -0.54300689 -2.71323817 -0.29850075 0 0 Z " fill="#17100E" transform="translate(35.4375,97.3125)"/>
<path d="M0 0 C1.32708733 0.00539291 1.32708733 0.00539291 2.6809845 0.01089478 C4.07108734 0.01067574 4.07108734 0.01067574 5.48927307 0.01045227 C8.56809285 0.01115178 11.64685295 0.01894595 14.72566223 0.02676392 C16.85415616 0.02862796 18.98265051 0.03005193 21.11114502 0.03105164 C26.72537919 0.03487789 32.33958766 0.04470909 37.95381165 0.05575562 C43.67788851 0.06596743 49.40196951 0.07054876 55.12605286 0.07559204 C66.36629855 0.08633126 77.60652513 0.10340896 88.84675598 0.12442017 C88.84675598 0.45442017 88.84675598 0.78442017 88.84675598 1.12442017 C73.00675598 1.45442017 57.16675598 1.78442017 40.84675598 2.12442017 C41.83675598 3.11442017 42.82675598 4.10442017 43.84675598 5.12442017 C43.47175598 8.18692017 43.47175598 8.18692017 42.84675598 11.12442017 C43.34175598 12.11442017 43.34175598 12.11442017 43.84675598 13.12442017 C41.86675598 13.12442017 39.88675598 13.12442017 37.84675598 13.12442017 C38.17675598 12.46442017 38.50675598 11.80442017 38.84675598 11.12442017 C35.22192204 10.95401037 31.59686824 10.78879413 27.97175598 10.62442017 C26.95855286 10.57672485 25.94534973 10.52902954 24.90144348 10.47988892 C18.54448703 10.19464087 12.20993544 10.06091186 5.84675598 10.12442017 C5.84675598 8.47442017 5.84675598 6.82442017 5.84675598 5.12442017 C6.50675598 5.12442017 7.16675598 5.12442017 7.84675598 5.12442017 C7.84675598 6.44442017 7.84675598 7.76442017 7.84675598 9.12442017 C8.83675598 9.12442017 9.82675598 9.12442017 10.84675598 9.12442017 C10.51675598 7.80442017 10.18675598 6.48442017 9.84675598 5.12442017 C10.55702942 4.99164673 11.26730286 4.85887329 11.99909973 4.72207642 C12.91820129 4.54547485 13.83730286 4.36887329 14.78425598 4.18692017 C15.70077942 4.01289673 16.61730286 3.83887329 17.56159973 3.65957642 C19.79965442 3.34727028 19.79965442 3.34727028 20.84675598 2.12442017 C20.08363098 2.12442017 19.32050598 2.12442017 18.53425598 2.12442017 C14.79349529 2.12442017 11.50629183 1.91567116 7.84675598 1.12442017 C7.51675598 1.78442017 7.18675598 2.44442017 6.84675598 3.12442017 C6.84675598 2.46442017 6.84675598 1.80442017 6.84675598 1.12442017 C4.86675598 2.11442017 4.86675598 2.11442017 2.84675598 3.12442017 C2.84675598 4.11442017 2.84675598 5.10442017 2.84675598 6.12442017 C2.84675598 6.78442017 2.84675598 7.44442017 2.84675598 8.12442017 C1.52675598 8.12442017 0.20675598 8.12442017 -1.15324402 8.12442017 C-1.15324402 7.46442017 -1.15324402 6.80442017 -1.15324402 6.12442017 C-2.80324402 5.79442017 -4.45324402 5.46442017 -6.15324402 5.12442017 C-6.71574402 3.18692017 -6.71574402 3.18692017 -7.15324402 1.12442017 C-5.26439207 -0.76443179 -2.51272643 0.00431382 0 0 Z " fill="#F1F1F1" transform="translate(100.15324401855469,166.87557983398438)"/>
<path d="M0 0 C0 3.96 0 7.92 0 12 C0.99 12.33 1.98 12.66 3 13 C2.34 13 1.68 13 1 13 C1 16.96 1 20.92 1 25 C-4.39913721 25.18944341 -8.91245442 25.09487171 -14 23 C-16.93194058 19.19933629 -17.3435992 16.42250907 -17.1875 11.6875 C-17.16042969 10.61886719 -17.13335937 9.55023438 -17.10546875 8.44921875 C-17.07066406 7.64097656 -17.03585938 6.83273438 -17 6 C-15.35 5.67 -13.7 5.34 -12 5 C-12 4.01 -12 3.02 -12 2 C-7.69214025 0.64851459 -4.58042408 0 0 0 Z " fill="#05253C" transform="translate(58,48)"/>
<path d="M0 0 C2.97 0 5.94 0 9 0 C9 11.22 9 22.44 9 34 C9.66 34 10.32 34 11 34 C11 24.43 11 14.86 11 5 C14.63 5 18.26 5 22 5 C22 8.96 22 12.92 22 17 C25.3 17 28.6 17 32 17 C32 13.04 32 9.08 32 5 C33.65 5 35.3 5 37 5 C37 12.92 37 20.84 37 29 C35.35 29 33.7 29 32 29 C32 25.37 32 21.74 32 18 C28.37 18 24.74 18 21 18 C21 16.02 21 14.04 21 12 C20.01 12.33 19.02 12.66 18 13 C18.33 13.61875 18.66 14.2375 19 14.875 C20 17 20 17 20 19 C17.69 19 15.38 19 13 19 C13 17.02 13 15.04 13 13 C13.66 13 14.32 13 15 13 C15 12.34 15 11.68 15 11 C16.98 11 18.96 11 21 11 C21 9.35 21 7.7 21 6 C18.03 6 15.06 6 12 6 C12 15.57 12 25.14 12 35 C10.68 35 9.36 35 8 35 C8 32.69 8 30.38 8 28 C7.01 27.67 6.02 27.34 5 27 C5 26.01 5 25.02 5 24 C5.99 24 6.98 24 8 24 C8 22.35 8 20.7 8 19 C7.01 18.67 6.02 18.34 5 18 C5.99 18 6.98 18 8 18 C7.34 17.01 6.68 16.02 6 15 C5.5859375 12.73828125 5.5859375 12.73828125 5.375 10.3125 C5.30023438 9.50425781 5.22546875 8.69601563 5.1484375 7.86328125 C5.09945312 7.24839844 5.05046875 6.63351563 5 6 C5.66 6 6.32 6 7 6 C7 5.34 7 4.68 7 4 C6.34 4 5.68 4 5 4 C4.67 3.34 4.34 2.68 4 2 C4 4.64 4 7.28 4 10 C3.01 10.33 2.02 10.66 1 11 C1 13.31 1 15.62 1 18 C0.67 18 0.34 18 0 18 C0 12.06 0 6.12 0 0 Z " fill="#C1C0B8" transform="translate(102,43)"/>
<path d="M0 0 C1.43859375 0.04060547 1.43859375 0.04060547 2.90625 0.08203125 C3.7621875 0.11683594 4.618125 0.15164062 5.5 0.1875 C6.49 0.1875 7.48 0.1875 8.5 0.1875 C10.5 0.1875 12.5 0.1875 14.5 0.1875 C10.19230769 4.12596154 10.19230769 4.12596154 6.6875 4.4375 C5.965625 4.355 5.24375 4.2725 4.5 4.1875 C4.17 5.5075 3.84 6.8275 3.5 8.1875 C3.5 6.8675 3.5 5.5475 3.5 4.1875 C3.17 5.5075 2.84 6.8275 2.5 8.1875 C1.51 8.1875 0.52 8.1875 -0.5 8.1875 C-0.5 6.8675 -0.5 5.5475 -0.5 4.1875 C-0.83 5.5075 -1.16 6.8275 -1.5 8.1875 C14.835 8.6825 14.835 8.6825 31.5 9.1875 C30.84 10.1775 30.18 11.1675 29.5 12.1875 C27.47518921 12.54826355 27.47518921 12.54826355 24.95849609 12.52807617 C23.54725967 12.52773628 23.54725967 12.52773628 22.10751343 12.52738953 C21.08976837 12.51190567 20.07202332 12.49642181 19.0234375 12.48046875 C17.98305328 12.47622391 16.94266907 12.47197906 15.87075806 12.46760559 C12.53857853 12.45077482 9.20699759 12.41311422 5.875 12.375 C3.61980038 12.35995887 1.36459131 12.34626947 -0.890625 12.33398438 C-6.42728855 12.30085699 -11.96360152 12.2506142 -17.5 12.1875 C-15.7421875 8.34375 -15.7421875 8.34375 -13.5625 6.9375 C-10.44653357 5.8044213 -8.62856008 6.14464664 -5.5 7.1875 C-6.49 5.8675 -7.48 4.5475 -8.5 3.1875 C-5.93919187 -0.10867533 -4.06123879 -0.14738367 0 0 Z " fill="#F8F8F8" transform="translate(108.5,167.8125)"/>
<path d="M0 0 C1.65 0 3.3 0 5 0 C5 6.27 5 12.54 5 19 C3.68 19 2.36 19 1 19 C0.67 16.03 0.34 13.06 0 10 C-1.32 12.31 -2.64 14.62 -4 17 C-5.32 17 -6.64 17 -8 17 C-8.99 14.69 -9.98 12.38 -11 10 C-11.33 12.97 -11.66 15.94 -12 19 C-13.32 19 -14.64 19 -16 19 C-16 13.06 -16 7.12 -16 1 C-14.35 1 -12.7 1 -11 1 C-9.35 4.3 -7.7 7.6 -6 11 C-4.02 7.37 -2.04 3.74 0 0 Z " fill="#E3D8C1" transform="translate(86,97)"/>
<path d="M0 0 C0.33 0.99 0.66 1.98 1 3 C1.33 2.34 1.66 1.68 2 1 C2.721875 1.350625 3.44375 1.70125 4.1875 2.0625 C7.42113639 3.1403788 8.72946711 2.70082848 12 2 C15.11534453 2.327931 18.0315475 2.66709445 21 3.6875 C24.22882566 4.19200401 26.94780625 2.99783257 30 2 C30 2.99 30 3.98 30 5 C31.32 5.33 32.64 5.66 34 6 C34 7.32 34 8.64 34 10 C31.79245484 10.19656224 29.58390461 10.38185459 27.375 10.5625 C26.14523438 10.66691406 24.91546875 10.77132812 23.6484375 10.87890625 C20.21740902 10.99278407 17.32588174 10.83396734 14 10 C13.67 9.34 13.34 8.68 13 8 C12.01 9.32 11.02 10.64 10 12 C10 11.34 10 10.68 10 10 C9.38511719 10.03480469 8.77023438 10.06960937 8.13671875 10.10546875 C6.92435547 10.14607422 6.92435547 10.14607422 5.6875 10.1875 C4.48673828 10.23970703 4.48673828 10.23970703 3.26171875 10.29296875 C0.52148416 9.93801608 -0.29171079 9.10633718 -2 7 C-1.34 4.69 -0.68 2.38 0 0 Z " fill="#080807" transform="translate(64,120)"/>
<path d="M0 0 C2.97 0 5.94 0 9 0 C9 1.65 9 3.3 9 5 C7.02 5 5.04 5 3 5 C3 5.66 3 6.32 3 7 C2.34 7 1.68 7 1 7 C1 8.98 1 10.96 1 13 C4.60992379 12.34414811 4.60992379 12.34414811 8 11 C7.34 10.67 6.68 10.34 6 10 C6 9.01 6 8.02 6 7 C5.34 6.67 4.68 6.34 4 6 C5.65 6 7.3 6 9 6 C9 10.62 9 15.24 9 20 C8.34 20 7.68 20 7 20 C7 21.32 7 22.64 7 24 C7.66 24.33 8.32 24.66 9 25 C9 26.32 9 27.64 9 29 C6.03 29 3.06 29 0 29 C0 19.43 0 9.86 0 0 Z " fill="#8A8A7C" transform="translate(114,49)"/>
<path d="M0 0 C1.98 0 3.96 0 6 0 C5.01 0.33 4.02 0.66 3 1 C3 1.66 3 2.32 3 3 C3.99 2.67 4.98 2.34 6 2 C5.67 3.32 5.34 4.64 5 6 C4.34 5.67 3.68 5.34 3 5 C3 5.66 3 6.32 3 7 C3.99 7.33 4.98 7.66 6 8 C6 8.66 6 9.32 6 10 C5.67 10.33 5.34 10.66 5 11 C5.33 11 5.66 11 6 11 C6 14.3 6 17.6 6 21 C4.68 21 3.36 21 2 21 C2 22.32 2 23.64 2 25 C1.34 25 0.68 25 0 25 C0 25.99 0 26.98 0 28 C0.66 28 1.32 28 2 28 C2 29.98 2 31.96 2 34 C1.01 34.495 1.01 34.495 0 35 C-0.65772428 38.02934491 -0.65772428 38.02934491 -1 41 C-2.65 40.67 -4.3 40.34 -6 40 C-6.12375 39.195625 -6.2475 38.39125 -6.375 37.5625 C-6.58125 36.716875 -6.7875 35.87125 -7 35 C-7.66 34.67 -8.32 34.34 -9 34 C-9 33.34 -9 32.68 -9 32 C-8.34 32 -7.68 32 -7 32 C-7 31.01 -7 30.02 -7 29 C-6.01 29 -5.02 29 -4 29 C-4 32.3 -4 35.6 -4 39 C-3.34 39 -2.68 39 -2 39 C-2.00523682 38.3702124 -2.01047363 37.7404248 -2.01586914 37.09155273 C-2.03680138 34.20687885 -2.0497115 31.32222102 -2.0625 28.4375 C-2.07087891 27.44685547 -2.07925781 26.45621094 -2.08789062 25.43554688 C-2.10528365 20.20024622 -2.11879924 15.12958895 -1 10 C-0.34 9.67 0.32 9.34 1 9 C0.67 8.34 0.34 7.68 0 7 C0.66 7 1.32 7 2 7 C2 5.02 2 3.04 2 1 C1.34 0.67 0.68 0.34 0 0 Z " fill="#9FA099" transform="translate(104,44)"/>
<path d="M0 0 C1.22589844 0.15275391 1.22589844 0.15275391 2.4765625 0.30859375 C3.41628906 0.43427734 3.41628906 0.43427734 4.375 0.5625 C4.705 1.8825 5.035 3.2025 5.375 4.5625 C4.73691406 4.55089844 4.09882812 4.53929688 3.44140625 4.52734375 C2.61511719 4.51832031 1.78882813 4.50929688 0.9375 4.5 C0.11378906 4.48839844 -0.70992187 4.47679688 -1.55859375 4.46484375 C-3.61663938 4.32982652 -3.61663938 4.32982652 -4.625 5.5625 C-4.93023962 10.21338715 -4.93023962 10.21338715 -3.625 14.5625 C-1.975 14.5625 -0.325 14.5625 1.375 14.5625 C1.705 13.9025 2.035 13.2425 2.375 12.5625 C1.385 12.5625 0.395 12.5625 -0.625 12.5625 C-0.625 11.2425 -0.625 9.9225 -0.625 8.5625 C1.37454746 8.51995644 3.37541636 8.52169217 5.375 8.5625 C6.375 9.5625 6.375 9.5625 6.47265625 11.41015625 C6.44010417 13.4609375 6.40755208 15.51171875 6.375 17.5625 C2.29866716 18.92127761 -1.37325809 19.33689783 -5.625 18.5625 C-9.26215985 15.51916217 -10.44798645 13.68358584 -11.1875 9 C-10.53929589 5.03875263 -9.43700626 3.37450626 -6.625 0.5625 C-4.10446405 -0.69776798 -2.7707902 -0.35624445 0 0 Z " fill="#E5DECB" transform="translate(35.625,97.4375)"/>
<path d="M0 0 C0.99 0.33 1.98 0.66 3 1 C3 1.66 3 2.32 3 3 C1.7625 2.7525 0.525 2.505 -0.75 2.25 C-3.93493995 1.86035309 -4.67828423 1.79892765 -7.5 3.5625 C-9.41737542 6.67823506 -9.52552749 8.39638292 -9 12 C-8.02896212 14.46186579 -8.02896212 14.46186579 -6 16 C-2.54429807 16.35996895 -0.29975529 16.09991843 3 15 C3 15.66 3 16.32 3 17 C2.34 17 1.68 17 1 17 C1 17.66 1 18.32 1 19 C0.38125 19.061875 -0.2375 19.12375 -0.875 19.1875 C-3.24379837 19.81891092 -3.24379837 19.81891092 -4.1875 22.375 C-4.5896875 23.674375 -4.5896875 23.674375 -5 25 C-5.33 25.99 -5.66 26.98 -6 28 C-6.99 28 -7.98 28 -9 28 C-9 28.66 -9 29.32 -9 30 C-8.43796875 29.67257813 -7.8759375 29.34515625 -7.296875 29.0078125 C-4.73140036 27.88214506 -3.03157723 27.7931889 -0.25 27.875 C0.54921875 27.89304687 1.3484375 27.91109375 2.171875 27.9296875 C2.77515625 27.95289062 3.3784375 27.97609375 4 28 C4.33 29.32 4.66 30.64 5 32 C4.401875 31.814375 3.80375 31.62875 3.1875 31.4375 C0.83591238 30.77906313 0.83591238 30.77906313 -2 32 C-3.39439664 32.06665376 -4.79169875 32.08538199 -6.1875 32.0625 C-7.445625 32.041875 -8.70375 32.02125 -10 32 C-10 30.35 -10 28.7 -10 27 C-10.66 26.67 -11.32 26.34 -12 26 C-11.34 26 -10.68 26 -10 26 C-9.67 25.01 -9.34 24.02 -9 23 C-8.01 22.34 -7.02 21.68 -6 21 C-7.98 19.68 -9.96 18.36 -12 17 C-11.93976506 14.91587093 -11.85091679 12.83255565 -11.75 10.75 C-11.70359375 9.58984375 -11.6571875 8.4296875 -11.609375 7.234375 C-10.30791029 0.32660075 -6.48147178 -0.58922471 0 0 Z " fill="#0D100F" transform="translate(110,98)"/>
<path d="M0 0 C25.08 0 50.16 0 76 0 C75.34 0.33 74.68 0.66 74 1 C73.67 1.99 73.34 2.98 73 4 C70.4375 5.1875 70.4375 5.1875 68 6 C68 5.34 68 4.68 68 4 C67.01 3.505 67.01 3.505 66 3 C66 2.34 66 1.68 66 1 C65.443125 1.185625 64.88625 1.37125 64.3125 1.5625 C61.600867 2.07551165 59.65628961 1.6640724 57 1 C57 1.66 57 2.32 57 3 C56.34 3.66 55.68 4.32 55 5 C54.3574765 7.06874034 54.3574765 7.06874034 54 9 C54 8.01 54 7.02 54 6 C52.68 6 51.36 6 50 6 C50 5.34 50 4.68 50 4 C48.02 4.99 48.02 4.99 46 6 C46 5.34 46 4.68 46 4 C45.34 4 44.68 4 44 4 C43.505 3.01 43.505 3.01 43 2 C28.81 1.67 14.62 1.34 0 1 C0 0.67 0 0.34 0 0 Z " fill="#F3F3F3" transform="translate(0,167)"/>
<path d="M0 0 C2.97 0 5.94 0 9 0 C9 0.66 9 1.32 9 2 C9.99 2.33 10.98 2.66 12 3 C11.67 3.66 11.34 4.32 11 5 C8.03 5 5.06 5 2 5 C1.67 5.99 1.34 6.98 1 8 C0.67 8.33 0.34 8.66 0 9 C1.32 9.33 2.64 9.66 4 10 C4 10.66 4 11.32 4 12 C-0.95 12 -5.9 12 -11 12 C-11 9.69 -11 7.38 -11 5 C-9.68 4.34 -8.36 3.68 -7 3 C-7 3.66 -7 4.32 -7 5 C-5.02463255 4.65213292 -5.02463255 4.65213292 -3 4 C-2.67 3.34 -2.34 2.68 -2 2 C-1.34 2 -0.68 2 0 2 C0 1.34 0 0.68 0 0 Z " fill="#EFEFEF" transform="translate(57,168)"/>
<path d="M0 0 C0 0.99 0 1.98 0 3 C0.99 3.33 1.98 3.66 3 4 C3 5.65 3 7.3 3 9 C-5.58 9 -14.16 9 -23 9 C-23 7.35 -23 5.7 -23 4 C-22.34 4 -21.68 4 -21 4 C-21 5.32 -21 6.64 -21 8 C-20.01 8 -19.02 8 -18 8 C-18.33 6.68 -18.66 5.36 -19 4 C-18.31292969 3.87882813 -17.62585938 3.75765625 -16.91796875 3.6328125 C-15.56638672 3.38144531 -15.56638672 3.38144531 -14.1875 3.125 C-13.29417969 2.96257812 -12.40085937 2.80015625 -11.48046875 2.6328125 C-0.98831776 -0.04392523 -0.98831776 -0.04392523 0 0 Z " fill="#D1D1D1" transform="translate(129,168)"/>
<path d="M0 0 C0.99 0.33 1.98 0.66 3 1 C3.99 0.67 4.98 0.34 6 0 C6 0.66 6 1.32 6 2 C9.96 2 13.92 2 18 2 C17.67 3.32 17.34 4.64 17 6 C16.21625 5.938125 15.4325 5.87625 14.625 5.8125 C13.325625 5.9053125 13.325625 5.9053125 12 6 C11.01 7.485 11.01 7.485 10 9 C7.6171875 9.29296875 7.6171875 9.29296875 4.875 9.1875 C3.96492188 9.16042969 3.05484375 9.13335937 2.1171875 9.10546875 C1.41851562 9.07066406 0.71984375 9.03585938 0 9 C0.66 8.01 1.32 7.02 2 6 C1.34 5.67 0.68 5.34 0 5 C0 4.34 0 3.68 0 3 C-0.66 3 -1.32 3 -2 3 C-1.67 3.99 -1.34 4.98 -1 6 C-3.64 6 -6.28 6 -9 6 C-8 4 -8 4 -7 3 C-7.99 2.67 -8.98 2.34 -10 2 C-6.7 2 -3.4 2 0 2 C0 1.34 0 0.68 0 0 Z " fill="#F7F7F7" transform="translate(81,171)"/>
<path d="M0 0 C1.65 0 3.3 0 5 0 C5 3.96 5 7.92 5 12 C5.99 12.33 6.98 12.66 8 13 C7.01 13 6.02 13 5 13 C5 16.63 5 20.26 5 24 C3.35 24 1.7 24 0 24 C0 16.08 0 8.16 0 0 Z " fill="#286C85" transform="translate(53,48)"/>
<path d="M0 0 C1.65 0 3.3 0 5 0 C5 7.92 5 15.84 5 24 C3.35 24 1.7 24 0 24 C0 16.08 0 8.16 0 0 Z " fill="#E8DABB" transform="translate(134,48)"/>
<path d="M0 0 C0.66 0.33 1.32 0.66 2 1 C1.55269462 3.90748498 0.79612845 5.27395239 -1 7.6875 C-3.49528237 11.82031142 -3.78918284 15.25661401 -4 20 C-4.66 20 -5.32 20 -6 20 C-6.0928125 18.2675 -6.0928125 18.2675 -6.1875 16.5 C-6.69857168 12.0811956 -8.4691109 9.22791804 -11.0390625 5.6640625 C-11.35617188 5.11492187 -11.67328125 4.56578125 -12 4 C-11.67 3.34 -11.34 2.68 -11 2 C-10.34 2.33 -9.68 2.66 -9 3 C-8.67 2.34 -8.34 1.68 -8 1 C-5.26094655 -0.36952673 -3.02912668 -0.12621361 0 0 Z " fill="#070D0A" transform="translate(162,96)"/>
<path d="M0 0 C2.64 0 5.28 0 8 0 C8 0.33 8 0.66 8 1 C6.35 1 4.7 1 3 1 C2.67 1.66 2.34 2.32 2 3 C2.33 3.33 2.66 3.66 3 4 C3 4.66 3 5.32 3 6 C2.34 6 1.68 6 1 6 C1 7.32 1 8.64 1 10 C3.64 10 6.28 10 9 10 C8.835 10.763125 8.67 11.52625 8.5 12.3125 C7.73321954 16.43394495 8.2726081 19.90842057 9 24 C6.03 24.33 3.06 24.66 0 25 C0 16.75 0 8.5 0 0 Z " fill="#30423D" transform="translate(79,45)"/>
<path d="M0 0 C1.65 0 3.3 0 5 0 C5.99 1.98 6.98 3.96 8 6 C8.86625 4.515 8.86625 4.515 9.75 3 C10.4925 2.01 11.235 1.02 12 0 C13.32 0 14.64 0 16 0 C15.0113007 2.66188274 14.03251061 4.9518843 12.4375 7.3125 C10.50889664 10.91814977 10.34427931 13.93750416 10 18 C8.68 18 7.36 18 6 18 C5.9071875 16.2365625 5.9071875 16.2365625 5.8125 14.4375 C5.31693205 10.20264657 3.76306618 7.76841604 1.05859375 4.54296875 C0 3 0 3 0 0 Z " fill="#E5DDC8" transform="translate(47,98)"/>
<path d="M0 0 C1.98 0 3.96 0 6 0 C5.67 1.98 5.34 3.96 5 6 C5.66 6.33 6.32 6.66 7 7 C6.34 7 5.68 7 5 7 C5.33 7.99 5.66 8.98 6 10 C6.06970052 12.39490986 6.08448003 14.79167691 6.0625 17.1875 C6.05347656 18.45980469 6.04445313 19.73210938 6.03515625 21.04296875 C6.02355469 22.01878906 6.01195313 22.99460937 6 24 C5.01 24 4.02 24 3 24 C3 24.66 3 25.32 3 26 C3.99 26.33 4.98 26.66 6 27 C5.979375 27.94875 5.95875 28.8975 5.9375 29.875 C5.77448174 32.90666283 5.77448174 32.90666283 7 35 C6.34 35 5.68 35 5 35 C5 35.99 5 36.98 5 38 C4.34 38 3.68 38 3 38 C3.33 38.99 3.66 39.98 4 41 C3.01 40.67 2.02 40.34 1 40 C1.33 39.01 1.66 38.02 2 37 C2.66 37 3.32 37 4 37 C3.67 35.68 3.34 34.36 3 33 C2.34 33.66 1.68 34.32 1 35 C0.67 33.35 0.34 31.7 0 30 C0.33 30 0.66 30 1 30 C1.33 28.02 1.66 26.04 2 24 C1.34 23.67 0.68 23.34 0 23 C0.66 23 1.32 23 2 23 C2.33 21.68 2.66 20.36 3 19 C2.01 19 1.02 19 0 19 C0 17.68 0 16.36 0 15 C0.99 14.67 1.98 14.34 3 14 C3.73323796 11.98491642 3.73323796 11.98491642 4 10 C2.68 9.67 1.36 9.34 0 9 C0.66 9 1.32 9 2 9 C2 8.01 2 7.02 2 6 C2.33 5.67 2.66 5.34 3 5 C2.74276031 2.97080157 2.74276031 2.97080157 2 1 C1.34 0.67 0.68 0.34 0 0 Z " fill="#282A21" transform="translate(92,38)"/>
<path d="M0 0 C1.32 0 2.64 0 4 0 C4 0.66 4 1.32 4 2 C3.01 2 2.02 2 1 2 C1 2.66 1 3.32 1 4 C1.99 4.33 2.98 4.66 4 5 C4.33 7.97 4.66 10.94 5 14 C4.34 14 3.68 14 3 14 C3.33 15.98 3.66 17.96 4 20 C3.34 20 2.68 20 2 20 C1.67 20.99 1.34 21.98 1 23 C-1.31 22.34 -3.62 21.68 -6 21 C-5.01 20.67 -4.02 20.34 -3 20 C-3 18.02 -3 16.04 -3 14 C-2.01 13.67 -1.02 13.34 0 13 C0 11.02 0 9.04 0 7 C-0.66 7 -1.32 7 -2 7 C-2 6.01 -2 5.02 -2 4 C-1.34 4 -0.68 4 0 4 C0 2.68 0 1.36 0 0 Z " fill="#3D3E39" transform="translate(106,65)"/>
<path d="M0 0 C2.31 0 4.62 0 7 0 C7 5.61 7 11.22 7 17 C4.69 17 2.38 17 0 17 C0 16.01 0 15.02 0 14 C0.66 14 1.32 14 2 14 C2 12.02 2 10.04 2 8 C1.34 8 0.68 8 0 8 C0 5.36 0 2.72 0 0 Z " fill="#243934" transform="translate(68,53)"/>
<path d="M0 0 C1.65 0 3.3 0 5 0 C5 6.27 5 12.54 5 19 C3.35 19 1.7 19 0 19 C0 12.73 0 6.46 0 0 Z " fill="#2D6484" transform="translate(46,51)"/>
<path d="M0 0 C1.65 0 3.3 0 5 0 C5 6.27 5 12.54 5 19 C3.35 19 1.7 19 0 19 C0 12.73 0 6.46 0 0 Z " fill="#EEE1BD" transform="translate(141,51)"/>
<path d="M0 0 C2.97 0 5.94 0 9 0 C9 1.65 9 3.3 9 5 C7.02 5 5.04 5 3 5 C3 5.66 3 6.32 3 7 C2.34 7 1.68 7 1 7 C1 8.98 1 10.96 1 13 C4.60992379 12.34414811 4.60992379 12.34414811 8 11 C7.34 10.67 6.68 10.34 6 10 C6 9.01 6 8.02 6 7 C5.34 6.67 4.68 6.34 4 6 C5.65 6 7.3 6 9 6 C9 9.3 9 12.6 9 16 C7.35 16 5.7 16 4 16 C4 15.34 4 14.68 4 14 C2.68 14 1.36 14 0 14 C0 9.38 0 4.76 0 0 Z " fill="#5B574C" transform="translate(114,49)"/>
<path d="M0 0 C1.65 0 3.3 0 5 0 C5 0.66 5 1.32 5 2 C6.134375 1.814375 7.26875 1.62875 8.4375 1.4375 C13.07696797 0.83992989 17.39572681 1.30722741 22 2 C22 3.32 22 4.64 22 6 C19.79245484 6.19656224 17.58390461 6.38185459 15.375 6.5625 C14.14523438 6.66691406 12.91546875 6.77132812 11.6484375 6.87890625 C8.24372538 6.99191061 5.32441602 6.69045563 2 6 C2 4.68 2 3.36 2 2 C1.34 2 0.68 2 0 2 C0 1.34 0 0.68 0 0 Z " fill="#615E5B" transform="translate(76,124)"/>
<path d="M0 0 C0.66 0.33 1.32 0.66 2 1 C2 1.66 2 2.32 2 3 C1.34 3 0.68 3 0 3 C0 16.2 0 29.4 0 43 C-0.66 43 -1.32 43 -2 43 C-2 29.14 -2 15.28 -2 1 C-1.34 0.67 -0.68 0.34 0 0 Z " fill="#0D0E08" transform="translate(102,40)"/>
<path d="M0 0 C2.97 0.33 5.94 0.66 9 1 C9 1.33 9 1.66 9 2 C7.35 2 5.7 2 4 2 C4 7.94 4 13.88 4 20 C3.67 20 3.34 20 3 20 C3 15.71 3 11.42 3 7 C-0.40080577 7.10407917 -0.40080577 7.10407917 -4 8 C-7.16729718 11.58960347 -7.54235293 15.33199992 -8 20 C-8.33 20 -8.66 20 -9 20 C-9.84292075 12.41371321 -7.25136061 8.17459517 -3 2 C-4.32 1.67 -5.64 1.34 -7 1 C-4.69 1.33 -2.38 1.66 0 2 C0 1.34 0 0.68 0 0 Z " fill="#302A22" transform="translate(66,96)"/>
<path d="M0 0 C0.99 0.33 1.98 0.66 3 1 C3.66 0.67 4.32 0.34 5 0 C5 1.65 5 3.3 5 5 C6.32 4.34 7.64 3.68 9 3 C9 5.97 9 8.94 9 12 C6.03 12 3.06 12 0 12 C0 8.04 0 4.08 0 0 Z " fill="#041012" transform="translate(58,48)"/>
<path d="M0 0 C0.99 0 1.98 0 3 0 C3 9.9 3 19.8 3 30 C2.01 29.67 1.02 29.34 0 29 C0 26.69 0 24.38 0 22 C-0.66 21.67 -1.32 21.34 -2 21 C-2 20.34 -2 19.68 -2 19 C-1.01 19 -0.02 19 1 19 C0.83628906 18.49984375 0.67257813 17.9996875 0.50390625 17.484375 C-0.1878911 14.0736532 -0.10504665 10.71264243 -0.0625 7.25 C-0.05798828 6.55261719 -0.05347656 5.85523438 -0.04882812 5.13671875 C-0.0371002 3.42444197 -0.01916653 1.71220967 0 0 Z " fill="#95968E" transform="translate(97,43)"/>
<path d="M0 0 C2.95584151 2.75199037 5.18765147 5.37530293 7 9 C7 10.32 7 11.64 7 13 C6.01 13.33 5.02 13.66 4 14 C3.34 13.01 2.68 12.02 2 11 C1.54625 11.495 1.0925 11.99 0.625 12.5 C-1 14 -1 14 -3 14 C-3.33 14.66 -3.66 15.32 -4 16 C-4 13.03 -4 10.06 -4 7 C-3.34 7 -2.68 7 -2 7 C-1.67 6.34 -1.34 5.68 -1 5 C-0.34 5 0.32 5 1 5 C1 4.34 1 3.68 1 3 C0.01 3.33 -0.98 3.66 -2 4 C-1.34 2.68 -0.68 1.36 0 0 Z " fill="#070305" transform="translate(46,99)"/>
<path d="M0 0 C1.98 0 3.96 0 6 0 C5.01 0.33 4.02 0.66 3 1 C3 1.66 3 2.32 3 3 C3.99 2.67 4.98 2.34 6 2 C5.67 3.32 5.34 4.64 5 6 C4.34 5.67 3.68 5.34 3 5 C3 5.66 3 6.32 3 7 C3.99 7.33 4.98 7.66 6 8 C6 8.66 6 9.32 6 10 C5.67 10.33 5.34 10.66 5 11 C5.33 11 5.66 11 6 11 C6 12.98 6 14.96 6 17 C2.98968256 17.93423645 2.13349732 18.04449911 -1 17 C-1 14.69 -1 12.38 -1 10 C-0.34 9.67 0.32 9.34 1 9 C0.67 8.34 0.34 7.68 0 7 C0.66 7 1.32 7 2 7 C2 5.02 2 3.04 2 1 C1.34 0.67 0.68 0.34 0 0 Z " fill="#42433C" transform="translate(104,44)"/>
<path d="M0 0 C0.66 0.66 1.32 1.32 2 2 C4.44012949 2.24287489 4.44012949 2.24287489 7.125 2.125 C8.03507812 2.10695312 8.94515625 2.08890625 9.8828125 2.0703125 C10.58148438 2.04710937 11.28015625 2.02390625 12 2 C12 1.34 12 0.68 12 0 C12.66 0 13.32 0 14 0 C14 0.66 14 1.32 14 2 C14.99 2.33 15.98 2.66 17 3 C15.36292167 4.98510058 14.49903853 5.91847304 11.9152832 6.34057617 C11.13499756 6.32486572 10.35471191 6.30915527 9.55078125 6.29296875 C8.70322266 6.28330078 7.85566406 6.27363281 6.98242188 6.26367188 C5.66081055 6.2259668 5.66081055 6.2259668 4.3125 6.1875 C3.41982422 6.17396484 2.52714844 6.16042969 1.60742188 6.14648438 C-0.59566166 6.11114079 -2.79752582 6.06180493 -5 6 C-5 5.34 -5 4.68 -5 4 C-4.34 4 -3.68 4 -3 4 C-3.33 3.01 -3.66 2.02 -4 1 C-3.01 1.33 -2.02 1.66 -1 2 C-0.67 1.34 -0.34 0.68 0 0 Z " fill="#F5F5F5" transform="translate(67,174)"/>
<path d="M0 0 C2.97 0 5.94 0 9 0 C9 2.64 9 5.28 9 8 C7.68 8 6.36 8 5 8 C5 7.34 5 6.68 5 6 C5.66 6 6.32 6 7 6 C7 5.34 7 4.68 7 4 C6.34 4 5.68 4 5 4 C4.67 3.34 4.34 2.68 4 2 C4 4.64 4 7.28 4 10 C3.01 10.33 2.02 10.66 1 11 C1 13.31 1 15.62 1 18 C0.67 18 0.34 18 0 18 C0 12.06 0 6.12 0 0 Z " fill="#BFC0B9" transform="translate(102,43)"/>
<path d="M0 0 C0 3.3 0 6.6 0 10 C-2.64 10 -5.28 10 -8 10 C-8 8.68 -8 7.36 -8 6 C-7.34 6 -6.68 6 -6 6 C-6 5.34 -6 4.68 -6 4 C-6.66 4 -7.32 4 -8 4 C-7 2 -7 2 -4 0.875 C-1 0 -1 0 0 0 Z " fill="#586B67" transform="translate(88,45)"/>
<path d="M0 0 C0.80824219 0.11085938 1.61648437 0.22171875 2.44921875 0.3359375 C3.37154297 0.47902344 3.37154297 0.47902344 4.3125 0.625 C4.6425 1.945 4.9725 3.265 5.3125 4.625 C4.67441406 4.61339844 4.03632812 4.60179688 3.37890625 4.58984375 C2.55261719 4.58082031 1.72632813 4.57179688 0.875 4.5625 C0.05128906 4.55089844 -0.77242187 4.53929688 -1.62109375 4.52734375 C-3.67913938 4.39232652 -3.67913938 4.39232652 -4.6875 5.625 C-4.83225933 9.4611222 -4.86411508 12.94807787 -3.6875 16.625 C-5.74050878 14.94477439 -6.61573089 14.10431509 -7.015625 11.43359375 C-6.98984375 10.65113281 -6.9640625 9.86867188 -6.9375 9.0625 C-6.92203125 8.27746094 -6.9065625 7.49242188 -6.890625 6.68359375 C-6.6875 4.625 -6.6875 4.625 -5.6875 2.625 C-6.3475 2.295 -7.0075 1.965 -7.6875 1.625 C-4.33422361 -0.61051759 -3.78006343 -0.54783528 0 0 Z " fill="#D9CEC5" transform="translate(35.6875,97.375)"/>
<path d="M0 0 C0.66 0 1.32 0 2 0 C2 0.66 2 1.32 2 2 C3.98 2 5.96 2 8 2 C7.67 3.65 7.34 5.3 7 7 C6.01 7 5.02 7 4 7 C4 7.66 4 8.32 4 9 C2.02 9 0.04 9 -2 9 C-2.125 5.625 -2.125 5.625 -2 2 C-1.34 1.34 -0.68 0.68 0 0 Z " fill="#D4D4D4" transform="translate(48,171)"/>
<path d="M0 0 C1.65 0 3.3 0 5 0 C4.835 0.61875 4.67 1.2375 4.5 1.875 C3.92365356 3.96063386 3.92365356 3.96063386 4 6 C3.84159259 8.04232408 3.6737089 10.08392044 3.5 12.125 C3.4071875 13.22070312 3.314375 14.31640625 3.21875 15.4453125 C3.11046875 16.70988281 3.11046875 16.70988281 3 18 C2.01 18 1.02 18 0 18 C0 12.06 0 6.12 0 0 Z " fill="#F2E4CC" transform="translate(70,98)"/>
<path d="M0 0 C2.31 0 4.62 0 7 0 C6.814375 1.11375 6.62875 2.2275 6.4375 3.375 C5.68319343 6.82568861 5.68319343 6.82568861 7 9 C5.02 9 3.04 9 1 9 C1.33 8.34 1.66 7.68 2 7 C-0.97 6.505 -0.97 6.505 -4 6 C-4 4.35 -4 2.7 -4 1 C-1 3 -1 3 0 4 C0 2.68 0 1.36 0 0 Z " fill="#C0C0C0" transform="translate(137,171)"/>
<path d="M0 0 C1.32 0.33 2.64 0.66 4 1 C4 5.62 4 10.24 4 15 C2.68 15 1.36 15 0 15 C0 10.05 0 5.1 0 0 Z " fill="#C5BAA3" transform="translate(147,53)"/>
<path d="M0 0 C0.226875 0.61875 0.45375 1.2375 0.6875 1.875 C2.41639933 4.67417035 3.87842357 5.10812102 7 6 C8.32 6 9.64 6 11 6 C10.67 7.32 10.34 8.64 10 10 C8.56344146 10.08131463 7.1255517 10.13933559 5.6875 10.1875 C4.48673828 10.23970703 4.48673828 10.23970703 3.26171875 10.29296875 C0.52148416 9.93801608 -0.29171079 9.10633718 -2 7 C-1.34 4.69 -0.68 2.38 0 0 Z " fill="#555451" transform="translate(64,120)"/>
<path d="M0 0 C0.99 0.33 1.98 0.66 3 1 C3 1.66 3 2.32 3 3 C1.7625 2.7525 0.525 2.505 -0.75 2.25 C-3.93493995 1.86035309 -4.67828423 1.79892765 -7.5 3.5625 C-9.41737542 6.67823506 -9.52552749 8.39638292 -9 12 C-8.02896212 14.46186579 -8.02896212 14.46186579 -6 16 C-2.54429807 16.35996895 -0.29975529 16.09991843 3 15 C3 15.66 3 16.32 3 17 C-0.2136411 18.60682055 -3.51460341 18.46150508 -7 18 C-9.5 16.625 -9.5 16.625 -11 14 C-11.73815039 9.37118195 -11.86951073 5.46077803 -9.4375 1.375 C-6.1286211 -0.49154707 -3.74242418 -0.34022038 0 0 Z " fill="#757D7C" transform="translate(110,98)"/>
<path d="M0 0 C2.64 0.33 5.28 0.66 8 1 C8 1.99 8 2.98 8 4 C6.68 4 5.36 4 4 4 C4 5.32 4 6.64 4 8 C3.34 8 2.68 8 2 8 C2 8.99 2 9.98 2 11 C2.66 11 3.32 11 4 11 C4 12.65 4 14.3 4 16 C3.01 16 2.02 16 1 16 C0.67 10.72 0.34 5.44 0 0 Z " fill="#6C6D65" transform="translate(102,61)"/>
<path d="M0 0 C2.60608273 2.5162178 4.89381685 5.05134359 7 8 C7.33773437 7.4225 7.67546875 6.845 8.0234375 6.25 C8.46945313 5.5075 8.91546875 4.765 9.375 4 C9.81585938 3.2575 10.25671875 2.515 10.7109375 1.75 C11.34902344 0.88375 11.34902344 0.88375 12 0 C12.66 0 13.32 0 14 0 C13.05916753 2.60538222 12.29612862 4.66833595 10.4375 6.75 C8.21809807 10.2238465 8.25084684 13.95185104 8 18 C7.34 18 6.68 18 6 18 C5.9071875 16.2675 5.9071875 16.2675 5.8125 14.5 C5.29722409 10.11234754 3.5701854 7.23578773 1.05859375 3.6640625 C0 2 0 2 0 0 Z " fill="#6A7571" transform="translate(150,98)"/>
<path d="M0 0 C0.33 0.66 0.66 1.32 1 2 C1.66 2 2.32 2 3 2 C3 1.34 3 0.68 3 0 C3.66 0 4.32 0 5 0 C5 0.66 5 1.32 5 2 C7.97 2 10.94 2 14 2 C13.67 3.32 13.34 4.64 13 6 C8.48382401 6.07654536 4.40914783 6.10228696 0 5 C0 3.35 0 1.7 0 0 Z " fill="#504E4C" transform="translate(117,124)"/>
<path d="M0 0 C1.99954746 -0.04254356 4.00041636 -0.04080783 6 0 C7 1 7 1 7.09765625 2.84765625 C7.04882812 5.92382812 7.04882812 5.92382812 7 9 C4.125 9.125 4.125 9.125 1 9 C0.34 8.34 -0.32 7.68 -1 7 C-0.01 6.67 0.98 6.34 2 6 C2.33 5.34 2.66 4.68 3 4 C2.01 4 1.02 4 0 4 C0 2.68 0 1.36 0 0 Z " fill="#CDC6B4" transform="translate(35,106)"/>
<path d="M0 0 C0.99 0 1.98 0 3 0 C3 0.66 3 1.32 3 2 C3.66 2 4.32 2 5 2 C5 2.66 5 3.32 5 4 C5.66 4.33 6.32 4.66 7 5 C7 6.32 7 7.64 7 9 C4.03 9 1.06 9 -2 9 C-2 7.35 -2 5.7 -2 4 C-1.34 3.67 -0.68 3.34 0 3 C0 2.01 0 1.02 0 0 Z " fill="#313127" transform="translate(116,69)"/>
<path d="M0 0 C1.32 0 2.64 0 4 0 C4 4.29 4 8.58 4 13 C2.68 12.67 1.36 12.34 0 12 C0 8.04 0 4.08 0 0 Z " fill="#2B5D73" transform="translate(41,54)"/>
<path d="M0 0 C1.65 0 3.3 0 5 0 C5 6.27 5 12.54 5 19 C3.68 19 2.36 19 1 19 C0.8046875 12.9453125 0.8046875 12.9453125 1 11 C1.66 10.34 2.32 9.68 3 9 C3.45811675 7.02764667 3.45811675 7.02764667 3.625 4.875 C3.74875 3.59625 3.8725 2.3175 4 1 C2.68 0.67 1.36 0.34 0 0 Z " fill="#CFC5BA" transform="translate(86,97)"/>
<path d="M0 0 C1.32 0.33 2.64 0.66 4 1 C3.01 1 2.02 1 1 1 C1 1.66 1 2.32 1 3 C1.56203125 2.67257813 2.1240625 2.34515625 2.703125 2.0078125 C5.26859964 0.88214506 6.96842277 0.7931889 9.75 0.875 C10.54921875 0.89304687 11.3484375 0.91109375 12.171875 0.9296875 C12.77515625 0.95289062 13.3784375 0.97609375 14 1 C14.33 2.32 14.66 3.64 15 5 C14.401875 4.814375 13.80375 4.62875 13.1875 4.4375 C10.83591238 3.77906313 10.83591238 3.77906313 8 5 C6.60560336 5.06665376 5.20830125 5.08538199 3.8125 5.0625 C1.9253125 5.0315625 1.9253125 5.0315625 0 5 C0 3.35 0 1.7 0 0 Z " fill="#5F5D5B" transform="translate(100,125)"/>
<path d="M0 0 C0.99 0 1.98 0 3 0 C3 6.6 3 13.2 3 20 C1.35 20 -0.3 20 -2 20 C-2 17.03 -2 14.06 -2 11 C-1.34 11 -0.68 11 0 11 C0.66 12.65 1.32 14.3 2 16 C2 11.05 2 6.1 2 1 C1.34 0.67 0.68 0.34 0 0 Z " fill="#F4E6CB" transform="translate(136,52)"/>
<path d="M0 0 C0.99 0.33 1.98 0.66 3 1 C3 8.59 3 16.18 3 24 C2.67 24 2.34 24 2 24 C1.67 18.39 1.34 12.78 1 7 C-1.31 6.67 -3.62 6.34 -6 6 C-5.195625 5.38125 -4.39125 4.7625 -3.5625 4.125 C-0.96125481 2.25835959 -0.96125481 2.25835959 0 0 Z " fill="#040E0B" transform="translate(74,45)"/>
<path d="M0 0 C4.29 0 8.58 0 13 0 C13.33 0.99 13.66 1.98 14 3 C12 3 10 3 8 3 C7.67 3.66 7.34 4.32 7 5 C6.34 5 5.68 5 5 5 C4.67 5.66 4.34 6.32 4 7 C3.67 6.34 3.34 5.68 3 5 C2.01 4.67 1.02 4.34 0 4 C0 2.68 0 1.36 0 0 Z " fill="#999999" transform="translate(57,173)"/>
<path d="M0 0 C3.3 0 6.6 0 10 0 C10.33 1.65 10.66 3.3 11 5 C9.02 5 7.04 5 5 5 C5 4.34 5 3.68 5 3 C3.02 3.99 3.02 3.99 1 5 C0.34 4.01 -0.32 3.02 -1 2 C-0.67 1.34 -0.34 0.68 0 0 Z " fill="#F9F9F9" transform="translate(82,168)"/>
<path d="M0 0 C0.515625 0.37125 1.03125 0.7425 1.5625 1.125 C0.91796875 1.42019531 0.2734375 1.71539062 -0.390625 2.01953125 C-3.67796816 5.40097774 -3.11436525 9.26817276 -3.1875 13.8125 C-3.21714844 14.70517578 -3.24679688 15.59785156 -3.27734375 16.51757812 C-3.34801427 18.72014277 -3.40071939 20.92165131 -3.4375 23.125 C-5.4175 22.795 -7.3975 22.465 -9.4375 22.125 C-9.4375 21.795 -9.4375 21.465 -9.4375 21.125 C-7.7875 21.125 -6.1375 21.125 -4.4375 21.125 C-4.4375 14.855 -4.4375 8.585 -4.4375 2.125 C-6.0875 2.125 -7.7375 2.125 -9.4375 2.125 C-9.4375 1.795 -9.4375 1.465 -9.4375 1.125 C-3.0375 -1.09038462 -3.0375 -1.09038462 0 0 Z " fill="#2C200F" transform="translate(150.4375,48.875)"/>
<path d="M0 0 C0.99 0.33 1.98 0.66 3 1 C2.67 1.99 2.34 2.98 2 4 C2.33 4.99 2.66 5.98 3 7 C-1.75 8.125 -1.75 8.125 -4 7 C-4 6.34 -4 5.68 -4 5 C-6.31 4.67 -8.62 4.34 -11 4 C-11 3.67 -11 3.34 -11 3 C-8.36 2.34 -5.72 1.68 -3 1 C-3 1.66 -3 2.32 -3 3 C-2.34 3 -1.68 3 -1 3 C-0.67 2.01 -0.34 1.02 0 0 Z " fill="#101413" transform="translate(149,96)"/>
<path d="M0 0 C3.63 0 7.26 0 11 0 C11 1.98 11 3.96 11 6 C10.01 5.67 9.02 5.34 8 5 C7.67 4.01 7.34 3.02 7 2 C7 2.33 7 2.66 7 3 C5.35 3.33 3.7 3.66 2 4 C1.67 5.65 1.34 7.3 1 9 C0.67 9 0.34 9 0 9 C0 6.03 0 3.06 0 0 Z " fill="#010610" transform="translate(59,61)"/>
<path d="M0 0 C3.51509398 3.51509398 4.45972123 6.3791637 6 11 C7.32 11.33 8.64 11.66 10 12 C6.7 12 3.4 12 0 12 C0 8.04 0 4.08 0 0 Z " fill="#302B2A" transform="translate(124,48)"/>
<path d="M0 0 C2 1 2 1 3 3 C3.33 3.99 3.66 4.98 4 6 C6.01508358 6.73323796 6.01508358 6.73323796 8 7 C8.33 8.32 8.66 9.64 9 11 C8.34 11 7.68 11 7 11 C7 10.34 7 9.68 7 9 C6.01 9 5.02 9 4 9 C4.33 9.66 4.66 10.32 5 11 C3.68 11.33 2.36 11.66 1 12 C1.33 10.68 1.66 9.36 2 8 C1.01 7.34 0.02 6.68 -1 6 C-0.67 4.02 -0.34 2.04 0 0 Z " fill="#0E0D0D" transform="translate(61,124)"/>
<path d="M0 0 C1.32 0.33 2.64 0.66 4 1 C3.979375 1.94875 3.95875 2.8975 3.9375 3.875 C3.77448174 6.90666283 3.77448174 6.90666283 5 9 C4.34 9 3.68 9 3 9 C3 9.99 3 10.98 3 12 C2.34 12 1.68 12 1 12 C1.33 12.99 1.66 13.98 2 15 C1.01 14.67 0.02 14.34 -1 14 C-0.67 13.01 -0.34 12.02 0 11 C0.66 11 1.32 11 2 11 C1.67 9.68 1.34 8.36 1 7 C0.34 7.66 -0.32 8.32 -1 9 C-1.80967438 6.08517222 -2.21845993 4.53886783 -1.0625 1.6875 C-0.711875 1.130625 -0.36125 0.57375 0 0 Z " fill="#2D2F28" transform="translate(94,64)"/>
<path d="M0 0 C0.66 0 1.32 0 2 0 C2 1.32 2 2.64 2 4 C2.99 4 3.98 4 5 4 C4.67 2.68 4.34 1.36 4 0 C6.64 0 9.28 0 12 0 C12 1.32 12 2.64 12 4 C9.47524538 5.26237731 7.68799534 5.09856404 4.875 5.0625 C3.96492188 5.05347656 3.05484375 5.04445312 2.1171875 5.03515625 C1.41851562 5.02355469 0.71984375 5.01195312 0 5 C0 3.35 0 1.7 0 0 Z " fill="#919191" transform="translate(106,172)"/>
<path d="M0 0 C0.66 0 1.32 0 2 0 C2 1.32 2 2.64 2 4 C2.66 4.33 3.32 4.66 4 5 C3.01 7.31 2.02 9.62 1 12 C1.66 12 2.32 12 3 12 C3 13.98 3 15.96 3 18 C2.01 17.67 1.02 17.34 0 17 C0 11.39 0 5.78 0 0 Z " fill="#1B7094" transform="translate(54,52)"/>
<path d="M0 0 C0.99 0.99 1.98 1.98 3 3 C2.67 3.99 2.34 4.98 2 6 C1.34 5.67 0.68 5.34 0 5 C0 4.34 0 3.68 0 3 C-0.66 3 -1.32 3 -2 3 C-1.67 3.99 -1.34 4.98 -1 6 C-3.64 6 -6.28 6 -9 6 C-8 4 -8 4 -7 3 C-7.99 2.67 -8.98 2.34 -10 2 C-6.7 2 -3.4 2 0 2 C0 1.34 0 0.68 0 0 Z " fill="#909090" transform="translate(81,171)"/>
<path d="M0 0 C2.9375 0.75 2.9375 0.75 4.9375 1.75 C5.2675 1.09 5.5975 0.43 5.9375 -0.25 C6.2675 0.74 6.5975 1.73 6.9375 2.75 C6.2775 2.75 5.6175 2.75 4.9375 2.75 C4.6075 3.41 4.2775 4.07 3.9375 4.75 C3.6075 4.42 3.2775 4.09 2.9375 3.75 C2.07125 4.0284375 2.07125 4.0284375 1.1875 4.3125 C-1.76568037 4.88672952 -3.39102189 4.01153133 -6.0625 2.75 C-4.07906463 -0.00477135 -3.48634322 -0.28459945 0 0 Z " fill="#0A0E0E" transform="translate(108.0625,99.25)"/>
<path d="M0 0 C1.98 0 3.96 0 6 0 C5.67 1.98 5.34 3.96 5 6 C5.66 6.33 6.32 6.66 7 7 C6.34 7 5.68 7 5 7 C5.33 7.99 5.66 8.98 6 10 C4.02 10 2.04 10 0 10 C0.66 9.67 1.32 9.34 2 9 C2 8.01 2 7.02 2 6 C2.33 5.67 2.66 5.34 3 5 C2.74276031 2.97080157 2.74276031 2.97080157 2 1 C1.34 0.67 0.68 0.34 0 0 Z " fill="#21231D" transform="translate(92,38)"/>
<path d="M0 0 C0.33 0 0.66 0 1 0 C1 3.63 1 7.26 1 11 C2.32 11.33 3.64 11.66 5 12 C3.35 12 1.7 12 0 12 C-0.66 10.68 -1.32 9.36 -2 8 C-2.99 9.32 -3.98 10.64 -5 12 C-5 11.34 -5 10.68 -5 10 C-5.66 9.67 -6.32 9.34 -7 9 C-6.01 9 -5.02 9 -4 9 C-3.71125 8.2575 -3.4225 7.515 -3.125 6.75 C-2.17697356 4.43260203 -1.15154089 2.22082885 0 0 Z " fill="#241B14" transform="translate(86,105)"/>
<path d="M0 0 C2.95584151 2.75199037 5.18765147 5.37530293 7 9 C7 10.32 7 11.64 7 13 C6.01 13.33 5.02 13.66 4 14 C3.01 10.37 2.02 6.74 1 3 C0.01 3.33 -0.98 3.66 -2 4 C-1.34 2.68 -0.68 1.36 0 0 Z " fill="#120D08" transform="translate(46,99)"/>
<path d="M0 0 C0.66 0 1.32 0 2 0 C0.84414715 3.91211733 -0.35534962 6.8745041 -3 10 C-4.32 7.36 -5.64 4.72 -7 2 C-6.34 2 -5.68 2 -5 2 C-5 2.66 -5 3.32 -5 4 C-3.35 3.34 -1.7 2.68 0 2 C0 1.34 0 0.68 0 0 Z " fill="#1E1712" transform="translate(83,99)"/>
<path d="M0 0 C2.31 0.66 4.62 1.32 7 2 C6.01 4.31 5.02 6.62 4 9 C0.06153846 5.67692308 0.06153846 5.67692308 -0.25 2.25 C-0.1675 1.5075 -0.085 0.765 0 0 Z " fill="#1A140D" transform="translate(52,96)"/>
<path d="M0 0 C0.66 0 1.32 0 2 0 C2 4.62 2 9.24 2 14 C1.34 13.67 0.68 13.34 0 13 C0 11.68 0 10.36 0 9 C-0.66 9 -1.32 9 -2 9 C-2.20140476 5.37471432 -1.85776765 3.13498292 0 0 Z " fill="#F3E1B7" transform="translate(136,54)"/>
<path d="M0 0 C0.99 0 1.98 0 3 0 C3 4.62 3 9.24 3 14 C2.67 13.34 2.34 12.68 2 12 C1.34 12 0.68 12 0 12 C0 8.04 0 4.08 0 0 Z " fill="#A1A29B" transform="translate(97,43)"/>
<path d="M0 0 C1.65 0 3.3 0 5 0 C7 3.75 7 3.75 7 6 C4.69 6 2.38 6 0 6 C0 4.02 0 2.04 0 0 Z " fill="#9E9B8C" transform="translate(115,56)"/>
<path d="M0 0 C1.98 0 3.96 0 6 0 C6 1.98 6 3.96 6 6 C4.02 6 2.04 6 0 6 C0 4.02 0 2.04 0 0 Z " fill="#B3B3B3" transform="translate(118,171)"/>
<path d="M0 0 C3 1 3 1 5 4 C4.67 4.66 4.34 5.32 4 6 C1.36 6 -1.28 6 -4 6 C-1.125 1.125 -1.125 1.125 0 0 Z " fill="#090707" transform="translate(126,120)"/>
<path d="M0 0 C1.65 0 3.3 0 5 0 C5.66 1.98 6.32 3.96 7 6 C6.01 6.99 5.02 7.98 4 9 C0 3.375 0 3.375 0 0 Z " fill="#DAD2C4" transform="translate(47,98)"/>
<path d="M0 0 C3.96 0 7.92 0 12 0 C11.67 1.32 11.34 2.64 11 4 C8.69 4 6.38 4 4 4 C3.67 3.01 3.34 2.02 3 1 C2.34 1 1.68 1 1 1 C0.67 1.66 0.34 2.32 0 3 C0 2.01 0 1.02 0 0 Z " fill="#8E8E8E" transform="translate(87,173)"/>
<path d="M0 0 C0.66 0 1.32 0 2 0 C2 3.63 2 7.26 2 11 C1.01 11.33 0.02 11.66 -1 12 C-1.02698189 10.37509046 -1.04638757 8.75005367 -1.0625 7.125 C-1.07410156 6.22007813 -1.08570313 5.31515625 -1.09765625 4.3828125 C-1 2 -1 2 0 0 Z " fill="#236C98" transform="translate(48,54)"/>
<path d="M0 0 C1.65 0 3.3 0 5 0 C5 1.32 5 2.64 5 4 C6.32 4.33 7.64 4.66 9 5 C9.33 4.34 9.66 3.68 10 3 C10.33 4.32 10.66 5.64 11 7 C8.03 6.67 5.06 6.34 2 6 C2 4.68 2 3.36 2 2 C1.34 2 0.68 2 0 2 C0 1.34 0 0.68 0 0 Z " fill="#43423E" transform="translate(76,124)"/>
<path d="M0 0 C3.3 0 6.6 0 10 0 C10 3.96 10 7.92 10 12 C9.67 12 9.34 12 9 12 C8.67 9.03 8.34 6.06 8 3 C6.68 2.67 5.36 2.34 4 2 C3.34 2.66 2.68 3.32 2 4 C2 3.01 2 2.02 2 1 C1.34 0.67 0.68 0.34 0 0 Z " fill="#110B08" transform="translate(124,61)"/>
<path d="M0 0 C1.32 0 2.64 0 4 0 C4 0.66 4 1.32 4 2 C3.01 2 2.02 2 1 2 C1 2.66 1 3.32 1 4 C1.99 4.33 2.98 4.66 4 5 C3.01 5 2.02 5 1 5 C1.33 7.31 1.66 9.62 2 12 C1.34 12 0.68 12 0 12 C0 10.35 0 8.7 0 7 C-0.66 7 -1.32 7 -2 7 C-2 6.01 -2 5.02 -2 4 C-1.34 4 -0.68 4 0 4 C0 2.68 0 1.36 0 0 Z " fill="#060703" transform="translate(106,65)"/>
<path d="M0 0 C1.32 0.66 2.64 1.32 4 2 C3.67 2.66 3.34 3.32 3 4 C2.34 4 1.68 4 1 4 C1 4.66 1 5.32 1 6 C-0.98 6 -2.96 6 -5 6 C-5 5.01 -5 4.02 -5 3 C-3.35 3 -1.7 3 0 3 C0 2.01 0 1.02 0 0 Z " fill="#0C0404" transform="translate(140,70)"/>
<path d="M0 0 C1.98 0 3.96 0 6 0 C5.01 0.33 4.02 0.66 3 1 C3 1.66 3 2.32 3 3 C3.99 2.67 4.98 2.34 6 2 C5.67 3.32 5.34 4.64 5 6 C4.34 5.67 3.68 5.34 3 5 C3 5.66 3 6.32 3 7 C3.99 7.33 4.98 7.66 6 8 C4.125 8.625 4.125 8.625 2 9 C1.34 8.34 0.68 7.68 0 7 C0.66 7 1.32 7 2 7 C2 5.02 2 3.04 2 1 C1.34 0.67 0.68 0.34 0 0 Z " fill="#0A0B07" transform="translate(104,44)"/>
<path d="M0 0 C0.66 1.32 1.32 2.64 2 4 C1.01 5.485 1.01 5.485 0 7 C-0.45601261 9.50896686 -0.45601261 9.50896686 -0.625 12.1875 C-0.69976562 13.08855469 -0.77453125 13.98960938 -0.8515625 14.91796875 C-0.90054688 15.60503906 -0.94953125 16.29210937 -1 17 C-1.33 17 -1.66 17 -2 17 C-2 2 -2 2 0 0 Z " fill="#C9BDA5" transform="translate(75,99)"/>
<path d="M0 0 C1.98 0 3.96 0 6 0 C6 1.32 6 2.64 6 4 C5.34 4 4.68 4 4 4 C4 4.66 4 5.32 4 6 C3.34 6 2.68 6 2 6 C2 5.34 2 4.68 2 4 C1.34 4 0.68 4 0 4 C0 2.68 0 1.36 0 0 Z " fill="#98998B" transform="translate(117,65)"/>
<path d="M0 0 C0.66 0 1.32 0 2 0 C2.33 0.99 2.66 1.98 3 3 C3.66 3 4.32 3 5 3 C5 3.99 5 4.98 5 6 C3.02 6 1.04 6 -1 6 C-1.33 5.01 -1.66 4.02 -2 3 C-1.34 2.01 -0.68 1.02 0 0 Z " fill="#E0E0E0" transform="translate(85,171)"/>
<path d="M0 0 C0.66 0 1.32 0 2 0 C2 0.66 2 1.32 2 2 C2.66 2 3.32 2 4 2 C3.67 3.32 3.34 4.64 3 6 C1.35 6 -0.3 6 -2 6 C-1.125 1.125 -1.125 1.125 0 0 Z " fill="#A1A1A1" transform="translate(48,171)"/>
<path d="M0 0 C2.1875 1.1875 2.1875 1.1875 4 3 C4 4.32 4 5.64 4 7 C2.68 7 1.36 7 0 7 C0 6.34 0 5.68 0 5 C-0.66 4.67 -1.32 4.34 -2 4 C-1.67 3.67 -1.34 3.34 -1 3 C-1.66 2.34 -2.32 1.68 -3 1 C-2.01 0.67 -1.02 0.34 0 0 Z " fill="#EAEAEA" transform="translate(99,168)"/>
<path d="M0 0 C0.33 0.99 0.66 1.98 1 3 C1.99 3 2.98 3 4 3 C3.67 3.99 3.34 4.98 3 6 C1.35 6 -0.3 6 -2 6 C-2.33 4.68 -2.66 3.36 -3 2 C-2.01 2 -1.02 2 0 2 C0 1.34 0 0.68 0 0 Z " fill="#262215" transform="translate(34,107)"/>
<path d="M0 0 C1.32 0 2.64 0 4 0 C4.29296875 6.0546875 4.29296875 6.0546875 4 8 C3.01 8.66 2.02 9.32 1 10 C1.020625 8.906875 1.04125 7.81375 1.0625 6.6875 C1.18544452 3.05615809 1.18544452 3.05615809 0 0 Z " fill="#F7EACE" transform="translate(86,98)"/>
<path d="M0 0 C0 2.97 0 5.94 0 9 C-0.66 8.67 -1.32 8.34 -2 8 C-2 6.68 -2 5.36 -2 4 C-2.99 4 -3.98 4 -5 4 C-5 3.01 -5 2.02 -5 1 C-1.125 0 -1.125 0 0 0 Z " fill="#455C56" transform="translate(75,53)"/>
<path d="M0 0 C0.99 0.33 1.98 0.66 3 1 C3 3.64 3 6.28 3 9 C2.01 9.33 1.02 9.66 0 10 C0 6.7 0 3.4 0 0 Z " fill="#7A7B74" transform="translate(103,44)"/>
<path d="M0 0 C0.99 0.33 1.98 0.66 3 1 C2.835 1.515625 2.67 2.03125 2.5 2.5625 C1.57393149 7.07708398 1.58996391 11.59363721 3 16 C0.94699122 14.31977439 0.07176911 13.47931509 -0.328125 10.80859375 C-0.30234375 10.02613281 -0.2765625 9.24367188 -0.25 8.4375 C-0.23453125 7.65246094 -0.2190625 6.86742188 -0.203125 6.05859375 C0 4 0 4 1 2 C0.34 1.67 -0.32 1.34 -1 1 C-0.67 0.67 -0.34 0.34 0 0 Z " fill="#C3BAA9" transform="translate(29,98)"/>
<path d="M0 0 C0.33 0.99 0.66 1.98 1 3 C-1.97 3 -4.94 3 -8 3 C-8 2.34 -8 1.68 -8 1 C-5.07175348 0.02391783 -3.04386724 -0.08226668 0 0 Z " fill="#F9F9F9" transform="translate(60,177)"/>
<path d="M0 0 C1.65 0 3.3 0 5 0 C5 1.32 5 2.64 5 4 C5.66 4.33 6.32 4.66 7 5 C6.34 5 5.68 5 5 5 C4.67 5.66 4.34 6.32 4 7 C3.67 6.34 3.34 5.68 3 5 C2.01 4.67 1.02 4.34 0 4 C0 2.68 0 1.36 0 0 Z " fill="#B8B8B8" transform="translate(57,173)"/>
<path d="M0 0 C2.97 0 5.94 0 9 0 C8.67 1.32 8.34 2.64 8 4 C5.36 3.34 2.72 2.68 0 2 C0 1.34 0 0.68 0 0 Z " fill="#656261" transform="translate(122,126)"/>
<path d="M0 0 C0.33 0 0.66 0 1 0 C1.06058594 0.66386719 1.12117188 1.32773438 1.18359375 2.01171875 C1.79863507 8.54908081 1.79863507 8.54908081 3 15 C2.01 15 1.02 15 0 15 C0 10.05 0 5.1 0 0 Z " fill="#E4D8CD" transform="translate(70,101)"/>
<path d="M0 0 C0 1.65 0 3.3 0 5 C-2.64 4.67 -5.28 4.34 -8 4 C-7 2 -7 2 -4 0.875 C-1 0 -1 0 0 0 Z " fill="#637069" transform="translate(88,45)"/>
<path d="M0 0 C1.65 0.33 3.3 0.66 5 1 C4.01 1.495 4.01 1.495 3 2 C3 3.65 3 5.3 3 7 C1.68 6.67 0.36 6.34 -1 6 C-1 3 -1 3 0 0 Z " fill="#070B0C" transform="translate(118,96)"/>
<path d="M0 0 C0.33 0 0.66 0 1 0 C1 2.31 1 4.62 1 7 C0.34 7 -0.32 7 -1 7 C-1 7.99 -1 8.98 -1 10 C-1.66 10 -2.32 10 -3 10 C-3 8.02 -3 6.04 -3 4 C-2.34 3.67 -1.68 3.34 -1 3 C-0.67 2.01 -0.34 1.02 0 0 Z " fill="#7A7D76" transform="translate(95,68)"/>
<path d="M0 0 C1.98 0 3.96 0 6 0 C6 1.98 6 3.96 6 6 C5.01 5.67 4.02 5.34 3 5 C2.67 4.01 2.34 3.02 2 2 C1.01 2.495 1.01 2.495 0 3 C0 2.01 0 1.02 0 0 Z " fill="#051312" transform="translate(64,61)"/>
<path d="M0 0 C1.4606285 2.64738916 2 3.89448334 2 7 C1.34 7 0.68 7 0 7 C-0.33 7.66 -0.66 8.32 -1 9 C-2.0326802 6.21176345 -2.04509293 5.1322726 -1.0625 2.25 C-0.711875 1.5075 -0.36125 0.765 0 0 Z " fill="#353232" transform="translate(64,120)"/>
<path d="M0 0 C0.99 0.33 1.98 0.66 3 1 C3 2.32 3 3.64 3 5 C3.99 5.33 4.98 5.66 6 6 C2.25 7.125 2.25 7.125 0 6 C0 4.02 0 2.04 0 0 Z " fill="#070803" transform="translate(104,55)"/>
<path d="M0 0 C2.97 0 5.94 0 9 0 C9 0.66 9 1.32 9 2 C5.71023192 3.09658936 4.28696233 2.79953138 1 2 C0.67 2.66 0.34 3.32 0 4 C0 2.68 0 1.36 0 0 Z " fill="#29251E" transform="translate(114,49)"/>
<path d="M0 0 C1.32 0.33 2.64 0.66 4 1 C4 2.32 4 3.64 4 5 C3.34 5 2.68 5 2 5 C2 5.99 2 6.98 2 8 C1.34 8 0.68 8 0 8 C0 5.36 0 2.72 0 0 Z " fill="#7D8078" transform="translate(92,39)"/>
<path d="M0 0 C0.66 0 1.32 0 2 0 C2 0.66 2 1.32 2 2 C2.99 2.33 3.98 2.66 5 3 C3.75 4.5625 3.75 4.5625 2 6 C-0.1875 5.6875 -0.1875 5.6875 -2 5 C-1.34 5 -0.68 5 0 5 C0 3.35 0 1.7 0 0 Z " fill="#EFEFEF" transform="translate(79,174)"/>
<path d="M0 0 C0.33 0.99 0.66 1.98 1 3 C-0.8125 3.6875 -0.8125 3.6875 -3 4 C-4.75 2.5625 -4.75 2.5625 -6 1 C-4 0 -4 0 0 0 Z M1 0 C1.99 0.495 1.99 0.495 3 1 C2.01 1.495 2.01 1.495 1 2 C1 1.34 1 0.68 1 0 Z " fill="#FBFBFB" transform="translate(107,168)"/>
<path d="M0 0 C0.99 1.32 1.98 2.64 3 4 C1.02 4.99 1.02 4.99 -1 6 C-1.99 5.34 -2.98 4.68 -4 4 C-2.68 2.68 -1.36 1.36 0 0 Z " fill="#0B0B0B" transform="translate(104,129)"/>
<path d="M0 0 C0.515625 0.37125 1.03125 0.7425 1.5625 1.125 C0.2425 2.115 -1.0775 3.105 -2.4375 4.125 C-2.7675 3.465 -3.0975 2.805 -3.4375 2.125 C-5.4175 2.125 -7.3975 2.125 -9.4375 2.125 C-9.4375 1.795 -9.4375 1.465 -9.4375 1.125 C-3.0375 -1.09038462 -3.0375 -1.09038462 0 0 Z " fill="#251D1A" transform="translate(150.4375,48.875)"/>
<path d="M0 0 C1.98 0 3.96 0 6 0 C6.33 0.99 6.66 1.98 7 3 C6 4 6 4 3.4375 4.0625 C2.2309375 4.0315625 2.2309375 4.0315625 1 4 C2 2 2 2 3 1 C2.01 0.67 1.02 0.34 0 0 Z " fill="#9A9A9A" transform="translate(71,173)"/>
<path d="M0 0 C1.67542976 0.28604898 3.34385343 0.61781233 5 1 C5 1.99 5 2.98 5 4 C4.01 4.66 3.02 5.32 2 6 C0 4 0 4 -1 1 C-0.67 0.67 -0.34 0.34 0 0 Z " fill="#FAFAFA" transform="translate(94,167)"/>
<path d="M0 0 C2.31 0 4.62 0 7 0 C7 0.99 7 1.98 7 3 C5.35 3.66 3.7 4.32 2 5 C2 4.34 2 3.68 2 3 C1.34 2.67 0.68 2.34 0 2 C0 1.34 0 0.68 0 0 Z " fill="#FCFCFC" transform="translate(66,168)"/>
<path d="M0 0 C1.32 0.33 2.64 0.66 4 1 C4 4 4 4 2.5 5.6875 C2.005 6.120625 1.51 6.55375 1 7 C0.67 4.69 0.34 2.38 0 0 Z " fill="#110D0A" transform="translate(24,96)"/>
<path d="M0 0 C1.32 0 2.64 0 4 0 C4 1.65 4 3.3 4 5 C2.68 5 1.36 5 0 5 C0 3.35 0 1.7 0 0 Z " fill="#7B7D73" transform="translate(92,48)"/>
<path d="M0 0 C1.65 0.33 3.3 0.66 5 1 C4.67 1.99 4.34 2.98 4 4 C2.35 4.33 0.7 4.66 -1 5 C-0.67 3.35 -0.34 1.7 0 0 Z " fill="#0A0A08" transform="translate(82,130)"/>
<path d="M0 0 C1.98 0 3.96 0 6 0 C5.67 1.32 5.34 2.64 5 4 C4.67 3.67 4.34 3.34 4 3 C2.33382885 2.95936168 0.66611905 2.957279 -1 3 C-0.67 2.01 -0.34 1.02 0 0 Z " fill="#6E6B67" transform="translate(81,126)"/>
<path d="M0 0 C0.99 0.33 1.98 0.66 3 1 C3.6875 3.0625 3.6875 3.0625 4 5 C2.35 5 0.7 5 -1 5 C-0.67 3.35 -0.34 1.7 0 0 Z " fill="#4B4945" transform="translate(88,125)"/>
<path d="M0 0 C1.33333333 0.66666667 2.66666667 1.33333333 4 2 C4 1.34 4 0.68 4 0 C4.66 0 5.32 0 6 0 C6 1.32 6 2.64 6 4 C4.02 4 2.04 4 0 4 C0 2.68 0 1.36 0 0 Z " fill="#A2A29A" transform="translate(117,74)"/>
<path d="M0 0 C3.3 0 6.6 0 10 0 C8.515 1.485 8.515 1.485 7 3 C6.67 2.67 6.34 2.34 6 2 C5.34 2.66 4.68 3.32 4 4 C2.66666667 2.66666667 1.33333333 1.33333333 0 0 Z " fill="#070F0D" transform="translate(77,70)"/>
<path d="M0 0 C0.33 0 0.66 0 1 0 C1 3.96 1 7.92 1 12 C0.01 12.33 -0.98 12.66 -2 13 C-2 12.01 -2 11.02 -2 10 C-1.34 10 -0.68 10 0 10 C0 6.7 0 3.4 0 0 Z " fill="#DBD3C2" transform="translate(150,54)"/>
<path d="M0 0 C0.33 0 0.66 0 1 0 C1 2.31 1 4.62 1 7 C-0.32 7 -1.64 7 -3 7 C-2.25 2.25 -2.25 2.25 0 0 Z " fill="#898A81" transform="translate(95,54)"/>
<path d="M0 0 C1.98 0 3.96 0 6 0 C5.67 1.65 5.34 3.3 5 5 C4.01 5 3.02 5 2 5 C2 3.68 2 2.36 2 1 C1.34 0.67 0.68 0.34 0 0 Z " fill="#EFEFEF" transform="translate(106,171)"/>
<path d="M0 0 C0.33 1.32 0.66 2.64 1 4 C-1.31 4 -3.62 4 -6 4 C-6 3.34 -6 2.68 -6 2 C-4.02 1.34 -2.04 0.68 0 0 Z " fill="#161412" transform="translate(93,122)"/>
<path d="M0 0 C1.32 0.33 2.64 0.66 4 1 C4 2.32 4 3.64 4 5 C2.68 5 1.36 5 0 5 C0 3.35 0 1.7 0 0 Z " fill="#EBE1D6" transform="translate(53,111)"/>
<path d="M0 0 C1.98 0 3.96 0 6 0 C5.67 0.99 5.34 1.98 5 3 C3.35 3 1.7 3 0 3 C0 2.01 0 1.02 0 0 Z " fill="#485B5A" transform="translate(68,67)"/>
<path d="M0 0 C0.99 0 1.98 0 3 0 C3 1.98 3 3.96 3 6 C2.01 5.67 1.02 5.34 0 5 C0 3.35 0 1.7 0 0 Z " fill="#107688" transform="translate(54,64)"/>
</svg>
