<?xml version="1.0" encoding="UTF-8"?>
<svg version="1.1" xmlns="http://www.w3.org/2000/svg" width="204" height="192">
<path d="M0 0 C67.32 0 134.64 0 204 0 C204 63.36 204 126.72 204 192 C136.68 192 69.36 192 0 192 C0 128.64 0 65.28 0 0 Z " fill="#DBDCDE" transform="translate(0,0)"/>
<path d="M0 0 C0.88872803 0.00088623 1.77745605 0.00177246 2.69311523 0.00268555 C9.65813015 0.12850929 16.65960109 0.74860711 21.80859375 5.94921875 C23.30413731 7.63878619 23.30413731 7.63878619 26.25 8.375 C27.85546875 9.8984375 27.85546875 9.8984375 29.4375 11.75 C29.96730469 12.35585938 30.49710937 12.96171875 31.04296875 13.5859375 C32.25 15.375 32.25 15.375 32.25 18.375 C32.91 18.375 33.57 18.375 34.25 18.375 C34.25 19.365 34.25 20.355 34.25 21.375 C34.91 21.375 35.57 21.375 36.25 21.375 C42.15529602 33.43164604 39.22790961 46.87841504 36.25 59.375 C32.03959534 60.25682517 28.83354735 60.34634699 24.625 59.5 C18.51494892 58.36680757 12.44594811 57.7924575 6.25 57.375 C6.91 55.725 7.57 54.075 8.25 52.375 C5.4817604 53.50280132 4.02834465 54.60863672 1.9375 56.8125 C-1.72670446 60.30627635 -5.27895279 62.19849663 -10.375 62.5625 C-14.21286081 60.6435696 -15.77271332 57.0687398 -17.75 53.375 C-17.42 56.015 -17.09 58.655 -16.75 61.375 C-19.47842061 62.73921031 -21.35953318 62.25307211 -24.375 61.9375 C-25.37789062 61.83566406 -26.38078125 61.73382813 -27.4140625 61.62890625 C-28.18492188 61.54511719 -28.95578125 61.46132812 -29.75 61.375 C-30.245 59.89 -30.245 59.89 -30.75 58.375 C-32.4 58.375 -34.05 58.375 -35.75 58.375 C-34.76 57.88 -34.76 57.88 -33.75 57.375 C-34.224375 56.34375 -34.69875 55.3125 -35.1875 54.25 C-38.95238868 46.06545939 -39.33909199 34.7357128 -36.80859375 26.19921875 C-34.43324991 20.81560245 -31.48566627 15.91837789 -27.75 11.375 C-27.09 11.375 -26.43 11.375 -25.75 11.375 C-25.75 10.715 -25.75 10.055 -25.75 9.375 C-24.0703125 8.15625 -24.0703125 8.15625 -21.875 6.875 C-19.49637514 5.47681191 -17.71207916 4.33707916 -15.75 2.375 C-10.53617261 0.09192652 -5.59415846 -0.00991594 0 0 Z " fill="#F39639" transform="translate(101.75,39.625)"/>
<path d="M0 0 C0.99 0.33 1.98 0.66 3 1 C2.34 2.32 1.68 3.64 1 5 C15.48554214 6.64179133 15.48554214 6.64179133 30 8 C30.33 5.69 30.66 3.38 31 1 C34 1 34 1 36 2 C36 2.99 36 3.98 36 5 C34.68 5.33 33.36 5.66 32 6 C31.67 7.98 31.34 9.96 31 12 C31.66 12 32.32 12 33 12 C33.33 10.68 33.66 9.36 34 8 C34.66 8 35.32 8 36 8 C36 9.65 36 11.3 36 13 C38.64 13 41.28 13 44 13 C44 18.94 44 24.88 44 31 C44.99 30.34 45.98 29.68 47 29 C47.99 29 48.98 29 50 29 C50 29.66 50 30.32 50 31 C51.65 31 53.3 31 55 31 C55 31.33 55 31.66 55 32 C54.38511719 32.06058594 53.77023438 32.12117188 53.13671875 32.18359375 C52.32847656 32.26738281 51.52023438 32.35117188 50.6875 32.4375 C49.88699219 32.51871094 49.08648437 32.59992188 48.26171875 32.68359375 C45.83912821 32.95265693 45.83912821 32.95265693 43 34 C43 33.34 43 32.68 43 32 C42.01 32.495 42.01 32.495 41 33 C40.67 33.99 40.34 34.98 40 36 C39.34 36 38.68 36 38 36 C38 35.01 38 34.02 38 33 C35.03 33 32.06 33 29 33 C29.495 40.425 29.495 40.425 30 48 C24 51 24 51 22 51 C22.495 54.465 22.495 54.465 23 58 C22.01 57.67 21.02 57.34 20 57 C18.875 51.375 18.875 51.375 20 48 C19.01 47.505 19.01 47.505 18 47 C18.33 46.67 18.66 46.34 19 46 C19.23481693 43.81707226 19.41363323 41.62796826 19.5625 39.4375 C19.64628906 38.23996094 19.73007813 37.04242188 19.81640625 35.80859375 C19.90728516 34.41833984 19.90728516 34.41833984 20 33 C19.01 33 18.02 33 17 33 C17.02320313 33.96421875 17.04640625 34.9284375 17.0703125 35.921875 C17.08835938 37.18515625 17.10640625 38.4484375 17.125 39.75 C17.14820313 41.00296875 17.17140625 42.2559375 17.1953125 43.546875 C17.01537302 46.72820492 16.68998582 48.36521896 15 51 C14.01 51 13.02 51 12 51 C12 51.66 12 52.32 12 53 C11.01 53 10.02 53 9 53 C8.34 53.66 7.68 54.32 7 55 C6.67 53.68 6.34 52.36 6 51 C5.01 51 4.02 51 3 51 C3 50.34 3 49.68 3 49 C1.515 48.505 1.515 48.505 0 48 C-1.0745356 49.7763932 -1.0745356 49.7763932 -1 51 C-1 52.32 -1 53.64 -1 55 C-0.01 54.505 -0.01 54.505 1 54 C1.33 53.01 1.66 52.02 2 51 C2.66 51.33 3.32 51.66 4 52 C4 53.32 4 54.64 4 56 C4.66 56 5.32 56 6 56 C5.67 57.65 5.34 59.3 5 61 C4.01 61 3.02 61 2 61 C1.34 60.34 0.68 59.68 0 59 C-0.66 59 -1.32 59 -2 59 C-3.76462683 55.91190305 -4 54.76687864 -4 51 C-5.32 51 -6.64 51 -8 51 C-8.04125 52.093125 -8.0825 53.18625 -8.125 54.3125 C-9 58 -9 58 -12.0625 59.9375 C-13.031875 60.288125 -14.00125 60.63875 -15 61 C-15.495 59.515 -15.495 59.515 -16 58 C-16.66 57.67 -17.32 57.34 -18 57 C-17.505 56.505 -17.505 56.505 -17 56 C-16.63239269 53.67182036 -16.29758419 51.3381615 -16 49 C-15.01 49 -14.02 49 -13 49 C-13 50.98 -13 52.96 -13 55 C-12.34 55 -11.68 55 -11 55 C-11 52.69 -11 50.38 -11 48 C-12.32 47.67 -13.64 47.34 -15 47 C-14 46 -14 46 -12.15234375 45.90234375 C-10.1015625 45.93489583 -8.05078125 45.96744792 -6 46 C-6.04125 45.21625 -6.0825 44.4325 -6.125 43.625 C-6 41 -6 41 -4 39 C-3.29289322 37.35008418 -2.62056011 35.68437744 -2 34 C-0.515 34.495 -0.515 34.495 1 35 C1.33 35.99 1.66 36.98 2 38 C2.845625 38.495 3.69125 38.99 4.5625 39.5 C5.366875 39.995 6.17125 40.49 7 41 C7 41.99 7 42.98 7 44 C7.66 44.33 8.32 44.66 9 45 C9 43.02 9 41.04 9 39 C7.68 38.34 6.36 37.68 5 37 C5.33 36.34 5.66 35.68 6 35 C9.0625 34.375 9.0625 34.375 12 34 C11.67 32.68 11.34 31.36 11 30 C10.34 30.66 9.68 31.32 9 32 C5.70285207 31.67028521 4.3773161 31.3773161 2 29 C2.66 29 3.32 29 4 29 C4 27.68 4 26.36 4 25 C3.34 24.67 2.68 24.34 2 24 C2.639375 23.896875 3.27875 23.79375 3.9375 23.6875 C4.618125 23.460625 5.29875 23.23375 6 23 C6.33 22.01 6.66 21.02 7 20 C12.25459487 19.12654492 17.30299049 18.84679147 22.625 18.875 C23.73101562 18.86919922 23.73101562 18.86919922 24.859375 18.86328125 C28.78675914 18.87031957 32.11320003 19.22264001 36 20 C31.71 18.35 27.42 16.7 23 15 C23 14.67 23 14.34 23 14 C25.31 14 27.62 14 30 14 C19.07267368 9.2509932 7.7486073 8.77153161 -4 8 C-2.25 2.25 -2.25 2.25 0 0 Z " fill="#F0F1F1" transform="translate(108,91)"/>
<path d="M0 0 C0.88872803 0.00088623 1.77745605 0.00177246 2.69311523 0.00268555 C9.65813015 0.12850929 16.65960109 0.74860711 21.80859375 5.94921875 C23.30413731 7.63878619 23.30413731 7.63878619 26.25 8.375 C27.85546875 9.8984375 27.85546875 9.8984375 29.4375 11.75 C30.23220703 12.65878906 30.23220703 12.65878906 31.04296875 13.5859375 C32.25 15.375 32.25 15.375 32.25 18.375 C32.91 18.375 33.57 18.375 34.25 18.375 C35.24 22.335 35.24 22.335 36.25 26.375 C34.765 25.88 34.765 25.88 33.25 25.375 C31.765 25.87 31.765 25.87 30.25 26.375 C28.20703125 25.81640625 28.20703125 25.81640625 26.0625 24.9375 C24.98935547 24.50630859 24.98935547 24.50630859 23.89453125 24.06640625 C23.35183594 23.83824219 22.80914062 23.61007813 22.25 23.375 C22.25 22.715 22.25 22.055 22.25 21.375 C20.93 21.375 19.61 21.375 18.25 21.375 C18.58 20.055 18.91 18.735 19.25 17.375 C18.59 17.375 17.93 17.375 17.25 17.375 C17.58 16.055 17.91 14.735 18.25 13.375 C17.58613281 13.42140625 16.92226562 13.4678125 16.23828125 13.515625 C10.21524736 13.76182201 7.92812297 13.31447197 3.25 9.375 C0.49164691 9.02176458 -1.95461124 9.18548212 -4.75 9.375 C-5.03875 10.509375 -5.3275 11.64375 -5.625 12.8125 C-5.99625 13.988125 -6.3675 15.16375 -6.75 16.375 C-7.41 16.705 -8.07 17.035 -8.75 17.375 C-7.76 18.035 -6.77 18.695 -5.75 19.375 C-5.811875 18.611875 -5.87375 17.84875 -5.9375 17.0625 C-5.75 14.375 -5.75 14.375 -4.6875 12.5625 C-1.75731249 10.76657863 0.8972953 11.18522426 4.25 11.375 C5.57 14.675 6.89 17.975 8.25 21.375 C1.875 25.625 1.875 25.625 -1.75 26.375 C-1.75 25.715 -1.75 25.055 -1.75 24.375 C-2.678125 24.560625 -3.60625 24.74625 -4.5625 24.9375 C-7.75 25.375 -7.75 25.375 -10.75 24.375 C-10.75 23.715 -10.75 23.055 -10.75 22.375 C-12.07 22.375 -13.39 22.375 -14.75 22.375 C-14.75 21.715 -14.75 21.055 -14.75 20.375 C-16.85494301 20.46208038 -18.95902142 20.57025693 -21.0625 20.6875 C-22.23425781 20.74550781 -23.40601562 20.80351563 -24.61328125 20.86328125 C-27.8483686 21.39104768 -28.83684881 21.79880724 -30.75 24.375 C-31.08 23.715 -31.41 23.055 -31.75 22.375 C-32.41 23.365 -33.07 24.355 -33.75 25.375 C-34.12058824 19.81617647 -34.12058824 19.81617647 -32.4375 17.8125 C-31.880625 17.338125 -31.32375 16.86375 -30.75 16.375 C-30.234375 15.488125 -29.71875 14.60125 -29.1875 13.6875 C-28.713125 12.924375 -28.23875 12.16125 -27.75 11.375 C-27.09 11.375 -26.43 11.375 -25.75 11.375 C-25.75 10.715 -25.75 10.055 -25.75 9.375 C-24.0703125 8.15625 -24.0703125 8.15625 -21.875 6.875 C-19.49637514 5.47681191 -17.71207916 4.33707916 -15.75 2.375 C-10.53617261 0.09192652 -5.59415846 -0.00991594 0 0 Z " fill="#FACB18" transform="translate(101.75,39.625)"/>
<path d="M0 0 C2.71942469 1.03978003 5.2909327 2.15179097 7.875 3.5 C15.03375507 6.93620243 21.59364632 7.38003905 29.4375 7.625 C30.45521484 7.66367188 31.47292969 7.70234375 32.52148438 7.7421875 C35.01414936 7.83580872 37.5068195 7.92153993 40 8 C40 8.66 40 9.32 40 10 C40.99 10.33 41.98 10.66 43 11 C42.0409375 11.433125 42.0409375 11.433125 41.0625 11.875 C38.84793921 12.82823451 38.84793921 12.82823451 38 15 C35.36 15 32.72 15 30 15 C29.67 19.29 29.34 23.58 29 28 C27.68 27.67 26.36 27.34 25 27 C25 28.32 25 29.64 25 31 C24.34 31 23.68 31 23 31 C23 31.66 23 32.32 23 33 C22.34 33 21.68 33 21 33 C21 34.65 21 36.3 21 38 C19.4375 36.75 19.4375 36.75 18 35 C18.3125 32.8125 18.3125 32.8125 19 31 C18.34 30.67 17.68 30.34 17 30 C18.65 29.34 20.3 28.68 22 28 C20.948125 26.39125 20.948125 26.39125 19.875 24.75 C18.76171875 22.81640625 18.76171875 22.81640625 18 21 C18.6875 18.6875 18.6875 18.6875 20 17 C20.33 16.34 20.66 15.68 21 15 C19.02 16.65 17.04 18.3 15 20 C15 18.35 15 16.7 15 15 C14.01 15 13.02 15 12 15 C12 19.29 12 23.58 12 28 C12.99 28 13.98 28 15 28 C15 26.35 15 24.7 15 23 C15.99 23 16.98 23 18 23 C18.495 25.475 18.495 25.475 19 28 C18.0409375 28.433125 18.0409375 28.433125 17.0625 28.875 C14.84793921 29.82823451 14.84793921 29.82823451 14 32 C14.99 32.33 15.98 32.66 17 33 C16.01 34.32 15.02 35.64 14 37 C14 35.68 14 34.36 14 33 C13.01 33 12.02 33 11 33 C11 34.65 11 36.3 11 38 C9.02 38.495 9.02 38.495 7 39 C7.33 37.02 7.66 35.04 8 33 C7.34 33 6.68 33 6 33 C5.67 33.66 5.34 34.32 5 35 C4.01 35.495 4.01 35.495 3 36 C2.67 35.01 2.34 34.02 2 33 C-0.33075929 33.95865509 -0.33075929 33.95865509 -2 37 C-2.33 36.01 -2.66 35.02 -3 34 C-4.485 33.505 -4.485 33.505 -6 33 C-5.67 34.98 -5.34 36.96 -5 39 C-5.99 39.495 -5.99 39.495 -7 40 C-7.66 39.67 -8.32 39.34 -9 39 C-8.505 36.03 -8.505 36.03 -8 33 C-12.14093698 32.79029441 -12.14093698 32.79029441 -16 34 C-16 32.68 -16 31.36 -16 30 C-18.31 29.67 -20.62 29.34 -23 29 C-23 28.67 -23 28.34 -23 28 C-19.37 28 -15.74 28 -12 28 C-11.67 27.01 -11.34 26.02 -11 25 C-10.34 25 -9.68 25 -9 25 C-9 24.34 -9 23.68 -9 23 C-8.01 23 -7.02 23 -6 23 C-6 24.65 -6 26.3 -6 28 C-5.608125 27.505 -5.21625 27.01 -4.8125 26.5 C-2.44908285 24.54406857 -0.98564997 24.75792027 2 25 C2 25.66 2 26.32 2 27 C2.66 27 3.32 27 4 27 C3.01 23.04 2.02 19.08 1 15 C0.01 15 -0.98 15 -2 15 C-2.66 17.31 -3.32 19.62 -4 22 C-4.99 22 -5.98 22 -7 22 C-8.125 15.25 -8.125 15.25 -7 13 C-5.35 13 -3.7 13 -2 13 C-1.67 12.34 -1.34 11.68 -1 11 C1.5625 10.375 1.5625 10.375 4 10 C3.34 9.01 2.68 8.02 2 7 C2 5.68 2 4.36 2 3 C1.01 2.67 0.02 2.34 -1 2 C-0.67 1.34 -0.34 0.68 0 0 Z " fill="#EDEEEF" transform="translate(64,109)"/>
<path d="M0 0 C6.33697579 -0.40448782 12.79276067 0.26584586 17.80078125 4.53515625 C19.21007672 6.01439195 20.60595652 7.50638199 22 9 C22.99 9 23.98 9 25 9 C23.30812349 13.04665201 20.5163294 16.15034764 17.6875 19.4375 C17.21376953 19.99759766 16.74003906 20.55769531 16.25195312 21.13476562 C7.24008159 31.699983 7.24008159 31.699983 1 33 C-1.625 33.0625 -1.625 33.0625 -4 32 C-8.15506858 25.88960504 -10.77277465 19.02432612 -13 12 C-11.9275 12 -10.855 12 -9.75 12 C-6.01358689 11.42313825 -6.01358689 11.42313825 -4.64453125 9.15234375 C-3.65559657 7.12806229 -2.7755243 5.11462836 -2 3 C-1.34 3 -0.68 3 0 3 C0.33 4.98 0.66 6.96 1 9 C0.34 9 -0.32 9 -1 9 C-1 9.66 -1 10.32 -1 11 C-0.34 11 0.32 11 1 11 C1 12.32 1 13.64 1 15 C2.65 15 4.3 15 6 15 C5.566875 14.00097656 5.13375 13.00195312 4.6875 11.97265625 C4.12490524 10.66931173 3.56241039 9.36592408 3 8.0625 C2.71382812 7.40314453 2.42765625 6.74378906 2.1328125 6.06445312 C0 1.11328125 0 1.11328125 0 0 Z " fill="#9A090A" transform="translate(93,69)"/>
<path d="M0 0 C0.66 0.268125 1.32 0.53625 2 0.8125 C2.99 1.204375 3.98 1.59625 5 2 C6.093125 2.53625 7.18625 3.0725 8.3125 3.625 C18.21515743 7.26843056 29.5101435 5.45931164 39.1328125 1.97265625 C50.55737134 -1.90297747 63.1074991 -1.00762625 74 4 C74.99 4.99 74.99 4.99 76 6 C74.02 6 72.04 6 70 6 C70.85464844 6.33773437 71.70929688 6.67546875 72.58984375 7.0234375 C73.69457031 7.46945313 74.79929687 7.91546875 75.9375 8.375 C77.03964844 8.81585938 78.14179688 9.25671875 79.27734375 9.7109375 C82 11 82 11 83 13 C81.85273438 12.67515625 80.70546875 12.3503125 79.5234375 12.015625 C75.1700413 10.9315853 71.09581654 10.69072297 66.625 10.75 C65.50484497 10.76015137 65.50484497 10.76015137 64.36206055 10.77050781 C57.51111481 10.89843775 51.37502705 11.90426631 44.84765625 14.0234375 C33.01322221 17.77744245 21.15239508 19.26992903 9.40234375 14.26953125 C3.52306761 11.1625967 -1.14067033 7.4673837 -5 2 C-4.443125 2.28875 -3.88625 2.5775 -3.3125 2.875 C-0.91505355 4.0413253 1.51596939 5.0339881 4 6 C4 6.66 4 7.32 4 8 C19.06244804 11.84573141 31.14274822 11.77772419 45.96875 7.19140625 C49.28662149 6.16745862 52.55359781 5.47442562 56 5 C49.38321621 5.24237303 43.44629229 6.03882837 37.125 8.0625 C27.60722071 10.93360911 17.94544441 11.90413307 8.90625 7.1484375 C8.2771875 6.76945312 7.648125 6.39046875 7 6 C6.3915625 5.64164062 5.783125 5.28328125 5.15625 4.9140625 C1.2233677 2.4467354 1.2233677 2.4467354 0 0 Z " fill="#3BA2D9" transform="translate(64,100)"/>
<path d="M0 0 C2.475 0.495 2.475 0.495 5 1 C4.773125 2.258125 4.54625 3.51625 4.3125 4.8125 C3.79806803 8.14138709 3.79806803 8.14138709 5.4375 11 C6.2109375 11.495 6.2109375 11.495 7 12 C5.125 17.875 5.125 17.875 4 19 C2.33382885 19.04063832 0.66611905 19.042721 -1 19 C-0.62746094 19.61488281 -0.25492188 20.22976562 0.12890625 20.86328125 C0.60199219 21.67152344 1.07507813 22.47976562 1.5625 23.3125 C2.03816406 24.11300781 2.51382813 24.91351563 3.00390625 25.73828125 C4 28 4 28 3 31 C3.09268505 33.06618749 3.09268505 33.06618749 3.4375 35.1875 C3.623125 36.445625 3.80875 37.70375 4 39 C1.27157939 40.36421031 -0.60953318 39.87807211 -3.625 39.5625 C-4.62789062 39.46066406 -5.63078125 39.35882813 -6.6640625 39.25390625 C-7.43492188 39.17011719 -8.20578125 39.08632812 -9 39 C-9.495 37.515 -9.495 37.515 -10 36 C-11.65 36 -13.3 36 -15 36 C-14.01 35.505 -14.01 35.505 -13 35 C-13.49113281 34.01902344 -13.98226562 33.03804687 -14.48828125 32.02734375 C-16.29578943 27.80982466 -16.34911529 24.09187203 -16.1875 19.5625 C-16.17396484 18.83095703 -16.16042969 18.09941406 -16.14648438 17.34570312 C-16.11153874 15.56347578 -16.05774805 13.78163427 -16 12 C-15.67 12.66 -15.34 13.32 -15 14 C-14.34 14 -13.68 14 -13 14 C-12.9071875 12.3603125 -12.9071875 12.3603125 -12.8125 10.6875 C-12 7 -12 7 -9.875 5.125 C-6.57736083 3.83461945 -3.51589559 3.34469565 0 3 C0 2.01 0 1.02 0 0 Z " fill="#F49C34" transform="translate(81,62)"/>
<path d="M0 0 C0.46019531 0.49628906 0.92039063 0.99257813 1.39453125 1.50390625 C3.59143252 3.55114028 5.23090365 3.49551322 8.1875 3.6875 C9.08855469 3.75324219 9.98960938 3.81898437 10.91796875 3.88671875 C11.60503906 3.92410156 12.29210937 3.96148437 13 4 C12.67 5.32 12.34 6.64 12 8 C12.66 8 13.32 8 14 8 C13.67 9.32 13.34 10.64 13 12 C14.32 12 15.64 12 17 12 C17.495 12.99 17.495 12.99 18 14 C20.01669827 15.13350534 20.01669827 15.13350534 22 16 C21.67 16.66 21.34 17.32 21 18 C17.9375 18.625 17.9375 18.625 15 19 C15 17.35 15 15.7 15 14 C13.35 14.33 11.7 14.66 10 15 C9.505 16.485 9.505 16.485 9 18 C6.03 18.495 6.03 18.495 3 19 C3 19.66 3 20.32 3 21 C-2.28 21 -7.56 21 -13 21 C-11.7625 23.6296875 -11.7625 23.6296875 -10.5 26.3125 C-8 31.625 -8 31.625 -8 35 C-9.65 35 -11.3 35 -13 35 C-13 33.68 -13 32.36 -13 31 C-13.66 31 -14.32 31 -15 31 C-15 30.34 -15 29.68 -15 29 C-14.34 29 -13.68 29 -13 29 C-13.33 27.02 -13.66 25.04 -14 23 C-14.66 23 -15.32 23 -16 23 C-16.28875 23.928125 -16.5775 24.85625 -16.875 25.8125 C-18 29 -18 29 -20 32 C-20.66 31.67 -21.32 31.34 -22 31 C-21.67 30.05125 -21.34 29.1025 -21 28.125 C-19.89840809 25.22937548 -19.89840809 25.22937548 -20 23 C-20.99 22.67 -21.98 22.34 -23 22 C-22.67 19.36 -22.34 16.72 -22 14 C-23.32 13.67 -24.64 13.34 -26 13 C-25.67 13.99 -25.34 14.98 -25 16 C-26 17 -26 17 -29.4375 17.4375 C-33.04058997 17.64847551 -33.04058997 17.64847551 -35 20 C-35.99 20 -36.98 20 -38 20 C-38.33 22.31 -38.66 24.62 -39 27 C-39.66 27 -40.32 27 -41 27 C-41.33 29.64 -41.66 32.28 -42 35 C-42.33 35 -42.66 35 -43 35 C-43.57798165 18.36697248 -43.57798165 18.36697248 -40 13 C-37.76419496 11.98372498 -36.42194077 12 -34 12 C-32.948125 11.649375 -31.89625 11.29875 -30.8125 10.9375 C-26.75632476 9.94007986 -24.05553121 10.17234057 -20 11 C-20 11.66 -20 12.32 -20 13 C-18.68 13 -17.36 13 -16 13 C-16 13.66 -16 14.32 -16 15 C-13.03 15 -10.06 15 -7 15 C-7 15.66 -7 16.32 -7 17 C-2.67628107 14.97366931 -2.67628107 14.97366931 1 12 C1 10.26172771 0.42602356 8.61496776 0 6.9375 C-0.185625 6.20402344 -0.37125 5.47054687 -0.5625 4.71484375 C-0.706875 4.14894531 -0.85125 3.58304688 -1 3 C-4.41656024 2.83322718 -4.41656024 2.83322718 -8 3 C-10.35953094 5.35953094 -10.49141413 6.77895617 -11 10 C-12.98 9.34 -14.96 8.68 -17 8 C-17 7.67 -17 7.34 -17 7 C-15.35 7 -13.7 7 -12 7 C-11.855625 6.21625 -11.71125 5.4325 -11.5625 4.625 C-11 2 -11 2 -10 0 C-6.22941703 -1.25686099 -3.86146303 -0.82745636 0 0 Z " fill="#F8AE2F" transform="translate(107,49)"/>
<path d="M0 0 C0.33 0.66 0.66 1.32 1 2 C3.475 2.495 3.475 2.495 6 3 C6 7.29 6 11.58 6 16 C7.98 16 9.96 16 12 16 C10.02 16.99 10.02 16.99 8 18 C8 18.66 8 19.32 8 20 C8.99 20.33 9.98 20.66 11 21 C11.33 22.65 11.66 24.3 12 26 C10.02 25.67 8.04 25.34 6 25 C6 23.68 6 22.36 6 21 C5.01 21.33 4.02 21.66 3 22 C1.77479736 25.00847418 1.77479736 25.00847418 1 28 C0.67 28 0.34 28 0 28 C-0.103125 27.236875 -0.20625 26.47375 -0.3125 25.6875 C-0.84832051 22.6418771 -0.84832051 22.6418771 -4 20 C-3.67 23.3 -3.34 26.6 -3 30 C-5.31 30.33 -7.62 30.66 -10 31 C-10.66 30.01 -11.32 29.02 -12 28 C-12.99 27.34 -13.98 26.68 -15 26 C-14.01 24.515 -14.01 24.515 -13 23 C-13.66 22.67 -14.32 22.34 -15 22 C-14.01 21.67 -13.02 21.34 -12 21 C-12 22.65 -12 24.3 -12 26 C-11.34 26 -10.68 26 -10 26 C-10.34227572 23.02934491 -10.34227572 23.02934491 -11 20 C-11.66 19.67 -12.32 19.34 -13 19 C-12.34 18.34 -11.68 17.68 -11 17 C-10.75622117 13.64255888 -10.75622117 13.64255888 -10.875 9.875 C-10.90207031 7.95300781 -10.90207031 7.95300781 -10.9296875 5.9921875 C-10.95289063 5.00476563 -10.97609375 4.01734375 -11 3 C-8.03 3 -5.06 3 -2 3 C-2 3.99 -2 4.98 -2 6 C-1.34 5.67 -0.68 5.34 0 5 C0 3.35 0 1.7 0 0 Z " fill="#EAEBEB" transform="translate(148,121)"/>
<path d="M0 0 C0 0.66 0 1.32 0 2 C0.99 2.33 1.98 2.66 3 3 C2.0409375 3.433125 2.0409375 3.433125 1.0625 3.875 C-1.15206079 4.82823451 -1.15206079 4.82823451 -2 7 C-4.64 7 -7.28 7 -10 7 C-10.33 11.29 -10.66 15.58 -11 20 C-12.32 19.67 -13.64 19.34 -15 19 C-15 20.32 -15 21.64 -15 23 C-15.66 23 -16.32 23 -17 23 C-17 23.66 -17 24.32 -17 25 C-17.66 25 -18.32 25 -19 25 C-19 26.65 -19 28.3 -19 30 C-20.5625 28.75 -20.5625 28.75 -22 27 C-21.6875 24.8125 -21.6875 24.8125 -21 23 C-21.66 22.67 -22.32 22.34 -23 22 C-21.35 21.34 -19.7 20.68 -18 20 C-18.70125 18.9275 -19.4025 17.855 -20.125 16.75 C-21.23828125 14.81640625 -21.23828125 14.81640625 -22 13 C-21.3125 10.6875 -21.3125 10.6875 -20 9 C-19.67 8.34 -19.34 7.68 -19 7 C-20.98 8.65 -22.96 10.3 -25 12 C-25 10.35 -25 8.7 -25 7 C-25.99 7 -26.98 7 -28 7 C-28 10.96 -28 14.92 -28 19 C-28.33 19 -28.66 19 -29 19 C-30.125 11.375 -30.125 11.375 -29 8 C-29.99 7.67 -30.98 7.34 -32 7 C-28.2052505 1.71445605 -28.2052505 1.71445605 -24 1 C-22.63067451 0.86020846 -21.25734416 0.75609687 -19.8828125 0.68359375 C-19.11066406 0.64169922 -18.33851562 0.59980469 -17.54296875 0.55664062 C-16.74503906 0.51732422 -15.94710937 0.47800781 -15.125 0.4375 C-13.93970703 0.37272461 -13.93970703 0.37272461 -12.73046875 0.30664062 C-8.48183913 0.08395871 -4.25609981 -0.04789823 0 0 Z " fill="#F2F2F2" transform="translate(104,117)"/>
<path d="M0 0 C1.79539556 2.0897227 3.47061442 4.17842082 5.125 6.375 C5.82689453 7.27992187 5.82689453 7.27992187 6.54296875 8.203125 C10 12.73858874 10 12.73858874 10 15 C10.66 15 11.32 15 12 15 C13.625 16.5 13.625 16.5 15 18 C15.99 17.01 16.98 16.02 18 15 C17.67 16.98 17.34 18.96 17 21 C12.78959534 21.88182517 9.58354735 21.97134699 5.375 21.125 C-0.73505108 19.99180757 -6.80405189 19.4174575 -13 19 C-12.67 18.2575 -12.34 17.515 -12 16.75 C-10.77217129 13.86116688 -10.77217129 13.86116688 -11 10 C-9.1015625 7.421875 -9.1015625 7.421875 -6.625 4.75 C-5.40683594 3.41195312 -5.40683594 3.41195312 -4.1640625 2.046875 C-2 0 -2 0 0 0 Z " fill="#EADCD3" transform="translate(121,78)"/>
<path d="M0 0 C1.70349609 0.13535156 1.70349609 0.13535156 3.44140625 0.2734375 C7.84564514 0.79023215 9.79418618 1.68689938 12.625 5 C13.15480469 5.60585938 13.68460938 6.21171875 14.23046875 6.8359375 C15.4375 8.625 15.4375 8.625 15.4375 11.625 C16.0975 11.625 16.7575 11.625 17.4375 11.625 C18.0975 14.265 18.7575 16.905 19.4375 19.625 C18.4475 19.295 17.4575 18.965 16.4375 18.625 C15.4475 18.955 14.4575 19.285 13.4375 19.625 C11.39453125 19.06640625 11.39453125 19.06640625 9.25 18.1875 C8.53457031 17.90003906 7.81914063 17.61257812 7.08203125 17.31640625 C6.53933594 17.08824219 5.99664062 16.86007813 5.4375 16.625 C5.4375 15.965 5.4375 15.305 5.4375 14.625 C4.1175 14.625 2.7975 14.625 1.4375 14.625 C1.7675 13.305 2.0975 11.985 2.4375 10.625 C1.7775 10.625 1.1175 10.625 0.4375 10.625 C0.7675 9.305 1.0975 7.985 1.4375 6.625 C0.75042969 6.65980469 0.06335938 6.69460937 -0.64453125 6.73046875 C-1.54558594 6.75753906 -2.44664063 6.78460938 -3.375 6.8125 C-4.26832031 6.84730469 -5.16164063 6.88210937 -6.08203125 6.91796875 C-8.97897515 6.57581002 -9.78805028 5.87106427 -11.5625 3.625 C-11.2325 2.635 -10.9025 1.645 -10.5625 0.625 C-7.12806219 -0.85270137 -3.6495969 -0.30724707 0 0 Z " fill="#F9CB15" transform="translate(118.5625,46.375)"/>
<path d="M0 0 C0 0.66 0 1.32 0 2 C-0.66 2.66 -1.32 3.32 -2 4 C-2.16687448 6.58354218 -2.16687448 6.58354218 -2 9 C-1.34 8.67 -0.68 8.34 0 8 C0 8.99 0 9.98 0 11 C0.66 10.34 1.32 9.68 2 9 C2.99 9 3.98 9 5 9 C5.33 10.32 5.66 11.64 6 13 C4.02 13.66 2.04 14.32 0 15 C0.495 15.37125 0.99 15.7425 1.5 16.125 C3.59755514 18.74694393 3.21743835 20.73842472 3 24 C0.36 24 -2.28 24 -5 24 C-5 23.67 -5 23.34 -5 23 C-3.02 23 -1.04 23 1 23 C-0.13532585 19.59402245 -0.48116822 19.46547428 -3.5 17.9375 C-6.89821183 16.20357634 -6.89821183 16.20357634 -8 14 C-8.268125 14.804375 -8.53625 15.60875 -8.8125 16.4375 C-9.204375 17.283125 -9.59625 18.12875 -10 19 C-13.28976808 20.09658936 -14.71303767 19.79953138 -18 19 C-18 20.32 -18 21.64 -18 23 C-16.35 23 -14.7 23 -13 23 C-13 23.33 -13 23.66 -13 24 C-15.31 24 -17.62 24 -20 24 C-20 19.71 -20 15.42 -20 11 C-17.36 11 -14.72 11 -12 11 C-11.67 10.01 -11.34 9.02 -11 8 C-10.01 8 -9.02 8 -8 8 C-8.66 7.67 -9.32 7.34 -10 7 C-10 6.34 -10 5.68 -10 5 C-11.98 5 -13.96 5 -16 5 C-13.02025837 3.01350558 -10.86336935 2.27822521 -7.4375 1.375 C-6.46683594 1.11460938 -5.49617188 0.85421875 -4.49609375 0.5859375 C-2 0 -2 0 0 0 Z " fill="#E9EDEF" transform="translate(114,112)"/>
<path d="M0 0 C0.556875 0.28875 1.11375 0.5775 1.6875 0.875 C4.08494645 2.0413253 6.51596939 3.0339881 9 4 C9 4.66 9 5.32 9 6 C22.75373948 9.51159306 34.28430284 10.46654573 47.94140625 5.77734375 C52.89607013 4.51811244 56.42157365 6.03781728 61 8 C61 8.33 61 8.66 61 9 C29.67868018 18.77058871 29.67868018 18.77058871 14.40234375 12.26953125 C8.52306761 9.1625967 3.85932967 5.4673837 0 0 Z " fill="#177BC5" transform="translate(59,102)"/>
<path d="M0 0 C3.54402598 5.31603897 4.2824824 9.48291909 4.125 15.8125 C4.11597656 16.50537109 4.10695312 17.19824219 4.09765625 17.91210938 C4.07426157 19.60822395 4.03839641 21.30415871 4 23 C3.67 23 3.34 23 3 23 C3 18.38 3 13.76 3 9 C1.68 8.34 0.36 7.68 -1 7 C-1.556875 7.61875 -2.11375 8.2375 -2.6875 8.875 C-5.12808037 11.11769547 -6.79242036 12.19810509 -10 13 C-12.3125 12.125 -12.3125 12.125 -14 11 C-14.33 12.65 -14.66 14.3 -15 16 C-18.3125 16.1875 -18.3125 16.1875 -22 16 C-23.02149778 15.02197021 -24.02019594 14.01979606 -25 13 C-27.03077684 12.01371583 -27.03077684 12.01371583 -29.1875 11.3125 C-29.90292969 11.06113281 -30.61835937 10.80976562 -31.35546875 10.55078125 C-31.89816406 10.36902344 -32.44085938 10.18726562 -33 10 C-33 9.67 -33 9.34 -33 9 C-31.02 9 -29.04 9 -27 9 C-27 8.34 -27 7.68 -27 7 C-25.02 6.67 -23.04 6.34 -21 6 C-20.67 4.68 -20.34 3.36 -20 2 C-18.35 2 -16.7 2 -15 2 C-15 3.65 -15 5.3 -15 7 C-13.02 6.34 -11.04 5.68 -9 5 C-9 4.34 -9 3.68 -9 3 C-8.236875 3.185625 -7.47375 3.37125 -6.6875 3.5625 C-3.91032625 4.22819173 -3.91032625 4.22819173 -1 3 C-0.505 3.495 -0.505 3.495 0 4 C0 2.68 0 1.36 0 0 Z " fill="#F5A12F" transform="translate(137,61)"/>
<path d="M0 0 C0.46019531 0.49628906 0.92039062 0.99257813 1.39453125 1.50390625 C3.59143252 3.55114028 5.23090365 3.49551322 8.1875 3.6875 C9.08855469 3.75324219 9.98960938 3.81898437 10.91796875 3.88671875 C11.60503906 3.92410156 12.29210937 3.96148437 13 4 C12.67 5.32 12.34 6.64 12 8 C12.66 8 13.32 8 14 8 C13.67 9.32 13.34 10.64 13 12 C14.32 12 15.64 12 17 12 C17.495 12.99 17.495 12.99 18 14 C20.01669827 15.13350534 20.01669827 15.13350534 22 16 C21.67 16.66 21.34 17.32 21 18 C17.9375 18.625 17.9375 18.625 15 19 C15 17.35 15 15.7 15 14 C13.35 14.33 11.7 14.66 10 15 C9.67 15.99 9.34 16.98 9 18 C7.02 18.33 5.04 18.66 3 19 C3 18.34 3 17.68 3 17 C1.68 17 0.36 17 -1 17 C-0.125 12.125 -0.125 12.125 1 11 C0.67256303 9.07860387 0.67256303 9.07860387 0.0625 6.9375 C-0.13214844 6.20402344 -0.32679687 5.47054687 -0.52734375 4.71484375 C-0.68332031 4.14894531 -0.83929688 3.58304688 -1 3 C-4.41656024 2.83322718 -4.41656024 2.83322718 -8 3 C-10.35953094 5.35953094 -10.49141413 6.77895617 -11 10 C-12.98 9.34 -14.96 8.68 -17 8 C-17 7.67 -17 7.34 -17 7 C-15.35 7 -13.7 7 -12 7 C-11.855625 6.21625 -11.71125 5.4325 -11.5625 4.625 C-11 2 -11 2 -10 0 C-6.22941703 -1.25686099 -3.86146303 -0.82745636 0 0 Z " fill="#F4C22F" transform="translate(107,49)"/>
<path d="M0 0 C3.14990537 0.58602891 5.57270622 0.15193358 8.6875 -0.5 C8.6875 0.16 8.6875 0.82 8.6875 1.5 C10.0075 1.83 11.3275 2.16 12.6875 2.5 C12.3575 3.49 12.0275 4.48 11.6875 5.5 C12.3475 5.83 13.0075 6.16 13.6875 6.5 C12.78020329 9.55181621 12.04602361 11.20474527 9.5625 13.25 C5.86915429 14.85580248 2.69596225 15.16029981 -1.3125 15.5 C-4.88127447 10.84507678 -4.99425995 6.15150436 -5.3125 0.5 C-2.3125 -0.5 -2.3125 -0.5 0 0 Z " fill="#7B0506" transform="translate(91.3125,86.5)"/>
<path d="M0 0 C0.66 0 1.32 0 2 0 C2.86646667 1.43011973 3.71781829 2.86940619 4.5625 4.3125 C5.03816406 5.11300781 5.51382813 5.91351563 6.00390625 6.73828125 C7 9 7 9 6 12 C6.09268505 14.06618749 6.09268505 14.06618749 6.4375 16.1875 C6.623125 17.445625 6.80875 18.70375 7 20 C4.27157939 21.36421031 2.39046682 20.87807211 -0.625 20.5625 C-1.62789062 20.46066406 -2.63078125 20.35882813 -3.6640625 20.25390625 C-4.82035156 20.12822266 -4.82035156 20.12822266 -6 20 C-6.33 19.01 -6.66 18.02 -7 17 C-8.65 17 -10.3 17 -12 17 C-11.34 16.34 -10.68 15.68 -10 15 C-9.01 15 -8.02 15 -7 15 C-6.71125 14.278125 -6.4225 13.55625 -6.125 12.8125 C-5.08333333 10.20833333 -4.04166667 7.60416667 -3 5 C-2.34 5 -1.68 5 -1 5 C-0.67 3.35 -0.34 1.7 0 0 Z " fill="#EBDED4" transform="translate(78,81)"/>
<path d="M0 0 C0.88800293 0.00088623 1.77600586 0.00177246 2.69091797 0.00268555 C9.00821413 0.11688149 14.91147997 0.6628663 20.25 4.375 C20.91 5.365 21.57 6.355 22.25 7.375 C19.12303965 8.22780737 17.11321431 8.35220238 13.875 7.8125 C10.21472846 7.1056663 10.21472846 7.1056663 6.75 8.5625 C5.0175 8.9646875 5.0175 8.9646875 3.25 9.375 C1.67461249 8.35756223 0.10179304 7.33515847 -1.44140625 6.26953125 C-6.68115768 4.23923839 -13.25594857 5.72448168 -18.75 6.375 C-17.15334781 3.71391302 -16.00085508 2.4943462 -13.171875 1.1484375 C-8.73798293 0.14625642 -4.53419296 -0.00803785 0 0 Z " fill="#F9E437" transform="translate(101.75,39.625)"/>
<path d="M0 0 C3.27286682 2.7819368 4.96427697 6.27954067 7 10 C13.74853901 9.40853987 13.74853901 9.40853987 20 7 C21.34410262 4.98264795 21.34410262 4.98264795 22 3 C22 6 22 6 21 8 C24.3 8 27.6 8 31 8 C28.16993233 10.83006767 24.84616097 11.18729962 21.0625 12.0625 C15.48673629 13.36825781 15.48673629 13.36825781 10 15 C7.38302629 15.12271523 4.80432239 15.18512754 2.1875 15.1875 C1.48818359 15.19974609 0.78886719 15.21199219 0.06835938 15.22460938 C-4.327049 15.23694448 -7.98854675 14.84441629 -12 13 C-13.375 9.875 -13.375 9.875 -14 7 C-13.34 7 -12.68 7 -12 7 C-11.67 7.66 -11.34 8.32 -11 9 C-8.41394668 9.4683265 -8.41394668 9.4683265 -5.4375 9.625 C-4.42558594 9.69976562 -3.41367188 9.77453125 -2.37109375 9.8515625 C-1.19740234 9.92503906 -1.19740234 9.92503906 0 10 C0 9.34 0 8.68 0 8 C0.66 8 1.32 8 2 8 C1.34 5.36 0.68 2.72 0 0 Z " fill="#E3E6E8" transform="translate(83,91)"/>
<path d="M0 0 C1.32 3.3 2.64 6.6 4 10 C-2.375 14.25 -2.375 14.25 -6 15 C-6 14.34 -6 13.68 -6 13 C-6.928125 13.185625 -7.85625 13.37125 -8.8125 13.5625 C-12 14 -12 14 -15 13 C-15 12.34 -15 11.68 -15 11 C-16.32 11 -17.64 11 -19 11 C-18.67 9.68 -18.34 8.36 -18 7 C-12.25 6.875 -12.25 6.875 -10 8 C-10.061875 7.236875 -10.12375 6.47375 -10.1875 5.6875 C-10 3 -10 3 -8.9375 1.1875 C-6.00731249 -0.60842137 -3.3527047 -0.18977574 0 0 Z " fill="#F9C017" transform="translate(106,51)"/>
<path d="M0 0 C2.62697064 -0.22137393 5.00893964 -0.28162025 7.625 -0.1875 C8.33140625 -0.17396484 9.0378125 -0.16042969 9.765625 -0.14648438 C11.51074128 -0.1111104 13.25546608 -0.05730221 15 0 C15.33 0.66 15.66 1.32 16 2 C14.9171875 2.37125 14.9171875 2.37125 13.8125 2.75 C10.89861722 3.90102871 10.89861722 3.90102871 8.4375 6.0625 C6.13856875 7.88985561 4.84877273 8.5779596 2 9 C2 9.66 2 10.32 2 11 C1.01 11.66 0.02 12.32 -1 13 C-3.76280671 17.08414904 -5.83779893 21.5768171 -8 26 C-8.66 26 -9.32 26 -10 26 C-10.5458864 21.71089256 -10.76371457 19.2532752 -8.4765625 15.5 C-6.42817462 12.89144074 -4.34714754 10.34714754 -2 8 C-2.020625 7.21625 -2.04125 6.4325 -2.0625 5.625 C-2 3 -2 3 0 0 Z " fill="#EEEDE9" transform="translate(74,40)"/>
<path d="M0 0 C0.33 0.66 0.66 1.32 1 2 C2.65 2 4.3 2 6 2 C6.33 3.98 6.66 5.96 7 8 C7.99 8 8.98 8 10 8 C10 7.34 10 6.68 10 6 C10.99 6.33 11.98 6.66 13 7 C12.67 8.65 12.34 10.3 12 12 C11.34 12 10.68 12 10 12 C9.71125 12.9075 9.4225 13.815 9.125 14.75 C8.23468224 17.32202908 7.28505587 19.61346766 6 22 C5.01 22 4.02 22 3 22 C-0.01667085 16.98013301 -0.38714622 13.28676196 -0.1875 7.625 C-0.17396484 6.88894531 -0.16042969 6.15289062 -0.14648438 5.39453125 C-0.11144869 3.59603257 -0.05765288 1.79791578 0 0 Z " fill="#F2903D" transform="translate(65,74)"/>
<path d="M0 0 C0.99 0 1.98 0 3 0 C3.33 0.99 3.66 1.98 4 3 C4.680625 2.2575 4.680625 2.2575 5.375 1.5 C7 0 7 0 9 0 C8.608125 0.886875 8.21625 1.77375 7.8125 2.6875 C6.62370972 5.98924397 6.62370972 5.98924397 8.375 8.75 C8.91125 9.4925 9.4475 10.235 10 11 C10 11.66 10 12.32 10 13 C9.34 13 8.68 13 8 13 C6.62282836 15.75434327 7.15457608 17.49686273 7.5 20.5625 C7.5928125 21.38878906 7.685625 22.21507812 7.78125 23.06640625 C7.8534375 23.70449219 7.925625 24.34257812 8 25 C7.01 25.33 6.02 25.66 5 26 C4.01 26.556875 4.01 26.556875 3 27.125 C1 28 1 28 -2 27 C-1.505 22.545 -1.505 22.545 -1 18 C0.32 18.33 1.64 18.66 3 19 C3.33 18.67 3.66 18.34 4 18 C3.34 17.67 2.68 17.34 2 17 C2.33 16.01 2.66 15.02 3 14 C5.0625 13.3125 5.0625 13.3125 7 13 C6.34 11.35 5.68 9.7 5 8 C4.67 8 4.34 8 4 8 C3.67 9.65 3.34 11.3 3 13 C2.01 13 1.02 13 0 13 C0 8.71 0 4.42 0 0 Z " fill="#D8DAD9" transform="translate(76,124)"/>
<path d="M0 0 C0 0.99 0 1.98 0 3 C0.99 3.33 1.98 3.66 3 4 C1.68 4.33 0.36 4.66 -1 5 C-1.33 4.34 -1.66 3.68 -2 3 C-4.02463255 2.34786708 -4.02463255 2.34786708 -6 2 C-5.67 2.99 -5.34 3.98 -5 5 C-6 6 -6 6 -9.4375 6.4375 C-13.04058997 6.64847551 -13.04058997 6.64847551 -15 9 C-15.99 9 -16.98 9 -18 9 C-18.33 11.31 -18.66 13.62 -19 16 C-19.66 16 -20.32 16 -21 16 C-21.33 18.64 -21.66 21.28 -22 24 C-22.33 24 -22.66 24 -23 24 C-23.57798165 7.36697248 -23.57798165 7.36697248 -20 2 C-17.76419496 0.98372498 -16.42194077 1 -14 1 C-12.4221875 0.4740625 -12.4221875 0.4740625 -10.8125 -0.0625 C-6.75632476 -1.05992014 -4.05553121 -0.82765943 0 0 Z " fill="#F5B737" transform="translate(87,60)"/>
<path d="M0 0 C4.33064072 1.54090239 6.50094818 4.87517446 9.125 8.4375 C9.78822266 9.31631836 9.78822266 9.31631836 10.46484375 10.21289062 C12.38334853 12.76606692 14.22821081 15.34231622 16 18 C13.15645261 17.48299138 10.45837747 16.83649131 7.6875 16 C3.74798311 14.93165644 0.05263815 14.42659349 -4 14 C-4 13.34 -4 12.68 -4 12 C-3.34 12 -2.68 12 -2 12 C-2.33 11.34 -2.66 10.68 -3 10 C-3.46537396 3.60110803 -3.46537396 3.60110803 -1.5 1.0625 C-1.005 0.711875 -0.51 0.36125 0 0 Z " fill="#6A6A6B" transform="translate(119,82)"/>
<path d="M0 0 C0 0.66 0 1.32 0 2 C0.99 2.33 1.98 2.66 3 3 C2.0409375 3.433125 2.0409375 3.433125 1.0625 3.875 C-1.15206079 4.82823451 -1.15206079 4.82823451 -2 7 C-4.64 7 -7.28 7 -10 7 C-10.66 8.32 -11.32 9.64 -12 11 C-14.1519437 7.77208445 -14.20086443 6.71599191 -14 3 C-15.77131561 3.30975468 -17.54203778 3.62290425 -19.3125 3.9375 C-20.79169922 4.19853516 -20.79169922 4.19853516 -22.30078125 4.46484375 C-25.08189213 4.95746847 -25.08189213 4.95746847 -28 6 C-28 10.29 -28 14.58 -28 19 C-28.33 19 -28.66 19 -29 19 C-30.125 11.375 -30.125 11.375 -29 8 C-29.99 7.67 -30.98 7.34 -32 7 C-28.2052505 1.71445605 -28.2052505 1.71445605 -24 1 C-22.63067451 0.86020846 -21.25734416 0.75609687 -19.8828125 0.68359375 C-19.11066406 0.64169922 -18.33851562 0.59980469 -17.54296875 0.55664062 C-16.74503906 0.51732422 -15.94710937 0.47800781 -15.125 0.4375 C-13.93970703 0.37272461 -13.93970703 0.37272461 -12.73046875 0.30664062 C-8.48183913 0.08395871 -4.25609981 -0.04789823 0 0 Z " fill="#F9F9F9" transform="translate(104,117)"/>
<path d="M0 0 C0.99 0.4021875 0.99 0.4021875 2 0.8125 C2.99 1.204375 3.98 1.59625 5 2 C6.093125 2.53625 7.18625 3.0725 8.3125 3.625 C17.1382395 6.90743822 28.43008505 5.87280831 37.08203125 2.65625 C39 2 39 2 42 2 C42 3.32 42 4.64 42 6 C32.72972487 9.8031898 23.22274816 12.06665495 13.32421875 9.234375 C11.09688138 8.29103211 9.0705188 7.24740272 7 6 C6.3915625 5.64164062 5.783125 5.28328125 5.15625 4.9140625 C1.2233677 2.4467354 1.2233677 2.4467354 0 0 Z " fill="#0A52A9" transform="translate(64,100)"/>
<path d="M0 0 C0.33 2.64 0.66 5.28 1 8 C2.98 8 4.96 8 7 8 C8.06309567 13.17317421 8.11693938 18.12369336 8.0625 23.375 C8.05798828 24.20644531 8.05347656 25.03789063 8.04882812 25.89453125 C8.03713164 27.92971897 8.01919935 29.96486923 8 32 C7.34 32 6.68 32 6 32 C5.87882813 31.26394531 5.75765625 30.52789062 5.6328125 29.76953125 C5.38144531 28.30580078 5.38144531 28.30580078 5.125 26.8125 C4.88136719 25.36810547 4.88136719 25.36810547 4.6328125 23.89453125 C4.08081308 20.98926241 4.08081308 20.98926241 2.9296875 18.32421875 C2 16 2 16 2 13 C1.34 13 0.68 13 0 13 C0 12.01 0 11.02 0 10 C-0.66 10 -1.32 10 -2 10 C-6 3.25 -6 3.25 -6 1 C-4 0 -4 0 0 0 Z " fill="#EFEBEB" transform="translate(136,48)"/>
<path d="M0 0 C5.28 0 10.56 0 16 0 C16 2.31 16 4.62 16 7 C15 8 15 8 11.62109375 8.09765625 C10.22652923 8.09098369 8.83198257 8.07902532 7.4375 8.0625 C6.37112305 8.05573242 6.37112305 8.05573242 5.28320312 8.04882812 C3.52209987 8.03700864 1.76103964 8.01907263 0 8 C0 5.36 0 2.72 0 0 Z " fill="#E9ECEC" transform="translate(96,32)"/>
<path d="M0 0 C0.73605469 0.00451172 1.47210938 0.00902344 2.23046875 0.01367188 C4.02868158 0.02534858 5.82685197 0.04327989 7.625 0.0625 C7.625 0.3925 7.625 0.7225 7.625 1.0625 C6.67882812 1.14886719 5.73265625 1.23523438 4.7578125 1.32421875 C-2.93707177 2.11439765 -10.09659961 3.42453179 -17.5 5.6875 C-28.56680867 8.98941583 -38.54004403 9.54593005 -49.375 5.0625 C-46.36468256 4.12826355 -45.50849732 4.01800089 -42.375 5.0625 C-33.5329664 5.7983309 -25.94700353 4.77814134 -17.53125 2.03515625 C-11.62490913 0.21500913 -6.11873875 -0.07192008 0 0 Z " fill="#E1EDF3" transform="translate(122.375,103.9375)"/>
<path d="M0 0 C0.90492187 0.46019531 0.90492187 0.46019531 1.828125 0.9296875 C4.17475573 2.08612063 6.5626303 3.052134 9 4 C9 4.66 9 5.32 9 6 C18.42995201 8.27866621 27.30850793 9.57286737 37 10 C37 10.33 37 10.66 37 11 C33.37 11.66 29.74 12.32 26 13 C26 13.33 26 13.66 26 14 C17.13896775 13.96229348 10.37976949 11.36232021 4.0390625 5.046875 C2.62863362 3.41792897 1.30377891 1.71549857 0 0 Z " fill="#1654A6" transform="translate(59,102)"/>
<path d="M0 0 C2.31 0 4.62 0 7 0 C9.08901197 3.39464446 9.34361606 6.04841529 9 10 C7 12 7 12 3.375 12.125 C2.26125 12.08375 1.1475 12.0425 0 12 C0 8.04 0 4.08 0 0 Z " fill="#747474" transform="translate(137,124)"/>
<path d="M0 0 C0.66 0 1.32 0 2 0 C2.33951619 1.56116819 2.67132544 3.12401338 3 4.6875 C3.185625 5.55761719 3.37125 6.42773438 3.5625 7.32421875 C3.98972047 9.93712964 4.07616201 12.35813038 4 15 C-2.625 16.25 -2.625 16.25 -6 14 C-4.50829734 9.0276578 -2.39542583 4.58154261 0 0 Z " fill="#6E6F71" transform="translate(78,85)"/>
<path d="M0 0 C-0.99 0.33 -1.98 0.66 -3 1 C-3 4.96 -3 8.92 -3 13 C-6.69213922 13.9230348 -9.48149954 14.10346196 -13.25 14.0625 C-14.32765625 14.05347656 -15.4053125 14.04445312 -16.515625 14.03515625 C-17.33546875 14.02355469 -18.1553125 14.01195312 -19 14 C-19 13.67 -19 13.34 -19 13 C-16.36 13 -13.72 13 -11 13 C-11.33 10.36 -11.66 7.72 -12 5 C-10.35 4.67 -8.7 4.34 -7 4 C-7 3.01 -7 2.02 -7 1 C-4.53721199 -0.231394 -2.7204945 -0.07159196 0 0 Z " fill="#EAEAEA" transform="translate(128,123)"/>
<path d="M0 0 C-3.25327699 1.08442566 -5.46162503 1.03347509 -8.875 0.9375 C-14.91089728 0.86298275 -20.50333392 1.59920205 -26.41796875 2.7578125 C-27.27003906 2.83773437 -28.12210937 2.91765625 -29 3 C-29.66 2.34 -30.32 1.68 -31 1 C-30.34 1 -29.68 1 -29 1 C-29 0.01 -29 -0.98 -29 -2 C-18.95501742 -3.89010294 -9.49928889 -3.93074023 0 0 Z " fill="#108ACE" transform="translate(135,103)"/>
<path d="M0 0 C1.65 0.33 3.3 0.66 5 1 C4.67 3.97 4.34 6.94 4 10 C0.62182575 10.84454356 -1.67465243 11.10844919 -5 10 C-5 9.34 -5 8.68 -5 8 C-8.16666667 9.83333333 -8.16666667 9.83333333 -10 13 C-10.35915493 7.61267606 -10.35915493 7.61267606 -8.9375 5.1875 C-6.09072753 3.44270397 -3.28153235 3.30957852 0 3 C0 2.01 0 1.02 0 0 Z " fill="#F8AC21" transform="translate(81,62)"/>
<path d="M0 0 C3.54402598 5.31603897 4.2824824 9.48291909 4.125 15.8125 C4.11597656 16.50537109 4.10695312 17.19824219 4.09765625 17.91210938 C4.07426157 19.60822395 4.03839641 21.30415871 4 23 C3.67 23 3.34 23 3 23 C3 18.38 3 13.76 3 9 C1.68 8.34 0.36 7.68 -1 7 C-1.556875 7.61875 -2.11375 8.2375 -2.6875 8.875 C-5.06645178 11.06106379 -6.96357096 11.98785699 -10 13 C-10.66 11.68 -11.32 10.36 -12 9 C-11.505 8.566875 -11.01 8.13375 -10.5 7.6875 C-8.66781808 6.00259517 -8.66781808 6.00259517 -9 3 C-7.8553125 3.2784375 -7.8553125 3.2784375 -6.6875 3.5625 C-3.91032625 4.22819173 -3.91032625 4.22819173 -1 3 C-0.67 3.33 -0.34 3.66 0 4 C0 2.68 0 1.36 0 0 Z " fill="#F6B13A" transform="translate(137,61)"/>
<path d="M0 0 C0.99 0.33 1.98 0.66 3 1 C3.33 1.99 3.66 2.98 4 4 C4.845625 4.495 5.69125 4.99 6.5625 5.5 C7.366875 5.995 8.17125 6.49 9 7 C9 7.99 9 8.98 9 10 C6.69 10 4.38 10 2 10 C2 9.01 2 8.02 2 7 C1.34 6.67 0.68 6.34 0 6 C0.309375 7.175625 0.309375 7.175625 0.625 8.375 C0.74875 9.24125 0.8725 10.1075 1 11 C0.34 11.66 -0.32 12.32 -1 13 C-1.33 13.99 -1.66 14.98 -2 16 C-3.65 16 -5.3 16 -7 16 C-6.34 15.67 -5.68 15.34 -5 15 C-5.33 14.01 -5.66 13.02 -6 12 C-5.34 12 -4.68 12 -4 12 C-4.061875 10.824375 -4.061875 10.824375 -4.125 9.625 C-4 7 -4 7 -2 5 C-1.29289322 3.35008418 -0.62056011 1.68437744 0 0 Z " fill="#F1F1F1" transform="translate(106,125)"/>
<path d="M0 0 C3.36179774 1.44077046 5.59156268 3.24750021 8 6 C8 6.66 8 7.32 8 8 C5.69 8.33 3.38 8.66 1 9 C1 9.66 1 10.32 1 11 C-1.64 11.33 -4.28 11.66 -7 12 C-6.67 9.69 -6.34 7.38 -6 5 C-4.68 5 -3.36 5 -2 5 C-2 4.34 -2 3.68 -2 3 C-1.34 3 -0.68 3 0 3 C0 3.66 0 4.32 0 5 C0.66 5 1.32 5 2 5 C1.34 3.35 0.68 1.7 0 0 Z " fill="#700603" transform="translate(107,72)"/>
<path d="M0 0 C-3 1.5 -3 1.5 -6 3 C-4.68 3.33 -3.36 3.66 -2 4 C-6.97011673 5.99118241 -11.12333135 6.24845695 -16.375 6.125 C-17.47908203 6.11146484 -17.47908203 6.11146484 -18.60546875 6.09765625 C-20.4037888 6.07430144 -22.20193911 6.03843836 -24 6 C-22 3 -22 3 -20.375 2.3125 C-16.900172 1.85528579 -13.50413832 1.94159769 -10 2 C-10 1.34 -10 0.68 -10 0 C-6.42355152 -1.2380014 -3.66305234 -0.74926071 0 0 Z " fill="#1A68B1" transform="translate(106,111)"/>
<path d="M0 0 C0.99 0.66 1.98 1.32 3 2 C3.76065248 8.41121373 2.54406048 11.68390928 -1 17 C-1.99 16.34 -2.98 15.68 -4 15 C-4 14.34 -4 13.68 -4 13 C-4.66 13 -5.32 13 -6 13 C-6.33 11.35 -6.66 9.7 -7 8 C-5.35 8 -3.7 8 -2 8 C-1.10869587 5.3260876 -0.52268466 2.76276177 0 0 Z " fill="#EB7B47" transform="translate(137,80)"/>
<path d="M0 0 C0.66 0 1.32 0 2 0 C2.33 1.98 2.66 3.96 3 6 C2.34 6 1.68 6 1 6 C1 6.66 1 7.32 1 8 C1.66 8 2.32 8 3 8 C3 8.99 3 9.98 3 11 C1.01432292 11.22786458 -0.97135417 11.45572917 -2.95703125 11.68359375 C-5.19396393 11.97170735 -5.19396393 11.97170735 -8 13 C-8.33 13.66 -8.66 14.32 -9 15 C-9.66 13.02 -10.32 11.04 -11 9 C-9.9275 9 -8.855 9 -7.75 9 C-4.01358689 8.42313825 -4.01358689 8.42313825 -2.64453125 6.15234375 C-1.65559657 4.12806229 -0.7755243 2.11462836 0 0 Z " fill="#792220" transform="translate(91,72)"/>
<path d="M0 0 C1.65 0 3.3 0 5 0 C5 1.65 5 3.3 5 5 C6.98 4.34 8.96 3.68 11 3 C11 3.66 11 4.32 11 5 C10.34 5 9.68 5 9 5 C8.67 6.32 8.34 7.64 8 9 C6.02 9.33 4.04 9.66 2 10 C2 8.68 2 7.36 2 6 C-0.31 6 -2.62 6 -5 6 C-5 5.34 -5 4.68 -5 4 C-3.68 4 -2.36 4 -1 4 C-0.67 2.68 -0.34 1.36 0 0 Z " fill="#F7B031" transform="translate(117,63)"/>
<path d="M0 0 C0.99 0 1.98 0 3 0 C3.33 0.99 3.66 1.98 4 3 C4.680625 2.2575 4.680625 2.2575 5.375 1.5 C7 0 7 0 9 0 C8.608125 0.86625 8.21625 1.7325 7.8125 2.625 C6.63954497 6.05470991 6.63954497 6.05470991 8.375 9.375 C8.91125 10.24125 9.4475 11.1075 10 12 C9.01 12 8.02 12 7 12 C5.3125 10 5.3125 10 4 8 C3.67 9.65 3.34 11.3 3 13 C2.01 13 1.02 13 0 13 C0 8.71 0 4.42 0 0 Z " fill="#6A6A6A" transform="translate(76,124)"/>
<path d="M0 0 C2.4375 1.9375 2.4375 1.9375 4 4 C4 4.66 4 5.32 4 6 C5.98 6 7.96 6 10 6 C10.33 6.66 10.66 7.32 11 8 C10.071875 7.979375 9.14375 7.95875 8.1875 7.9375 C4.97713989 7.84230396 4.97713989 7.84230396 2 9 C1.5359375 7.7934375 1.5359375 7.7934375 1.0625 6.5625 C0.23664655 4.10919595 0.23664655 4.10919595 -1 3 C-4.45821402 2.74996036 -4.45821402 2.74996036 -8 3 C-10.35953094 5.35953094 -10.49141413 6.77895617 -11 10 C-12.98 9.34 -14.96 8.68 -17 8 C-17 7.67 -17 7.34 -17 7 C-15.35 7 -13.7 7 -12 7 C-11.855625 6.21625 -11.71125 5.4325 -11.5625 4.625 C-11 2 -11 2 -10 0 C-6.19426871 -1.2685771 -3.89430952 -0.88817586 0 0 Z " fill="#FAECC5" transform="translate(107,49)"/>
<path d="M0 0 C1.66611905 -0.042721 3.33382885 -0.04063832 5 0 C6.58272601 1.58272601 6.34735747 3.38034003 6.5625 5.5625 C6.64628906 6.38878906 6.73007813 7.21507812 6.81640625 8.06640625 C6.87699219 8.70449219 6.93757812 9.34257812 7 10 C4.69 10.33 2.38 10.66 0 11 C-0.66 10.01 -1.32 9.02 -2 8 C-2.99 7.34 -3.98 6.68 -5 6 C-4.34 5.01 -3.68 4.02 -3 3 C-3.66 2.67 -4.32 2.34 -5 2 C-4.01 1.67 -3.02 1.34 -2 1 C-2 2.65 -2 4.3 -2 6 C-1.34 6 -0.68 6 0 6 C0 5.34 0 4.68 0 4 C0.66 4 1.32 4 2 4 C1.34 2.68 0.68 1.36 0 0 Z " fill="#E4E5E6" transform="translate(138,141)"/>
<path d="M0 0 C0.66 1.65 1.32 3.3 2 5 C0.02 4.34 -1.96 3.68 -4 3 C0.455 5.97 0.455 5.97 5 9 C4.67 9.66 4.34 10.32 4 11 C2.35 10.67 0.7 10.34 -1 10 C-1 9.34 -1 8.68 -1 8 C-1.928125 7.71125 -2.85625 7.4225 -3.8125 7.125 C-7 6 -7 6 -10 4 C-9.625 2.0625 -9.625 2.0625 -9 0 C-5.93109813 -1.53445094 -3.29905734 -0.54984289 0 0 Z " fill="#DFE2EC" transform="translate(69,98)"/>
<path d="M0 0 C0 0.99 0 1.98 0 3 C1.32 3 2.64 3 4 3 C4 3.66 4 4.32 4 5 C3.01 5.495 3.01 5.495 2 6 C2.33 6.66 2.66 7.32 3 8 C0.69 8.33 -1.62 8.66 -4 9 C-6.29379749 5.55930376 -7 4.27709699 -7 0 C-3.86650268 -1.04449911 -3.01031744 -0.93423645 0 0 Z " fill="#630403" transform="translate(94,93)"/>
<path d="M0 0 C0.33 0 0.66 0 1 0 C1.33 2.64 1.66 5.28 2 8 C1.34 8 0.68 8 0 8 C0 8.66 0 9.32 0 10 C1.7634375 9.938125 1.7634375 9.938125 3.5625 9.875 C7.72409674 9.86016365 11.06487667 10.68829222 15 12 C11.97138044 13.00953985 10.63915009 13.01252048 7.55078125 12.66015625 C6.70322266 12.56669922 5.85566406 12.47324219 4.98242188 12.37695312 C3.66081055 12.22129883 3.66081055 12.22129883 2.3125 12.0625 C1.41982422 11.96259766 0.52714844 11.86269531 -0.39257812 11.75976562 C-2.59578221 11.51234698 -4.79811781 11.25887721 -7 11 C-5.31630879 6.40313144 -3.26437371 3.59918128 0 0 Z " fill="#CECED0" transform="translate(115,86)"/>
<path d="M0 0 C0.99 0 1.98 0 3 0 C3.50559908 1.43554025 4.0042749 2.8735202 4.5 4.3125 C4.7784375 5.11300781 5.056875 5.91351563 5.34375 6.73828125 C6 9 6 9 6 12 C5.34 12 4.68 12 4 12 C4 11.34 4 10.68 4 10 C2.35 10 0.7 10 -1 10 C-1.33 10.99 -1.66 11.98 -2 13 C-2.66 13 -3.32 13 -4 13 C-3.27991594 8.39146203 -1.68704061 4.32762591 0 0 Z " fill="#535354" transform="translate(62,124)"/>
<path d="M0 0 C0.33 2.64 0.66 5.28 1 8 C1.99 8.33 2.98 8.66 4 9 C3.67 10.65 3.34 12.3 3 14 C3.99 14 4.98 14 6 14 C5.67 15.32 5.34 16.64 5 18 C4.34 18 3.68 18 3 18 C2.67 16.35 2.34 14.7 2 13 C1.34 13 0.68 13 0 13 C0 12.01 0 11.02 0 10 C-0.66 10 -1.32 10 -2 10 C-6 3.25 -6 3.25 -6 1 C-4 0 -4 0 0 0 Z " fill="#F2E8D3" transform="translate(136,48)"/>
<path d="M0 0 C3 1 3 1 4.38671875 3.3984375 C4.81597656 4.38070312 5.24523437 5.36296875 5.6875 6.375 C6.34298828 7.84066406 6.34298828 7.84066406 7.01171875 9.3359375 C8 12 8 12 8 15 C6.35 15 4.7 15 3 15 C3 13.68 3 12.36 3 11 C2.34 11 1.68 11 1 11 C1 10.34 1 9.68 1 9 C1.66 9 2.32 9 3 9 C2.67 7.02 2.34 5.04 2 3 C1.34 3 0.68 3 0 3 C-0.28875 3.928125 -0.5775 4.85625 -0.875 5.8125 C-2 9 -2 9 -4 12 C-4.66 11.67 -5.32 11.34 -6 11 C-4.02 7.37 -2.04 3.74 0 0 Z " fill="#D8CFCD" transform="translate(91,69)"/>
<path d="M0 0 C1.32 0 2.64 0 4 0 C4 0.66 4 1.32 4 2 C4.66 2.33 5.32 2.66 6 3 C6.33 3.66 6.66 4.32 7 5 C6.67 5.66 6.34 6.32 6 7 C5.34 7 4.68 7 4 7 C3.34 8.98 2.68 10.96 2 13 C1.34 12.67 0.68 12.34 0 12 C0 11.34 0 10.68 0 10 C-0.99 9.67 -1.98 9.34 -3 9 C-2.67 6.69 -2.34 4.38 -2 2 C-0.68 2 0.64 2 2 2 C1.34 1.34 0.68 0.68 0 0 Z " fill="#F2B233" transform="translate(87,62)"/>
<path d="M0 0 C0.99 0.33 1.98 0.66 3 1 C3 1.66 3 2.32 3 3 C4.98 3 6.96 3 9 3 C9 3.66 9 4.32 9 5 C7.64455078 5.05607422 7.64455078 5.05607422 6.26171875 5.11328125 C5.08222656 5.17902344 3.90273437 5.24476562 2.6875 5.3125 C1.51574219 5.37050781 0.34398438 5.42851563 -0.86328125 5.48828125 C-4.0983686 6.01604768 -5.08684881 6.42380724 -7 9 C-7.33 8.34 -7.66 7.68 -8 7 C-8.66 7.99 -9.32 8.98 -10 10 C-10.36190476 4.57142857 -10.36190476 4.57142857 -8.8125 2.125 C-6.43963721 0.65218861 -4.74086056 0.77776806 -2 1 C-2 1.66 -2 2.32 -2 3 C-1.34 2.34 -0.68 1.68 0 1 C0 0.67 0 0.34 0 0 Z " fill="#F9C31B" transform="translate(78,55)"/>
<path d="M0 0 C0 0.99 0 1.98 0 3 C0.66 2.67 1.32 2.34 2 2 C3.875 1.796875 3.875 1.796875 6 1.75 C6.70125 1.72421875 7.4025 1.6984375 8.125 1.671875 C8.74375 1.78015625 9.3625 1.8884375 10 2 C10.99 3.485 10.99 3.485 12 5 C7.69968038 6.17281444 4.37091396 5.66674959 0 5 C-2.67397837 4.91555858 -5.32369261 4.95304724 -8 5 C-8 4.01 -8 3.02 -8 2 C-4.91190305 0.23537317 -3.76687864 0 0 0 Z " fill="#FBDB25" transform="translate(112,42)"/>
<path d="M0 0 C0 0.99 0 1.98 0 3 C0.99 3.33 1.98 3.66 3 4 C1.68 4.33 0.36 4.66 -1 5 C-1.33 4.34 -1.66 3.68 -2 3 C-4.02463255 2.34786708 -4.02463255 2.34786708 -6 2 C-5.67 2.99 -5.34 3.98 -5 5 C-6 6 -6 6 -9.0625 6.0625 C-10.5165625 6.0315625 -10.5165625 6.0315625 -12 6 C-12 4.02 -12 2.04 -12 0 C-7.74433453 -1.16063604 -4.3164922 -0.76173392 0 0 Z " fill="#F4BF31" transform="translate(87,60)"/>
<path d="M0 0 C4.33064072 1.54090239 6.50094818 4.87517446 9.125 8.4375 C9.78822266 9.31631836 9.78822266 9.31631836 10.46484375 10.21289062 C12.38334853 12.76606692 14.22821081 15.34231622 16 18 C14.35 17.67 12.7 17.34 11 17 C10.67 16.01 10.34 15.02 10 14 C9.34 14 8.68 14 8 14 C6.0546875 11.69921875 6.0546875 11.69921875 3.875 8.6875 C3.15054688 7.70136719 2.42609375 6.71523437 1.6796875 5.69921875 C0 3 0 3 0 0 Z " fill="#2F2D2E" transform="translate(119,82)"/>
<path d="M0 0 C0.99 0.33 1.98 0.66 3 1 C2.34 2.32 1.68 3.64 1 5 C6.94 5.66 12.88 6.32 19 7 C19 7.33 19 7.66 19 8 C11.41 8 3.82 8 -4 8 C-2 2 -2 2 0 0 Z " fill="#F7F6F5" transform="translate(108,91)"/>
<path d="M0 0 C0 3 0 3 -1 5 C2.3 5 5.6 5 9 5 C6.48115349 7.51884651 4.56355758 7.8257588 1.125 8.6875 C0.07570313 8.95949219 -0.97359375 9.23148438 -2.0546875 9.51171875 C-4.88631963 9.98115378 -6.37331143 10.06598796 -9 9 C-9.66 8.34 -10.32 7.68 -11 7 C-10.37351562 6.82984375 -9.74703125 6.6596875 -9.1015625 6.484375 C-8.28429687 6.24203125 -7.46703125 5.9996875 -6.625 5.75 C-5.81289062 5.51796875 -5.00078125 5.2859375 -4.1640625 5.046875 C-1.54214546 3.7785108 -1.00617682 2.67576692 0 0 Z " fill="#DEE0E1" transform="translate(105,94)"/>
<path d="M0 0 C0 1.32 0 2.64 0 4 C-1.8903376 4.70246995 -3.78756828 5.38640849 -5.6875 6.0625 C-6.74324219 6.44535156 -7.79898438 6.82820313 -8.88671875 7.22265625 C-12.09333792 8.0233052 -13.8686307 7.9237249 -17 7 C-11.6552393 2.94535395 -6.9431134 0 0 0 Z " fill="#226CBA" transform="translate(106,102)"/>
<path d="M0 0 C0.99 0 1.98 0 3 0 C3 5 3 10 3 15 C3.33 15.99 3.66 16.98 4 18 C2.35 17.67 0.7 17.34 -1 17 C-0.67 11.39 -0.34 5.78 0 0 Z " fill="#989898" transform="translate(125,124)"/>
<path d="M0 0 C0.556875 0.28875 1.11375 0.5775 1.6875 0.875 C4.08494645 2.0413253 6.51596939 3.0339881 9 4 C9 4.66 9 5.32 9 6 C13.455 6.99 13.455 6.99 18 8 C17.34 8.66 16.68 9.32 16 10 C16.66 10.33 17.32 10.66 18 11 C18 11.66 18 12.32 18 13 C10.37585192 11.09396298 4.49317523 6.36533158 0 0 Z " fill="#355097" transform="translate(59,102)"/>
<path d="M0 0 C7.42857143 -0.28571429 7.42857143 -0.28571429 11 2 C10.34 3.32 9.68 4.64 9 6 C8.01 6 7.02 6 6 6 C5.34 7.32 4.68 8.64 4 10 C2.68 6.7 1.36 3.4 0 0 Z " fill="#A81109" transform="translate(93,69)"/>
<path d="M0 0 C0 3.60053261 -1.17763629 5.08812377 -3.48828125 7.76953125 C-5 9 -5 9 -8.3125 9.375 C-9.199375 9.25125 -10.08625 9.1275 -11 9 C-11 8.34 -11 7.68 -11 7 C-11.66 7 -12.32 7 -13 7 C-13 6.34 -13 5.68 -13 5 C-11.68 5 -10.36 5 -9 5 C-9 4.34 -9 3.68 -9 3 C-6.03 2.01 -3.06 1.02 0 0 Z " fill="#A80A08" transform="translate(117,78)"/>
<path d="M0 0 C5.28 0 10.56 0 16 0 C16 1.65 16 3.3 16 5 C11.98012591 5 9.50847849 4.30729686 5.75 3 C4.67234375 2.62875 3.5946875 2.2575 2.484375 1.875 C1.25460938 1.441875 1.25460938 1.441875 0 1 C0 0.67 0 0.34 0 0 Z " fill="#EFEADB" transform="translate(112,40)"/>
<path d="M0 0 C0.99 0 1.98 0 3 0 C3 3.63 3 7.26 3 11 C4.98 11 6.96 11 9 11 C9 11.66 9 12.32 9 13 C6.03 13 3.06 13 0 13 C0 8.71 0 4.42 0 0 Z " fill="#7B7C7E" transform="translate(43,124)"/>
<path d="M0 0 C3.0625 0.3125 3.0625 0.3125 4.9375 1.8125 C5.30875 2.3075 5.68 2.8025 6.0625 3.3125 C3.0625 5.3125 3.0625 5.3125 -0.9375 5.3125 C-1.2675 6.6325 -1.5975 7.9525 -1.9375 9.3125 C-1.2775 9.6425 -0.6175 9.9725 0.0625 10.3125 C-0.9275 11.7975 -0.9275 11.7975 -1.9375 13.3125 C-4.9375 6.8125 -4.9375 6.8125 -4.9375 2.3125 C-2.9375 0.3125 -2.9375 0.3125 0 0 Z " fill="#9F0605" transform="translate(87.9375,82.6875)"/>
<path d="M0 0 C0.33 0.66 0.66 1.32 1 2 C1.99 1.67 2.98 1.34 4 1 C4 1.99 4 2.98 4 4 C6.97 4.495 6.97 4.495 10 5 C10 5.66 10 6.32 10 7 C9.34 7 8.68 7 8 7 C7.67 8.32 7.34 9.64 7 11 C7 10.01 7 9.02 7 8 C6.34 8 5.68 8 5 8 C4.67 8.66 4.34 9.32 4 10 C3.01 10.495 3.01 10.495 2 11 C2 10.01 2 9.02 2 8 C1.484375 7.54625 0.96875 7.0925 0.4375 6.625 C-0.036875 6.08875 -0.51125 5.5525 -1 5 C-0.6875 2.3125 -0.6875 2.3125 0 0 Z " fill="#E3E4E4" transform="translate(65,134)"/>
<path d="M0 0 C0.33 0.66 0.66 1.32 1 2 C3.01669827 3.13350534 3.01669827 3.13350534 5 4 C4.67 4.66 4.34 5.32 4 6 C0.9375 6.625 0.9375 6.625 -2 7 C-2 5.35 -2 3.7 -2 2 C-3.65 2.33 -5.3 2.66 -7 3 C-7.33 3.99 -7.66 4.98 -8 6 C-8.66 6 -9.32 6 -10 6 C-9.75 3.625 -9.75 3.625 -9 1 C-5.93419973 -1.40884307 -3.61688837 -1.17304488 0 0 Z " fill="#F4D187" transform="translate(124,61)"/>
<path d="M0 0 C1.32 0 2.64 0 4 0 C4.33 1.65 4.66 3.3 5 5 C6.65 5 8.3 5 10 5 C10.33 6.65 10.66 8.3 11 10 C10.01 9.67 9.02 9.34 8 9 C7.01 9.33 6.02 9.66 5 10 C-0.63380282 6.73239437 -0.63380282 6.73239437 -2 4 C0.475 4.495 0.475 4.495 3 5 C3 3.68 3 2.36 3 1 C2.01 0.67 1.02 0.34 0 0 Z " fill="#FBBA19" transform="translate(127,56)"/>
<path d="M0 0 C2.31 0 4.62 0 7 0 C5.68 0.33 4.36 0.66 3 1 C3 2.32 3 3.64 3 5 C4.32 5 5.64 5 7 5 C7 5.66 7 6.32 7 7 C5.35 7 3.7 7 2 7 C2 8.32 2 9.64 2 11 C3.98 11 5.96 11 8 11 C8 11.33 8 11.66 8 12 C5.36 12 2.72 12 0 12 C0 8.04 0 4.08 0 0 Z " fill="#545455" transform="translate(154,124)"/>
<path d="M0 0 C0.33 0.66 0.66 1.32 1 2 C-0.9914056 2.38133299 -2.99279077 2.71325582 -5 3 C-5.33 2.67 -5.66 2.34 -6 2 C-8.69654854 1.92680379 -11.36691458 1.90757463 -14.0625 1.9375 C-15.20041992 1.94426758 -15.20041992 1.94426758 -16.36132812 1.95117188 C-18.24091871 1.9629932 -20.12046899 1.98092922 -22 2 C-19.19030342 -0.80969658 -16.91766752 -0.5576827 -13 -1 C-11.9790625 -1.17402344 -11.9790625 -1.17402344 -10.9375 -1.3515625 C-6.68364251 -2.04442565 -3.78450008 -2.17895459 0 0 Z " fill="#F9D817" transform="translate(102,46)"/>
<path d="M0 0 C1.98 0 3.96 0 6 0 C6.33 1.98 6.66 3.96 7 6 C6.34 6 5.68 6 5 6 C5 5.34 5 4.68 5 4 C4.34 4 3.68 4 3 4 C3 4.66 3 5.32 3 6 C1.68 6 0.36 6 -1 6 C-1.33 6.99 -1.66 7.98 -2 9 C-2.66 9 -3.32 9 -4 9 C-4 6.69 -4 4.38 -4 2 C-2.02 2.99 -2.02 2.99 0 4 C0 2.68 0 1.36 0 0 Z " fill="#8B0304" transform="translate(102,71)"/>
<path d="M0 0 C3.14958831 3.42346555 3.56179109 6.44262737 4 11 C2.63875 10.690625 2.63875 10.690625 1.25 10.375 C-2.11027897 9.9872755 -3.24075815 10.19588033 -6 12 C-6.66 11.34 -7.32 10.68 -8 10 C-8 9.34 -8 8.68 -8 8 C-5.36 7.67 -2.72 7.34 0 7 C0 4.69 0 2.38 0 0 Z " fill="#F4F4F1" transform="translate(64,88)"/>
<path d="M0 0 C1.99097846 2.98646769 2.94124926 5.59687262 4 9 C4.66 8.01 5.32 7.02 6 6 C6.99 6 7.98 6 9 6 C8.37240135 8.92879371 7.41377341 11.36095629 6 14 C5.01 14 4.02 14 3 14 C-0.00559652 8.99067246 -0.29341888 5.67276511 0 0 Z " fill="#E8804F" transform="translate(65,82)"/>
<path d="M0 0 C2.31 0 4.62 0 7 0 C7 0.33 7 0.66 7 1 C5.35 1 3.7 1 2 1 C2 2.32 2 3.64 2 5 C3.65 5 5.3 5 7 5 C7 5.66 7 6.32 7 7 C5.35 7 3.7 7 2 7 C2 8.32 2 9.64 2 11 C3.65 11 5.3 11 7 11 C7 11.33 7 11.66 7 12 C4.69 12 2.38 12 0 12 C0 8.04 0 4.08 0 0 Z " fill="#494949" transform="translate(94,124)"/>
<path d="M0 0 C3.63 0 7.26 0 11 0 C12.07349791 4.29399165 11.79682816 5.19495213 10 9 C8.35 9 6.7 9 5 9 C5.99 8.34 6.98 7.68 8 7 C8.33 6.01 8.66 5.02 9 4 C8.443125 3.87625 7.88625 3.7525 7.3125 3.625 C4.77885636 2.94023145 2.42078968 2.00866237 0 1 C0 0.67 0 0.34 0 0 Z " fill="#F7D22F" transform="translate(85,47)"/>
<path d="M0 0 C3.63 0 7.26 0 11 0 C11.33 0.66 11.66 1.32 12 2 C10.9171875 2.37125 10.9171875 2.37125 9.8125 2.75 C6.75286734 4.10983674 4.5326262 5.82917754 2 8 C1.34 7.67 0.68 7.34 0 7 C0.99 6.67 1.98 6.34 3 6 C2.04134491 3.66924071 2.04134491 3.66924071 -1 2 C-0.67 1.34 -0.34 0.68 0 0 Z " fill="#EEEAD5" transform="translate(78,40)"/>
<path d="M0 0 C1.98 0 3.96 0 6 0 C4.02 0.99 4.02 0.99 2 2 C2 2.66 2 3.32 2 4 C4.475 4.99 4.475 4.99 7 6 C7 7.98 7 9.96 7 12 C4.36 12 1.72 12 -1 12 C-1 11.67 -1 11.34 -1 11 C0.98 11 2.96 11 5 11 C3.75453595 7.26360784 2.36595047 6.81243487 -1 5 C-0.67 3.35 -0.34 1.7 0 0 Z " fill="#535353" transform="translate(110,124)"/>
<path d="M0 0 C1.60495567 0.11442461 3.20898119 0.24194694 4.8125 0.375 C5.70582031 0.44460937 6.59914063 0.51421875 7.51953125 0.5859375 C10 1 10 1 13 3 C10.87745145 3.38863565 8.75183172 3.76053209 6.625 4.125 C4.84996094 4.43824219 4.84996094 4.43824219 3.0390625 4.7578125 C2.03617187 4.83773437 1.03328125 4.91765625 0 5 C-0.66 4.34 -1.32 3.68 -2 3 C-1.34 3 -0.68 3 0 3 C0 2.01 0 1.02 0 0 Z " fill="#127EC8" transform="translate(106,101)"/>
<path d="M0 0 C0.73605469 0.00451172 1.47210938 0.00902344 2.23046875 0.01367188 C4.02868158 0.02534858 5.82685197 0.04327989 7.625 0.0625 C7.625 0.3925 7.625 0.7225 7.625 1.0625 C-9.08342825 3.17411731 -9.08342825 3.17411731 -17.375 4.0625 C-15.60590522 1.80199 -14.52822689 1.10181775 -11.7109375 0.37890625 C-7.78816692 0.00684019 -3.93693989 -0.04627506 0 0 Z " fill="#E3EEF3" transform="translate(122.375,103.9375)"/>
<path d="M0 0 C0.99 0 1.98 0 3 0 C3 1.32 3 2.64 3 4 C3.99 4 4.98 4 6 4 C6 5.32 6 6.64 6 8 C5.01 8 4.02 8 3 8 C3 9.65 3 11.3 3 13 C0.87491756 9.81237635 0.4979837 7.73487777 0 4 C-0.99 3.67 -1.98 3.34 -3 3 C-2.01 3 -1.02 3 0 3 C0 2.01 0 1.02 0 0 Z " fill="#E5E5E5" transform="translate(65,120)"/>
<path d="M0 0 C-0.33 0.99 -0.66 1.98 -1 3 C-5.95 3 -10.9 3 -16 3 C-16 2.34 -16 1.68 -16 1 C-10.59255982 0.22750855 -5.46137814 -0.09752461 0 0 Z " fill="#EFEAD7" transform="translate(112,37)"/>
<path d="M0 0 C3.50281042 4.67041389 3.5344992 6.41399038 4 12 C1.29120665 13.35439668 -1.00933268 13.06501451 -4 13 C-4 12.34 -4 11.68 -4 11 C-2.35 11 -0.7 11 1 11 C0.67 7.37 0.34 3.74 0 0 Z " fill="#AFAFB0" transform="translate(81,89)"/>
<path d="M0 0 C0.66 0 1.32 0 2 0 C2.33 0.99 2.66 1.98 3 3 C3.66 3.33 4.32 3.66 5 4 C5 5.32 5 6.64 5 8 C4.278125 7.814375 3.55625 7.62875 2.8125 7.4375 C-0.12826973 6.98004693 -2.14103058 7.26483643 -5 8 C-5 7.01 -5 6.02 -5 5 C-5.66 4.34 -6.32 3.68 -7 3 C-4.36 3.33 -1.72 3.66 1 4 C0.67 2.68 0.34 1.36 0 0 Z " fill="#871112" transform="translate(98,80)"/>
<path d="M0 0 C1.32 0 2.64 0 4 0 C4 3.63 4 7.26 4 11 C3.67 10.01 3.34 9.02 3 8 C0.98491642 7.26676204 0.98491642 7.26676204 -1 7 C-1.04254356 5.00045254 -1.04080783 2.99958364 -1 1 C-0.67 0.67 -0.34 0.34 0 0 Z " fill="#F0F0EF" transform="translate(60,72)"/>
<path d="M0 0 C0.66 0 1.32 0 2 0 C2.66 3.3 3.32 6.6 4 10 C2.68 10 1.36 10 0 10 C-1.49106457 7.01787087 -1.11941467 4.28390342 -1 1 C-0.67 0.67 -0.34 0.34 0 0 Z " fill="#919193" transform="translate(117,84)"/>
<path d="M0 0 C4.75 -0.125 4.75 -0.125 7 1 C7 2.65 7 4.3 7 6 C4.03 6 1.06 6 -2 6 C-1.34 5.34 -0.68 4.68 0 4 C0 2.68 0 1.36 0 0 Z " fill="#BEBEC0" transform="translate(156,131)"/>
<path d="M0 0 C0.66 0 1.32 0 2 0 C1.41892368 3.7602985 0.34800504 6.53035032 -1.5625 9.8125 C-2.01753906 10.60269531 -2.47257812 11.39289063 -2.94140625 12.20703125 C-3.29074219 12.79871094 -3.64007813 13.39039062 -4 14 C-4.66 14 -5.32 14 -6 14 C-4.50829734 9.0276578 -2.39542583 4.58154261 0 0 Z " fill="#2D2C2D" transform="translate(78,85)"/>
<path d="M0 0 C0.66 0 1.32 0 2 0 C2.33 1.98 2.66 3.96 3 6 C2.34 6 1.68 6 1 6 C1 6.66 1 7.32 1 8 C1.66 8 2.32 8 3 8 C3 8.99 3 9.98 3 11 C1.02 11 -0.96 11 -3 11 C-2.690625 10.29875 -2.38125 9.5975 -2.0625 8.875 C-0.96697322 5.91063343 -0.43577008 3.12301892 0 0 Z " fill="#7E6F70" transform="translate(91,72)"/>
<path d="M0 0 C1.32 0 2.64 0 4 0 C4.95465783 2.16967689 5.14401212 3.56328793 4.3984375 5.82421875 C3.64129615 7.5684743 2.82390802 9.28627131 2 11 C1.67 11 1.34 11 1 11 C0.855625 10.2575 0.71125 9.515 0.5625 8.75 C0.05253619 6.07834232 0.05253619 6.07834232 -0.625 3.8125 C-1 2 -1 2 0 0 Z " fill="#E4E6E6" transform="translate(147,138)"/>
<path d="M0 0 C2.31 0 4.62 0 7 0 C8.0625 1.8125 8.0625 1.8125 9 4 C8.67 4.99 8.34 5.98 8 7 C8 6.34 8 5.68 8 5 C7.34 5 6.68 5 6 5 C5.67 6.32 5.34 7.64 5 9 C4.87625 8.360625 4.7525 7.72125 4.625 7.0625 C4.41875 6.381875 4.2125 5.70125 4 5 C3.34 4.67 2.68 4.34 2 4 C2 3.34 2 2.68 2 2 C0.7763932 1.9254644 0.7763932 1.9254644 -1 3 C-0.67 2.01 -0.34 1.02 0 0 Z " fill="#F2C907" transform="translate(99,51)"/>
<path d="M0 0 C1.66611905 -0.042721 3.33382885 -0.04063832 5 0 C6 1 6 1 6.0625 3.5625 C6.041875 4.366875 6.02125 5.17125 6 6 C3.36 6 0.72 6 -2 6 C-1.34 5.34 -0.68 4.68 0 4 C0 2.68 0 1.36 0 0 Z " fill="#CECECE" transform="translate(96,131)"/>
<path d="M0 0 C2 2 2 2 2.25 5 C2 8 2 8 0 10 C-3.625 10.125 -3.625 10.125 -7 10 C-7 7.36 -7 4.72 -7 2 C-6.67 2 -6.34 2 -6 2 C-6 4.31 -6 6.62 -6 9 C-4.35 8.34 -2.7 7.68 -1 7 C-0.67 4.69 -0.34 2.38 0 0 Z " fill="#414242" transform="translate(144,126)"/>
<path d="M0 0 C1.32 0 2.64 0 4 0 C4 2.64 4 5.28 4 8 C2.68 8 1.36 8 0 8 C0 5.36 0 2.72 0 0 Z " fill="#EAEAEA" transform="translate(139,126)"/>
<path d="M0 0 C-0.25 1.875 -0.25 1.875 -1 4 C-2.9375 5.125 -2.9375 5.125 -5 6 C-5.66 6.66 -6.32 7.32 -7 8 C-7 6.35 -7 4.7 -7 3 C-7.99 2.67 -8.98 2.34 -10 2 C-6.3558226 -0.4294516 -4.28758728 -0.16179575 0 0 Z " fill="#E4E4E4" transform="translate(86,121)"/>
<path d="M0 0 C2 3 2 3 2 6 C2.99 5.67 3.98 5.34 5 5 C5.33 6.65 5.66 8.3 6 10 C3.69 9.67 1.38 9.34 -1 9 C-0.67 8.01 -0.34 7.02 0 6 C-0.32380126 4.66431979 -0.65657551 3.33076989 -1 2 C-0.67 1.34 -0.34 0.68 0 0 Z " fill="#F5F4F2" transform="translate(57,101)"/>
<path d="M0 0 C1.05767578 0.42925781 1.05767578 0.42925781 2.13671875 0.8671875 C5.01205232 2.00476831 7.90452186 3.07392356 10.8125 4.125 C11.78832031 4.47820312 12.76414062 4.83140625 13.76953125 5.1953125 C14.87361328 5.59363281 14.87361328 5.59363281 16 6 C15.34 6.66 14.68 7.32 14 8 C9.05531258 7.85456802 4.85509151 4.89131864 1 2 C0.67 1.34 0.34 0.68 0 0 Z " fill="#234492" transform="translate(64,100)"/>
<path d="M0 0 C2.93804996 -0.08086376 5.87388075 -0.1404283 8.8125 -0.1875 C9.64587891 -0.21263672 10.47925781 -0.23777344 11.33789062 -0.26367188 C12.54155273 -0.27817383 12.54155273 -0.27817383 13.76953125 -0.29296875 C14.87711792 -0.31653442 14.87711792 -0.31653442 16.00708008 -0.34057617 C18.52230522 0.08925833 19.39441516 1.07463062 21 3 C18.31215088 4.34392456 17.02551741 3.40796513 14.28515625 2.546875 C9.61722161 1.42976244 4.77868456 1.29817736 0 1 C0 0.67 0 0.34 0 0 Z " fill="#D4EEF5" transform="translate(114,99)"/>
<path d="M0 0 C0.66 0.99 1.32 1.98 2 3 C1.505 3.94875 1.01 4.8975 0.5 5.875 C-1.14424369 8.72278166 -1.14424369 8.72278166 -1 11 C-0.34 11.66 0.32 12.32 1 13 C-0.32 12.67 -1.64 12.34 -3 12 C-3 11.34 -3 10.68 -3 10 C-4.65 10 -6.3 10 -8 10 C-7.34 9.34 -6.68 8.68 -6 8 C-5.01 8 -4.02 8 -3 8 C-1.92474806 5.34771188 -0.90543849 2.71631546 0 0 Z " fill="#E3D6CE" transform="translate(74,88)"/>
<path d="M0 0 C2.97 0 5.94 0 9 0 C8.67 1.32 8.34 2.64 8 4 C8.66 4 9.32 4 10 4 C9.34 5.32 8.68 6.64 8 8 C6 4.125 6 4.125 6 3 C3.03 2.505 3.03 2.505 0 2 C0 1.34 0 0.68 0 0 Z " fill="#F3CA3D" transform="translate(111,53)"/>
<path d="M0 0 C1.32 0 2.64 0 4 0 C4.33 2.64 4.66 5.28 5 8 C2.69 7.67 0.38 7.34 -2 7 C-1.34 4.69 -0.68 2.38 0 0 Z " fill="#F0F0F2" transform="translate(61,134)"/>
<path d="M0 0 C0.99 0 1.98 0 3 0 C3.33 1.32 3.66 2.64 4 4 C2.02 4.66 0.04 5.32 -2 6 C-2 6.66 -2 7.32 -2 8 C-2.99 7.67 -3.98 7.34 -5 7 C-4.67 6.01 -4.34 5.02 -4 4 C-4.66 3.34 -5.32 2.68 -6 2 C-4.02 1.67 -2.04 1.34 0 1 C0 0.67 0 0.34 0 0 Z " fill="#D3D3D3" transform="translate(116,121)"/>
<path d="M0 0 C0.65355469 0.15339844 1.30710937 0.30679688 1.98046875 0.46484375 C5.75492159 1.13379594 9.48905996 1.35407297 13.3125 1.5625 C14.05306641 1.60568359 14.79363281 1.64886719 15.55664062 1.69335938 C17.37091464 1.79870432 19.1854355 1.89978316 21 2 C21 2.33 21 2.66 21 3 C15.06 3 9.12 3 3 3 C2.67 3.66 2.34 4.32 2 5 C1.01 4.01 0.02 3.02 -1 2 C-0.67 1.34 -0.34 0.68 0 0 Z " fill="#C5D6E6" transform="translate(77,115)"/>
<path d="M0 0 C1.60407328 -0.02708567 3.2082785 -0.04643483 4.8125 -0.0625 C5.70582031 -0.07410156 6.59914062 -0.08570312 7.51953125 -0.09765625 C10 0 10 0 13 1 C12.67 2.32 12.34 3.64 12 5 C10.56068883 4.54738642 9.12361001 4.08767021 7.6875 3.625 C6.88699219 3.36976562 6.08648437 3.11453125 5.26171875 2.8515625 C3 2 3 2 0 0 Z " fill="#CAE5EA" transform="translate(131,105)"/>
<path d="M0 0 C1.32 0.66 2.64 1.32 4 2 C4 2.99 4 3.98 4 5 C2.68 5.33 1.36 5.66 0 6 C-0.33 7.32 -0.66 8.64 -1 10 C-1.33 9.67 -1.66 9.34 -2 9 C-1.9140625 7.1875 -1.9140625 7.1875 -1.625 5 C-1.53476563 4.278125 -1.44453125 3.55625 -1.3515625 2.8125 C-1 1 -1 1 0 0 Z " fill="#F7F7F7" transform="translate(140,91)"/>
<path d="M0 0 C0 1.32 0 2.64 0 4 C-3.37817425 4.84454356 -5.67465243 5.10844919 -9 4 C-8.67 3.01 -8.34 2.02 -8 1 C-5.23735711 0.40267181 -2.83967231 0 0 0 Z " fill="#FAA72A" transform="translate(85,68)"/>
<path d="M0 0 C2.31 0 4.62 0 7 0 C6.67 0.99 6.34 1.98 6 3 C1.38 3.33 -3.24 3.66 -8 4 C-7.67 3.34 -7.34 2.68 -7 2 C-4.67843403 1.59270772 -2.3431213 1.25561323 0 1 C0 0.67 0 0.34 0 0 Z " fill="#FADF28" transform="translate(91,42)"/>
<path d="M0 0 C0.66 0 1.32 0 2 0 C2 2.97 2 5.94 2 9 C0.68 8.67 -0.64 8.34 -2 8 C-3 5 -3 5 -2.125 2.875 C-1 1 -1 1 0 0 Z " fill="#D5D6D8" transform="translate(70,142)"/>
<path d="M0 0 C0.66 0.33 1.32 0.66 2 1 C2 1.66 2 2.32 2 3 C2.66 3 3.32 3 4 3 C4 3.66 4 4.32 4 5 C3.01 5.495 3.01 5.495 2 6 C1.67 6.99 1.34 7.98 1 9 C1 8.34 1 7.68 1 7 C0.01 7.33 -0.98 7.66 -2 8 C-2 4.23312136 -1.76462683 3.08809695 0 0 Z " fill="#EBEDEC" transform="translate(123,143)"/>
<path d="M0 0 C-0.66 0 -1.32 0 -2 0 C-3.0745356 1.7763932 -3.0745356 1.7763932 -3 3 C-3 5 -3 7 -3 9 C-3.66 9 -4.32 9 -5 9 C-5.12375 8.360625 -5.2475 7.72125 -5.375 7.0625 C-5.684375 6.0415625 -5.684375 6.0415625 -6 5 C-6.66 4.67 -7.32 4.34 -8 4 C-7 1 -7 1 -5.125 -0.25 C-3 -1 -3 -1 0 0 Z " fill="#D2D2D2" transform="translate(86,137)"/>
<path d="M0 0 C2.57619276 1.91315119 2.98395232 2.9016314 3.51171875 6.13671875 C3.56972656 7.30847656 3.62773437 8.48023437 3.6875 9.6875 C3.75324219 10.86699219 3.81898438 12.04648438 3.88671875 13.26171875 C3.92410156 14.16535156 3.96148437 15.06898437 4 16 C3.34 16 2.68 16 2 16 C1.66104344 14.27192682 1.32908475 12.54248026 1 10.8125 C0.814375 9.84957031 0.62875 8.88664062 0.4375 7.89453125 C0.03122388 5.2065794 -0.07933572 2.71228981 0 0 Z " fill="#F3F3F5" transform="translate(140,64)"/>
<path d="M0 0 C0.33 0 0.66 0 1 0 C1 3.63 1 7.26 1 11 C0.01 11.495 0.01 11.495 -1 12 C-1.99 11.67 -2.98 11.34 -4 11 C-4 10.01 -4 9.02 -4 8 C-3.34 8 -2.68 8 -2 8 C-2 7.34 -2 6.68 -2 6 C-1.34 6 -0.68 6 0 6 C0 4.02 0 2.04 0 0 Z " fill="#EFF0F0" transform="translate(153,125)"/>
<path d="M0 0 C2.625 0.9375 2.625 0.9375 5 2 C5 2.99 5 3.98 5 5 C2.69 5 0.38 5 -2 5 C-2 3.68 -2 2.36 -2 1 C-1.34 0.67 -0.68 0.34 0 0 Z " fill="#E0E0E0" transform="translate(110,130)"/>
<path d="M0 0 C0.99 0 1.98 0 3 0 C3.98120464 3.05263664 3.98120464 4.94736336 3 8 C2.01 8 1.02 8 0 8 C-1.125 2.25 -1.125 2.25 0 0 Z " fill="#8F8F90" transform="translate(62,124)"/>
<path d="M0 0 C0 0.66 0 1.32 0 2 C-1.41199578 2.39222105 -2.82992764 2.76311059 -4.25 3.125 C-5.03890625 3.33382812 -5.8278125 3.54265625 -6.640625 3.7578125 C-9.4203071 4.04314411 -10.65887549 3.44977894 -13 2 C-11.5882217 1.46605821 -10.17029756 0.94834896 -8.75 0.4375 C-7.96109375 0.14746094 -7.1721875 -0.14257812 -6.359375 -0.44140625 C-3.80896548 -1.04522837 -2.44677771 -0.8473932 0 0 Z " fill="#BBD8EB" transform="translate(107,107)"/>
<path d="M0 0 C0.99 0 1.98 0 3 0 C3.75 1.6875 3.75 1.6875 4 4 C2.0625 6.75 2.0625 6.75 0 9 C-0.87890625 2.84765625 -0.87890625 2.84765625 -1 1 C-0.67 0.67 -0.34 0.34 0 0 Z " fill="#F37D37" transform="translate(68,84)"/>
<path d="M0 0 C0.99 0.33 1.98 0.66 3 1 C3.6875 3.0625 3.6875 3.0625 4 5 C3.34 5 2.68 5 2 5 C2 4.34 2 3.68 2 3 C1.34 3 0.68 3 0 3 C-0.28875 3.928125 -0.5775 4.85625 -0.875 5.8125 C-2 9 -2 9 -4 12 C-4.66 11.67 -5.32 11.34 -6 11 C-4.02 7.37 -2.04 3.74 0 0 Z " fill="#E4DAC6" transform="translate(91,69)"/>
<path d="M0 0 C1.32 0 2.64 0 4 0 C4 1.32 4 2.64 4 4 C3.34 4 2.68 4 2 4 C1.67 4.66 1.34 5.32 1 6 C-0.98 6 -2.96 6 -5 6 C-5 5.34 -5 4.68 -5 4 C-3.68 4 -2.36 4 -1 4 C-0.67 2.68 -0.34 1.36 0 0 Z " fill="#F2B217" transform="translate(117,63)"/>
<path d="M0 0 C1.65 0.33 3.3 0.66 5 1 C4.67 2.32 4.34 3.64 4 5 C1.36 5.33 -1.28 5.66 -4 6 C-4 5.34 -4 4.68 -4 4 C-2.68 3.34 -1.36 2.68 0 2 C0 1.34 0 0.68 0 0 Z " fill="#F1B617" transform="translate(81,62)"/>
<path d="M0 0 C0.99 0.66 1.98 1.32 3 2 C3.1875 5.125 3.1875 5.125 3 8 C2.34 8 1.68 8 1 8 C0.67 9.32 0.34 10.64 0 12 C-1.0625 10.1875 -1.0625 10.1875 -2 8 C-1.67 7.01 -1.34 6.02 -1 5 C-0.65179959 3.33637583 -0.31595508 1.67004829 0 0 Z " fill="#EF823B" transform="translate(137,80)"/>
<path d="M0 0 C2.475 0.99 2.475 0.99 5 2 C5 2.66 5 3.32 5 4 C7.64 4 10.28 4 13 4 C12.67 5.32 12.34 6.64 12 8 C11.67 7.01 11.34 6.02 11 5 C10.113125 5.28875 9.22625 5.5775 8.3125 5.875 C5 6 5 6 3.48828125 4.73046875 C2.24842907 3.21351494 1.11689179 1.60963817 0 0 Z " fill="#E59347" transform="translate(110,73)"/>
<path d="M0 0 C1.134375 0.020625 2.26875 0.04125 3.4375 0.0625 C3.4375 0.7225 3.4375 1.3825 3.4375 2.0625 C4.0975 2.3925 4.7575 2.7225 5.4375 3.0625 C3.4575 3.0625 1.4775 3.0625 -0.5625 3.0625 C-0.5625 3.7225 -0.5625 4.3825 -0.5625 5.0625 C-1.5525 5.0625 -2.5425 5.0625 -3.5625 5.0625 C-4.125 3.125 -4.125 3.125 -4.5625 1.0625 C-3.5625 0.0625 -3.5625 0.0625 0 0 Z " fill="#F3A91D" transform="translate(96.5625,63.9375)"/>
<path d="M0 0 C0.928125 0.0825 1.85625 0.165 2.8125 0.25 C2.8125 1.24 2.8125 2.23 2.8125 3.25 C3.8025 3.58 4.7925 3.91 5.8125 4.25 C4.4925 4.58 3.1725 4.91 1.8125 5.25 C1.4825 4.59 1.1525 3.93 0.8125 3.25 C-1.21213255 2.59786708 -1.21213255 2.59786708 -3.1875 2.25 C-3.5175 3.24 -3.8475 4.23 -4.1875 5.25 C-4.8475 4.92 -5.5075 4.59 -6.1875 4.25 C-4.36434338 1.00883268 -3.82500054 0.30000004 0 0 Z " fill="#FBDB93" transform="translate(84.1875,59.75)"/>
<path d="M0 0 C0.90105469 0.01804687 1.80210938 0.03609375 2.73046875 0.0546875 C3.41753906 0.07789062 4.10460937 0.10109375 4.8125 0.125 C1.46360305 2.80845738 -0.83719206 3.84732077 -5.1875 4.125 C-6.1775 3.465 -7.1675 2.805 -8.1875 2.125 C-4.87379 -0.08414 -3.8428979 -0.09981553 0 0 Z " fill="#376CB1" transform="translate(85.1875,105.875)"/>
<path d="M0 0 C0 1.32 0 2.64 0 4 C-4.625 6.125 -4.625 6.125 -8 5 C-7.34 4.67 -6.68 4.34 -6 4 C-6.66 3.34 -7.32 2.68 -8 2 C-5.09399739 0.74335022 -3.20395416 0 0 0 Z " fill="#166AB3" transform="translate(106,102)"/>
<path d="M0 0 C-0.125 1.875 -0.125 1.875 -1 4 C-4.0625 5.25 -4.0625 5.25 -7 6 C-7 4.35 -7 2.7 -7 1 C-4 0 -4 0 0 0 Z " fill="#8A0000" transform="translate(93,86)"/>
<path d="M0 0 C1.984375 1.11328125 1.984375 1.11328125 4 3 C4.390625 5.91796875 4.390625 5.91796875 4.25 9.1875 C4.21390625 10.27417969 4.1778125 11.36085938 4.140625 12.48046875 C4.09421875 13.31191406 4.0478125 14.14335938 4 15 C3.67 15 3.34 15 3 15 C2.67 11.7 2.34 8.4 2 5 C1.34 6.32 0.68 7.64 0 9 C-0.84454356 5.62182575 -1.10844919 3.32534757 0 0 Z " fill="#F9A12A" transform="translate(136,67)"/>
<path d="M0 0 C0.33 1.98 0.66 3.96 1 6 C0.34 6 -0.32 6 -1 6 C-1 4.35 -1 2.7 -1 1 C-1.99 1.495 -1.99 1.495 -3 2 C-3.33 2.99 -3.66 3.98 -4 5 C-4.99 5 -5.98 5 -7 5 C-7 3.68 -7 2.36 -7 1 C-4.53721199 -0.231394 -2.7204945 -0.07159196 0 0 Z " fill="#B7B7B7" transform="translate(137,141)"/>
<path d="M0 0 C0.33 0.66 0.66 1.32 1 2 C-0.9375 2.5625 -0.9375 2.5625 -3 3 C-3.33 2.67 -3.66 2.34 -4 2 C-6.67058851 1.85884839 -9.32432238 1.95752893 -12 2 C-7.63583157 -0.2573285 -4.86338819 -1.4078229 0 0 Z " fill="#1E83C3" transform="translate(115,108)"/>
<path d="M0 0 C0.33 0 0.66 0 1 0 C1.33 2.64 1.66 5.28 2 8 C1.34 8 0.68 8 0 8 C-0.33 8.66 -0.66 9.32 -1 10 C-1.8403457 6.63861721 -2.17718642 4.29612199 -1 1 C-0.67 0.67 -0.34 0.34 0 0 Z " fill="#B3B2B5" transform="translate(115,86)"/>
<path d="M0 0 C1.98 0 3.96 0 6 0 C6 1.65 6 3.3 6 5 C4.68 5 3.36 5 2 5 C1.34 4.34 0.68 3.68 0 3 C0.66 3 1.32 3 2 3 C2 2.34 2 1.68 2 1 C1.34 0.67 0.68 0.34 0 0 Z " fill="#EBECF0" transform="translate(122,40)"/>
<path d="M0 0 C0.99 0.33 1.98 0.66 3 1 C3 3.64 3 6.28 3 9 C1.68 9 0.36 9 -1 9 C-0.67 7.35 -0.34 5.7 0 4 C-0.66 3.67 -1.32 3.34 -2 3 C-1.34 2.34 -0.68 1.68 0 1 C0 0.67 0 0.34 0 0 Z " fill="#CACACA" transform="translate(107,138)"/>
<path d="M0 0 C0.99 0.33 1.98 0.66 3 1 C3 1.66 3 2.32 3 3 C4.98 3 6.96 3 9 3 C9 3.66 9 4.32 9 5 C5.37 5 1.74 5 -2 5 C-2 3 -2 3 0 1 C0 0.67 0 0.34 0 0 Z " fill="#F6C607" transform="translate(78,55)"/>
<path d="M0 0 C3.63 0.33 7.26 0.66 11 1 C11 1.66 11 2.32 11 3 C7.7 3 4.4 3 1 3 C0.67 2.01 0.34 1.02 0 0 Z " fill="#0B97E0" transform="translate(125,106)"/>
<path d="M0 0 C0.66 0 1.32 0 2 0 C2 0.66 2 1.32 2 2 C1.34 2 0.68 2 0 2 C-0.33 3.32 -0.66 4.64 -1 6 C-2.65 6 -4.3 6 -6 6 C-6 5.01 -6 4.02 -6 3 C-5.195625 2.690625 -4.39125 2.38125 -3.5625 2.0625 C-1.10919595 1.23664655 -1.10919595 1.23664655 0 0 Z " fill="#F1AB27" transform="translate(126,66)"/>
<path d="M0 0 C0.86625 0.556875 0.86625 0.556875 1.75 1.125 C1.75 1.455 1.75 1.785 1.75 2.125 C-0.23 2.455 -2.21 2.785 -4.25 3.125 C-4.58 4.115 -4.91 5.105 -5.25 6.125 C-5.91 6.125 -6.57 6.125 -7.25 6.125 C-7 3.75 -7 3.75 -6.25 1.125 C-3.80299775 -0.81572592 -2.94395499 -1.14487138 0 0 Z " fill="#F8E5BA" transform="translate(121.25,60.875)"/>
<path d="M0 0 C0 1.65 0 3.3 0 5 C-1.65 4.67 -3.3 4.34 -5 4 C-5.33 3.01 -5.66 2.02 -6 1 C-4 0 -4 0 0 0 Z " fill="#EDEBEC" transform="translate(136,48)"/>
<path d="M0 0 C1.25541557 3.76624671 0.37061958 5.37188934 -1 9 C-1.99 9 -2.98 9 -4 9 C-4 8.01 -4 7.02 -4 6 C-3.34 6 -2.68 6 -2 6 C-2 4.68 -2 3.36 -2 2 C-1.34 2 -0.68 2 0 2 C0 1.34 0 0.68 0 0 Z " fill="#F1F2F2" transform="translate(75,139)"/>
<path d="M0 0 C0.66 0 1.32 0 2 0 C0.125 3.875 0.125 3.875 -1 5 C-2.66617115 5.04063832 -4.33388095 5.042721 -6 5 C-6 4.01 -6 3.02 -6 2 C-4.02 2 -2.04 2 0 2 C0 1.34 0 0.68 0 0 Z " fill="#E7E8E9" transform="translate(163,124)"/>
<path d="M0 0 C0.66 0 1.32 0 2 0 C2 0.99 2 1.98 2 3 C2.99 3 3.98 3 5 3 C5.625 5.375 5.625 5.375 6 8 C5.34 8.66 4.68 9.32 4 10 C2.68 6.7 1.36 3.4 0 0 Z " fill="#9E1D1C" transform="translate(93,69)"/>
<path d="M0 0 C2.97 0.495 2.97 0.495 6 1 C6 1.66 6 2.32 6 3 C4.68 3 3.36 3 2 3 C2.99 4.485 2.99 4.485 4 6 C2.68 5.67 1.36 5.34 0 5 C0 4.34 0 3.68 0 3 C-0.66 2.67 -1.32 2.34 -2 2 C-1.34 2 -0.68 2 0 2 C0 1.34 0 0.68 0 0 Z " fill="#F4C00C" transform="translate(124,58)"/>
<path d="M0 0 C1.5 1.3125 1.5 1.3125 3 3 C3 3.99 3 4.98 3 6 C1.68 6.33 0.36 6.66 -1 7 C-1.04254356 5.00045254 -1.04080783 2.99958364 -1 1 C-0.67 0.67 -0.34 0.34 0 0 Z " fill="#E7E7E7" transform="translate(80,131)"/>
<path d="M0 0 C0 0.99 0 1.98 0 3 C-1.98 3.33 -3.96 3.66 -6 4 C-6.33 4.99 -6.66 5.98 -7 7 C-7.33 5.35 -7.66 3.7 -8 2 C-4.91190305 0.23537317 -3.76687864 0 0 0 Z " fill="#F9F9F9" transform="translate(127,120)"/>
<path d="M0 0 C1.65 0.33 3.3 0.66 5 1 C3.25 4.875 3.25 4.875 1 6 C0.01 5.34 -0.98 4.68 -2 4 C-1.34 2.68 -0.68 1.36 0 0 Z " fill="#931415" transform="translate(104,88)"/>
<path d="M0 0 C0.33 0.66 0.66 1.32 1 2 C0.34 2 -0.32 2 -1 2 C-1 2.66 -1 3.32 -1 4 C-1.66 4 -2.32 4 -3 4 C-2.67 5.32 -2.34 6.64 -2 8 C-3.32 8 -4.64 8 -6 8 C-5.6875 6.0625 -5.6875 6.0625 -5 4 C-4.01 3.67 -3.02 3.34 -2 3 C-2 2.34 -2 1.68 -2 1 C-1.34 0.67 -0.68 0.34 0 0 Z " fill="#F4D136" transform="translate(78,48)"/>
<path d="M0 0 C0 0.66 0 1.32 0 2 C-0.99 2 -1.98 2 -3 2 C-3 2.66 -3 3.32 -3 4 C-4.32 4 -5.64 4 -7 4 C-7 3.34 -7 2.68 -7 2 C-7.66 1.67 -8.32 1.34 -9 1 C-5.94152152 0.45627049 -3.11227195 0 0 0 Z " fill="#E2E2E4" transform="translate(163,137)"/>
<path d="M0 0 C0.66 0.33 1.32 0.66 2 1 C2 3.31 2 5.62 2 8 C1.01 8 0.02 8 -1 8 C-1.125 2.25 -1.125 2.25 0 0 Z " fill="#F1F6F3" transform="translate(142,82)"/>
<path d="M0 0 C2.56687367 3.8503105 1.83288724 5.58569763 1 10 C0.34 10 -0.32 10 -1 10 C-1.125 2.25 -1.125 2.25 0 0 Z " fill="#F9A526" transform="translate(67,66)"/>
<path d="M0 0 C0 1.32 0 2.64 0 4 C-2.31 3.67 -4.62 3.34 -7 3 C-4.49955934 -0.00052879 -4.2621484 0 0 0 Z " fill="#F1B120" transform="translate(110,66)"/>
<path d="M0 0 C0.99 0.33 1.98 0.66 3 1 C2.01 2.32 1.02 3.64 0 5 C-0.33 4.67 -0.66 4.34 -1 4 C-3.32817964 3.63239269 -5.6618385 3.29758419 -8 3 C-8 2.67 -8 2.34 -8 2 C-6.865625 1.855625 -5.73125 1.71125 -4.5625 1.5625 C-1.19222799 1.38828522 -1.19222799 1.38828522 0 0 Z " fill="#D0D1D1" transform="translate(145,134)"/>
<path d="M0 0 C1.32 0 2.64 0 4 0 C3.67 1.65 3.34 3.3 3 5 C2.01 4.67 1.02 4.34 0 4 C0 2.68 0 1.36 0 0 Z " fill="#B9B9B9" transform="translate(94,142)"/>
<path d="M0 0 C0 0.99 0 1.98 0 3 C-0.99 3.33 -1.98 3.66 -3 4 C-5.1875 2.5625 -5.1875 2.5625 -7 1 C-4.53721199 -0.231394 -2.7204945 -0.07159196 0 0 Z " fill="#FAFCFB" transform="translate(117,119)"/>
<path d="M0 0 C2.475 0.99 2.475 0.99 5 2 C5 2.99 5 3.98 5 5 C3.35 4.67 1.7 4.34 0 4 C0 2.68 0 1.36 0 0 Z " fill="#B2C0D8" transform="translate(68,104)"/>
<path d="M0 0 C0.66 0 1.32 0 2 0 C2 0.99 2 1.98 2 3 C3.98 3 5.96 3 8 3 C8 3.33 8 3.66 8 4 C1.9453125 4.9765625 1.9453125 4.9765625 0 5 C-0.66 4.34 -1.32 3.68 -2 3 C-1.34 3 -0.68 3 0 3 C0 2.01 0 1.02 0 0 Z " fill="#368AC2" transform="translate(106,101)"/>
<path d="M0 0 C3 1 3 1 4.0625 2.9375 C4.371875 3.618125 4.68125 4.29875 5 5 C5.66 5.66 6.32 6.32 7 7 C5.35 6.67 3.7 6.34 2 6 C1.34 4.02 0.68 2.04 0 0 Z " fill="#571416" transform="translate(87,95)"/>
<path d="M0 0 C0.66 0.33 1.32 0.66 2 1 C2 2.65 2 4.3 2 6 C2.66 6.33 3.32 6.66 4 7 C3.01 8.485 3.01 8.485 2 10 C1.01 7.03 0.02 4.06 -1 1 C-0.67 0.67 -0.34 0.34 0 0 Z " fill="#9D2F31" transform="translate(84,86)"/>
<path d="M0 0 C0.99 0 1.98 0 3 0 C3 2.64 3 5.28 3 8 C2.34 8 1.68 8 1 8 C0.67 5.36 0.34 2.72 0 0 Z " fill="#F6F6F6" transform="translate(92,140)"/>
<path d="M0 0 C2 1.3125 2 1.3125 4 3 C4 3.99 4 4.98 4 6 C2.68 6 1.36 6 0 6 C-0.38218767 4.34385343 -0.71395102 2.67542976 -1 1 C-0.67 0.67 -0.34 0.34 0 0 Z " fill="#B1B3B3" transform="translate(144,140)"/>
<path d="M0 0 C3.3 0.33 6.6 0.66 10 1 C10 1.33 10 1.66 10 2 C2.25 3.125 2.25 3.125 0 2 C0 1.34 0 0.68 0 0 Z " fill="#F8F7F8" transform="translate(75,102)"/>
<path d="M0 0 C1.32 0.66 2.64 1.32 4 2 C3.360625 2.12375 2.72125 2.2475 2.0625 2.375 C1.381875 2.58125 0.70125 2.7875 0 3 C-0.33 3.66 -0.66 4.32 -1 5 C-3.475 4.01 -3.475 4.01 -6 3 C-6 2.67 -6 2.34 -6 2 C-4.02 2 -2.04 2 0 2 C0 1.34 0 0.68 0 0 Z " fill="#EC962D" transform="translate(110,68)"/>
</svg>
