<?xml version="1.0" encoding="UTF-8"?>
<svg version="1.1" xmlns="http://www.w3.org/2000/svg" width="204" height="192">
<path d="M0 0 C67.32 0 134.64 0 204 0 C204 63.36 204 126.72 204 192 C136.68 192 69.36 192 0 192 C0 128.64 0 65.28 0 0 Z " fill="#FEFEFE" transform="translate(0,0)"/>
<path d="M0 0 C1.48046875 1.50390625 1.48046875 1.50390625 3.1875 3.5625 C8.17700033 9.41973952 13.5011197 14.65177637 19.3828125 19.60546875 C21.71552129 21.61700749 23.84964458 23.79588569 26 26 C27.20699149 27.20967369 28.41540206 28.4179326 29.625 29.625 C30.75 30.75 31.875 31.875 33 33 C33.56460938 33.52335937 34.12921875 34.04671875 34.7109375 34.5859375 C36 36 36 36 36 38 C39.96 38.33 43.92 38.66 48 39 C40.78162727 30.49836101 33.10084262 22.44507345 24.4921875 15.33984375 C22.90516531 13.91484739 21.59217889 12.40588343 20.25 10.75 C18.11220714 7.86340001 18.11220714 7.86340001 15 6 C19 6 19 6 20.65548706 7.22157288 C21.19698395 7.79306564 21.73848083 8.36455841 22.29638672 8.95336914 C22.91738251 9.59726089 23.5383783 10.24115265 24.17819214 10.90455627 C24.83868561 11.60765427 25.49917908 12.31075226 26.1796875 13.03515625 C27.59725615 14.49843458 29.0152377 15.96131301 30.43359375 17.42382812 C32.66076477 19.74422842 34.88198284 22.06986292 37.09521484 24.40356445 C39.23321635 26.6501048 41.39225805 28.87465689 43.5546875 31.09765625 C44.21113251 31.80277847 44.86757751 32.5079007 45.54391479 33.23439026 C49.23060848 37.14818578 49.23060848 37.14818578 54.34033203 38.11889648 C57.28714668 37.16711577 57.28714668 37.16711577 59 34 C59.66 34 60.32 34 61 34 C60.875 35.8125 60.875 35.8125 60 38 C55.52447333 40.7762983 52.15954413 41.36364623 46.9375 41.25 C45.75027344 41.23453125 44.56304687 41.2190625 43.33984375 41.203125 C40.4372257 41.0265915 37.8361808 40.58915833 35 40 C27.80124588 39.38669832 22.26323196 39.6542633 15.9375 43.3203125 C15.298125 43.54460937 14.65875 43.76890625 14 44 C12.68 43.34 11.36 42.68 10 42 C10.66 39.03 11.32 36.06 12 33 C6.69960611 37.15717168 3.24724256 41.10408494 0 47 C-0.99 46.67 -1.98 46.34 -3 46 C-3.37851209 40.06997733 -2.10575375 35.52760359 0 30 C-1.61067491 31.61067491 -2.74017844 33.54473925 -4 35.4375 C-4.53625 36.24058594 -5.0725 37.04367188 -5.625 37.87109375 C-7.01329737 39.935262 -7.01329737 39.935262 -8 42 C-9.32 42 -10.64 42 -12 42 C-12 39.36 -12 36.72 -12 34 C-12.495 34.33 -12.99 34.66 -13.5 35 C-17.58680237 36.63472095 -21.93696253 36.47239498 -26.18359375 35.5 C-30.16897934 34.79246969 -34.08528007 34.81574215 -38.125 34.8125 C-39.34123047 34.79413086 -39.34123047 34.79413086 -40.58203125 34.77539062 C-41.36191406 34.77345703 -42.14179687 34.77152344 -42.9453125 34.76953125 C-43.65187988 34.76542236 -44.35844727 34.76131348 -45.08642578 34.75708008 C-47.32864629 34.89734773 -47.32864629 34.89734773 -50 37 C-50.99 36.67 -51.98 36.34 -53 36 C-48.35996916 32.65486148 -45.94150904 31.94022604 -40.2421875 32.34375 C-29.70954895 31.67692166 -23.52908138 22.70647608 -16.8125 15.4375 C-14.71609623 13.22629717 -12.61121402 11.02355596 -10.50260925 8.82398987 C-9.19916303 7.45822117 -7.90449809 6.08400757 -6.61958313 4.70079041 C-6.04105087 4.08337479 -5.46251862 3.46595917 -4.86645508 2.82983398 C-4.35939529 2.28213852 -3.85233551 1.73444305 -3.32991028 1.17015076 C-2 0 -2 0 0 0 Z " fill="#F7F6F6" transform="translate(98,40)"/>
<path d="M0 0 C5.55216953 2.52371342 8.514344 7.20847864 12 12 C12.33 9.03 12.66 6.06 13 3 C13.66 3.66 14.32 4.32 15 5 C15.33 4.01 15.66 3.02 16 2 C22.45511995 0.94115621 26.14420031 0.73164669 32 4 C34.78647557 3.79564192 34.78647557 3.79564192 37 3 C36.33501617 7.38889325 34.81242323 10.9811485 33 15 C32.01 14.67 31.02 14.34 30 14 C29.05078125 11.93359375 29.05078125 11.93359375 28.3125 9.4375 C28.06113281 8.61121094 27.80976562 7.78492187 27.55078125 6.93359375 C27.36902344 6.29550781 27.18726563 5.65742187 27 5 C25.35 5 23.7 5 22 5 C22.495 9.95 22.495 9.95 23 15 C23.66 14.67 24.32 14.34 25 14 C25.66 14.66 26.32 15.32 27 16 C29.57061311 16.64767793 29.57061311 16.64767793 32 17 C31.30058404 20.14737182 30.23921302 23.02588876 29 26 C29.66 26 30.32 26 31 26 C30.67 28.64 30.34 31.28 30 34 C30.66 34 31.32 34 32 34 C31.67 34.99 31.34 35.98 31 37 C30.01 37.33 29.02 37.66 28 38 C27.01 36.02 26.02 34.04 25 32 C24.71125 32.78375 24.4225 33.5675 24.125 34.375 C23 37 23 37 21 39 C18.66253478 38.69699525 16.32914823 38.36141955 14 38 C12.65835921 38.2981424 11.32148827 38.62243192 10 39 C8.515 38.505 8.515 38.505 7 38 C6.67 37.34 6.34 36.68 6 36 C5.01 36 4.02 36 3 36 C2.67 36.99 2.34 37.98 2 39 C0.02 39 -1.96 39 -4 39 C-4 38.34 -4 37.68 -4 37 C-4.804375 37.5259375 -4.804375 37.5259375 -5.625 38.0625 C-8.73274763 39.28924249 -10.79431703 38.72856431 -14 38 C-15.27253436 34.35206816 -16.32829194 30.8063457 -17 27 C-16.34 27 -15.68 27 -15 27 C-15 25.02 -15 23.04 -15 21 C-14.01 21 -13.02 21 -12 21 C-12 21.99 -12 22.98 -12 24 C-11.34 24 -10.68 24 -10 24 C-10 23.34 -10 22.68 -10 22 C-9.34 22 -8.68 22 -8 22 C-7.67 22.99 -7.34 23.98 -7 25 C-5.00136244 24.42055068 -5.00136244 24.42055068 -3 23 C-2.30899447 21.00827818 -1.64097297 19.00838196 -1 17 C-0.01 16.67 0.98 16.34 2 16 C1.85833643 14.08302063 1.71150416 12.16642277 1.5625 10.25 C1.48128906 9.18265625 1.40007812 8.1153125 1.31640625 7.015625 C1.05909227 4.56320038 0.68187782 2.36078709 0 0 Z M-13 28 C-12.67 28.66 -12.34 29.32 -12 30 C-11.67 29.34 -11.34 28.68 -11 28 C-11.66 28 -12.32 28 -13 28 Z M-15 30 C-14.67 30.66 -14.34 31.32 -14 32 C-13.67 31.34 -13.34 30.68 -13 30 C-13.66 30 -14.32 30 -15 30 Z " fill="#F1F1F1" transform="translate(89,97)"/>
<path d="M0 0 C1.22807436 1.39403036 2.4462998 2.80029975 3.57348633 4.27709961 C5.12283112 6.14835174 6.78062132 7.62513995 8.63671875 9.19140625 C13.11246243 13.05123126 17.32016719 17.1365374 21.5 21.3125 C22.22703125 22.02728516 22.9540625 22.74207031 23.703125 23.47851562 C24.38890625 24.16236328 25.0746875 24.84621094 25.78125 25.55078125 C26.40064453 26.16606689 27.02003906 26.78135254 27.65820312 27.4152832 C29 29 29 29 29 31 C25.04 30.67 21.08 30.34 17 30 C17 29.34 17 28.68 17 28 C16.01 27.67 15.02 27.34 14 27 C12.3515625 25.29296875 12.3515625 25.29296875 10.625 23.1875 C7.960665 20.03619621 5.24203473 17.5595011 2 15 C0.81552946 13.55942773 -0.36801435 12.11792913 -1.53125 10.66015625 C-4.37384936 7.44711177 -7.71880309 4.7519716 -11 2 C-7.67077114 -1.32922886 -4.38947192 -1.60590436 0 0 Z " fill="#F2F2F2" transform="translate(117,48)"/>
<path d="M0 0 C2.95779985 1.32622764 4.97216904 2.74727487 7.20458984 5.08862305 C7.80556488 5.71234299 8.40653992 6.33606293 9.02572632 6.97868347 C9.66434601 7.64958511 10.3029657 8.32048676 10.9609375 9.01171875 C12.33258419 10.4232544 13.70500381 11.83403931 15.078125 13.24414062 C17.23448317 15.46868501 19.38498206 17.69797345 21.52246094 19.94067383 C23.59038396 22.10524875 25.6796654 24.24717813 27.7734375 26.38671875 C28.40800873 27.06369308 29.04257996 27.74066742 29.69638062 28.43815613 C33.31807148 32.21924391 33.31807148 32.21924391 38.32666016 33.10083008 C41.28837512 32.17211634 41.28837512 32.17211634 43 29 C43.66 29 44.32 29 45 29 C44.875 30.8125 44.875 30.8125 44 33 C39.52447333 35.7762983 36.15954413 36.36364623 30.9375 36.25 C29.75027344 36.23453125 28.56304687 36.2190625 27.33984375 36.203125 C24.4372257 36.0265915 21.8361808 35.58915833 19 35 C11.80124588 34.38669832 6.26323196 34.6542633 -0.0625 38.3203125 C-0.701875 38.54460937 -1.34125 38.76890625 -2 39 C-3.32 38.34 -4.64 37.68 -6 37 C-5.34 34.03 -4.68 31.06 -4 28 C-6.64 29.98 -9.28 31.96 -12 34 C-10.20212638 30.40425275 -9.12367819 28.4096946 -6 26 C-3.25 26.25 -3.25 26.25 -1 27 C-1.48578543 30.12290635 -1.9986012 32.99580359 -3 36 C-2.29875 35.72285156 -1.5975 35.44570312 -0.875 35.16015625 C0.548125 34.61681641 0.548125 34.61681641 2 34.0625 C3.3921875 33.52302734 3.3921875 33.52302734 4.8125 32.97265625 C8.57423226 31.82477471 12.09053524 31.4002146 16 31 C15.45472656 30.4652002 14.90945312 29.93040039 14.34765625 29.37939453 C11.89327746 26.96644649 9.44657444 24.54585969 7 22.125 C5.71222656 20.86236328 5.71222656 20.86236328 4.3984375 19.57421875 C3.58632812 18.76855469 2.77421875 17.96289062 1.9375 17.1328125 C1.18339844 16.38918457 0.42929688 15.64555664 -0.34765625 14.87939453 C-2 13 -2 13 -2 11 C1.86828312 12.51968265 3.43842183 14.79802729 6 18 C7.31499451 19.18729876 8.65007899 20.35256714 10 21.5 C13.06592157 24.11002246 15.54766168 26.79309605 18 30 C18.66 30.33 19.32 30.66 20 31 C20 31.66 20 32.32 20 33 C23.96 33.33 27.92 33.66 32 34 C24.78162727 25.49836101 17.10084262 17.44507345 8.4921875 10.33984375 C6.90516531 8.91484739 5.59217889 7.40588343 4.25 5.75 C2.11220714 2.86340001 2.11220714 2.86340001 -1 1 C-0.67 0.67 -0.34 0.34 0 0 Z " fill="#656565" transform="translate(114,45)"/>
<path d="M0 0 C0.99 0.33 1.98 0.66 3 1 C4.04976964 4.14930893 4.10131595 6.38814456 4.0625 9.6875 C4.05347656 10.68136719 4.04445313 11.67523438 4.03515625 12.69921875 C4.02355469 13.45847656 4.01195313 14.21773437 4 15 C5.98 15 7.96 15 10 15 C10.33 11.37 10.66 7.74 11 4 C11.33 4 11.66 4 12 4 C12.08086147 5.79093191 12.13912702 7.58289628 12.1875 9.375 C12.23970703 10.87160156 12.23970703 10.87160156 12.29296875 12.3984375 C12.19628906 13.25695312 12.09960938 14.11546875 12 15 C9 17 9 17 5.9375 16.75 C3 16 3 16 1 14 C0.59952556 11.67724823 0.2602896 9.34260643 0 7 C-0.268125 8.27875 -0.53625 9.5575 -0.8125 10.875 C-1.57190099 14.49675855 -1.70077803 14.80051868 -5 17 C-8.5625 16.875 -8.5625 16.875 -12 16 C-13.5 14.3125 -13.5 14.3125 -14 12 C-13.8125 8.875 -13.8125 8.875 -13 6 C-9.83759418 3.89172945 -8.49342531 3.66182535 -4.8125 3.375 C-3.46091797 3.26285156 -3.46091797 3.26285156 -2.08203125 3.1484375 C-1.39496094 3.09945312 -0.70789063 3.05046875 0 3 C0 2.01 0 1.02 0 0 Z " fill="#AAAAAA" transform="translate(76,96)"/>
<path d="M0 0 C1.48046875 1.50390625 1.48046875 1.50390625 3.1875 3.5625 C6.60201725 7.58675247 10.21845349 11.32190005 14 15 C11 15 11 15 8.08203125 12.375 C6.98449244 11.25750594 5.89492105 10.13214357 4.8125 9 C4.25369141 8.42765625 3.69488281 7.8553125 3.11914062 7.265625 C1.73926907 5.85037212 0.36873266 4.42602845 -1 3 C-6.96282082 7.91055833 -12.42640855 13.27277096 -17.87255859 18.7421875 C-19.3891595 20.26421012 -20.91111323 21.78073612 -22.43359375 23.296875 C-23.40136298 24.26530401 -24.36882253 25.23404262 -25.3359375 26.203125 C-26.20782715 27.07614258 -27.0797168 27.94916016 -27.97802734 28.84863281 C-30.03516993 30.83144315 -30.03516993 30.83144315 -31 33 C-25.39 33.33 -19.78 33.66 -14 34 C-16 36 -16 36 -19.8125 36.1875 C-22.04814579 36.16587867 -24.00766209 35.99825179 -26.19140625 35.5 C-30.17378542 34.79103681 -34.08803117 34.81573994 -38.125 34.8125 C-39.34123047 34.79413086 -39.34123047 34.79413086 -40.58203125 34.77539062 C-41.36191406 34.77345703 -42.14179687 34.77152344 -42.9453125 34.76953125 C-43.65187988 34.76542236 -44.35844727 34.76131348 -45.08642578 34.75708008 C-47.32864629 34.89734773 -47.32864629 34.89734773 -50 37 C-50.99 36.67 -51.98 36.34 -53 36 C-48.35996916 32.65486148 -45.94150904 31.94022604 -40.2421875 32.34375 C-29.70954895 31.67692166 -23.52908138 22.70647608 -16.8125 15.4375 C-14.71609623 13.22629717 -12.61121402 11.02355596 -10.50260925 8.82398987 C-9.19916303 7.45822117 -7.90449809 6.08400757 -6.61958313 4.70079041 C-6.04105087 4.08337479 -5.46251862 3.46595917 -4.86645508 2.82983398 C-4.35939529 2.28213852 -3.85233551 1.73444305 -3.32991028 1.17015076 C-2 0 -2 0 0 0 Z " fill="#4A4A4A" transform="translate(98,40)"/>
<path d="M0 0 C0.99 0.33 1.98 0.66 3 1 C2 5 1 9 0 13 C0.66 13 1.32 13 2 13 C2.226875 12.13375 2.45375 11.2675 2.6875 10.375 C4.24025095 6.38221186 6.14319895 4.15751695 9 1 C10.65 1.33 12.3 1.66 14 2 C14.21278058 6.46839215 13.59138085 9.82262526 12 14 C12.66 13.67 13.32 13.34 14 13 C12.87548273 15.9719385 11.77706209 18.33440687 10 21 C9.01 20.67 8.02 20.34 7 20 C6.62148791 14.06997733 7.89424625 9.52760359 10 4 C8.38932509 5.61067491 7.25982156 7.54473925 6 9.4375 C5.46375 10.24058594 4.9275 11.04367188 4.375 11.87109375 C2.98670263 13.935262 2.98670263 13.935262 2 16 C0.68 16 -0.64 16 -2 16 C-2 13.36 -2 10.72 -2 8 C-2.66 7.67 -3.32 7.34 -4 7 C-2.68 4.69 -1.36 2.38 0 0 Z " fill="#5B5A59" transform="translate(88,66)"/>
<path d="M0 0 C0.99 0 1.98 0 3 0 C3 0.99 3 1.98 3 3 C3.66 3 4.32 3 5 3 C5 2.34 5 1.68 5 1 C5.66 1 6.32 1 7 1 C7.33 1.99 7.66 2.98 8 4 C8.99 3.34 9.98 2.68 11 2 C11.28875 2.804375 11.5775 3.60875 11.875 4.4375 C12.73262568 7.1326468 12.73262568 7.1326468 15 8 C15 8.66 15 9.32 15 10 C14.01 10.33 13.02 10.66 12 11 C12.33 11.66 12.66 12.32 13 13 C8.38 13 3.76 13 -1 13 C-2 9 -2 9 -2 6 C-1.34 6 -0.68 6 0 6 C0 4.02 0 2.04 0 0 Z M2 7 C2.33 7.66 2.66 8.32 3 9 C3.33 8.34 3.66 7.68 4 7 C3.34 7 2.68 7 2 7 Z M0 9 C0.33 9.66 0.66 10.32 1 11 C1.33 10.34 1.66 9.68 2 9 C1.34 9 0.68 9 0 9 Z " fill="#FBFBFB" transform="translate(74,118)"/>
<path d="M0 0 C3.46452032 1.59900938 4.71030148 1.67989951 8.25 0.5 C7.58501617 4.88889325 6.06242323 8.4811485 4.25 12.5 C3.26 12.17 2.27 11.84 1.25 11.5 C0.30078125 9.43359375 0.30078125 9.43359375 -0.4375 6.9375 C-0.68886719 6.11121094 -0.94023438 5.28492187 -1.19921875 4.43359375 C-1.38097656 3.79550781 -1.56273438 3.15742187 -1.75 2.5 C-3.4 2.5 -5.05 2.5 -6.75 2.5 C-6.75 6.13 -6.75 9.76 -6.75 13.5 C-7.41 13.5 -8.07 13.5 -8.75 13.5 C-8.75 9.54 -8.75 5.58 -8.75 1.5 C-10.07 1.5 -11.39 1.5 -12.75 1.5 C-12.75 0.84 -12.75 0.18 -12.75 -0.5 C-4.28901044 -2.09243114 -4.28901044 -2.09243114 0 0 Z " fill="#A7A7A7" transform="translate(117.75,99.5)"/>
<path d="M0 0 C2.97 0 5.94 0 9 0 C9.66 2.97 10.32 5.94 11 9 C11.66 9 12.32 9 13 9 C13.144375 8.236875 13.28875 7.47375 13.4375 6.6875 C14 4 14 4 15 1 C15.66 1 16.32 1 17 1 C17.99 3.31 18.98 5.62 20 8 C20.99 5.36 21.98 2.72 23 0 C23.66 0 24.32 0 25 0 C24.33501617 4.38889325 22.81242323 7.9811485 21 12 C20.34 12 19.68 12 19 12 C18.01 9.69 17.02 7.38 16 5 C15.01 7.31 14.02 9.62 13 12 C12.01 11.67 11.02 11.34 10 11 C9.05078125 8.71484375 9.05078125 8.71484375 8.3125 5.9375 C7.93544922 4.55884766 7.93544922 4.55884766 7.55078125 3.15234375 C7.36902344 2.44207031 7.18726563 1.73179688 7 1 C5.35 1.33 3.7 1.66 2 2 C1.67 4.97 1.34 7.94 1 11 C2.65 11 4.3 11 6 11 C6 11.66 6 12.32 6 13 C4.02 13 2.04 13 0 13 C0 8.71 0 4.42 0 0 Z " fill="#696969" transform="translate(134,100)"/>
<path d="M0 0 C1.2065625 0.0309375 1.2065625 0.0309375 2.4375 0.0625 C5.48876119 5.31066924 5.48876119 5.31066924 5.25 8.8125 C4.4375 11.0625 4.4375 11.0625 2.4375 13.0625 C-1.1875 13.1875 -1.1875 13.1875 -4.5625 13.0625 C-4.5625 12.7325 -4.5625 12.4025 -4.5625 12.0625 C-2.5825 12.0625 -0.6025 12.0625 1.4375 12.0625 C1.4375 11.4025 1.4375 10.7425 1.4375 10.0625 C-0.2125 10.0625 -1.8625 10.0625 -3.5625 10.0625 C-3.58939216 8.58343108 -3.60884621 7.10422517 -3.625 5.625 C-3.63660156 4.80128906 -3.64820313 3.97757812 -3.66015625 3.12890625 C-3.51340586 0.02366796 -3.12550237 0.07623177 0 0 Z " fill="#F2F2F2" transform="translate(138.5625,100.9375)"/>
<path d="M0 0 C1.65 0 3.3 0 5 0 C5.26554687 0.63808594 5.53109375 1.27617188 5.8046875 1.93359375 C6.15789062 2.75988281 6.51109375 3.58617188 6.875 4.4375 C7.39707031 5.67306641 7.39707031 5.67306641 7.9296875 6.93359375 C8.8244937 9.15746715 8.8244937 9.15746715 11 10 C11 10.66 11 11.32 11 12 C9.35 11.67 7.7 11.34 6 11 C5.67 11.99 5.34 12.98 5 14 C4.01 12.68 3.02 11.36 2 10 C1.01 10.495 1.01 10.495 0 11 C0 7.37 0 3.74 0 0 Z " fill="#F3F3F3" transform="translate(111,102)"/>
<path d="M0 0 C0.66 0 1.32 0 2 0 C2.21278058 4.46839215 1.59138085 7.82262526 0 12 C0.66 11.67 1.32 11.34 2 11 C0.87548273 13.9719385 -0.22293791 16.33440687 -2 19 C-2.99 18.67 -3.98 18.34 -5 18 C-5.37851209 12.06997733 -4.10575375 7.52760359 -2 2 C-1.34 2 -0.68 2 0 2 C0 1.34 0 0.68 0 0 Z " fill="#272727" transform="translate(100,68)"/>
<path d="M0 0 C0.66 0 1.32 0 2 0 C3.32 2.64 4.64 5.28 6 8 C7.32 5.36 8.64 2.72 10 0 C10.66 0 11.32 0 12 0 C12.98248524 4.0527516 13.08159574 7.83861737 13 12 C12.34 12 11.68 12 11 12 C10.34 10.35 9.68 8.7 9 7 C7.515 9.475 7.515 9.475 6 12 C4.49440461 10.03617993 3.10868317 8.21736634 2 6 C1.34 7.98 0.68 9.96 0 12 C-0.33 12 -0.66 12 -1 12 C-0.67 8.04 -0.34 4.08 0 0 Z " fill="#5C5C5C" transform="translate(47,100)"/>
<path d="M0 0 C0.66 0.33 1.32 0.66 2 1 C1.67 1.66 1.34 2.32 1 3 C6.61 3.33 12.22 3.66 18 4 C16 6 16 6 12.1875 6.1875 C9.95185421 6.16587867 7.99233791 5.99825179 5.80859375 5.5 C1.82621458 4.79103681 -2.08803117 4.81573994 -6.125 4.8125 C-6.93582031 4.80025391 -7.74664062 4.78800781 -8.58203125 4.77539062 C-9.36191406 4.77345703 -10.14179687 4.77152344 -10.9453125 4.76953125 C-11.65187988 4.76542236 -12.35844727 4.76131348 -13.08642578 4.75708008 C-15.32864629 4.89734773 -15.32864629 4.89734773 -18 7 C-18.99 6.67 -19.98 6.34 -21 6 C-15.34031557 1.91976239 -10.61430674 1.45159537 -3.6953125 1.17578125 C-1.08311783 1.30298113 -1.08311783 1.30298113 0 0 Z " fill="#585757" transform="translate(66,70)"/>
<path d="M0 0 C6.72 0.72 6.72 0.72 8 2 C8.1875 4.4375 8.1875 4.4375 8 7 C7.34 7.66 6.68 8.32 6 9 C2.375 8.625 2.375 8.625 -1 8 C-1.04241723 5.66705225 -1.04092937 3.33297433 -1 1 C-0.67 0.67 -0.34 0.34 0 0 Z " fill="#F4F4F4" transform="translate(65,102)"/>
<path d="M0 0 C1.98 0 3.96 0 6 0 C6 4.29 6 8.58 6 13 C5.34 12.34 4.68 11.68 4 11 C2.02 11.99 2.02 11.99 0 13 C0 8.71 0 4.42 0 0 Z " fill="#CDCDCD" transform="translate(128,100)"/>
<path d="M0 0 C3.4375 0.8125 3.4375 0.8125 5.4375 3.8125 C5.25 7.375 5.25 7.375 4.4375 10.8125 C1.4375 12.8125 1.4375 12.8125 -2.125 12.6875 C-5.5625 11.8125 -5.5625 11.8125 -7.0625 10.125 C-7.73100561 7.03316157 -7.42013141 4.84719577 -6.5625 1.8125 C-3.5625 -0.1875 -3.5625 -0.1875 0 0 Z M-5.5625 2.8125 C-5.60342937 5.14547433 -5.60491723 7.47955225 -5.5625 9.8125 C-2.15929066 10.48923447 -2.15929066 10.48923447 1.4375 10.8125 C3.67595015 8.98334359 3.67595015 8.98334359 3.75 6.3125 C3.646875 5.4875 3.54375 4.6625 3.4375 3.8125 C0.80178024 2.05535349 -2.83930928 0.08930928 -5.5625 2.8125 Z " fill="#828282" transform="translate(69.5625,100.1875)"/>
<path d="M0 0 C0.66 0.33 1.32 0.66 2 1 C1.79503906 1.58007812 1.59007813 2.16015625 1.37890625 2.7578125 C-0.14009813 7.1621984 -1.4047151 11.35677777 -2 16 C-3.75 16.75 -3.75 16.75 -6 17 C-8.25 15.0625 -8.25 15.0625 -10 13 C-9.01 13 -8.02 13 -7 13 C-6.6596875 12.01 -6.6596875 12.01 -6.3125 11 C-4.59428642 7.07265467 -2.33225393 3.58739822 0 0 Z " fill="#F3F3F3" transform="translate(97,69)"/>
<path d="M0 0 C1.43859375 -0.02126953 1.43859375 -0.02126953 2.90625 -0.04296875 C5.5 0.1875 5.5 0.1875 8.5 2.1875 C6.52 3.1775 6.52 3.1775 4.5 4.1875 C4.5 4.8475 4.5 5.5075 4.5 6.1875 C3.84 6.1875 3.18 6.1875 2.5 6.1875 C2.5 5.5275 2.5 4.8675 2.5 4.1875 C1.96375 4.538125 1.4275 4.88875 0.875 5.25 C-2.23274763 6.47674249 -4.29431703 5.91606431 -7.5 5.1875 C-7.83 3.8675 -8.16 2.5475 -8.5 1.1875 C-5.43301363 0.16517121 -3.21335122 0.0215951 0 0 Z " fill="#B4B4B4" transform="translate(82.5,129.8125)"/>
<path d="M0 0 C0 0.66 0 1.32 0 2 C0.99 2 1.98 2 3 2 C3 1.34 3 0.68 3 0 C6.75 -1.125 6.75 -1.125 9 0 C9 1.65 9 3.3 9 5 C3.87739023 5 -0.94471587 4.91914257 -6 4 C-6.33 2.68 -6.66 1.36 -7 0 C-4.3333581 -1.33332095 -2.83319697 -0.67102033 0 0 Z " fill="#A9A9A9" transform="translate(102,131)"/>
<path d="M0 0 C0.66 0.99 1.32 1.98 2 3 C1.071875 3.12375 1.071875 3.12375 0.125 3.25 C-2.53489979 3.91214206 -2.53489979 3.91214206 -4 8 C-6.31 6.02 -8.62 4.04 -11 2 C-7.61039123 -1.38960877 -4.49598055 -1.41978333 0 0 Z " fill="#E8E8E8" transform="translate(117,48)"/>
<path d="M0 0 C0.7425 0.2475 1.485 0.495 2.25 0.75 C1.71274105 4.12705625 1.13935377 7.446686 0.25 10.75 C0.91 11.08 1.57 11.41 2.25 11.75 C0.93 11.75 -0.39 11.75 -1.75 11.75 C-3.21726798 7.93510326 -2.18336419 5.45988378 -0.75 1.75 C-3.39 3.73 -6.03 5.71 -8.75 7.75 C-4.66304348 -0.42391304 -4.66304348 -0.42391304 0 0 Z " fill="#585858" transform="translate(110.75,71.25)"/>
<path d="M0 0 C0.99 0.66 1.98 1.32 3 2 C3.29296875 4.3828125 3.29296875 4.3828125 3.1875 7.125 C3.16042969 8.03507812 3.13335937 8.94515625 3.10546875 9.8828125 C3.07066406 10.58148438 3.03585938 11.28015625 3 12 C-0.74287627 14.13181214 -2.78984129 13.95685425 -7 13 C-5 12 -3 11 -1 10 C-0.53248212 7.64400765 -0.53248212 7.64400765 -0.375 4.9375 C-0.26285156 3.55884766 -0.26285156 3.55884766 -0.1484375 2.15234375 C-0.09945312 1.44207031 -0.05046875 0.73179688 0 0 Z " fill="#F3F3F3" transform="translate(88,101)"/>
<path d="M0 0 C0.33 0 0.66 0 1 0 C1 3.96 1 7.92 1 12 C-3.05117476 9.97441262 -4.32328111 8.47973456 -7 5 C-7.66 4.67 -8.32 4.34 -9 4 C-9 6.64 -9 9.28 -9 12 C-9.33 12 -9.66 12 -10 12 C-10 8.37 -10 4.74 -10 1 C-5.46213776 3.26893112 -4.05321843 5.09866534 -1 9 C-0.67 6.03 -0.34 3.06 0 0 Z " fill="#545454" transform="translate(102,100)"/>
<path d="M0 0 C0.33 0 0.66 0 1 0 C1.0270043 1.45823212 1.04639787 2.91660675 1.0625 4.375 C1.07410156 5.18710938 1.08570312 5.99921875 1.09765625 6.8359375 C1 9 1 9 0 11 C-1.98 11 -3.96 11 -6 11 C-5.34 8.36 -4.68 5.72 -4 3 C-2.68 3 -1.36 3 0 3 C0 2.01 0 1.02 0 0 Z " fill="#ECECEC" transform="translate(86,100)"/>
<path d="M0 0 C0.66 0 1.32 0 2 0 C1.33501617 4.38889325 -0.18757677 7.9811485 -2 12 C-2.66 12 -3.32 12 -4 12 C-4.99 9.69 -5.98 7.38 -7 5 C-7.99 6.32 -8.98 7.64 -10 9 C-9.47731534 6.23723823 -8.89130413 3.6739124 -8 1 C-7.34 1 -6.68 1 -6 1 C-5.01 3.31 -4.02 5.62 -3 8 C-2.01 5.36 -1.02 2.72 0 0 Z " fill="#606060" transform="translate(157,100)"/>
<path d="M0 0 C6.6 0 13.2 0 20 0 C20 0.99 20 1.98 20 3 C13.4 2.67 6.8 2.34 0 2 C0 1.34 0 0.68 0 0 Z " fill="#CCCCCC" transform="translate(126,121)"/>
<path d="M0 0 C0.33 1.32 0.66 2.64 1 4 C1.66 4 2.32 4 3 4 C2.67 6.64 2.34 9.28 2 12 C2.66 12 3.32 12 4 12 C3.67 12.99 3.34 13.98 3 15 C2.01 15.33 1.02 15.66 0 16 C-0.66 14.35 -1.32 12.7 -2 11 C-1.34 10.34 -0.68 9.68 0 9 C0.24253813 6.78927023 0.24253813 6.78927023 0.125 4.375 C0.10695313 3.55773437 0.08890625 2.74046875 0.0703125 1.8984375 C0.04710938 1.27195312 0.02390625 0.64546875 0 0 Z " fill="#969696" transform="translate(117,119)"/>
<path d="M0 0 C0.99 1.32 1.98 2.64 3 4 C3.99 3.67 4.98 3.34 6 3 C4.87548273 5.9719385 3.77706209 8.33440687 2 11 C1.01 10.67 0.02 10.34 -1 10 C-1.125 3.375 -1.125 3.375 0 0 Z " fill="#3F3F3F" transform="translate(96,76)"/>
<path d="M0 0 C0.99 0 1.98 0 3 0 C3 0.99 3 1.98 3 3 C3.66 3 4.32 3 5 3 C5.33 2.34 5.66 1.68 6 1 C6 2.65 6 4.3 6 6 C5.67 5.34 5.34 4.68 5 4 C4.01 4 3.02 4 2 4 C2 5.65 2 7.3 2 9 C1.34 9 0.68 9 0 9 C-0.33 9.66 -0.66 10.32 -1 11 C-1.33 9.35 -1.66 7.7 -2 6 C-1.34 6 -0.68 6 0 6 C0 4.02 0 2.04 0 0 Z " fill="#BABABA" transform="translate(74,118)"/>
<path d="M0 0 C1.32 0.99 2.64 1.98 4 3 C3.21718695 4.33855056 2.42348123 5.67073644 1.625 7 C1.18414062 7.7425 0.74328125 8.485 0.2890625 9.25 C-0.13632813 9.8275 -0.56171875 10.405 -1 11 C-1.66 11 -2.32 11 -3 11 C-2.25 3.375 -2.25 3.375 0 0 Z " fill="#E5E4E2" transform="translate(91,68)"/>
<path d="M0 0 C1.65 1.65 3.3 3.3 5 5 C4.67 5.99 4.34 6.98 4 8 C2.35 7.67 0.7 7.34 -1 7 C-1 3 -1 3 0 0 Z " fill="#F9F9F9" transform="translate(130,65)"/>
<path d="M0 0 C4.75 -0.125 4.75 -0.125 7 1 C6.39816251 3.02045442 5.72693904 5.02111039 5 7 C4.01 7.495 4.01 7.495 3 8 C2.01 5.36 1.02 2.72 0 0 Z " fill="#ECECEC" transform="translate(49,101)"/>
<path d="M0 0 C1.43557351 1.83701048 2.46484041 3.45702235 3.28515625 5.64453125 C2.95515625 6.63453125 2.62515625 7.62453125 2.28515625 8.64453125 C1.62515625 6.66453125 0.96515625 4.68453125 0.28515625 2.64453125 C-1.36484375 2.64453125 -3.01484375 2.64453125 -4.71484375 2.64453125 C-4.71484375 2.31453125 -4.71484375 1.98453125 -4.71484375 1.64453125 C-7.68484375 1.14953125 -7.68484375 1.14953125 -10.71484375 0.64453125 C-10.71484375 0.31453125 -10.71484375 -0.01546875 -10.71484375 -0.35546875 C-9.28074007 -0.6050088 -7.84224303 -0.82939517 -6.40234375 -1.04296875 C-5.60183594 -1.17058594 -4.80132812 -1.29820313 -3.9765625 -1.4296875 C-1.71484375 -1.35546875 -1.71484375 -1.35546875 0 0 Z " fill="#A3A3A3" transform="translate(115.71484375,99.35546875)"/>
<path d="M0 0 C0.66 0 1.32 0 2 0 C2.98248524 4.0527516 3.08159574 7.83861737 3 12 C2.34 12 1.68 12 1 12 C-0.47075246 7.58774263 -1.36884358 4.51718381 0 0 Z " fill="#A4A4A4" transform="translate(57,100)"/>
<path d="M0 0 C2.62187494 1.04874998 3.79371361 1.64931313 5.25 4.125 C5.4975 4.74375 5.745 5.3625 6 6 C4.02 6 2.04 6 0 6 C0.66 5.34 1.32 4.68 2 4 C0.35 3.67 -1.3 3.34 -3 3 C-2.67 2.34 -2.34 1.68 -2 1 C-1.34 1.33 -0.68 1.66 0 2 C0 1.34 0 0.68 0 0 Z " fill="#E4E4E4" transform="translate(140,73)"/>
<path d="M0 0 C0.99 1.32 1.98 2.64 3 4 C2.34 5.32 1.68 6.64 1 8 C-0.98 7.34 -2.96 6.68 -5 6 C-4.67 5.01 -4.34 4.02 -4 3 C-3.01 3 -2.02 3 -1 3 C-0.67 2.01 -0.34 1.02 0 0 Z " fill="#E7E7E7" transform="translate(80,119)"/>
<path d="M0 0 C0 1.65 0 3.3 0 5 C-2.375 5.625 -2.375 5.625 -5 6 C-5.66 5.34 -6.32 4.68 -7 4 C-3.17391304 0 -3.17391304 0 0 0 Z " fill="#E3E2E0" transform="translate(86,74)"/>
<path d="M0 0 C1.98 0.495 1.98 0.495 4 1 C4.625 3.375 4.625 3.375 5 6 C4.34 6.66 3.68 7.32 3 8 C0.9375 6.25 0.9375 6.25 -1 4 C-0.75 1.75 -0.75 1.75 0 0 Z " fill="#F1F1F1" transform="translate(115,40)"/>
<path d="M0 0 C1.89213369 2.38573379 3.02391783 4.07175348 4 7 C3.01 7 2.02 7 1 7 C0.67 7.66 0.34 8.32 0 9 C-0.99 9 -1.98 9 -3 9 C-2 6 -1 3 0 0 Z " fill="#E0E0E0" transform="translate(48,104)"/>
<path d="M0 0 C0 3.3 0 6.6 0 10 C-2 8.1875 -2 8.1875 -4 6 C-4 3 -4 3 -2.5625 1.3125 C-1 0 -1 0 0 0 Z " fill="#E4E4E4" transform="translate(102,100)"/>
<path d="M0 0 C0.66 0 1.32 0 2 0 C2 2.31 2 4.62 2 7 C2.66 7.33 3.32 7.66 4 8 C2.68 8 1.36 8 0 8 C-0.98120464 4.94736336 -0.98120464 3.05263664 0 0 Z " fill="#303030" transform="translate(109,75)"/>
<path d="M0 0 C0.99 0.66 1.98 1.32 3 2 C2.34 2 1.68 2 1 2 C0.79375 2.639375 0.5875 3.27875 0.375 3.9375 C-1 6 -1 6 -4.125 6.75 C-5.548125 6.87375 -5.548125 6.87375 -7 7 C-6.34 6.38125 -5.68 5.7625 -5 5.125 C-2.7715451 3.24362573 -2.7715451 3.24362573 -3 1 C-2.01 0.67 -1.02 0.34 0 0 Z " fill="#E6E6E6" transform="translate(156,72)"/>
<path d="M0 0 C0 0.99 0 1.98 0 3 C-1.8125 3.625 -1.8125 3.625 -4 4 C-4.99 3.34 -5.98 2.68 -7 2 C-7 1.34 -7 0.68 -7 0 C-4.3333581 -1.33332095 -2.83319697 -0.67102033 0 0 Z " fill="#F5F5F5" transform="translate(56,75)"/>
<path d="M0 0 C1.65 0.33 3.3 0.66 5 1 C4.67 2.32 4.34 3.64 4 5 C4 4.01 4 3.02 4 2 C3.01 2 2.02 2 1 2 C1.33 3.32 1.66 4.64 2 6 C1.01 6 0.02 6 -1 6 C-0.67 4.02 -0.34 2.04 0 0 Z " fill="#9B9B9B" transform="translate(86,118)"/>
<path d="M0 0 C0.66 0.33 1.32 0.66 2 1 C0.55746343 4.36591866 -1.33264727 6.51047079 -4 9 C-3.46930939 5.17902761 -2.50298434 2.93828597 0 0 Z " fill="#DEDEDE" transform="translate(103,72)"/>
<path d="M0 0 C0.99 0.66 1.98 1.32 3 2 C-0.465 4.97 -0.465 4.97 -4 8 C-3.40138258 5.64828869 -2.73075648 3.3140622 -2 1 C-1.34 0.67 -0.68 0.34 0 0 Z " fill="#E3E3E3" transform="translate(76,56)"/>
<path d="M0 0 C2.125 0.9375 2.125 0.9375 4 2 C3.67 2.99 3.34 3.98 3 5 C1.68 5 0.36 5 -1 5 C-1.33 3.68 -1.66 2.36 -2 1 C-1.34 0.67 -0.68 0.34 0 0 Z " fill="#6D6D6D" transform="translate(97,130)"/>
<path d="M0 0 C0 1.32 0 2.64 0 4 C-1.65 4 -3.3 4 -5 4 C-5.33 2.68 -5.66 1.36 -6 0 C-3 -1 -3 -1 0 0 Z " fill="#717171" transform="translate(80,131)"/>
<path d="M0 0 C0.66 0.33 1.32 0.66 2 1 C2 1.66 2 2.32 2 3 C3.65 3 5.3 3 7 3 C7.33 3.66 7.66 4.32 8 5 C5.03 5 2.06 5 -1 5 C-0.67 3.35 -0.34 1.7 0 0 Z " fill="#F3F3F3" transform="translate(135,73)"/>
<path d="M0 0 C2.0625 0.4375 2.0625 0.4375 4 1 C3.01 1 2.02 1 1 1 C1 1.66 1 2.32 1 3 C1.66 3 2.32 3 3 3 C3 3.99 3 4.98 3 6 C1.68 6 0.36 6 -1 6 C-1.042721 4.33388095 -1.04063832 2.66617115 -1 1 C-0.67 0.67 -0.34 0.34 0 0 Z " fill="#BEBEBE" transform="translate(136,101)"/>
<path d="M0 0 C0.99 0 1.98 0 3 0 C2.67 2.31 2.34 4.62 2 7 C1.01 6.67 0.02 6.34 -1 6 C-1.042721 4.33388095 -1.04063832 2.66617115 -1 1 C-0.67 0.67 -0.34 0.34 0 0 Z " fill="#9C9C9C" transform="translate(107,118)"/>
<path d="M0 0 C3.16115776 1.36983503 3.9927092 1.9890638 6 5 C4.68 5 3.36 5 2 5 C1.34 4.34 0.68 3.68 0 3 C0 2.01 0 1.02 0 0 Z " fill="#E7E7E7" transform="translate(132,65)"/>
<path d="M0 0 C0 3 0 3 -1.5 4.6875 C-1.995 5.120625 -2.49 5.55375 -3 6 C-3.99 4.68 -4.98 3.36 -6 2 C-4.02 1.34 -2.04 0.68 0 0 Z " fill="#ABABAB" transform="translate(112,47)"/>
<path d="M0 0 C1.32 1.32 2.64 2.64 4 4 C1.36 4.33 -1.28 4.66 -4 5 C-2.68 3.35 -1.36 1.7 0 0 Z " fill="#F2F2F2" transform="translate(77,126)"/>
<path d="M0 0 C0.5534764 2.07553648 1 3.84365964 1 6 C-0.65 6.33 -2.3 6.66 -4 7 C-2.92598892 4.08482708 -2.22189824 2.22189824 0 0 Z " fill="#E9E9E9" transform="translate(105,76)"/>
<path d="M0 0 C0.99 0.33 1.98 0.66 3 1 C2.39816251 3.02045442 1.72693904 5.02111039 1 7 C0.01 7.495 0.01 7.495 -1 8 C-0.67 5.36 -0.34 2.72 0 0 Z " fill="#0C0C0C" transform="translate(98,73)"/>
<path d="M0 0 C0.66 0 1.32 0 2 0 C1.67 3.3 1.34 6.6 1 10 C0.34 10 -0.32 10 -1 10 C-1 1 -1 1 0 0 Z " fill="#D9D9D9" transform="translate(108,73)"/>
<path d="M0 0 C0.66 0.33 1.32 0.66 2 1 C1.01 3.97 0.02 6.94 -1 10 C-1.66 8.68 -2.32 7.36 -3 6 C-2.1875 3.875 -2.1875 3.875 -1 2 C-0.67 1.34 -0.34 0.68 0 0 Z " fill="#DFDEDD" transform="translate(97,69)"/>
<path d="M0 0 C0.99 0.33 1.98 0.66 3 1 C2.67 2.32 2.34 3.64 2 5 C0.68 5.33 -0.64 5.66 -2 6 C-1.34 4.02 -0.68 2.04 0 0 Z " fill="#3E3D3B" transform="translate(88,66)"/>
<path d="M0 0 C0.99 0.99 1.98 1.98 3 3 C2.67 3.66 2.34 4.32 2 5 C1.34 4.67 0.68 4.34 0 4 C-0.33 4.66 -0.66 5.32 -1 6 C-1 5.01 -1 4.02 -1 3 C-1.66 3 -2.32 3 -3 3 C-3 2.34 -3 1.68 -3 1 C-2.01 0.67 -1.02 0.34 0 0 Z " fill="#ECECEC" transform="translate(140,101)"/>
<path d="M0 0 C0.66 0 1.32 0 2 0 C2 3.3 2 6.6 2 10 C1.67 10 1.34 10 1 10 C1 8.02 1 6.04 1 4 C0.01 3.67 -0.98 3.34 -2 3 C-1.34 2.01 -0.68 1.02 0 0 Z " fill="#EEEEEC" transform="translate(93,75)"/>
<path d="M0 0 C1.32 1.32 2.64 2.64 4 4 C3.34 4 2.68 4 2 4 C1.67 4.66 1.34 5.32 1 6 C0.34 5.34 -0.32 4.68 -1 4 C-1.66 3.67 -2.32 3.34 -3 3 C-2.01 2.01 -1.02 1.02 0 0 Z " fill="#E7E7E7" transform="translate(96,42)"/>
</svg>
