<?xml version="1.0" encoding="UTF-8"?>
<svg version="1.1" xmlns="http://www.w3.org/2000/svg" width="203" height="148">
<path d="M0 0 C66.99 0 133.98 0 203 0 C203 48.84 203 97.68 203 148 C136.01 148 69.02 148 0 148 C0 99.16 0 50.32 0 0 Z " fill="#FEFEFE" transform="translate(0,0)"/>
<path d="M0 0 C8.21079684 5.0361478 15.57683165 11.88710096 18.22265625 21.36328125 C18.40699219 21.99363281 18.59132813 22.62398437 18.78125 23.2734375 C20.77401249 32.70819797 18.99988612 41.10056666 14.22265625 49.36328125 C8.73004809 57.07630547 3.01850138 61.76489848 -6.21875 63.9375 C-15.72994159 65.52027845 -24.31567522 64.09411551 -32.90234375 59.80078125 C-33.52109375 59.32640625 -34.13984375 58.85203125 -34.77734375 58.36328125 C-34.77734375 57.70328125 -34.77734375 57.04328125 -34.77734375 56.36328125 C-35.61265625 56.08484375 -35.61265625 56.08484375 -36.46484375 55.80078125 C-41.77966312 52.49697461 -44.9336101 46.2058096 -46.77734375 40.36328125 C-47.19953732 37.57830298 -47.25554387 34.86417689 -47.21484375 32.05078125 C-47.20582031 31.303125 -47.19679688 30.55546875 -47.1875 29.78515625 C-46.8840748 20.0586929 -43.69142674 13.41949733 -37.00390625 6.34375 C-27.45768454 -2.14736299 -12.0455754 -4.89714144 0 0 Z " fill="#1E364D" transform="translate(115.77734375,27.63671875)"/>
<path d="M0 0 C6.13947012 4.11636853 10.70319972 10.10927024 12.328125 17.39453125 C12.57057767 19.50353737 12.66983632 21.62820703 12.73828125 23.75 C11.76890625 23.79125 10.79953125 23.8325 9.80078125 23.875 C5.39936484 24.47963902 2.50223793 26.73229036 -1.0625 29.25 C-5.88690866 32.54053806 -10.30869783 34.30376939 -16.26171875 33.75 C-16.92171875 33.42 -17.58171875 33.09 -18.26171875 32.75 C-18.62171875 27.35 -18.62171875 27.35 -17.13671875 24.875 C-14.36875756 23.21422329 -12.43081057 23.36194794 -9.26171875 23.75 C-7.94171875 24.74 -6.62171875 25.73 -5.26171875 26.75 C-6.25171875 23.12 -7.24171875 19.49 -8.26171875 15.75 C-17.09407482 13.70223577 -17.09407482 13.70223577 -25.44140625 16.13671875 C-27.45639689 17.94393798 -29.36406484 19.82045275 -31.26171875 21.75 C-35.14341447 25.2819934 -37.83967305 27.04575142 -43.19921875 27.0625 C-44.55507335 26.98327644 -45.91056768 26.88787256 -47.26171875 26.75 C-48.01068333 18.927481 -46.79654149 13.2343727 -42.26171875 6.75 C-30.41617102 -6.77444426 -15.44041608 -8.53356329 0 0 Z " fill="#FAC405" transform="translate(119.26171875,33.25)"/>
<path d="M0 0 C0.99 0.66 1.98 1.32 3 2 C3 2.66 3 3.32 3 4 C1.865625 4.28875 0.73125 4.5775 -0.4375 4.875 C-1.613125 5.24625 -2.78875 5.6175 -4 6 C-4.33 6.66 -4.66 7.32 -5 8 C-5.66 8 -6.32 8 -7 8 C-7 12.29 -7 16.58 -7 21 C-6.34 21 -5.68 21 -5 21 C-4.360625 21.804375 -3.72125 22.60875 -3.0625 23.4375 C-1.18964068 26.23720732 -1.18964068 26.23720732 2 27 C3.40824893 27.08021999 4.81997231 27.10765977 6.23046875 27.09765625 C7.03291016 27.09443359 7.83535156 27.09121094 8.66210938 27.08789062 C9.49548828 27.07951172 10.32886719 27.07113281 11.1875 27.0625 C12.03248047 27.05798828 12.87746094 27.05347656 13.74804688 27.04882812 C15.83206155 27.03705403 17.91603977 27.0191189 20 27 C18.56767675 30.5198582 16.91637039 32.06793624 13.75 34.125 C13.00234375 34.62257812 12.2546875 35.12015625 11.484375 35.6328125 C6.51125007 38.36959509 2.09072267 39.29247678 -3.5625 39.3125 C-4.65691406 39.32925781 -5.75132813 39.34601563 -6.87890625 39.36328125 C-10.37281504 38.95660601 -12.19223066 38.08128357 -15 36 C-19.71665895 29.9357242 -21.55099055 24.21134834 -21.37890625 16.59375 C-20.51589352 10.68611646 -17.32597798 5.88347829 -12.875 2 C-8.19687778 -1.25434589 -5.48912374 -1.07822073 0 0 Z " fill="#28B0F5" transform="translate(106,50)"/>
<path d="M0 0 C0.99 0.33 1.98 0.66 3 1 C3.33 2.32 3.66 3.64 4 5 C6.97 5.33 9.94 5.66 13 6 C13 6.99 13 7.98 13 9 C10.36 9 7.72 9 5 9 C5 10.32 5 11.64 5 13 C6.8871875 13.061875 6.8871875 13.061875 8.8125 13.125 C9.52019531 13.14820312 10.22789063 13.17140625 10.95703125 13.1953125 C13.31359719 13.13254462 13.31359719 13.13254462 16 11 C16.66 11 17.32 11 18 11 C18.33 9.68 18.66 8.36 19 7 C19.99 7 20.98 7 22 7 C22.83739781 9.1234016 23.66980283 11.2487728 24.5 13.375 C24.9640625 14.55835937 25.428125 15.74171875 25.90625 16.9609375 C27 20 27 20 27 22 C26.01 21.67 25.02 21.34 24 21 C24 20.01 24 19.02 24 18 C21.05908413 18.18415432 21.05908413 18.18415432 18 19 C16.69934079 20.93383287 16.69934079 20.93383287 16 23 C15.34 23.33 14.68 23.66 14 24 C15.32 24.33 16.64 24.66 18 25 C18 26.32 18 27.64 18 29 C13.71 29 9.42 29 5 29 C5 28.01 5 27.02 5 26 C6.98 25.67 8.96 25.34 11 25 C11 24.34 11 23.68 11 23 C9.74703125 23.03480469 8.4940625 23.06960937 7.203125 23.10546875 C5.55209676 23.13361128 3.90105399 23.16091094 2.25 23.1875 C1.425 23.21263672 0.6 23.23777344 -0.25 23.26367188 C-3.75803188 23.30610774 -6.3316549 23.30602632 -9.55078125 21.83203125 C-11.53840702 19.31937226 -11.50153093 17.67593425 -11.4375 14.5 C-11.43621094 13.5409375 -11.43492188 12.581875 -11.43359375 11.59375 C-11 9 -11 9 -9.69921875 7.19140625 C-7.05953546 5.34059383 -4.14638519 5.40786475 -1 5 C-0.67 4.34 -0.34 3.68 0 3 C-0.66 2.34 -1.32 1.68 -2 1 C-1.34 0.67 -0.68 0.34 0 0 Z " fill="#E0E2E8" transform="translate(94,94)"/>
<path d="M0 0 C0 0.99 0 1.98 0 3 C-0.94359375 3.31130859 -0.94359375 3.31130859 -1.90625 3.62890625 C-10.43411012 6.69842217 -16.50595551 10.74708903 -20.9375 18.8125 C-23.2170721 23.7923706 -23.87267367 28.55969323 -24 34 C-15.2376824 33.86091559 -10.51952846 30.59941912 -4.453125 24.42578125 C-1.36180086 21.39524157 0.8665591 20.66151925 5.0625 20.5625 C12.11002465 20.98577475 12.11002465 20.98577475 15 23 C17.14115387 26.98697616 18 29.45234548 18 34 C17.2575 33.505 17.2575 33.505 16.5 33 C12.90909106 31.56363642 9.85543873 31.87148538 6 32 C5.67 34.64 5.34 37.28 5 40 C13.41589206 40.97106447 20.59174653 37.44173801 27.19140625 32.2890625 C29 31 29 31 31.6875 31.1875 C34 32 34 32 35 34 C34.32195312 34.21914063 33.64390625 34.43828125 32.9453125 34.6640625 C27.80624257 36.41504754 23.26598512 38.30917699 18.6875 41.25 C14.94882947 43.59629719 12.51608294 44.86020627 8 44 C5.75 43 5.75 43 4 42 C3.34 42 2.68 42 2 42 C1.875 34.25 1.875 34.25 3 32 C3.66 32 4.32 32 5 32 C5.495 30.515 5.495 30.515 6 29 C8.31 28.67 10.62 28.34 13 28 C11.09041619 25.41644543 9.8598675 24.96298387 6.6875 24.125 C2.39680343 23.97955266 0.54972539 24.6335164 -3 27 C-8.70554869 33.03158004 -10.33016539 38.59553201 -10.69140625 46.70703125 C-10.79324219 47.46371094 -10.89507812 48.22039062 -11 49 C-11.99 49.495 -11.99 49.495 -13 50 C-13 45.38 -13 40.76 -13 36 C-13.99 36.495 -13.99 36.495 -15 37 C-16.54023996 37.06950541 -18.08334988 37.08452357 -19.625 37.0625 C-20.85089844 37.04896484 -20.85089844 37.04896484 -22.1015625 37.03515625 C-22.72804688 37.02355469 -23.35453125 37.01195312 -24 37 C-23.80664062 37.58007812 -23.61328125 38.16015625 -23.4140625 38.7578125 C-21.94270833 43.171875 -20.47135417 47.5859375 -19 52 C-19.99 52 -20.98 52 -22 52 C-27.83073155 43.52461522 -28.20068889 34.92502912 -27 25 C-25.19685067 16.39864168 -19.82949447 9.27436599 -12.5859375 4.36328125 C-8.47742743 2.02798807 -4.81999352 0 0 0 Z " fill="#23313E" transform="translate(96,26)"/>
<path d="M0 0 C4.84588458 3.05111251 7.16271337 6.8952748 9.375 12.125 C9.98097837 15.15941408 10.17826057 18.026354 10.375 21.125 C11.035 21.455 11.695 21.785 12.375 22.125 C6.28120324 26.28506585 0.95383108 29.50067482 -6.625 29.125 C-7.285 28.795 -7.945 28.465 -8.625 28.125 C-8.985 22.725 -8.985 22.725 -7.5 20.25 C-4.73203881 18.58922329 -2.79409182 18.73694794 0.375 19.125 C1.695 20.115 3.015 21.105 4.375 22.125 C3.385 18.495 2.395 14.865 1.375 11.125 C-7.53707189 9.05984079 -7.53707189 9.05984079 -15.91015625 11.6171875 C-17.26000809 12.8333157 -18.5728851 14.09238757 -19.8359375 15.3984375 C-21.66352382 17.16217801 -23.31043154 18.11556265 -25.625 19.125 C-25.50990339 17.70749437 -25.38246342 16.29098831 -25.25 14.875 C-25.18039063 14.08609375 -25.11078125 13.2971875 -25.0390625 12.484375 C-24.23983443 7.930283 -22.13767797 5.06805451 -18.625 2.125 C-12.03339551 -1.42432549 -7.1050751 -1.71501813 0 0 Z " fill="#F35D18" transform="translate(109.625,37.875)"/>
<path d="M0 0 C-0.63387978 10.03278689 -0.63387978 10.03278689 -4 14 C-9.74019353 16.88533622 -15.72683995 16.51948377 -22 16 C-25.75 14.6875 -25.75 14.6875 -28 13 C-28.33 12.01 -28.66 11.02 -29 10 C-27.14375 9.7215625 -27.14375 9.7215625 -25.25 9.4375 C-19.72001182 8.24372477 -15.36701159 5.52006792 -10.6015625 2.55859375 C-6.9024148 0.34243769 -4.23966611 -0.11458557 0 0 Z " fill="#5CDDF2" transform="translate(132,60)"/>
<path d="M0 0 C4.65901542 0.62959668 4.65901542 0.62959668 6.40356445 2.5246582 C8.45607997 4.42148513 9.47532452 4.35158884 12.23046875 4.29296875 C13.43413086 4.2784668 13.43413086 4.2784668 14.66210938 4.26367188 C15.91217773 4.2259668 15.91217773 4.2259668 17.1875 4.1875 C18.4549707 4.16719727 18.4549707 4.16719727 19.74804688 4.14648438 C21.83230384 4.11115799 23.91623277 4.05735139 26 4 C23.77495775 9.01684055 20.27018209 11.10337346 15.2109375 13.1015625 C11.79064523 14.05857859 8.9202243 14.26660527 5.375 14.25 C4.26898438 14.25515625 3.16296875 14.2603125 2.0234375 14.265625 C-0.88066911 14.01048385 -2.54484843 13.50901999 -5 12 C-5 9 -5 9 -4 8 C-4 7.34 -4 6.68 -4 6 C-3.01 6 -2.02 6 -1 6 C-0.67 4.02 -0.34 2.04 0 0 Z " fill="#2AB2F6" transform="translate(97,75)"/>
<path d="M0 0 C1.671875 1.1796875 1.671875 1.1796875 3 3 C3.328125 5.59375 3.328125 5.59375 3.25 8.5 C3.23453125 9.4590625 3.2190625 10.418125 3.203125 11.40625 C3 14 3 14 2 17 C4.46278801 18.231394 6.2795055 18.07159196 9 18 C9 18.99 9 19.98 9 21 C9.66 21 10.32 21 11 21 C11 20.34 11 19.68 11 19 C11.99 18.67 12.98 18.34 14 18 C14.66 18.33 15.32 18.66 16 19 C16 19.99 16 20.98 16 22 C13.56242587 22.02698422 11.12515085 22.04683099 8.6875 22.0625 C7.99720703 22.07087891 7.30691406 22.07925781 6.59570312 22.08789062 C3.4516975 22.10307906 1.00579981 22.00193327 -2 21 C-2 20.34 -2 19.68 -2 19 C-2.99 19.33 -3.98 19.66 -5 20 C-4.731875 19.443125 -4.46375 18.88625 -4.1875 18.3125 C-4.125625 17.549375 -4.06375 16.78625 -4 16 C-4.804375 15.2575 -5.60875 14.515 -6.4375 13.75 C-9.09313892 10.90004604 -9.4003913 10.50075685 -9.5 6.875 C-9 3 -9 3 -7.875 1 C-5.10184376 -0.47901666 -3.08815875 -0.38601984 0 0 Z " fill="#D8D8D7" transform="translate(77,101)"/>
<path d="M0 0 C0.99 0 1.98 0 3 0 C3.83739781 2.1234016 4.66980283 4.2487728 5.5 6.375 C5.9640625 7.55835937 6.428125 8.74171875 6.90625 9.9609375 C8 13 8 13 8 15 C7.01 14.67 6.02 14.34 5 14 C5 13.01 5 12.02 5 11 C2.05908413 11.18415432 2.05908413 11.18415432 -1 12 C-2.30065921 13.93383287 -2.30065921 13.93383287 -3 16 C-3.66 16.33 -4.32 16.66 -5 17 C-3.68 17.33 -2.36 17.66 -1 18 C-1 19.32 -1 20.64 -1 22 C-5.29 22 -9.58 22 -14 22 C-14 21.01 -14 20.02 -14 19 C-12.02 18.67 -10.04 18.34 -8 18 C-8 17.34 -8 16.68 -8 16 C-10.64 16 -13.28 16 -16 16 C-16 15.67 -16 15.34 -16 15 C-12.7 15 -9.4 15 -6 15 C-6 14.34 -6 13.68 -6 13 C-8.64 13 -11.28 13 -14 13 C-14 11.35 -14 9.7 -14 8 C-12.865625 7.87625 -11.73125 7.7525 -10.5625 7.625 C-8.7990625 7.315625 -8.7990625 7.315625 -7 7 C-6.67 6.34 -6.34 5.68 -6 5 C-3.4375 4.375 -3.4375 4.375 -1 4 C-0.67 2.68 -0.34 1.36 0 0 Z " fill="#D4D5D6" transform="translate(113,101)"/>
<path d="M0 0 C1.32 0 2.64 0 4 0 C4.33 0.66 4.66 1.32 5 2 C5.99 1.67 6.98 1.34 8 1 C8 2.32 8 3.64 8 5 C9.32 5 10.64 5 12 5 C14.21854707 9.62197306 15.38281159 12.76824163 15 18 C13.96875 18.12375 12.9375 18.2475 11.875 18.375 C8.37883154 18.93889814 5.31602373 19.78682059 2 21 C1.98582031 20.3709375 1.97164063 19.741875 1.95703125 19.09375 C1.62767506 13.18314167 0.53739198 9.40296682 -2.94140625 4.59375 C-4 3 -4 3 -4 1 C-3.34 1 -2.68 1 -2 1 C-2 1.66 -2 2.32 -2 3 C-1.01 3 -0.02 3 1 3 C0.67 2.01 0.34 1.02 0 0 Z " fill="#F1A80E" transform="translate(117,39)"/>
<path d="M0 0 C0.66 0.66 1.32 1.32 2 2 C1 5 1 5 -1 7 C0.65 6.67 2.3 6.34 4 6 C4 7.32 4 8.64 4 10 C4.99 10 5.98 10 7 10 C7.33 7.69 7.66 5.38 8 3 C9.65 2.67 11.3 2.34 13 2 C12.30390625 2.53947266 12.30390625 2.53947266 11.59375 3.08984375 C8.77616095 6.46680709 8.63619684 10.83530618 7.84375 15.06640625 C7 18 7 18 4 20 C1.73828125 20.1953125 1.73828125 20.1953125 -0.6875 20.125 C-1.89986328 20.09792969 -1.89986328 20.09792969 -3.13671875 20.0703125 C-3.75160156 20.04710938 -4.36648437 20.02390625 -5 20 C-5.76258253 12.03524914 -4.07063514 6.83285184 0 0 Z " fill="#F6AA0C" transform="translate(77,40)"/>
<path d="M0 0 C2.31 0.33 4.62 0.66 7 1 C6.01 2.32 5.02 3.64 4 5 C4.66 5.66 5.32 6.32 6 7 C5.01 8.485 5.01 8.485 4 10 C1.67284 10.37400786 -0.66117862 10.70764733 -3 11 C-5.58926331 13.58926331 -5.37398043 15.02705279 -5.625 18.625 C-5.69976562 19.62789062 -5.77453125 20.63078125 -5.8515625 21.6640625 C-5.90054688 22.43492188 -5.94953125 23.20578125 -6 24 C-5.01 24.33 -4.02 24.66 -3 25 C-3.99 25.66 -4.98 26.32 -6 27 C-6.66 26.67 -7.32 26.34 -8 26 C-8.6328125 23.34765625 -8.6328125 23.34765625 -9.125 20.0625 C-9.29257813 18.98097656 -9.46015625 17.89945313 -9.6328125 16.78515625 C-10 14 -10 14 -10 12 C-11.918125 11.9690625 -11.918125 11.9690625 -13.875 11.9375 C-14.59429687 11.92589844 -15.31359375 11.91429688 -16.0546875 11.90234375 C-18.08185404 11.87350758 -18.08185404 11.87350758 -20 13 C-20.66 12.34 -21.32 11.68 -22 11 C-15.375 7.875 -15.375 7.875 -12 9 C-11.34 8.01 -10.68 7.02 -10 6 C-9.34 6 -8.68 6 -8 6 C-7.67 6.33 -7.34 6.66 -7 7 C-4.94603274 6.59070014 -4.94603274 6.59070014 -3 6 C-3 5.01 -3 4.02 -3 3 C-2.34 3 -1.68 3 -1 3 C-0.67 2.01 -0.34 1.02 0 0 Z " fill="#EEF0EF" transform="translate(89,90)"/>
<path d="M0 0 C0.04898438 1.07378906 0.09796875 2.14757812 0.1484375 3.25390625 C0.22353398 4.69012642 0.29907876 6.12632319 0.375 7.5625 C0.4059375 8.26697266 0.436875 8.97144531 0.46875 9.69726562 C0.72952558 14.41295741 1.54658123 18.50385496 3 23 C0.5 21.625 0.5 21.625 -2 20 C-2 19.34 -2 18.68 -2 18 C-2.5775 17.814375 -3.155 17.62875 -3.75 17.4375 C-7.02000654 15.34832915 -8.57849214 12.51636154 -10 9 C-10.57035571 6.29905931 -10.80592179 3.76561448 -11 1 C-9.54182203 0.83197949 -8.0834516 0.66562857 -6.625 0.5 C-5.81289062 0.4071875 -5.00078125 0.314375 -4.1640625 0.21875 C-2 0 -2 0 0 0 Z " fill="#139DC5" transform="translate(83,62)"/>
<path d="M0 0 C4.26539168 2.96858762 6.73827127 5.63620427 8.6328125 10.609375 C7.6428125 10.609375 6.6528125 10.609375 5.6328125 10.609375 C5.6328125 9.289375 5.6328125 7.969375 5.6328125 6.609375 C3.6528125 7.599375 3.6528125 7.599375 1.6328125 8.609375 C1.6328125 7.619375 1.6328125 6.629375 1.6328125 5.609375 C-0.0171875 5.609375 -1.6671875 5.609375 -3.3671875 5.609375 C-3.8621875 4.124375 -3.8621875 4.124375 -4.3671875 2.609375 C-5.9280734 0.29769516 -5.9280734 0.29769516 -8.3671875 -1.390625 C-12.0347088 -1.72480429 -12.0347088 -1.72480429 -15.3671875 -1.390625 C-15.3671875 -2.050625 -15.3671875 -2.710625 -15.3671875 -3.390625 C-19.81999538 -3.56524492 -23.45312812 -3.69301287 -27.3671875 -1.390625 C-27.4909375 -0.75125 -27.6146875 -0.111875 -27.7421875 0.546875 C-27.9484375 1.2275 -28.1546875 1.908125 -28.3671875 2.609375 C-31.8632778 4.42216256 -34.40700505 5.609375 -38.3671875 5.609375 C-38.6971875 6.599375 -39.0271875 7.589375 -39.3671875 8.609375 C-39.3671875 7.949375 -39.3671875 7.289375 -39.3671875 6.609375 C-40.0271875 6.279375 -40.6871875 5.949375 -41.3671875 5.609375 C-29.06742369 -6.62167504 -15.18174017 -8.91864604 0 0 Z " fill="#F2C918" transform="translate(119.3671875,33.390625)"/>
<path d="M0 0 C0.66 0 1.32 0 2 0 C5.07692308 5.29230769 5.07692308 5.29230769 4.6875 8.875 C4.460625 9.57625 4.23375 10.2775 4 11 C6.31 10.34 8.62 9.68 11 9 C6.79130703 13.67480228 0.71542721 16.70906137 -5.5 17.375 C-8 17 -8 17 -10 16 C-10.36 10.6 -10.36 10.6 -8.875 8.125 C-6.10703881 6.46422329 -4.16909182 6.61194794 -1 7 C0.32 7.99 1.64 8.98 3 10 C2.01 6.7 1.02 3.4 0 0 Z " fill="#CB5E31" transform="translate(111,50)"/>
<path d="M0 0 C1.5839665 2.37594974 2.66705431 4.42640288 3.8125 7 C5.67536522 10.69186016 6.98903894 12.5176883 11 14 C14.32750187 14.511137 17.63977525 14.81078346 21 15 C21 15.33 21 15.66 21 16 C18.36 16 15.72 16 13 16 C13 16.66 13 17.32 13 18 C11.10174715 17.57312017 9.20646817 17.13300518 7.3125 16.6875 C6.25675781 16.44386719 5.20101562 16.20023438 4.11328125 15.94921875 C0.99767223 14.99929028 -1.36239168 13.90358003 -4 12 C-4 11.34 -4 10.68 -4 10 C-4.61875 9.7525 -5.2375 9.505 -5.875 9.25 C-8.35068687 7.79371361 -8.95125002 6.62187494 -10 4 C-5.62140745 4.50522222 -3.18348776 7.17827222 0 10 C-0.16757813 9.44570312 -0.33515625 8.89140625 -0.5078125 8.3203125 C-0.71148437 7.59585938 -0.91515625 6.87140625 -1.125 6.125 C-1.33382812 5.40570313 -1.54265625 4.68640625 -1.7578125 3.9453125 C-1.83773437 3.30335937 -1.91765625 2.66140625 -2 2 C-1.34 1.34 -0.68 0.68 0 0 Z " fill="#253B55" transform="translate(85,74)"/>
<path d="M0 0 C-2.5449454 1.69663027 -4.63315847 2.70116735 -7.4375 3.8125 C-11.44895515 5.57441952 -13.64640651 7.19804129 -16 11 C-16.556875 11.86625 -17.11375 12.7325 -17.6875 13.625 C-19.27283714 17.70158122 -19.49793798 21.36278925 -19.69140625 25.70703125 C-19.79324219 26.46371094 -19.89507812 27.22039062 -20 28 C-20.66 28.33 -21.32 28.66 -22 29 C-22 24.38 -22 19.76 -22 15 C-22.99 15.495 -22.99 15.495 -24 16 C-25.875 16.16796875 -25.875 16.16796875 -28 16.1875 C-29.051875 16.20876953 -29.051875 16.20876953 -30.125 16.23046875 C-32 16 -32 16 -34 14 C-33.38253906 13.93683594 -32.76507813 13.87367187 -32.12890625 13.80859375 C-24.06990353 12.64328894 -19.12547946 9.10505629 -13.421875 3.4296875 C-9.16397985 -0.66444246 -5.57278249 -0.55727825 0 0 Z " fill="#162C48" transform="translate(105,47)"/>
<path d="M0 0 C1.85625 -0.00773437 1.85625 -0.00773437 3.75 -0.015625 C7 0.25 7 0.25 10 2.25 C10 2.91 10 3.57 10 4.25 C9.175 3.92 8.35 3.59 7.5 3.25 C0.81662276 1.34046365 -3.21551702 1.61719797 -9.3125 4.75 C-10.13363281 5.2140625 -10.95476562 5.678125 -11.80078125 6.15625 C-14 7.25 -14 7.25 -17 7.25 C-17.33 9.56 -17.66 11.87 -18 14.25 C-18.99 14.25 -19.98 14.25 -21 14.25 C-21.33 13.26 -21.66 12.27 -22 11.25 C-22.99 11.745 -22.99 11.745 -24 12.25 C-24.66 11.92 -25.32 11.59 -26 11.25 C-25.67 10.26 -25.34 9.27 -25 8.25 C-24.65772583 6.91893378 -24.32248257 5.58599921 -24 4.25 C-19.2243953 3.08471083 -14.92618478 2.25 -10 2.25 C-6.32077133 -0.20281911 -4.37740649 -0.01823919 0 0 Z " fill="#FBBA04" transform="translate(102,35.75)"/>
<path d="M0 0 C0.33 0 0.66 0 1 0 C1.02698189 1.62490954 1.04638757 3.24994633 1.0625 4.875 C1.07410156 5.77992187 1.08570312 6.68484375 1.09765625 7.6171875 C1 10 1 10 0 12 C1.0621875 11.98839844 2.124375 11.97679688 3.21875 11.96484375 C17.15671621 11.8594527 17.15671621 11.8594527 24 13 C24 13.66 24 14.32 24 15 C22.02 15.33 20.04 15.66 18 16 C18 16.66 18 17.32 18 18 C16.02 18.33 14.04 18.66 12 19 C12 18.01 12 17.02 12 16 C10.35 16 8.7 16 7 16 C7 16.66 7 17.32 7 18 C6.34 18 5.68 18 5 18 C5 17.01 5 16.02 5 15 C3.6078125 15.3403125 3.6078125 15.3403125 2.1875 15.6875 C-1 16 -1 16 -2.875 14.5625 C-3.431875 13.7890625 -3.431875 13.7890625 -4 13 C-3.34 13 -2.68 13 -2 13 C-1.34 8.71 -0.68 4.42 0 0 Z " fill="#F9F9F9" transform="translate(81,104)"/>
<path d="M0 0 C1.98 0 3.96 0 6 0 C6.33 0.99 6.66 1.98 7 3 C7.66 3.33 8.32 3.66 9 4 C9 6.31 9 8.62 9 11 C6.03 11 3.06 11 0 11 C0 9.68 0 8.36 0 7 C-0.66 7 -1.32 7 -2 7 C-2.33 7.99 -2.66 8.98 -3 10 C-3.33 9.01 -3.66 8.02 -4 7 C-4.66 6.34 -5.32 5.68 -6 5 C-5.38125 4.9175 -4.7625 4.835 -4.125 4.75 C-1.81562433 4.18741541 -1.81562433 4.18741541 -0.75 1.9375 C-0.5025 1.298125 -0.255 0.65875 0 0 Z " fill="#F5F5F4" transform="translate(112,112)"/>
<path d="M0 0 C4 1 4 1 5.265625 2.55859375 C8 7.77777778 8 7.77777778 8 10 C8.66 10 9.32 10 10 10 C10 6.7 10 3.4 10 0 C10.66 0 11.32 0 12 0 C12 4.95 12 9.9 12 15 C11.01 15 10.02 15 9 15 C5 8.25 5 8.25 5 6 C4.34 6 3.68 6 3 6 C3 8.97 3 11.94 3 15 C2.01 15 1.02 15 0 15 C0 10.05 0 5.1 0 0 Z " fill="#2D3547" transform="translate(123,101)"/>
<path d="M0 0 C0.66 0 1.32 0 2 0 C2 2.97 2 5.94 2 9 C1.01 9.33 0.02 9.66 -1 10 C-2.20882096 12.00016466 -2.20882096 12.00016466 -3 14 C-7.875 13.125 -7.875 13.125 -9 12 C-9.23728814 5.47457627 -9.23728814 5.47457627 -8 3 C-6.35 3 -4.7 3 -3 3 C-2.67 3.99 -2.34 4.98 -2 6 C-1.34 6 -0.68 6 0 6 C0 4.02 0 2.04 0 0 Z " fill="#F2F4F3" transform="translate(94,100)"/>
<path d="M0 0 C0.66 0.66 1.32 1.32 2 2 C3.98821313 2.39764263 5.98944339 2.73775349 8 3 C7.01 3.33 6.02 3.66 5 4 C5 8.95 5 13.9 5 19 C4.34 19 3.68 19 3 19 C2.16013916 17.06532058 1.32831973 15.12714871 0.5 13.1875 C0.0359375 12.10855469 -0.428125 11.02960938 -0.90625 9.91796875 C-2 7 -2 7 -2 4 C-2.99 3.67 -3.98 3.34 -5 3 C-2.25 0 -2.25 0 0 0 Z " fill="#ECF1F2" transform="translate(118,97)"/>
<path d="M0 0 C0.99 0 1.98 0 3 0 C3.83739781 2.1234016 4.66980283 4.2487728 5.5 6.375 C5.9640625 7.55835937 6.428125 8.74171875 6.90625 9.9609375 C8 13 8 13 8 15 C7.01 14.67 6.02 14.34 5 14 C5 13.01 5 12.02 5 11 C3.02 11.33 1.04 11.66 -1 12 C-1.33 12.99 -1.66 13.98 -2 15 C-2.66 15 -3.32 15 -4 15 C-3.43179252 9.54520815 -2.05362055 5.08940744 0 0 Z " fill="#273041" transform="translate(113,101)"/>
<path d="M0 0 C11.48112896 -0.47911976 18.81144102 -0.10756094 27.5625 7.6875 C29.05465159 9.11151682 30.53846985 10.54457227 32 12 C31.67 12.99 31.34 13.98 31 15 C30.52691406 14.54109375 30.05382812 14.0821875 29.56640625 13.609375 C20.51499487 5.21079446 12.1628651 3.31490434 0 2 C0 1.34 0 0.68 0 0 Z " fill="#172634" transform="translate(96,26)"/>
<path d="M0 0 C1.62651522 3.25303044 1.11453156 6.39225602 1 10 C0 11 0 11 -2.4375 11.1875 C-5 11 -5 11 -7 9 C-7.26991906 6.31160615 -7.08737357 3.70858064 -7 1 C-4.53721199 -0.231394 -2.7204945 -0.07159196 0 0 Z " fill="#DFE2E5" transform="translate(77,103)"/>
<path d="M0 0 C2.15174713 1.60623378 2.906388 2.49339389 3.3984375 5.15625 C3.39070313 5.9296875 3.38296875 6.703125 3.375 7.5 C3.38273437 8.2734375 3.39046875 9.046875 3.3984375 9.84375 C2.90631341 12.5070098 2.14931513 13.39053632 0 15 C-3 15.4375 -3 15.4375 -6 15 C-8.2288277 13.21693784 -8.87382488 11.8709588 -9.28125 9.05859375 C-9.41375481 6.06067237 -9.36447879 3.6479623 -7.875 1 C-5.10184376 -0.47901666 -3.08815875 -0.38601984 0 0 Z M-7 3 C-7.04125 4.27875 -7.0825 5.5575 -7.125 6.875 C-7.14820312 7.59429687 -7.17140625 8.31359375 -7.1953125 9.0546875 C-7.18331689 11.23863645 -7.18331689 11.23863645 -5 13 C-2.45809998 13.2500773 -2.45809998 13.2500773 0 13 C1.89885096 11.10114904 1.12367506 8.42752097 1.1328125 5.91015625 C1.11686861 3.91365633 1.11686861 3.91365633 0 2 C-3.62885324 1.84850702 -3.62885324 1.84850702 -7 3 Z " fill="#182032" transform="translate(77,101)"/>
<path d="M0 0 C3.3 0 6.6 0 10 0 C10 0.66 10 1.32 10 2 C7.36 2 4.72 2 2 2 C2 3.32 2 4.64 2 6 C4.31 6 6.62 6 9 6 C9 6.66 9 7.32 9 8 C6.69 8 4.38 8 2 8 C2 9.65 2 11.3 2 13 C4.64 13 7.28 13 10 13 C10 13.66 10 14.32 10 15 C6.7 15 3.4 15 0 15 C0 10.05 0 5.1 0 0 Z " fill="#272F3D" transform="translate(97,101)"/>
<path d="M0 0 C0 0.33 0 0.66 0 1 C-0.84304687 1.12117188 -1.68609375 1.24234375 -2.5546875 1.3671875 C-3.65039062 1.53476562 -4.74609375 1.70234375 -5.875 1.875 C-7.51082031 2.11863281 -7.51082031 2.11863281 -9.1796875 2.3671875 C-12.11932714 2.76256513 -12.11932714 2.76256513 -14 5 C-14.33 5.99 -14.66 6.98 -15 8 C-18.4934597 9.74672985 -21.06845568 11 -25 11 C-25.33 11.99 -25.66 12.98 -26 14 C-26 13.34 -26 12.68 -26 12 C-26.66 11.67 -27.32 11.34 -28 11 C-19.67961166 2.72609427 -11.80913249 -0.9045293 0 0 Z " fill="#EFC517" transform="translate(106,28)"/>
<path d="M0 0 C1.32 0 2.64 0 4 0 C4.33 0.66 4.66 1.32 5 2 C5.99 1.67 6.98 1.34 8 1 C8 1.99 8 2.98 8 4 C7.34 4 6.68 4 6 4 C6.33 5.65 6.66 7.3 7 9 C5.02 9.66 3.04 10.32 1 11 C0.16121545 9.71186658 -0.67086783 8.41936744 -1.5 7.125 C-1.9640625 6.40570313 -2.428125 5.68640625 -2.90625 4.9453125 C-4 3 -4 3 -4 1 C-3.34 1 -2.68 1 -2 1 C-2 1.66 -2 2.32 -2 3 C-1.01 3 -0.02 3 1 3 C0.67 2.01 0.34 1.02 0 0 Z " fill="#FBB806" transform="translate(117,39)"/>
<path d="M0 0 C3.0625 0.25 3.0625 0.25 6.0625 2.25 C6.0625 3.24 6.0625 4.23 6.0625 5.25 C5.4025 5.25 4.7425 5.25 4.0625 5.25 C3.7325 4.59 3.4025 3.93 3.0625 3.25 C0.53516765 2.59444881 0.53516765 2.59444881 -1.9375 2.25 C-1.9375 5.22 -1.9375 8.19 -1.9375 11.25 C-0.2875 11.58 1.3625 11.91 3.0625 12.25 C3.3925 11.59 3.7225 10.93 4.0625 10.25 C4.7225 10.25 5.3825 10.25 6.0625 10.25 C5.1875 14.125 5.1875 14.125 4.0625 15.25 C0.03089809 15.51293056 -1.49642734 15.54404844 -4.9375 13.25 C-5.30078125 10.71875 -5.30078125 10.71875 -5.25 7.75 C-5.24613281 6.7703125 -5.24226563 5.790625 -5.23828125 4.78125 C-4.78680836 0.98184174 -3.76168087 0.32014305 0 0 Z " fill="#262C38" transform="translate(87.9375,100.75)"/>
<path d="M0 0 C-0.44909061 1.48199902 -0.90956564 2.96055236 -1.375 4.4375 C-1.63023438 5.26121094 -1.88546875 6.08492188 -2.1484375 6.93359375 C-3 9 -3 9 -5 10 C-7.69565202 9.83219837 -10.32405554 9.38844355 -13 9 C-13 7.35 -13 5.7 -13 4 C-11.865625 3.87625 -10.73125 3.7525 -9.5625 3.625 C-8.386875 3.41875 -7.21125 3.2125 -6 3 C-5.67 2.34 -5.34 1.68 -5 1 C-2 0 -2 0 0 0 Z " fill="#ECEFEF" transform="translate(112,105)"/>
<path d="M0 0 C1.10844919 3.32534757 0.84454356 5.62182575 0 9 C0.66 9 1.32 9 2 9 C2.33 7.68 2.66 6.36 3 5 C3.66 5.66 4.32 6.32 5 7 C5.99 7.33 6.98 7.66 8 8 C8 8.66 8 9.32 8 10 C8.99 10.33 9.98 10.66 11 11 C7.79619983 13.13586678 6.98060033 13.23132175 3.3125 13.125 C2.10013672 13.09792969 2.10013672 13.09792969 0.86328125 13.0703125 C-0.05904297 13.03550781 -0.05904297 13.03550781 -1 13 C-1.02708567 11.39592672 -1.04643483 9.7917215 -1.0625 8.1875 C-1.07410156 7.29417969 -1.08570312 6.40085937 -1.09765625 5.48046875 C-1 3 -1 3 0 0 Z " fill="#E8A01D" transform="translate(73,47)"/>
<path d="M0 0 C-0.99 0.33 -1.98 0.66 -3 1 C-3.33 1.99 -3.66 2.98 -4 4 C-7.21915582 6.6510695 -8.5896445 7.0336357 -12.8125 6.6875 C-14.3903125 6.3471875 -14.3903125 6.3471875 -16 6 C-15.3125 3.5625 -15.3125 3.5625 -14 1 C-9.69890083 -0.6943724 -4.57628255 -0.08973103 0 0 Z " fill="#FB5519" transform="translate(107,39)"/>
<path d="M0 0 C1.65 0 3.3 0 5 0 C5 0.66 5 1.32 5 2 C9.51815281 2.88277755 13.77512694 3.10589503 18.375 3.0625 C19.62023437 3.05347656 20.86546875 3.04445313 22.1484375 3.03515625 C23.08945313 3.02355469 24.03046875 3.01195313 25 3 C19.17629758 6.88246828 13.89090552 6.47667672 7 6 C3.25 4.6875 3.25 4.6875 1 3 C0.67 2.01 0.34 1.02 0 0 Z " fill="#63CFE2" transform="translate(103,70)"/>
<path d="M0 0 C3.3125 -0.3125 3.3125 -0.3125 7 0 C10 3.77419355 10 3.77419355 10 6 C8.52168779 6.19412181 7.04230684 6.38012131 5.5625 6.5625 C4.73878906 6.66691406 3.91507812 6.77132812 3.06640625 6.87890625 C2.38449219 6.91886719 1.70257813 6.95882812 1 7 C0 6 0 6 -0.0625 2.9375 C-0.041875 1.968125 -0.02125 0.99875 0 0 Z " fill="#F8571D" transform="translate(102,58)"/>
<path d="M0 0 C2.31 0.66 4.62 1.32 7 2 C6.01 2.495 6.01 2.495 5 3 C5 6.3 5 9.6 5 13 C4.34 13 3.68 13 3 13 C-1.06153846 6.84615385 -1.06153846 6.84615385 -0.75 2.5625 C-0.5025 1.716875 -0.255 0.87125 0 0 Z " fill="#DADEE1" transform="translate(128,98)"/>
<path d="M0 0 C0.33 0.99 0.66 1.98 1 3 C1.66 3 2.32 3 3 3 C3.639375 3.804375 4.27875 4.60875 4.9375 5.4375 C6.81035932 8.23720732 6.81035932 8.23720732 10 9 C11.40824893 9.08021999 12.81997231 9.10765977 14.23046875 9.09765625 C15.03291016 9.09443359 15.83535156 9.09121094 16.66210938 9.08789062 C17.49548828 9.07951172 18.32886719 9.07113281 19.1875 9.0625 C20.4549707 9.05573242 20.4549707 9.05573242 21.74804688 9.04882812 C23.83206155 9.03705403 25.91603977 9.0191189 28 9 C27.34 10.32 26.68 11.64 26 13 C25.67 12.34 25.34 11.68 25 11 C15.595 11.495 15.595 11.495 6 12 C6 11.01 6 10.02 6 9 C5.38125 8.9175 4.7625 8.835 4.125 8.75 C2 8 2 8 0.75 6.1875 C0 4 0 4 0 0 Z " fill="#34A2DA" transform="translate(98,68)"/>
<path d="M0 0 C3.0625 1.6875 3.0625 1.6875 4.0625 4.6875 C2.0825 5.0175 0.1025 5.3475 -1.9375 5.6875 C-1.9375 4.6975 -1.9375 3.7075 -1.9375 2.6875 C-2.61296875 2.62691406 -3.2884375 2.56632812 -3.984375 2.50390625 C-5.32242188 2.37822266 -5.32242188 2.37822266 -6.6875 2.25 C-7.56921875 2.16878906 -8.4509375 2.08757813 -9.359375 2.00390625 C-11.63100452 1.72511535 -13.73601823 1.29959423 -15.9375 0.6875 C-11.0462694 -2.5733204 -5.24952239 -2.05228242 0 0 Z " fill="#EF640E" transform="translate(109.9375,38.3125)"/>
<path d="M0 0 C-0.99 0.33 -1.98 0.66 -3 1 C-1.68 1.66 -0.36 2.32 1 3 C-1 5 -1 5 -4.875 5.25 C-8.05396475 5.18064077 -10.29617618 4.80254921 -13 3 C-12.34 3 -11.68 3 -11 3 C-11 2.34 -11 1.68 -11 1 C-3.57142857 -1.42857143 -3.57142857 -1.42857143 0 0 Z " fill="#54E3F7" transform="translate(119,69)"/>
<path d="M0 0 C0.99 0.66 1.98 1.32 3 2 C3 2.66 3 3.32 3 4 C1.865625 4.28875 0.73125 4.5775 -0.4375 4.875 C-1.613125 5.24625 -2.78875 5.6175 -4 6 C-4.33 6.66 -4.66 7.32 -5 8 C-5.66 7.67 -6.32 7.34 -7 7 C-6.67 6.01 -6.34 5.02 -6 4 C-5.34 4 -4.68 4 -4 4 C-4 3.01 -4 2.02 -4 1 C-6.64 1.33 -9.28 1.66 -12 2 C-8.2032502 -1.7967498 -4.96305832 -0.97488646 0 0 Z " fill="#329DD6" transform="translate(106,50)"/>
<path d="M0 0 C1.62950412 4.12168689 2.26264601 6.70700357 1 11 C0.34 9.68 -0.32 8.36 -1 7 C-1.66 7 -2.32 7 -3 7 C-2.67 5.35 -2.34 3.7 -2 2 C-4.64 2.33 -7.28 2.66 -10 3 C-10.33 2.34 -10.66 1.68 -11 1 C-7.26513121 0.4254048 -3.78706732 0 0 0 Z " fill="#F75512" transform="translate(114,43)"/>
<path d="M0 0 C0.66 0.33 1.32 0.66 2 1 C-0.93828597 3.50298434 -3.17902761 4.46930939 -7 5 C-6.67 5.66 -6.34 6.32 -6 7 C-6.66 7 -7.32 7 -8 7 C-8 7.66 -8 8.32 -8 9 C-8.66 9 -9.32 9 -10 9 C-10 8.34 -10 7.68 -10 7 C-10.66 6.67 -11.32 6.34 -12 6 C-11.34 6 -10.68 6 -10 6 C-10 5.34 -10 4.68 -10 4 C-12.97 4 -15.94 4 -19 4 C-19 3.67 -19 3.34 -19 3 C-17.87980469 2.86722656 -16.75960937 2.73445313 -15.60546875 2.59765625 C-14.13279271 2.41943431 -12.66013753 2.24103989 -11.1875 2.0625 C-10.44951172 1.97548828 -9.71152344 1.88847656 -8.95117188 1.79882812 C-5.83266879 1.41783454 -2.98891878 0.99630626 0 0 Z " fill="#E2E4E6" transform="translate(115,89)"/>
<path d="M0 0 C0.66 0 1.32 0 2 0 C2 4.95 2 9.9 2 15 C1.01 15 0.02 15 -1 15 C-1.99 13.02 -2.98 11.04 -4 9 C-3.34 8.67 -2.68 8.34 -2 8 C-2 8.66 -2 9.32 -2 10 C-1.34 10 -0.68 10 0 10 C0 6.7 0 3.4 0 0 Z " fill="#2B3342" transform="translate(133,101)"/>
<path d="M0 0 C0.33 0.66 0.66 1.32 1 2 C0.67 2.99 0.34 3.98 0 5 C0.39397335 7.63804589 0.39397335 7.63804589 1 10 C-0.65 9.67 -2.3 9.34 -4 9 C-4 8.34 -4 7.68 -4 7 C-4.99 7.33 -5.98 7.66 -7 8 C-6.8125 5.625 -6.8125 5.625 -6 3 C-3.5 1.75 -3.5 1.75 -1 1 C-0.67 0.67 -0.34 0.34 0 0 Z " fill="#E0E3E8" transform="translate(79,113)"/>
<path d="M0 0 C1.24652344 -0.01417969 2.49304688 -0.02835938 3.77734375 -0.04296875 C7.0625 0.1875 7.0625 0.1875 10.0625 2.1875 C10.0625 2.8475 10.0625 3.5075 10.0625 4.1875 C8.825 3.6925 8.825 3.6925 7.5625 3.1875 C1.74130311 1.52430089 -2.72532428 1.53167057 -8.25 3.8125 C-10.0753125 4.493125 -10.0753125 4.493125 -11.9375 5.1875 C-12.9275 4.5275 -13.9175 3.8675 -14.9375 3.1875 C-13.98875 2.878125 -13.04 2.56875 -12.0625 2.25 C-7.58748984 0.72849654 -4.84473222 0.02499862 0 0 Z " fill="#FBAF14" transform="translate(101.9375,35.8125)"/>
<path d="M0 0 C0.66 0 1.32 0 2 0 C2 0.99 2 1.98 2 3 C2.66 2.34 3.32 1.68 4 1 C6.625 0.875 6.625 0.875 9 1 C7.33333333 2.66666667 5.66666667 4.33333333 4 6 C3.278125 6.763125 2.55625 7.52625 1.8125 8.3125 C0 10 0 10 -2 10 C-1.34 6.7 -0.68 3.4 0 0 Z " fill="#DD582D" transform="translate(87,46)"/>
<path d="M0 0 C0 0.66 0 1.32 0 2 C-1.98 2.33 -3.96 2.66 -6 3 C-6 3.66 -6 4.32 -6 5 C-7.65 5.33 -9.3 5.66 -11 6 C-10.625 3.5625 -10.625 3.5625 -10 1 C-6.78548731 -0.60725635 -3.56387464 -0.05748185 0 0 Z " fill="#EEEEEE" transform="translate(105,117)"/>
<path d="M0 0 C0.66 0 1.32 0 2 0 C6 6.75 6 6.75 6 9 C6.99 9.33 7.98 9.66 9 10 C7.35 10.33 5.7 10.66 4 11 C3.34 10.01 2.68 9.02 2 8 C1.01 8.495 1.01 8.495 0 9 C0 6.03 0 3.06 0 0 Z " fill="#E6EBEB" transform="translate(126,107)"/>
<path d="M0 0 C1.9375 0.75 1.9375 0.75 4 2 C4.144375 2.66 4.28875 3.32 4.4375 4 C4.623125 4.66 4.80875 5.32 5 6 C7.49034386 7.29660434 7.49034386 7.29660434 10 8 C9.34 8.66 8.68 9.32 8 10 C5.47442523 9.75558954 4.2147398 9.17639341 2.25 7.5625 C1 6 1 6 1 4 C0.34 4 -0.32 4 -1 4 C-0.67 2.68 -0.34 1.36 0 0 Z " fill="#1E3C56" transform="translate(100,67)"/>
<path d="M0 0 C3 1 3 1 4.6875 4.3125 C6 8 6 8 6 12 C5.505 11.67 5.01 11.34 4.5 11 C0.90909106 9.56363642 -2.14456127 9.87148538 -6 10 C-5.67 9.34 -5.34 8.68 -5 8 C-2.35139573 7.40644386 0.29197322 7.25790731 3 7 C2.67 5.35 2.34 3.7 2 2 C1.34 2 0.68 2 0 2 C0 1.34 0 0.68 0 0 Z " fill="#392D35" transform="translate(108,48)"/>
<path d="M0 0 C1.22589844 0.01353516 1.22589844 0.01353516 2.4765625 0.02734375 C3.41628906 0.04474609 3.41628906 0.04474609 4.375 0.0625 C1.88532617 1.72228256 -0.34825252 2.92121065 -3.0625 4.125 C-3.82433594 4.46660156 -4.58617188 4.80820312 -5.37109375 5.16015625 C-7.4469065 5.99120087 -9.44499698 6.58081368 -11.625 7.0625 C-5.84735577 -0.08353365 -5.84735577 -0.08353365 0 0 Z " fill="#212937" transform="translate(100.625,46.9375)"/>
<path d="M0 0 C4.20626034 1.50223584 5.73900021 4.28550034 8 8 C7.01 8.33 6.02 8.66 5 9 C5 7.68 5 6.36 5 5 C3.02 5.99 3.02 5.99 1 7 C1 6.01 1 5.02 1 4 C-0.65 4 -2.3 4 -4 4 C-2.68 3.34 -1.36 2.68 0 2 C0 1.34 0 0.68 0 0 Z " fill="#E4BA20" transform="translate(120,35)"/>
<path d="M0 0 C0.66 0 1.32 0 2 0 C4.53309233 4.64203897 6.46515599 8.65155992 7 14 C6.01 13.67 5.02 13.34 4 13 C4 12.01 4 11.02 4 10 C2.02 10 0.04 10 -2 10 C-2 9.67 -2 9.34 -2 9 C-0.35 9 1.3 9 3 9 C2.01 6.03 1.02 3.06 0 0 Z " fill="#252C3A" transform="translate(114,102)"/>
<path d="M0 0 C0.33 0 0.66 0 1 0 C1.03738281 0.75925781 1.07476562 1.51851563 1.11328125 2.30078125 C1.17902344 3.29464844 1.24476562 4.28851563 1.3125 5.3125 C1.37050781 6.29863281 1.42851563 7.28476563 1.48828125 8.30078125 C2.06001692 11.31657782 2.75668654 12.03710072 5 14 C5.6875 16.6875 5.6875 16.6875 6 19 C1.20695652 16.54202899 1.20695652 16.54202899 0.34375 14.28125 C-0.0886639 11.41159412 -0.09403497 8.65121754 -0.0625 5.75 C-0.04896484 4.13351563 -0.04896484 4.13351563 -0.03515625 2.484375 C-0.02355469 1.66453125 -0.01195313 0.8446875 0 0 Z " fill="#149DCB" transform="translate(80,66)"/>
<path d="M0 0 C2.47859908 2.2008849 3.61210366 4.06372969 4.6875 7.1875 C4.93886719 7.90292969 5.19023437 8.61835937 5.44921875 9.35546875 C5.63097656 9.89816406 5.81273437 10.44085938 6 11 C5.01 11.33 4.02 11.66 3 12 C2.32591692 10.73308493 1.66099503 9.46129251 1 8.1875 C0.443125 7.12595703 0.443125 7.12595703 -0.125 6.04296875 C-1 4 -1 4 -1 1 C-0.67 0.67 -0.34 0.34 0 0 Z " fill="#2E383D" transform="translate(128,39)"/>
<path d="M0 0 C1.65 0.33 3.3 0.66 5 1 C2.03 4.96 2.03 4.96 -1 9 C-1.99 8.67 -2.98 8.34 -4 8 C-2.87548273 5.0280615 -1.77706209 2.66559313 0 0 Z " fill="#ECEDEB" transform="translate(75,32)"/>
<path d="M0 0 C2.10388569 -0.05402274 4.20816714 -0.09280256 6.3125 -0.125 C8.07013672 -0.15980469 8.07013672 -0.15980469 9.86328125 -0.1953125 C13 0 13 0 16 2 C15.67 2.33 15.34 2.66 15 3 C12.46458702 2.90913549 9.96445216 2.7629055 7.4375 2.5625 C6.72658203 2.51029297 6.01566406 2.45808594 5.28320312 2.40429688 C3.52178001 2.27425893 1.76083827 2.13773103 0 2 C0 1.34 0 0.68 0 0 Z " fill="#0B1734" transform="translate(96,26)"/>
<path d="M0 0 C0.66 0.99 1.32 1.98 2 3 C-1.51187196 5.40814077 -3.72656908 6.36629408 -8 6 C-8 4.68 -8 3.36 -8 2 C-5.36 2 -2.72 2 0 2 C0 1.34 0 0.68 0 0 Z " fill="#E8EDEE" transform="translate(107,101)"/>
<path d="M0 0 C0.66 0.99 1.32 1.98 2 3 C0.25 6.875 0.25 6.875 -2 8 C-3.04808041 9.97522846 -4.0520411 11.97481509 -5 14 C-5.33 13.34 -5.66 12.68 -6 12 C-6.66 11.67 -7.32 11.34 -8 11 C-7.50628906 10.45730469 -7.01257813 9.91460937 -6.50390625 9.35546875 C-5.86324219 8.64003906 -5.22257812 7.92460938 -4.5625 7.1875 C-3.92441406 6.47980469 -3.28632812 5.77210937 -2.62890625 5.04296875 C-0.80913988 3.00103848 -0.80913988 3.00103848 0 0 Z " fill="#DDE1E2" transform="translate(131,73)"/>
<path d="M0 0 C2.44839588 3.67259383 4 6.54648201 4 11 C2.125 10.4375 2.125 10.4375 0 9 C-1.25 5.375 -1.25 5.375 -2 2 C-1.34 1.34 -0.68 0.68 0 0 Z " fill="#153F5A" transform="translate(85,74)"/>
<path d="M0 0 C2 3 2 3 2 5 C3.65 5.33 5.3 5.66 7 6 C6.67 6.99 6.34 7.98 6 9 C1.125 8.125 1.125 8.125 0 7 C-0.04092937 4.66702567 -0.04241723 2.33294775 0 0 Z " fill="#E9EEEF" transform="translate(85,105)"/>
<path d="M0 0 C0 7 0 7 -1.875 9.25 C-4 11 -4 11 -6 11 C-5.55530671 5.96014269 -3.28656638 3.62365012 0 0 Z " fill="#2EA1DC" transform="translate(93,52)"/>
<path d="M0 0 C0.99 0 1.98 0 3 0 C3.04241723 2.33294775 3.04092937 4.66702567 3 7 C2 8 2 8 0.15234375 8.09765625 C-1.8984375 8.06510417 -3.94921875 8.03255208 -6 8 C-6 7.67 -6 7.34 -6 7 C-4.5459375 6.5978125 -4.5459375 6.5978125 -3.0625 6.1875 C-1.5465625 5.5996875 -1.5465625 5.5996875 0 5 C0.33 4.01 0.66 3.02 1 2 C0.34 1.67 -0.32 1.34 -1 1 C-0.67 0.67 -0.34 0.34 0 0 Z " fill="#E7EAEC" transform="translate(93,109)"/>
<path d="M0 0 C3.2578125 0.0234375 3.2578125 0.0234375 7.125 0.375 C8.40632813 0.48585938 9.68765625 0.59671875 11.0078125 0.7109375 C11.99523437 0.80632812 12.98265625 0.90171875 14 1 C14 1.33 14 1.66 14 2 C11.36 2 8.72 2 6 2 C6 2.66 6 3.32 6 4 C3.36 3.34 0.72 2.68 -2 2 C-1.34 1.34 -0.68 0.68 0 0 Z " fill="#1A3B5B" transform="translate(92,88)"/>
<path d="M0 0 C0.33 0 0.66 0 1 0 C1 4.29 1 8.58 1 13 C0.67 12.01 0.34 11.02 0 10 C-2.00016466 8.79117904 -2.00016466 8.79117904 -4 8 C-3.01 7.67 -2.02 7.34 -1 7 C-1.020625 6.030625 -1.04125 5.06125 -1.0625 4.0625 C-1 1 -1 1 0 0 Z " fill="#192638" transform="translate(133,50)"/>
<path d="M0 0 C2.0625 2.3125 2.0625 2.3125 4 5 C3.67 5.99 3.34 6.98 3 8 C2.67 7.01 2.34 6.02 2 5 C1.34 5 0.68 5 0 5 C0 7.97 0 10.94 0 14 C-0.33 14 -0.66 14 -1 14 C-1.02685938 11.85423363 -1.04633088 9.70837355 -1.0625 7.5625 C-1.07410156 6.36753906 -1.08570312 5.17257813 -1.09765625 3.94140625 C-1 1 -1 1 0 0 Z " fill="#4F5663" transform="translate(126,102)"/>
<path d="M0 0 C0 0.66 0 1.32 0 2 C-2.99480917 2.8723412 -5.63575911 3.10829766 -8.75 3.0625 C-9.54921875 3.05347656 -10.3484375 3.04445313 -11.171875 3.03515625 C-11.77515625 3.02355469 -12.3784375 3.01195313 -13 3 C-13 2.34 -13 1.68 -13 1 C-8.62426048 0.40667939 -4.42471556 -0.13827236 0 0 Z " fill="#0B1E34" transform="translate(111,89)"/>
<path d="M0 0 C0.33 0 0.66 0 1 0 C1.12375 1.11375 1.2475 2.2275 1.375 3.375 C1.6465813 7.03103677 1.6465813 7.03103677 4 9 C5.64991582 9.70710678 7.31562256 10.37943989 9 11 C9 11.33 9 11.66 9 12 C3.6 12.48 3.6 12.48 1.125 10.5 C-0.50517055 6.87739877 -0.19772667 3.95453342 0 0 Z " fill="#343B47" transform="translate(68,104)"/>
<path d="M0 0 C0.33 0.66 0.66 1.32 1 2 C0.01 3.485 0.01 3.485 -1 5 C-6.94 4.01 -6.94 4.01 -13 3 C-13 2.67 -13 2.34 -13 2 C-8.71 1.34 -4.42 0.68 0 0 Z " fill="#D5582E" transform="translate(112,44)"/>
<path d="M0 0 C0 4.31618166 -2.13270348 5.92789659 -5 9 C-5.66 9 -6.32 9 -7 9 C-7 8.01 -7 7.02 -7 6 C-6.01 5.34 -5.02 4.68 -4 4 C-3.67 3.01 -3.34 2.02 -3 1 C-2.01 0.67 -1.02 0.34 0 0 Z " fill="#13273F" transform="translate(129,75)"/>
<path d="M0 0 C0.66 1.32 1.32 2.64 2 4 C4.31 4 6.62 4 9 4 C8.67 4.99 8.34 5.98 8 7 C2.25 7.125 2.25 7.125 0 6 C0 4.02 0 2.04 0 0 Z " fill="#DE5E32" transform="translate(101,60)"/>
<path d="M0 0 C0 0.66 0 1.32 0 2 C0.66 2 1.32 2 2 2 C2 3.65 2 5.3 2 7 C0.02 7 -1.96 7 -4 7 C-4 6.67 -4 6.34 -4 6 C-2.35 6 -0.7 6 1 6 C-1.16687491 3.72478134 -3.45620509 1.84205838 -6 0 C-3 -1 -3 -1 0 0 Z " fill="#1B3D5C" transform="translate(108,48)"/>
<path d="M0 0 C0.99 0.33 1.98 0.66 3 1 C3 3.31 3 5.62 3 8 C0.03 7.505 0.03 7.505 -3 7 C-3 6.34 -3 5.68 -3 5 C-2.34 5 -1.68 5 -1 5 C-0.67 3.35 -0.34 1.7 0 0 Z " fill="#D6D6D8" transform="translate(118,115)"/>
<path d="M0 0 C0.66 0 1.32 0 2 0 C1.125 3.875 1.125 3.875 0 5 C-1.99958364 5.04080783 -4.00045254 5.04254356 -6 5 C-6.33 3.68 -6.66 2.36 -7 1 C-4.03 1.495 -4.03 1.495 -1 2 C-0.67 1.34 -0.34 0.68 0 0 Z " fill="#313A43" transform="translate(92,111)"/>
<path d="M0 0 C0.66 0.33 1.32 0.66 2 1 C2.625 4.0625 2.625 4.0625 3 7 C1.35 7 -0.3 7 -2 7 C-1.34 4.69 -0.68 2.38 0 0 Z " fill="#B7BEC4" transform="translate(114,104)"/>
<path d="M0 0 C2.64 0 5.28 0 8 0 C7.34 1.32 6.68 2.64 6 4 C4.68 4 3.36 4 2 4 C2 3.34 2 2.68 2 2 C1.34 1.34 0.68 0.68 0 0 Z " fill="#30AAEC" transform="translate(115,79)"/>
<path d="M0 0 C0 0.33 0 0.66 0 1 C-0.81984375 1.12117188 -1.6396875 1.24234375 -2.484375 1.3671875 C-3.56203125 1.53476562 -4.6396875 1.70234375 -5.75 1.875 C-7.35101563 2.11863281 -7.35101563 2.11863281 -8.984375 2.3671875 C-11.67708871 2.93223882 -13.63572439 3.63422914 -16 5 C-16.66 4.34 -17.32 3.68 -18 3 C-11.75690073 0.22528921 -6.80203375 -0.37634203 0 0 Z " fill="#CCB638" transform="translate(106,28)"/>
<path d="M0 0 C2.31 0 4.62 0 7 0 C6.67 0.99 6.34 1.98 6 3 C4.68 3 3.36 3 2 3 C1.34 3.66 0.68 4.32 0 5 C0 3.35 0 1.7 0 0 Z " fill="#D9DEDE" transform="translate(99,109)"/>
<path d="M0 0 C1.65 0 3.3 0 5 0 C4.34 1.65 3.68 3.3 3 5 C1.68 5 0.36 5 -1 5 C-0.67 3.35 -0.34 1.7 0 0 Z " fill="#EFF4F3" transform="translate(72,103)"/>
<path d="M0 0 C2.4375 0.375 2.4375 0.375 5 1 C5.33 1.66 5.66 2.32 6 3 C3.36 3.66 0.72 4.32 -2 5 C-1.34 3.35 -0.68 1.7 0 0 Z " fill="#2E4353" transform="translate(125,57)"/>
<path d="M0 0 C-0.66 1.32 -1.32 2.64 -2 4 C-2.33 3.34 -2.66 2.68 -3 2 C-7.29 2 -11.58 2 -16 2 C-16 1.67 -16 1.34 -16 1 C-13.70839646 0.83246763 -11.41671509 0.66599948 -9.125 0.5 C-7.84882812 0.4071875 -6.57265625 0.314375 -5.2578125 0.21875 C-3.50763316 0.10123196 -1.75412035 0 0 0 Z " fill="#2F6D97" transform="translate(126,77)"/>
<path d="M0 0 C1.57561912 3.15123823 0.69813146 5.62569792 0 9 C-1.5625 11.4375 -1.5625 11.4375 -3 13 C-2.88490339 11.58249437 -2.75746342 10.16598831 -2.625 8.75 C-2.55539063 7.96109375 -2.48578125 7.1721875 -2.4140625 6.359375 C-1.98492887 3.914123 -1.21399362 2.15163097 0 0 Z " fill="#F06F0E" transform="translate(87,44)"/>
<path d="M0 0 C0.33 0 0.66 0 1 0 C1 3.3 1 6.6 1 10 C1.99 10.33 2.98 10.66 4 11 C3.01 11.66 2.02 12.32 1 13 C0.34 12.67 -0.32 12.34 -1 12 C-0.67 8.04 -0.34 4.08 0 0 Z " fill="#D4D8DD" transform="translate(82,104)"/>
<path d="M0 0 C2 1 2 1 3 3 C1.71254964 3.38922918 0.41980403 3.76098036 -0.875 4.125 C-1.95394531 4.43824219 -1.95394531 4.43824219 -3.0546875 4.7578125 C-3.69664063 4.83773437 -4.33859375 4.91765625 -5 5 C-5.66 4.34 -6.32 3.68 -7 3 C-4.69631264 1.93347808 -2.35981813 0.93578995 0 0 Z " fill="#DFE3E8" transform="translate(74,98)"/>
<path d="M0 0 C-0.33 1.98 -0.66 3.96 -1 6 C-0.34 6 0.32 6 1 6 C0.67 6.99 0.34 7.98 0 9 C-0.66 8.34 -1.32 7.68 -2 7 C-2 6.01 -2 5.02 -2 4 C-2.99 3.67 -3.98 3.34 -5 3 C-2.25 0 -2.25 0 0 0 Z " fill="#DDE0E7" transform="translate(118,97)"/>
<path d="M0 0 C1.98 0.99 3.96 1.98 6 3 C6 4.66666667 6 6.33333333 6 8 C5.01 8 4.02 8 3 8 C3 7.01 3 6.02 3 5 C2.34 4.67 1.68 4.34 1 4 C1.33 3.67 1.66 3.34 2 3 C1.34 2.67 0.68 2.34 0 2 C0 1.34 0 0.68 0 0 Z " fill="#F2BB04" transform="translate(112,34)"/>
<path d="M0 0 C1.98 0.66 3.96 1.32 6 2 C5.67 2.99 5.34 3.98 5 5 C2.69 4.34 0.38 3.68 -2 3 C-1.34 2.01 -0.68 1.02 0 0 Z " fill="#353C41" transform="translate(112,27)"/>
<path d="M0 0 C0.99 0.33 1.98 0.66 3 1 C3 2.32 3 3.64 3 5 C1.35 4.67 -0.3 4.34 -2 4 C-2 3.01 -2 2.02 -2 1 C-1.34 0.67 -0.68 0.34 0 0 Z " fill="#DFDDDD" transform="translate(77,118)"/>
<path d="M0 0 C0.99 0.33 1.98 0.66 3 1 C3 1.66 3 2.32 3 3 C2.360625 3.268125 1.72125 3.53625 1.0625 3.8125 C-1.33131686 4.88667752 -1.33131686 4.88667752 -2 8 C-2.33 7.01 -2.66 6.02 -3 5 C-3.66 4.34 -4.32 3.68 -5 3 C-4.360625 2.87625 -3.72125 2.7525 -3.0625 2.625 C-2.0415625 2.315625 -2.0415625 2.315625 -1 2 C-0.67 1.34 -0.34 0.68 0 0 Z " fill="#FBFBFC" transform="translate(111,114)"/>
<path d="M0 0 C2.50037734 2.17424117 3.43628586 3.73045798 4 7 C3.01 7 2.02 7 1 7 C-0.0625 4.625 -0.0625 4.625 -1 2 C-0.67 1.34 -0.34 0.68 0 0 Z " fill="#1D3450" transform="translate(73,71)"/>
<path d="M0 0 C0.66 0 1.32 0 2 0 C2 1.32 2 2.64 2 4 C2.66 4 3.32 4 4 4 C4 4.99 4 5.98 4 7 C2.68 6.67 1.36 6.34 0 6 C0 4.02 0 2.04 0 0 Z " fill="#EB561A" transform="translate(102,58)"/>
<path d="M0 0 C0.66 0 1.32 0 2 0 C4.53906064 2.61373889 5.92256852 4.12889581 6.25 7.8125 C6.1675 8.534375 6.085 9.25625 6 10 C4.5 8 4.5 8 3 6 C2.443125 5.29875 1.88625 4.5975 1.3125 3.875 C0 2 0 2 0 0 Z " fill="#FD9C15" transform="translate(113,40)"/>
<path d="M0 0 C3.875 1.75 3.875 1.75 5 4 C3.35 4.66 1.7 5.32 0 6 C-0.33 5.01 -0.66 4.02 -1 3 C-0.34 3 0.32 3 1 3 C0.67 2.01 0.34 1.02 0 0 Z " fill="#EAEBED" transform="translate(81,26)"/>
<path d="M0 0 C1.4540625 0.0309375 1.4540625 0.0309375 2.9375 0.0625 C2.9375 0.7225 2.9375 1.3825 2.9375 2.0625 C0.9575 2.7225 -1.0225 3.3825 -3.0625 4.0625 C-3.3925 3.0725 -3.7225 2.0825 -4.0625 1.0625 C-3.0625 0.0625 -3.0625 0.0625 0 0 Z " fill="#D1D4D7" transform="translate(115.0625,111.9375)"/>
<path d="M0 0 C1.32 0.33 2.64 0.66 4 1 C4.33 2.65 4.66 4.3 5 6 C4.01 6.495 4.01 6.495 3 7 C3 6.34 3 5.68 3 5 C2.34 5 1.68 5 1 5 C1.33 3.68 1.66 2.36 2 1 C1.34 0.67 0.68 0.34 0 0 Z " fill="#FBFBF8" transform="translate(117,102)"/>
<path d="M0 0 C0.33 0 0.66 0 1 0 C1.1953125 6.0546875 1.1953125 6.0546875 1 8 C0.34 8.66 -0.32 9.32 -1 10 C-2.46726798 6.18510326 -1.43336419 3.70988378 0 0 Z " fill="#E4E8EA" transform="translate(135,62)"/>
<path d="M0 0 C0.33 0 0.66 0 1 0 C1 2.97 1 5.94 1 9 C0.01 9 -0.98 9 -2 9 C-1.34 6.03 -0.68 3.06 0 0 Z " fill="#F65817" transform="translate(117,52)"/>
<path d="M0 0 C0.66 0 1.32 0 2 0 C2.33 1.98 2.66 3.96 3 6 C2.01 6.495 2.01 6.495 1 7 C0.87625 6.360625 0.7525 5.72125 0.625 5.0625 C0.315625 4.0415625 0.315625 4.0415625 0 3 C-0.66 2.67 -1.32 2.34 -2 2 C-1.34 2 -0.68 2 0 2 C0 1.34 0 0.68 0 0 Z " fill="#FC591D" transform="translate(113,47)"/>
<path d="M0 0 C2.31 0.33 4.62 0.66 7 1 C4.08235 2.9451 2.37462715 3.45276317 -1 4 C-0.67 2.68 -0.34 1.36 0 0 Z " fill="#EFF0F0" transform="translate(89,24)"/>
</svg>
