<?xml version="1.0" encoding="UTF-8"?>
<svg version="1.1" xmlns="http://www.w3.org/2000/svg" width="204" height="192">
<path d="M0 0 C67.32 0 134.64 0 204 0 C204 63.36 204 126.72 204 192 C136.68 192 69.36 192 0 192 C0 128.64 0 65.28 0 0 Z " fill="#FDFCFA" transform="translate(0,0)"/>
<path d="M0 0 C7.5938658 -0.2316833 14.15881562 0.07962516 21.2109375 3.14453125 C21.88253906 3.36109375 22.55414063 3.57765625 23.24609375 3.80078125 C32.75548439 6.8789655 38.55995752 13.14732161 44.2109375 21.14453125 C44.64792969 21.75167969 45.08492188 22.35882813 45.53515625 22.984375 C48.2109375 26.82435581 48.2109375 26.82435581 48.2109375 29.14453125 C42.60947086 31.22879791 37.65620193 31.24977723 31.7109375 31.1484375 C28.32094296 31.14465402 25.02471684 31.35388456 21.6484375 31.64453125 C6.10138842 32.79425784 -8.16549382 32.13067068 -23.484375 29.1171875 C-27.05317332 28.43682393 -30.61286748 27.83855662 -34.21875 27.390625 C-35.3941333 27.24451782 -35.3941333 27.24451782 -36.59326172 27.09545898 C-39.14276624 27.1524359 -40.61509265 27.85692934 -42.7890625 29.14453125 C-41.83739446 22.48285494 -38.62241696 18.64833881 -33.7890625 14.14453125 C-33.33144531 13.68175781 -32.87382813 13.21898438 -32.40234375 12.7421875 C-23.13284631 3.93966726 -12.4098882 0.47336687 0 0 Z " fill="#F8CC64" transform="translate(89.7890625,60.85546875)"/>
<path d="M0 0 C6.91308326 -1.19978328 14.22111109 -2.23288092 21 0 C26.19826298 4.29984342 28.95953211 10.686205 31.82910156 16.66162109 C33.37543542 19.7497749 35.21064133 22.40252601 37.25 25.1875 C38.61125 27.0746875 38.61125 27.0746875 40 29 C40 21.08 40 13.16 40 5 C38.02 4.34 36.04 3.68 34 3 C34 2.01 34 1.02 34 0 C39.60500964 -0.09903517 45.20950762 -0.17154712 50.81518555 -0.21972656 C52.7212003 -0.23981546 54.62715362 -0.26709194 56.53295898 -0.30175781 C59.27603326 -0.35039642 62.01829125 -0.37299579 64.76171875 -0.390625 C65.61086349 -0.41127014 66.46000824 -0.43191528 67.33488464 -0.45318604 C71.42666113 -0.45473044 73.47207999 -0.33259516 77.01489258 1.89941406 C80.11528947 5.18016856 80.28429337 7.45483099 80.21875 11.9609375 C79.89892942 14.94212219 78.92599127 16.73008172 77 19 C74.8125 19.8125 74.8125 19.8125 73 20 C73.61875 20.969375 74.2375 21.93875 74.875 22.9375 C76.49899834 25.74566379 77.33003668 28.1221939 77.875 31.3125 C78.92985012 36.8338326 81.55489238 41.58184672 85 46 C86.485 46.495 86.485 46.495 88 47 C88 46.34 88 45.68 88 45 C89.485 45.495 89.485 45.495 91 46 C89.875 48.5 89.875 48.5 88 51 C85.25 51.8125 85.25 51.8125 82 51 C75.4479867 45.48326153 71.94285753 38.21774442 69.5 30.1875 C68.58594383 27.29049137 68.1325714 26.1325714 65.9375 23.9375 C64.05867974 22.85481302 64.05867974 22.85481302 62 23 C62 27.95 62 32.9 62 38 C63.65 38.66 65.3 39.32 67 40 C66.67 40.99 66.34 41.98 66 43 C60.39 42.67 54.78 42.34 49 42 C49 41.01 49 40.02 49 39 C50.98 39 52.96 39 55 39 C55.33 27.45 55.66 15.9 56 4 C52.37 4 48.74 4 45 4 C45 16.87 45 29.74 45 43 C43.35 43 41.7 43 40 43 C38.04296875 40.578125 38.04296875 40.578125 36.1875 37.25 C35.50362452 36.05725914 34.81736329 34.86588349 34.12890625 33.67578125 C33.78102051 33.06557129 33.43313477 32.45536133 33.07470703 31.82666016 C30.7929587 27.94841367 28.1961704 24.27605097 25.6640625 20.55859375 C24.26897948 18.41357174 23.07872493 16.31544493 22 14 C21.34 14 20.68 14 20 14 C20.495 25.88 20.495 25.88 21 38 C22.65 38.33 24.3 38.66 26 39 C26 40.32 26 41.64 26 43 C21.38 43 16.76 43 12 43 C11.67 42.01 11.34 41.02 11 40 C13.475 39.505 13.475 39.505 16 39 C16.33 27.45 16.66 15.9 17 4 C14.36 4 11.72 4 9 4 C9.01571045 4.81154541 9.0314209 5.62309082 9.04760742 6.45922852 C9.11022907 10.16024724 9.14907772 13.86115417 9.1875 17.5625 C9.21263672 18.83931641 9.23777344 20.11613281 9.26367188 21.43164062 C9.35763341 33.49003748 9.35763341 33.49003748 6 39 C1.16212396 42.93077428 -3.07287389 43.74549625 -9.2734375 43.5234375 C-13.76972663 42.66025305 -16.93953611 40.34426631 -20 37 C-22.28843078 33.44559593 -22.23187955 30.43426914 -22.1953125 26.265625 C-22.18564453 24.32236328 -22.18564453 24.32236328 -22.17578125 22.33984375 C-22.15907193 20.97655981 -22.14214206 19.61327856 -22.125 18.25 C-22.1149634 16.87110015 -22.10583873 15.49219335 -22.09765625 14.11328125 C-22.07408093 10.74201118 -22.0411727 7.37109364 -22 4 C-23.98 4 -25.96 4 -28 4 C-28 3.01 -28 2.02 -28 1 C-22.06 1 -16.12 1 -10 1 C-10 1.66 -10 2.32 -10 3 C-11.98 3.33 -13.96 3.66 -16 4 C-15.95570959 8.03920904 -15.88573679 12.07709542 -15.79248047 16.11547852 C-15.76434625 17.48774907 -15.74309414 18.86017941 -15.72900391 20.23266602 C-15.70747269 22.21138494 -15.6587072 24.1897477 -15.609375 26.16796875 C-15.58842773 27.35672607 -15.56748047 28.5454834 -15.54589844 29.77026367 C-14.89872574 33.59917586 -13.7473031 35.29587282 -11 38 C-8.06963019 38.7135417 -8.06963019 38.7135417 -4.9375 38.5 C-3.89464844 38.4896875 -2.85179687 38.479375 -1.77734375 38.46875 C0.93219169 38.20458713 0.93219169 38.20458713 2.64160156 36.9128418 C4.70805744 34.00294212 4.43961542 31.45884461 4.51171875 27.92578125 C4.52966995 27.2419487 4.54762115 26.55811615 4.56611633 25.8535614 C4.62022075 23.67327 4.6541134 21.49319744 4.6875 19.3125 C4.7206732 17.83265183 4.75516287 16.35283255 4.79101562 14.87304688 C4.87594524 11.24890831 4.94275635 7.62469348 5 4 C3.35 4 1.7 4 0 4 C0 2.68 0 1.36 0 0 Z " fill="#B55F55" transform="translate(45,96)"/>
<path d="M0 0 C8.25 0 16.5 0 25 0 C25 13.86 25 27.72 25 42 C16.75 42 8.5 42 0 42 C0.33 40.68 0.66 39.36 1 38 C2.98 37.505 2.98 37.505 5 37 C5 26.11 5 15.22 5 4 C3.35 3.67 1.7 3.34 0 3 C0 2.01 0 1.02 0 0 Z " fill="#B76258" transform="translate(179,97)"/>
<path d="M0 0 C5.60500964 -0.09903517 11.20950762 -0.17154712 16.81518555 -0.21972656 C18.7212003 -0.23981546 20.62715362 -0.26709194 22.53295898 -0.30175781 C25.27603326 -0.35039642 28.01829125 -0.37299579 30.76171875 -0.390625 C31.61086349 -0.41127014 32.46000824 -0.43191528 33.33488464 -0.45318604 C37.42666113 -0.45473044 39.47207999 -0.33259516 43.01489258 1.89941406 C46.11528947 5.18016856 46.28429337 7.45483099 46.21875 11.9609375 C45.89892942 14.94212219 44.92599127 16.73008172 43 19 C40.8125 19.8125 40.8125 19.8125 39 20 C39.928125 21.4540625 39.928125 21.4540625 40.875 22.9375 C42.49899834 25.74566379 43.33003668 28.1221939 43.875 31.3125 C44.92985012 36.8338326 47.55489238 41.58184672 51 46 C51.99 46.33 52.98 46.66 54 47 C54 46.34 54 45.68 54 45 C54.99 45.33 55.98 45.66 57 46 C55.875 48.5 55.875 48.5 54 51 C51.25 51.8125 51.25 51.8125 48 51 C40.74848798 44.89428966 37.48089092 36.77313256 34.7265625 27.98046875 C33.86459973 25.63092508 32.60259419 23.90785023 31 22 C31 21.34 31 20.68 31 20 C30.01 19.34 29.02 18.68 28 18 C27.63671875 14.8125 27.63671875 14.8125 27.6875 11 C27.69136719 9.741875 27.69523437 8.48375 27.69921875 7.1875 C28 4 28 4 30 2 C15.15 1.505 15.15 1.505 0 1 C0 0.67 0 0.34 0 0 Z " fill="#BA6A61" transform="translate(79,96)"/>
<path d="M0 0 C0.99 0 1.98 0 3 0 C3.50559908 1.43554025 4.0042749 2.8735202 4.5 4.3125 C4.7784375 5.11300781 5.056875 5.91351563 5.34375 6.73828125 C6 9 6 9 6 12 C1.74545047 11.52727227 -0.19204573 9.03562624 -3 6 C-4.1043392 4.67579751 -4.1043392 4.67579751 -6.875 4.8125 C-10.16570758 4.74656487 -10.16570758 4.74656487 -13 7 C-13.91832511 10.42823885 -13.91832511 10.42823885 -14 14 C-11.51349536 17.72975696 -9.87217026 17.96273303 -5.6875 19.375 C3.56759196 22.85589742 3.56759196 22.85589742 6 27 C6.79653768 30.85288228 6.90509731 34.16036358 6 38 C3.32351979 41.65619976 0.25762437 43.58079188 -4 45 C-9.72206293 45.47683858 -14.5841011 44.84371027 -20 43 C-20.98248524 38.9472484 -21.08159574 35.16138263 -21 31 C-18.84734716 32.93738755 -17.69358203 34.54717495 -16.25 37.125 C-14.21693404 40.2816917 -14.21693404 40.2816917 -10.625 41.0625 C-6.42931578 40.99016062 -3.05111455 40.05111455 0 37 C0.07148199 35.64756083 0.08399454 34.29165633 0.0625 32.9375 C0.041875 31.638125 0.02125 30.33875 0 29 C-2.48702945 27.99186485 -4.97305557 27.00964105 -7.5 26.10546875 C-12.84030038 24.1445772 -16.33510561 22.37422879 -20 18 C-20.33 17.67 -20.66 17.34 -21 17 C-21.61642131 11.69877671 -20.24171951 9.14219715 -17 5 C-16.443125 4.21625 -15.88625 3.4325 -15.3125 2.625 C-11.75694345 0.1265008 -8.21351619 0.5474921 -4 1 C-2.65994345 1.30518411 -1.32362355 1.62998705 0 2 C0 1.34 0 0.68 0 0 Z " fill="#B66057" transform="translate(172,95)"/>
<path d="M0 0 C11.55 0 23.1 0 35 0 C35 0.33 35 0.66 35 1 C33.02 1.66 31.04 2.32 29 3 C29 7.62 29 12.24 29 17 C30.98 17.33 32.96 17.66 35 18 C33.68 18.33 32.36 18.66 31 19 C31 19.66 31 20.32 31 21 C31.66 21.33 32.32 21.66 33 22 C31.35 22 29.7 22 28 22 C28 26.95 28 31.9 28 37 C29.65 37.66 31.3 38.32 33 39 C32.67 39.99 32.34 40.98 32 42 C26.39 41.67 20.78 41.34 15 41 C15 40.01 15 39.02 15 38 C16.98 38 18.96 38 21 38 C21.33 26.45 21.66 14.9 22 3 C18.37 3.33 14.74 3.66 11 4 C10.67 12.91 10.34 21.82 10 31 C6.58429368 27.58429368 6.60940339 27.03544826 6.48828125 22.45703125 C6.43510742 20.84731445 6.43510742 20.84731445 6.38085938 19.20507812 C6.35830078 18.08552734 6.33574219 16.96597656 6.3125 15.8125 C6.26125977 14.11577148 6.26125977 14.11577148 6.20898438 12.38476562 C6.12643686 9.5899426 6.05730818 6.79543602 6 4 C4.02 3.34 2.04 2.68 0 2 C0 1.34 0 0.68 0 0 Z " fill="#B55D53" transform="translate(79,97)"/>
<path d="M0 0 C3.96 0 7.92 0 12 0 C12 12.21 12 24.42 12 37 C8.04 37 4.08 37 0 37 C-1 36 -1 36 -1.09765625 32.62109375 C-1.09098369 31.22652923 -1.07902532 29.83198257 -1.0625 28.4375 C-1.05798828 27.72658203 -1.05347656 27.01566406 -1.04882812 26.28320312 C-1.03700864 24.52209987 -1.01907263 22.76103964 -1 21 C0.98 21 2.96 21 5 21 C5 22.32 5 23.64 5 25 C5.99 24.67 6.98 24.34 8 24 C8.33 20.7 8.66 17.4 9 14 C7.68 14 6.36 14 5 14 C5 15.32 5 16.64 5 18 C3.33388095 18.042721 1.66617115 18.04063832 0 18 C-1.82116003 16.17883997 -1.1323508 13.69328236 -1.13671875 11.2734375 C-1.13285156 10.52320312 -1.12898437 9.77296875 -1.125 9 C-1.12886719 8.24976562 -1.13273438 7.49953125 -1.13671875 6.7265625 C-1.12661053 1.12661053 -1.12661053 1.12661053 0 0 Z " fill="#FDFCFC" transform="translate(192,99)"/>
<path d="M0 0 C5.94 0 11.88 0 18 0 C18 0.66 18 1.32 18 2 C16.02 2.33 14.04 2.66 12 3 C12.04429041 7.03920904 12.11426321 11.07709542 12.20751953 15.11547852 C12.23565375 16.48774907 12.25690586 17.86017941 12.27099609 19.23266602 C12.29252731 21.21138494 12.3412928 23.1897477 12.390625 25.16796875 C12.41157227 26.35672607 12.43251953 27.5454834 12.45410156 28.77026367 C13.10127426 32.59917586 14.2526969 34.29587282 17 37 C19.93036981 37.7135417 19.93036981 37.7135417 23.0625 37.5 C24.10535156 37.4896875 25.14820313 37.479375 26.22265625 37.46875 C29.28834042 36.95133495 30.21019614 36.48812077 32 34 C33.1007076 30.6978772 33.20627072 28.05916721 33.31640625 24.58203125 C33.37924805 22.70161133 33.37924805 22.70161133 33.44335938 20.78320312 C33.48267578 19.47287109 33.52199219 18.16253906 33.5625 16.8125 C33.60570992 15.47720022 33.649325 14.14191348 33.69335938 12.80664062 C33.79956502 9.53786703 33.90160997 6.26901667 34 3 C37.15040396 7.72560595 36.41002437 12.77879434 36.42553711 18.34179688 C36.43742301 20.36191529 36.48659792 22.37896482 36.53710938 24.3984375 C36.54419922 25.6771875 36.55128906 26.9559375 36.55859375 28.2734375 C36.57204834 29.44310059 36.58550293 30.61276367 36.59936523 31.81787109 C35.82617294 35.92287654 34.15858615 37.36531324 31 40 C26.40305413 42.96810678 21.27497139 42.84399542 16 42 C11.36430219 39.70081332 7.92174147 36.86205208 6 32 C5.77294922 28.88378906 5.77294922 28.88378906 5.8046875 25.265625 C5.81435547 23.32236328 5.81435547 23.32236328 5.82421875 21.33984375 C5.84092807 19.97655981 5.85785794 18.61327856 5.875 17.25 C5.8850366 15.87110015 5.89416127 14.49219335 5.90234375 13.11328125 C5.92591907 9.74201118 5.9588273 6.37109364 6 3 C4.02 3 2.04 3 0 3 C0 2.01 0 1.02 0 0 Z " fill="#B3594F" transform="translate(17,97)"/>
<path d="M0 0 C6.80609418 2.26869806 6.80609418 2.26869806 9.75 4.875 C10.32234375 5.36742188 10.8946875 5.85984375 11.484375 6.3671875 C15.41673078 10.6035914 15.42762366 14.74030851 15.31640625 20.30859375 C14.72919689 25.30349808 12.14719046 27.91318798 8.625 31.25 C6 33 6 33 0 35 C0 23.45 0 11.9 0 0 Z " fill="#B55D53" transform="translate(0,109)"/>
<path d="M0 0 C5.61 0 11.22 0 17 0 C17.33 0.99 17.66 1.98 18 3 C16.35 3.33 14.7 3.66 13 4 C12.67 15.55 12.34 27.1 12 39 C13.65 39.33 15.3 39.66 17 40 C16.67 40.99 16.34 41.98 16 43 C10.72 42.67 5.44 42.34 0 42 C0 41.01 0 40.02 0 39 C2.475 38.505 2.475 38.505 5 38 C5.33 26.78 5.66 15.56 6 4 C4.02 4 2.04 4 0 4 C0 2.68 0 1.36 0 0 Z " fill="#B76359" transform="translate(132,96)"/>
<path d="M0 0 C2.60478883 -0.0809313 5.20706653 -0.14045434 7.8125 -0.1875 C8.55048828 -0.21263672 9.28847656 -0.23777344 10.04882812 -0.26367188 C15.50599063 -0.337751 15.50599063 -0.337751 17.98828125 1.359375 C19.45703179 3.74113263 19.40222543 5.25145959 19 8 C18.443125 8.598125 17.88625 9.19625 17.3125 9.8125 C15.7257912 11.88313769 15.7257912 11.88313769 16.46875 14.02734375 C17.2404873 16.06029987 18.06990514 18.0348765 19 20 C20.32 20 21.64 20 23 20 C22.34 21.32 21.68 22.64 21 24 C18.75 23.875 18.75 23.875 16 23 C13.92690345 20.33459015 12.34969003 17.71880728 10.875 14.6875 C10.11181389 12.8108354 10.11181389 12.8108354 8 12 C8 14.97 8 17.94 8 21 C8.99 21 9.98 21 11 21 C11 21.66 11 22.32 11 23 C7.37 23 3.74 23 0 23 C0 22.34 0 21.68 0 21 C1.32 21 2.64 21 4 21 C4 14.73 4 8.46 4 2 C2.68 2 1.36 2 0 2 C0 1.34 0 0.68 0 0 Z " fill="#B8635A" transform="translate(136,147)"/>
<path d="M0 0 C-0.99 0.33 -1.98 0.66 -3 1 C-3.33 3.64 -3.66 6.28 -4 9 C-2.02 8.34 -0.04 7.68 2 7 C2.15149298 3.37114676 2.15149298 3.37114676 1 0 C3.86724686 0.57344937 4.8614515 0.8614515 7 3 C6.625 5.5 6.625 5.5 6 8 C6 8.66 6 9.32 6 10 C6.495 10.433125 6.99 10.86625 7.5 11.3125 C9 13 9 13 9.5 15.4375 C9 18 9 18 6.95703125 20.14453125 C3.28498686 22.44865422 0.37117445 22.45818284 -3.8125 22.25 C-4.50537109 22.23195312 -5.19824219 22.21390625 -5.91210938 22.1953125 C-7.60867664 22.14851064 -9.30452476 22.07677624 -11 22 C-11 21.34 -11 20.68 -11 20 C-10.34 19.67 -9.68 19.34 -9 19 C-8.97309896 16.20826945 -8.95320947 13.41679652 -8.9375 10.625 C-8.92912109 9.8309375 -8.92074219 9.036875 -8.91210938 8.21875 C-8.76959849 3.97607778 -8.76959849 3.97607778 -10 0 C-6.33694766 -0.74926071 -3.57644848 -1.2380014 0 0 Z " fill="#B55D53" transform="translate(23,148)"/>
<path d="M0 0 C3.63 0 7.26 0 11 0 C11 0.66 11 1.32 11 2 C10.01 2.33 9.02 2.66 8 3 C7.67 5.31 7.34 7.62 7 10 C8.34212062 8.90653119 9.67347975 7.7998425 11 6.6875 C11.7425 6.07261719 12.485 5.45773438 13.25 4.82421875 C15.34613723 3.06049937 15.34613723 3.06049937 15 0 C17.97 0 20.94 0 24 0 C24 0.66 24 1.32 24 2 C22.34151823 3.01351664 20.67334039 4.01120795 19 5 C16.58140803 6.75065833 16.58140803 6.75065833 15 9 C14.90639457 12.6506116 15.92507568 13.91292579 18.3125 16.6875 C20.54233714 18.60619708 22.30407149 19.90165875 25 21 C25 21.66 25 22.32 25 23 C21.7 23 18.4 23 15 23 C15.33 21.68 15.66 20.36 16 19 C14.34942646 16.18672862 14.34942646 16.18672862 12 14 C11.01 14 10.02 14 9 14 C8.67 15.98 8.34 17.96 8 20 C8.99 20 9.98 20 11 20 C11 20.99 11 21.98 11 23 C7.37 23 3.74 23 0 23 C0.495 21.515 0.495 21.515 1 20 C1.99 20 2.98 20 4 20 C3.67 14.39 3.34 8.78 3 3 C2.01 2.67 1.02 2.34 0 2 C0 1.34 0 0.68 0 0 Z " fill="#B66056" transform="translate(72,147)"/>
<path d="M0 0 C1.32 0 2.64 0 4 0 C6.88335752 6.60310883 9.46272637 12.95416251 11 20 C11.33 20.99 11.66 21.98 12 23 C10.35 23 8.7 23 7 23 C7.33 20.69 7.66 18.38 8 16 C3.05 16.495 3.05 16.495 -2 17 C-2 18.98 -2 20.96 -2 23 C-4.64 23 -7.28 23 -10 23 C-9.505 21.515 -9.505 21.515 -9 20 C-8.34 20 -7.68 20 -7 20 C-6.90203125 19.38253906 -6.8040625 18.76507813 -6.703125 18.12890625 C-4.25323475 4.25323475 -4.25323475 4.25323475 0 0 Z " fill="#BC6E65" transform="translate(50,147)"/>
<path d="M0 0 C6.27 0 12.54 0 19 0 C19 1.98 19 3.96 19 6 C18.34 6 17.68 6 17 6 C16.67 5.01 16.34 4.02 16 3 C13.36 2.67 10.72 2.34 8 2 C8 4.97 8 7.94 8 11 C8.99 11 9.98 11 11 11 C11 10.34 11 9.68 11 9 C11.99 9 12.98 9 14 9 C14 10.98 14 12.96 14 15 C13.01 15 12.02 15 11 15 C11 14.34 11 13.68 11 13 C10.01 13 9.02 13 8 13 C8 15.64 8 18.28 8 21 C10.97 20.67 13.94 20.34 17 20 C17.33 19.01 17.66 18.02 18 17 C18.66 17 19.32 17 20 17 C20.042721 18.66611905 20.04063832 20.33382885 20 22 C19 23 19 23 17.14233398 23.11352539 C16.35157471 23.10828857 15.56081543 23.10305176 14.74609375 23.09765625 C13.89208984 23.09443359 13.03808594 23.09121094 12.15820312 23.08789062 C11.26037109 23.07951172 10.36253906 23.07113281 9.4375 23.0625 C8.53580078 23.05798828 7.63410156 23.05347656 6.70507812 23.04882812 C4.46998686 23.03700225 2.23502563 23.0205222 0 23 C0 22.34 0 21.68 0 21 C0.99 20.67 1.98 20.34 3 20 C3.495 11.09 3.495 11.09 4 2 C2.68 2 1.36 2 0 2 C0 1.34 0 0.68 0 0 Z " fill="#B55E54" transform="translate(106,147)"/>
<path d="M0 0 C2.64 0 5.28 0 8 0 C8.12375 1.36125 8.12375 1.36125 8.25 2.75 C9.09248732 6.40077839 10.17881618 7.63384583 13 10 C15.19097652 6.6659053 16.43454163 3.95820859 17 0 C18.65 0 20.3 0 22 0 C22 0.66 22 1.32 22 2 C21.34 2 20.68 2 20 2 C19.731875 2.70125 19.46375 3.4025 19.1875 4.125 C18 7 18 7 16.4375 9.875 C14.86516144 13.29312731 14.37265867 16.27341329 14 20 C14.99 20.33 15.98 20.66 17 21 C17 21.66 17 22.32 17 23 C13.04 23 9.08 23 5 23 C5.33 22.01 5.66 21.02 6 20 C6.99 20 7.98 20 9 20 C7.9392493 13.8448545 6.25674751 9.31935426 3 4 C3 3.34 3 2.68 3 2 C2.01 2 1.02 2 0 2 C0 1.34 0 0.68 0 0 Z " fill="#B65F55" transform="translate(165,147)"/>
<path d="M0 0 C2.48695054 0.05348281 3.88379953 0.12939977 6.125 1.25 C7.75909427 4.51818854 7.74108361 7.73053385 7.125 11.25 C5.625 13.75 5.625 13.75 3.125 15.25 C0.36658426 15.56584913 -2.08101454 15.4362657 -4.875 15.25 C-4.90185412 12.93756208 -4.92132841 10.6250373 -4.9375 8.3125 C-4.94910156 7.02472656 -4.96070312 5.73695312 -4.97265625 4.41015625 C-4.83012102 -0.20228386 -4.75838665 0.30699269 0 0 Z " fill="#FDFCFC" transform="translate(111.875,98.75)"/>
<path d="M0 0 C7 4 7 4 8 6 C9.17017301 14.36895885 9.17017301 14.36895885 6.73046875 17.76953125 C4.58027323 19.58490314 2.89280453 21 0 21 C0 14.07 0 7.14 0 0 Z " fill="#FCF9F9" transform="translate(0,118)"/>
<path d="M0 0 C4.95 0 9.9 0 15 0 C15 0.33 15 0.66 15 1 C12.69 1 10.38 1 8 1 C8 3.97 8 6.94 8 10 C8.99 10.33 9.98 10.66 11 11 C10.01 11.33 9.02 11.66 8 12 C8 14.97 8 17.94 8 21 C8.99 21 9.98 21 11 21 C11 21.66 11 22.32 11 23 C7.37 23 3.74 23 0 23 C0 22.34 0 21.68 0 21 C1.32 21 2.64 21 4 21 C4 14.73 4 8.46 4 2 C2.68 2 1.36 2 0 2 C0 1.34 0 0.68 0 0 Z " fill="#B25449" transform="translate(136,147)"/>
<path d="M0 0 C8.25 0 16.5 0 25 0 C21 2 21 2 11 4 C10.67 12.91 10.34 21.82 10 31 C6.58429368 27.58429368 6.60940339 27.03544826 6.48828125 22.45703125 C6.43510742 20.84731445 6.43510742 20.84731445 6.38085938 19.20507812 C6.35830078 18.08552734 6.33574219 16.96597656 6.3125 15.8125 C6.26125977 14.11577148 6.26125977 14.11577148 6.20898438 12.38476562 C6.12643686 9.5899426 6.05730818 6.79543602 6 4 C4.02 3.34 2.04 2.68 0 2 C0 1.34 0 0.68 0 0 Z " fill="#B15247" transform="translate(79,97)"/>
<path d="M0 0 C6.93 0 13.86 0 21 0 C21 0.33 21 0.66 21 1 C16.545 1.495 16.545 1.495 12 2 C12 2.66 12 3.32 12 4 C11.01 4 10.02 4 9 4 C9 13.24 9 22.48 9 32 C8.67 32 8.34 32 8 32 C7.67 23.75 7.34 15.5 7 7 C6.67 15.25 6.34 23.5 6 32 C5.67 32 5.34 32 5 32 C5 22.76 5 13.52 5 4 C3.35 4 1.7 4 0 4 C0 2.68 0 1.36 0 0 Z " fill="#C78881" transform="translate(45,96)"/>
<path d="M0 0 C3.15040396 4.72560595 2.41002437 9.77879434 2.42553711 15.34179688 C2.43742301 17.36191529 2.48659792 19.37896482 2.53710938 21.3984375 C2.54419922 22.6771875 2.55128906 23.9559375 2.55859375 25.2734375 C2.57204834 26.44310059 2.58550293 27.61276367 2.59936523 28.81787109 C1.82605927 32.92348004 0.15925731 34.36495377 -3 37 C-6.00228686 38.94334072 -8.20099105 39.22938262 -11.75 39.125 C-12.54921875 39.10695312 -13.3484375 39.08890625 -14.171875 39.0703125 C-14.77515625 39.04710937 -15.3784375 39.02390625 -16 39 C-13.79625376 36.46569182 -12.28878404 35.59796073 -9 35 C-5.84280706 34.29904524 -3.89668216 33.78923847 -2 31 C-0.8992924 27.6978772 -0.79372928 25.05916721 -0.68359375 21.58203125 C-0.64169922 20.32841797 -0.59980469 19.07480469 -0.55664062 17.78320312 C-0.51732422 16.47287109 -0.47800781 15.16253906 -0.4375 13.8125 C-0.39429008 12.47720022 -0.350675 11.14191348 -0.30664062 9.80664062 C-0.20043498 6.53786703 -0.09839003 3.26901667 0 0 Z " fill="#B05045" transform="translate(51,100)"/>
<path d="M0 0 C0.99 0 1.98 0 3 0 C3.67364661 2.08108685 4.33866798 4.1649671 5 6.25 C5.37125 7.41015625 5.7425 8.5703125 6.125 9.765625 C7 13 7 13 7 17 C4 17 4 17 2.5703125 15.57421875 C2.09335938 14.95160156 1.61640625 14.32898438 1.125 13.6875 C-1.29926722 10.69352998 -3.50798385 8.74600808 -7 7 C-6.67 5.68 -6.34 4.36 -6 3 C-4.35 3.33 -2.7 3.66 -1 4 C-0.67 2.68 -0.34 1.36 0 0 Z " fill="#B65F55" transform="translate(7,80)"/>
<path d="M0 0 C0.33 0 0.66 0 1 0 C1.33 7.59 1.66 15.18 2 23 C2.33 23 2.66 23 3 23 C3.33 25.97 3.66 28.94 4 32 C5.65 32.33 7.3 32.66 9 33 C9 34.32 9 35.64 9 37 C4.38 37 -0.24 37 -5 37 C-5.495 35.515 -5.495 35.515 -6 34 C-3.525 33.505 -3.525 33.505 -1 33 C-0.67 22.11 -0.34 11.22 0 0 Z " fill="#B9685F" transform="translate(62,102)"/>
<path d="M0 0 C-0.1384976 2.97769846 -0.31118434 5.21826492 -2.33203125 7.51171875 C-6.44000716 11 -6.44000716 11 -9 11 C-9.10183594 11.55171875 -9.20367187 12.1034375 -9.30859375 12.671875 C-10.15504596 15.52207567 -11.50020034 17.72372821 -13.0625 20.25 C-13.61035156 21.14203125 -14.15820312 22.0340625 -14.72265625 22.953125 C-15.14417969 23.62859375 -15.56570312 24.3040625 -16 25 C-16.99 24.34 -17.98 23.68 -19 23 C-17.40472748 17.89512793 -14.26127007 14.13768374 -11 10 C-10.319375 9.113125 -9.63875 8.22625 -8.9375 7.3125 C-2.81081081 0 -2.81081081 0 0 0 Z " fill="#F8CD64" transform="translate(166,29)"/>
<path d="M0 0 C0 0.99 0 1.98 0 3 C-1.08539063 3.25394531 -2.17078125 3.50789063 -3.2890625 3.76953125 C-4.73446724 4.11680382 -6.17977465 4.46448164 -7.625 4.8125 C-8.33785156 4.97814453 -9.05070312 5.14378906 -9.78515625 5.31445312 C-14.2163989 6.39177359 -17.92042965 7.91164851 -22 10 C-24.375 9.6875 -24.375 9.6875 -26 9 C-17.74271112 2.15824635 -10.70528079 -0.43695024 0 0 Z " fill="#FADFA3" transform="translate(177,77)"/>
<path d="M0 0 C-0.38948758 3.21327251 -1.09447993 5.15312265 -2.8125 7.9375 C-5.6733409 12.59154914 -6.68294655 17.82746448 -7.97265625 23.0859375 C-8.31167969 24.04757813 -8.65070313 25.00921875 -9 26 C-9.99 26.33 -10.98 26.66 -12 27 C-11.36934845 21.2190275 -10.34844868 15.6556294 -9 10 C-8.34 10 -7.68 10 -7 10 C-6.814375 8.88625 -6.814375 8.88625 -6.625 7.75 C-6.03879534 5.17069951 -5.36715445 3.2517838 -4 1 C-2 0 -2 0 0 0 Z " fill="#F9D175" transform="translate(136,18)"/>
<path d="M0 0 C0.99 0.33 1.98 0.66 3 1 C3.92159579 7.21170074 4.12177385 13.22609106 4.0625 19.5 C4.05798828 20.4178125 4.05347656 21.335625 4.04882812 22.28125 C4.03716326 24.52090391 4.02079614 26.76041545 4 29 C3.01 29 2.02 29 1 29 C0.30386731 19.31629705 -0.14973506 9.71614177 0 0 Z " fill="#F8CB5E" transform="translate(86,25)"/>
<path d="M0 0 C0.99 0 1.98 0 3 0 C3.50559908 1.43554025 4.0042749 2.8735202 4.5 4.3125 C4.7784375 5.11300781 5.056875 5.91351563 5.34375 6.73828125 C6 9 6 9 6 12 C2.8818679 11.65354088 1.98963586 10.98874751 -0.1875 8.625 C-3.38199614 5.64347027 -5.89244602 4.76890636 -10.01171875 3.578125 C-12 3 -12 3 -14 2 C-13 1 -13 1 -11.07421875 0.8671875 C-10.28660156 0.86976562 -9.49898437 0.87234375 -8.6875 0.875 C-7.90761719 0.87242188 -7.12773437 0.86984375 -6.32421875 0.8671875 C-4.08748461 0.99500088 -2.14733021 1.38086131 0 2 C0 1.34 0 0.68 0 0 Z " fill="#BC6F66" transform="translate(172,95)"/>
<path d="M0 0 C1.77049689 -0.05410687 3.54146849 -0.09284119 5.3125 -0.125 C6.29863281 -0.14820313 7.28476562 -0.17140625 8.30078125 -0.1953125 C11 0 11 0 14 2 C13.01 2.495 13.01 2.495 12 3 C12.33 3.33 12.66 3.66 13 4 C13.1875 6.4375 13.1875 6.4375 13 9 C11 11 11 11 8.375 11.125 C7.59125 11.08375 6.8075 11.0425 6 11 C6 8 6 5 6 2 C3.69 2.33 1.38 2.66 -1 3 C-0.67 2.01 -0.34 1.02 0 0 Z " fill="#EFE0DE" transform="translate(13,146)"/>
<path d="M0 0 C2.86724686 0.57344937 3.8614515 0.8614515 6 3 C5.625 5.5 5.625 5.5 5 8 C5 8.66 5 9.32 5 10 C5.495 10.433125 5.99 10.86625 6.5 11.3125 C8 13 8 13 8.1875 15.6875 C8.125625 16.450625 8.06375 17.21375 8 18 C6.02 18.99 6.02 18.99 4 20 C4.103125 19.071875 4.20625 18.14375 4.3125 17.1875 C4.209375 16.135625 4.10625 15.08375 4 14 C1.78508316 12.13749195 1.78508316 12.13749195 -1 11 C-2.1446875 10.4121875 -2.1446875 10.4121875 -3.3125 9.8125 C-3.869375 9.544375 -4.42625 9.27625 -5 9 C-3.02 8.34 -1.04 7.68 1 7 C1.15149298 3.37114676 1.15149298 3.37114676 0 0 Z " fill="#B3584D" transform="translate(24,148)"/>
<path d="M0 0 C4.87155399 0.46700987 8.01683842 2.88050007 11.75 5.8125 C12.63365234 6.47088867 12.63365234 6.47088867 13.53515625 7.14257812 C17.78019385 10.42638307 17.78019385 10.42638307 18.890625 13.32421875 C18.94476563 14.15373047 18.94476563 14.15373047 19 15 C14.66635072 15 12.58936477 12.3650131 9.5 9.625 C4.91576472 5.60376489 4.91576472 5.60376489 0 2 C0 1.34 0 0.68 0 0 Z " fill="#F8CF6E" transform="translate(32,57)"/>
<path d="M0 0 C5.625 -0.25 5.625 -0.25 9 2 C9.3125 4.5 9.3125 4.5 9 7 C7 9 7 9 3.9375 9.1875 C1 9 1 9 0 8 C-0.14115161 5.32941149 -0.04247107 2.67567762 0 0 Z " fill="#FBF8F8" transform="translate(19,159)"/>
<path d="M0 0 C1.32 0 2.64 0 4 0 C4.99 2.97 5.98 5.94 7 9 C6.01 8.67 5.02 8.34 4 8 C3.67 7.34 3.34 6.68 3 6 C1.68 8.64 0.36 11.28 -1 14 C-1.99 13.67 -2.98 13.34 -4 13 C-3.71812064 11.20676747 -3.4241719 9.41542874 -3.125 7.625 C-2.96257813 6.62726563 -2.80015625 5.62953125 -2.6328125 4.6015625 C-2 2 -2 2 0 0 Z " fill="#B76259" transform="translate(50,147)"/>
<path d="M0 0 C0.99 0 1.98 0 3 0 C3.84334329 2.22582389 4.67478551 4.45496026 5.5 6.6875 C5.73847656 7.31333984 5.97695312 7.93917969 6.22265625 8.58398438 C7.5412725 12.18192299 8.29329235 15.16520253 8 19 C7.01 19.33 6.02 19.66 5 20 C4.15960114 17.41877492 3.32749444 14.83536099 2.5 12.25 C2.26152344 11.52039062 2.02304688 10.79078125 1.77734375 10.0390625 C1.55175781 9.33007812 1.32617188 8.62109375 1.09375 7.890625 C0.88427734 7.24125977 0.67480469 6.59189453 0.45898438 5.92285156 C0 4 0 4 0 0 Z " fill="#F9D173" transform="translate(63,39)"/>
<path d="M0 0 C4.3266491 0.54483729 7.34918808 3.22835822 10.6875 5.8125 C11.28111328 6.25142578 11.87472656 6.69035156 12.48632812 7.14257812 C16.78497561 10.44131217 16.78497561 10.44131217 17.89453125 13.32421875 C17.94673828 14.15373047 17.94673828 14.15373047 18 15 C13.18479682 13.47654589 9.94254139 10.74013605 6.1875 7.5 C5.59001953 7.00113281 4.99253906 6.50226562 4.37695312 5.98828125 C2.87492074 4.70769135 1.43191644 3.35853858 0 2 C0 1.34 0 0.68 0 0 Z " fill="#F8CD66" transform="translate(9,39)"/>
<path d="M0 0 C1.65 0 3.3 0 5 0 C5 0.66 5 1.32 5 2 C4.34 2 3.68 2 3 2 C2.731875 2.70125 2.46375 3.4025 2.1875 4.125 C1 7 1 7 -0.5625 9.875 C-2.13483856 13.29312731 -2.62734133 16.27341329 -3 20 C-2.01 20.33 -1.02 20.66 0 21 C0 21.66 0 22.32 0 23 C-3.96 23 -7.92 23 -12 23 C-11.67 22.34 -11.34 21.68 -11 21 C-8.69 21 -6.38 21 -4 21 C-4 18.03 -4 15.06 -4 12 C-4.66 12 -5.32 12 -6 12 C-5 10 -5 10 -3 7.6875 C-0.97356839 4.96448252 -0.3794975 3.32060309 0 0 Z " fill="#C6857E" transform="translate(182,147)"/>
<path d="M0 0 C0.99 0.33 1.98 0.66 3 1 C2.47766614 7.00683945 0.94594259 12.69730333 -2 18 C-2.99 18.33 -3.98 18.66 -5 19 C-3.25 3.25 -3.25 3.25 0 0 Z " fill="#F8CE6A" transform="translate(117,15)"/>
<path d="M0 0 C1.32 0 2.64 0 4 0 C3.75606852 5.12256116 2.13886081 7.41862284 -1.33203125 10.8984375 C-3 12 -3 12 -7 12 C-6.49396008 9.83125748 -6.00016187 8.00032373 -5 6 C-4.34 6 -3.68 6 -3 6 C-2.690625 5.38125 -2.38125 4.7625 -2.0625 4.125 C-1.375 2.75 -0.6875 1.375 0 0 Z " fill="#F9D277" transform="translate(142,56)"/>
<path d="M0 0 C0.66 0.33 1.32 0.66 2 1 C2 6.28 2 11.56 2 17 C0.68 17 -0.64 17 -2 17 C-2.05383848 14.54137599 -2.09359038 12.0839245 -2.125 9.625 C-2.14175781 8.92632812 -2.15851563 8.22765625 -2.17578125 7.5078125 C-2.19344267 5.67102514 -2.10303261 3.83398037 -2 2 C-1.34 1.34 -0.68 0.68 0 0 Z " fill="#F9D172" transform="translate(100,26)"/>
<path d="M0 0 C3.4964302 1.69729621 6.87384233 3.57542703 10.25 5.5 C11.32765625 6.1084375 12.4053125 6.716875 13.515625 7.34375 C14.33546875 7.8903125 15.1553125 8.436875 16 9 C16 9.66 16 10.32 16 11 C8.86204983 10.84482717 4.52527146 7.25790537 -1 3 C-0.67 2.01 -0.34 1.02 0 0 Z " fill="#F8CE68" transform="translate(12,60)"/>
<path d="M0 0 C5.20788796 0.53141714 9.24847825 1.84021739 14 4 C15.11375 4.33 16.2275 4.66 17.375 5 C18.24125 5.33 19.1075 5.66 20 6 C20.33 6.99 20.66 7.98 21 9 C13.98291678 8.51043605 7.26855593 6.14336283 1 3 C0.67 2.01 0.34 1.02 0 0 Z " fill="#F8CB5F" transform="translate(7,74)"/>
<path d="M0 0 C0.33 0 0.66 0 1 0 C1 2.64 1 5.28 1 8 C5.455 7.505 5.455 7.505 10 7 C10.33 6.01 10.66 5.02 11 4 C11.66 4 12.32 4 13 4 C13.042721 5.66611905 13.04063832 7.33382885 13 9 C12 10 12 10 10.14233398 10.11352539 C9.35157471 10.10828857 8.56081543 10.10305176 7.74609375 10.09765625 C6.89208984 10.09443359 6.03808594 10.09121094 5.15820312 10.08789062 C4.26037109 10.07951172 3.36253906 10.07113281 2.4375 10.0625 C1.53580078 10.05798828 0.63410156 10.05347656 -0.29492188 10.04882812 C-2.53001314 10.03700225 -4.76497437 10.0205222 -7 10 C-7 9.34 -7 8.68 -7 8 C-5.02 7.34 -3.04 6.68 -1 6 C-0.67 4.02 -0.34 2.04 0 0 Z " fill="#BF776F" transform="translate(113,160)"/>
<path d="M0 0 C1.98 0.66 3.96 1.32 6 2 C6 2.66 6 3.32 6 4 C9.3 3.67 12.6 3.34 16 3 C11.22263368 7.77736632 0.38999907 6.09991934 -6.125 6.125 C-6.97175293 6.12967285 -7.81850586 6.1343457 -8.69091797 6.13916016 C-13.88202661 6.12600274 -18.86233872 5.74751192 -24 5 C-24 4.67 -24 4.34 -24 4 C-18.54230189 3.88861841 -13.38490641 4.08342019 -8 5 C-7.67 4.01 -7.34 3.02 -7 2 C-6.34 2 -5.68 2 -5 2 C-5 2.66 -5 3.32 -5 4 C-2.36 4 0.28 4 3 4 C2.505 3.525625 2.01 3.05125 1.5 2.5625 C0 1 0 1 0 0 Z " fill="#FADC9A" transform="translate(100,87)"/>
<path d="M0 0 C0.50546036 2.08201528 1.00416835 4.16567067 1.5 6.25 C1.7784375 7.41015625 2.056875 8.5703125 2.34375 9.765625 C3 13 3 13 3 17 C1.68 16.67 0.36 16.34 -1 16 C-1.12375 15.278125 -1.2475 14.55625 -1.375 13.8125 C-1.91039245 10.999974 -1.91039245 10.999974 -3.0625 8.5 C-4.06664944 5.82226817 -4.16195541 3.83421974 -4 1 C-2 0 -2 0 0 0 Z " fill="#FAD98F" transform="translate(76,27)"/>
<path d="M0 0 C0.66 0.33 1.32 0.66 2 1 C2.02688151 2.64574566 2.04634123 4.29161413 2.0625 5.9375 C2.07410156 6.85402344 2.08570312 7.77054687 2.09765625 8.71484375 C2 11 2 11 1 12 C0.95919217 13.99958364 0.95745644 16.00045254 1 18 C0.01 17.67 -0.98 17.34 -2 17 C-2.05383848 14.54137599 -2.09359038 12.0839245 -2.125 9.625 C-2.14175781 8.92632812 -2.15851563 8.22765625 -2.17578125 7.5078125 C-2.19344267 5.67102514 -2.10303261 3.83398037 -2 2 C-1.34 1.34 -0.68 0.68 0 0 Z " fill="#F8CE6A" transform="translate(102,0)"/>
<path d="M0 0 C0.66 0.33 1.32 0.66 2 1 C0.35433477 6.68502535 -2.29032784 11.76681636 -5 17 C-5.66 17 -6.32 17 -7 17 C-6.96586242 9.62628201 -4.87106829 5.46691762 0 0 Z " fill="#F9D581" transform="translate(134,47)"/>
<path d="M0 0 C3.63 0 7.26 0 11 0 C11 0.66 11 1.32 11 2 C10.01 2.33 9.02 2.66 8 3 C7.855625 4.134375 7.71125 5.26875 7.5625 6.4375 C7 10 7 10 6 11 C5.63239269 13.32817964 5.29758419 15.6618385 5 18 C4.67 18 4.34 18 4 18 C3.67 13.05 3.34 8.1 3 3 C2.01 2.67 1.02 2.34 0 2 C0 1.34 0 0.68 0 0 Z " fill="#B15348" transform="translate(72,147)"/>
<path d="M0 0 C5.01870473 0.77210842 9.884128 4.018608 13 8 C13 8.99 13 9.98 13 11 C9.37159027 10.38416899 7.13879117 8.86239708 4.25 6.625 C3.45078125 6.01914062 2.6515625 5.41328125 1.828125 4.7890625 C0.92320313 3.90347656 0.92320313 3.90347656 0 3 C0 2.01 0 1.02 0 0 Z " fill="#F8CF6D" transform="translate(31,42)"/>
<path d="M0 0 C8.25 0.33 16.5 0.66 25 1 C25 1.66 25 2.32 25 3 C16.75 3 8.5 3 0 3 C0 2.01 0 1.02 0 0 Z " fill="#BC6E65" transform="translate(179,136)"/>
<path d="M0 0 C1.32 0 2.64 0 4 0 C4 3.3 4 6.6 4 10 C2.68 10.33 1.36 10.66 0 11 C0 9.68 0 8.36 0 7 C-1.65 7 -3.3 7 -5 7 C-5 6.01 -5 5.02 -5 4 C-3.35 4 -1.7 4 0 4 C0 2.68 0 1.36 0 0 Z " fill="#B8645B" transform="translate(197,113)"/>
<path d="M0 0 C3.46228308 0.4467462 6.53364208 1.50441185 9.75 2.8125 C10.52859375 3.12832031 11.3071875 3.44414063 12.109375 3.76953125 C14 5 14 5 14.765625 7.13671875 C14.84296875 7.75160156 14.9203125 8.36648437 15 9 C14.360625 8.731875 13.72125 8.46375 13.0625 8.1875 C10.15426012 7.00675812 10.15426012 7.00675812 7.69921875 6.33984375 C6.89097656 6.10394531 6.08273438 5.86804688 5.25 5.625 C4.47140625 5.41101563 3.6928125 5.19703125 2.890625 4.9765625 C1 4 1 4 0.234375 1.8984375 C0.15703125 1.27195312 0.0796875 0.64546875 0 0 Z " fill="#F8CB5F" transform="translate(32,72)"/>
<path d="M0 0 C2.125 0.375 2.125 0.375 4 1 C4.625 3.875 4.625 3.875 5 7 C4.34 7.66 3.68 8.32 3 9 C-0.53571429 8.46428571 -0.53571429 8.46428571 -2 7 C-2.1875 4.5625 -2.1875 4.5625 -2 2 C-1.34 1.34 -0.68 0.68 0 0 Z " fill="#CDD2CF" transform="translate(42,181)"/>
<path d="M0 0 C2.375 -0.125 2.375 -0.125 5 0 C5.66 0.66 6.32 1.32 7 2 C6.44444444 6.55555556 6.44444444 6.55555556 5 8 C3.33382885 8.04063832 1.66611905 8.042721 0 8 C0 5.36 0 2.72 0 0 Z " fill="#F8F1F0" transform="translate(144,148)"/>
<path d="M0 0 C0.99 0 1.98 0 3 0 C4.00484204 1.95585325 5.00373805 3.91476237 6 5.875 C6.556875 6.96554688 7.11375 8.05609375 7.6875 9.1796875 C9 12 9 12 9 14 C5.65448581 12.61318429 4.13235259 11.20415702 2.25 8.125 C1.82203125 7.44695313 1.3940625 6.76890625 0.953125 6.0703125 C0 4 0 4 0 0 Z " fill="#F8CC62" transform="translate(53,46)"/>
<path d="M0 0 C0.99 0 1.98 0 3 0 C3 4.95 3 9.9 3 15 C2.01 14.67 1.02 14.34 0 14 C0 9.38 0 4.76 0 0 Z " fill="#F8CF6D" transform="translate(109,41)"/>
<path d="M0 0 C0.33 1.32 0.66 2.64 1 4 C1.99 4 2.98 4 4 4 C4 4.99 4 5.98 4 7 C0.37 7 -3.26 7 -7 7 C-6.67 6.01 -6.34 5.02 -6 4 C-5.01 4 -4.02 4 -3 4 C-2.67 3.01 -2.34 2.02 -2 1 C-1.34 0.67 -0.68 0.34 0 0 Z " fill="#BE746B" transform="translate(79,163)"/>
<path d="M0 0 C6.27 0 12.54 0 19 0 C19 1.98 19 3.96 19 6 C18.34 6 17.68 6 17 6 C16.67 5.01 16.34 4.02 16 3 C10.72 2.67 5.44 2.34 0 2 C0 1.34 0 0.68 0 0 Z " fill="#BD726A" transform="translate(106,147)"/>
<path d="M0 0 C-0.0625 1.75 -0.0625 1.75 -1 4 C-4.67238347 6.86059344 -7.29553866 8 -12 8 C-10.8433323 4.52999689 -10.14273284 4.15298541 -7.125 2.3125 C-6.42632812 1.87550781 -5.72765625 1.43851563 -5.0078125 0.98828125 C-3 0 -3 0 0 0 Z " fill="#F8CD65" transform="translate(169,59)"/>
<path d="M0 0 C3 0 3 0 4.82421875 1.64453125 C5.43910156 2.35996094 6.05398437 3.07539062 6.6875 3.8125 C7.31011719 4.52019531 7.93273438 5.22789063 8.57421875 5.95703125 C10 8 10 8 10 11 C7 11 7 11 5.17578125 9.35546875 C4.56089844 8.64003906 3.94601563 7.92460938 3.3125 7.1875 C2.37857422 6.12595703 2.37857422 6.12595703 1.42578125 5.04296875 C0 3 0 3 0 0 Z " fill="#F8CD64" transform="translate(46,56)"/>
<path d="M0 0 C-0.33 0.99 -0.66 1.98 -1 3 C-3.06640625 3.94921875 -3.06640625 3.94921875 -5.5625 4.6875 C-6.38878906 4.93886719 -7.21507812 5.19023438 -8.06640625 5.44921875 C-8.70449219 5.63097656 -9.34257812 5.81273438 -10 6 C-10.33 4.68 -10.66 3.36 -11 2 C-9.73392393 1.46770674 -8.46189588 0.94955456 -7.1875 0.4375 C-6.47980469 0.14746094 -5.77210938 -0.14257812 -5.04296875 -0.44140625 C-3 -1 -3 -1 0 0 Z " fill="#FAD98D" transform="translate(194,72)"/>
<path d="M0 0 C0.99 0 1.98 0 3 0 C5.41685712 4.22949995 6.34833144 7.12335991 6 12 C5.01 12 4.02 12 3 12 C2.49440092 10.56445975 1.9957251 9.1264798 1.5 7.6875 C1.2215625 6.88699219 0.943125 6.08648437 0.65625 5.26171875 C0 3 0 3 0 0 Z " fill="#F8CE68" transform="translate(67,11)"/>
<path d="M0 0 C5.61 0 11.22 0 17 0 C17.33 0.99 17.66 1.98 18 3 C12.06 2.67 6.12 2.34 0 2 C0 1.34 0 0.68 0 0 Z " fill="#BD7168" transform="translate(132,96)"/>
<path d="M0 0 C0.33 0 0.66 0 1 0 C1 6.6 1 13.2 1 20 C0.01 20 -0.98 20 -2 20 C-2.12112346 13.21708628 -1.91596805 6.5690333 0 0 Z " fill="#F9D071" transform="translate(89,34)"/>
<path d="M0 0 C0.53625 0.226875 1.0725 0.45375 1.625 0.6875 C0.625 3.6875 0.625 3.6875 -2.25 5.375 C-5.375 6.6875 -5.375 6.6875 -8.375 6.6875 C-8.375 5.3675 -8.375 4.0475 -8.375 2.6875 C-2.95961538 -0.38942308 -2.95961538 -0.38942308 0 0 Z " fill="#F8D070" transform="translate(151.375,71.3125)"/>
<path d="M0 0 C0.99 0.33 1.98 0.66 3 1 C3.625 3.3125 3.625 3.3125 4 6 C3.01 7.485 3.01 7.485 2 9 C0 8 0 8 -2 6 C-1.44444444 1.44444444 -1.44444444 1.44444444 0 0 Z " fill="#AAB2AC" transform="translate(138,182)"/>
<path d="M0 0 C2.12508244 3.18762365 2.5020163 5.26512223 3 9 C0.36 9 -2.28 9 -5 9 C-4.67 8.01 -4.34 7.02 -4 6 C-3.34 6 -2.68 6 -2 6 C-2 5.01 -2 4.02 -2 3 C-1.34 3 -0.68 3 0 3 C0 2.01 0 1.02 0 0 Z " fill="#B8665D" transform="translate(45,161)"/>
<path d="M0 0 C2.86724686 0.57344937 3.8614515 0.8614515 6 3 C5.67028521 6.29714793 5.3773161 7.6226839 3 10 C2.01 10 1.02 10 0 10 C0.29296875 7.98177083 0.5859375 5.96354167 0.87890625 3.9453125 C1.1684297 1.91859333 1.1684297 1.91859333 0 0 Z " fill="#BB6C63" transform="translate(24,148)"/>
<path d="M0 0 C0.66 0 1.32 0 2 0 C1.8125 2.8125 1.8125 2.8125 1 6 C-1.5625 7.875 -1.5625 7.875 -4 9 C-4.99 8.34 -5.98 7.68 -7 7 C-4.66666667 4.66666667 -2.33333333 2.33333333 0 0 Z " fill="#F9D378" transform="translate(164,29)"/>
<path d="M0 0 C0 0.99 0 1.98 0 3 C-0.88751953 3.09087891 -0.88751953 3.09087891 -1.79296875 3.18359375 C-5.90978208 3.62012371 -9.95544533 4.08671346 -14 5 C-14 4.34 -14 3.68 -14 3 C-12.0424015 2.49713066 -10.08389623 1.9977901 -8.125 1.5 C-7.03445312 1.2215625 -5.94390625 0.943125 -4.8203125 0.65625 C-2 0 -2 0 0 0 Z " fill="#F8CB60" transform="translate(177,77)"/>
<path d="M0 0 C2.03144641 0.93446535 4.03533587 1.93224776 6 3 C6 3.66 6 4.32 6 5 C2.7 5 -0.6 5 -4 5 C-2 1 -2 1 0 0 Z " fill="#BD7269" transform="translate(91,165)"/>
<path d="M0 0 C0.66 0 1.32 0 2 0 C2.125 2.875 2.125 2.875 2 6 C1.34 6.66 0.68 7.32 0 8 C-1.32 8 -2.64 8 -4 8 C-3.49396008 5.83125748 -3.00016187 4.00032373 -2 2 C-1.34 2 -0.68 2 0 2 C0 1.34 0 0.68 0 0 Z " fill="#F8CC60" transform="translate(139,60)"/>
<path d="M0 0 C0.185625 0.8971875 0.185625 0.8971875 0.375 1.8125 C0.95475985 4.26231348 0.95475985 4.26231348 3 7 C4.96361864 7.57748803 4.96361864 7.57748803 7.125 7.6875 C9.043125 7.8421875 9.043125 7.8421875 11 8 C11 8.33 11 8.66 11 9 C4.565 9.495 4.565 9.495 -2 10 C-1.54177532 6.53058454 -1.10868317 3.32604951 0 0 Z " fill="#C68780" transform="translate(46,154)"/>
<path d="M0 0 C2.89932357 2.39509338 3.50168276 4.31245243 4 8 C2.02 8 0.04 8 -2 8 C-1.125 2.25 -1.125 2.25 0 0 Z " fill="#F7F0EF" transform="translate(52,152)"/>
<path d="M0 0 C0.66 0.66 1.32 1.32 2 2 C-1.79692186 4.82561627 -4.18569279 6.56638908 -9 6 C-4.63636364 1.27272727 -4.63636364 1.27272727 -1.8125 0.0625 C-1.214375 0.041875 -0.61625 0.02125 0 0 Z " fill="#F9D173" transform="translate(160,81)"/>
<path d="M0 0 C1.41805831 0.28482368 2.83440379 0.57818144 4.25 0.875 C5.03890625 1.03742187 5.8278125 1.19984375 6.640625 1.3671875 C8.96831144 1.99150075 10.89031952 2.84838542 13 4 C9.52674819 5.1577506 6.63932552 5.06866652 3 5 C2.67 4.34 2.34 3.68 2 3 C1.34 3 0.68 3 0 3 C0 2.01 0 1.02 0 0 Z " fill="#FAD88C" transform="translate(102,62)"/>
<path d="M0 0 C0.99 0.66 1.98 1.32 3 2 C0.64653604 3.17673198 -0.8806033 3.16623866 -3.5 3.1875 C-4.2940625 3.20167969 -5.088125 3.21585938 -5.90625 3.23046875 C-8 3 -8 3 -10 1 C-6.87293041 -0.5635348 -3.42017557 -0.39958487 0 0 Z " fill="#B25449" transform="translate(167,137)"/>
<path d="M0 0 C0.66 0 1.32 0 2 0 C2 0.66 2 1.32 2 2 C2.99 2.66 3.98 3.32 5 4 C-2.41834582 4.09377123 -9.66236293 4.17402193 -17 3 C-17 2.67 -17 2.34 -17 2 C-11.54230189 1.88861841 -6.38490641 2.08342019 -1 3 C-0.67 2.01 -0.34 1.02 0 0 Z " fill="#F9D78A" transform="translate(93,89)"/>
<path d="M0 0 C3.4375 0.8125 3.4375 0.8125 7 2 C7.33 2.99 7.66 3.98 8 5 C1.375 4.25 1.375 4.25 -2 2 C-1.34 1.34 -0.68 0.68 0 0 Z " fill="#F9D174" transform="translate(20,78)"/>
<path d="M0 0 C0.33 0.66 0.66 1.32 1 2 C0.22265625 4.1640625 0.22265625 4.1640625 -0.9375 6.625 C-1.31777344 7.44226562 -1.69804687 8.25953125 -2.08984375 9.1015625 C-2.39019531 9.72804688 -2.69054687 10.35453125 -3 11 C-3.66 11 -4.32 11 -5 11 C-5 9.35 -5 7.7 -5 6 C-4.34 6 -3.68 6 -3 6 C-2.87625 5.195625 -2.7525 4.39125 -2.625 3.5625 C-2.41875 2.716875 -2.2125 1.87125 -2 1 C-1.34 0.67 -0.68 0.34 0 0 Z " fill="#F8CC60" transform="translate(132,53)"/>
<path d="M0 0 C0.66 0 1.32 0 2 0 C4.125 4.625 4.125 4.625 3 8 C2.01 7.34 1.02 6.68 0 6 C0 6.66 0 7.32 0 8 C-0.66 8 -1.32 8 -2 8 C-1.34 5.36 -0.68 2.72 0 0 Z " fill="#ADB5AF" transform="translate(69,182)"/>
<path d="M0 0 C0.99 0.33 1.98 0.66 3 1 C4.1875 4.0625 4.1875 4.0625 5 7 C2.36 7 -0.28 7 -3 7 C-3 6.34 -3 5.68 -3 5 C-2.01 5 -1.02 5 0 5 C0 3.35 0 1.7 0 0 Z " fill="#B8655C" transform="translate(174,162)"/>
<path d="M0 0 C1.65 0 3.3 0 5 0 C5 0.66 5 1.32 5 2 C4.34 2 3.68 2 3 2 C3 4.31 3 6.62 3 9 C2.34 9 1.68 9 1 9 C0.45627049 5.94152152 0 3.11227195 0 0 Z " fill="#C6CBC7" transform="translate(76,181)"/>
<path d="M0 0 C3.63 0 7.26 0 11 0 C11 0.66 11 1.32 11 2 C9.741875 2.185625 8.48375 2.37125 7.1875 2.5625 C6.12595703 2.71912109 6.12595703 2.71912109 5.04296875 2.87890625 C3 3 3 3 0 2 C0 1.34 0 0.68 0 0 Z " fill="#B65F55" transform="translate(72,147)"/>
<path d="M0 0 C1.5625 1 1.5625 1 3 3 C2.96726452 5.76614782 2.49404328 8.26030547 2 11 C2.99 11.33 3.98 11.66 5 12 C3.68 12 2.36 12 1 12 C0.01751476 7.9472484 -0.08159574 4.16138263 0 0 Z " fill="#B2564B" transform="translate(151,126)"/>
<path d="M0 0 C0.99 0 1.98 0 3 0 C2.67 2.64 2.34 5.28 2 8 C3.32 7.67 4.64 7.34 6 7 C5.67 7.66 5.34 8.32 5 9 C3.35 9 1.7 9 0 9 C0 6.03 0 3.06 0 0 Z " fill="#B9C0BB" transform="translate(116,181)"/>
<path d="M0 0 C0.33 0 0.66 0 1 0 C1 2.97 1 5.94 1 9 C1.99 9 2.98 9 4 9 C4 9.66 4 10.32 4 11 C0.37 11 -3.26 11 -7 11 C-7 10.67 -7 10.34 -7 10 C-5.02 9.67 -3.04 9.34 -1 9 C-0.67 6.03 -0.34 3.06 0 0 Z " fill="#C27D76" transform="translate(143,159)"/>
<path d="M0 0 C1.65 0 3.3 0 5 0 C5 0.66 5 1.32 5 2 C4.34 2 3.68 2 3 2 C2.71125 2.78375 2.4225 3.5675 2.125 4.375 C1 7 1 7 -1 9 C-0.67 6.03 -0.34 3.06 0 0 Z " fill="#BA6960" transform="translate(182,147)"/>
<path d="M0 0 C0.66 0 1.32 0 2 0 C2.625 1.8125 2.625 1.8125 3 4 C1 7 1 7 -1.625 7.6875 C-2.800625 7.8421875 -2.800625 7.8421875 -4 8 C-2.66666667 5.33333333 -1.33333333 2.66666667 0 0 Z " fill="#B55E54" transform="translate(50,128)"/>
<path d="M0 0 C1.32 0 2.64 0 4 0 C3.67 1.98 3.34 3.96 3 6 C1.68 6 0.36 6 -1 6 C-0.67 4.02 -0.34 2.04 0 0 Z " fill="#F9D173" transform="translate(119,51)"/>
<path d="M0 0 C4.75 0.75 4.75 0.75 7 3 C7 3.99 7 4.98 7 6 C5.1875 5.8125 5.1875 5.8125 3 5 C1.25 2.4375 1.25 2.4375 0 0 Z " fill="#F8CB5E" transform="translate(37,47)"/>
<path d="M0 0 C1.25541557 3.76624671 0.37061958 5.37188934 -1 9 C-1.66 9 -2.32 9 -3 9 C-3.33 9.66 -3.66 10.32 -4 11 C-3.125 4.25 -3.125 4.25 -2 2 C-1.34 2 -0.68 2 0 2 C0 1.34 0 0.68 0 0 Z " fill="#F8CC60" transform="translate(130,27)"/>
<path d="M0 0 C1 2 1 2 0.44140625 3.9453125 C0.15136719 4.66460937 -0.13867188 5.38390625 -0.4375 6.125 C-0.72496094 6.84945312 -1.01242188 7.57390625 -1.30859375 8.3203125 C-1.53675781 8.87460938 -1.76492187 9.42890625 -2 10 C-2.66 9.01 -3.32 8.02 -4 7 C-4.66 6.67 -5.32 6.34 -6 6 C-4.02 4.02 -2.04 2.04 0 0 Z " fill="#BB6D64" transform="translate(88,149)"/>
<path d="M0 0 C1.98362069 2.91708924 1.9876191 4.12380904 1.625 7.75 C1.41875 8.8225 1.2125 9.895 1 11 C0.67 9.68 0.34 8.36 0 7 C-1.65 7 -3.3 7 -5 7 C-5 6.01 -5 5.02 -5 4 C-3.35 4 -1.7 4 0 4 C0 2.68 0 1.36 0 0 Z " fill="#C5867F" transform="translate(197,113)"/>
<path d="M0 0 C0.99 0 1.98 0 3 0 C3.33 2.31 3.66 4.62 4 7 C3.01 7.33 2.02 7.66 1 8 C0.67 5.36 0.34 2.72 0 0 Z " fill="#F8CC63" transform="translate(67,51)"/>
<path d="M0 0 C0.66 0 1.32 0 2 0 C2 0.99 2 1.98 2 3 C2.66 3 3.32 3 4 3 C4 3.66 4 4.32 4 5 C3.34 5 2.68 5 2 5 C2 5.66 2 6.32 2 7 C2.99 7.33 3.98 7.66 5 8 C3.35 8 1.7 8 0 8 C0 5.36 0 2.72 0 0 Z " fill="#B6BDB8" transform="translate(108,182)"/>
<path d="M0 0 C1.98 0.99 1.98 0.99 4 2 C3.34 3.98 2.68 5.96 2 8 C1.34 8 0.68 8 0 8 C0 5.36 0 2.72 0 0 Z " fill="#EDEFEE" transform="translate(61,181)"/>
<path d="M0 0 C0.99 0 1.98 0 3 0 C2.979375 0.7425 2.95875 1.485 2.9375 2.25 C2.99328688 4.70462279 3.3069904 6.66109261 4 9 C3.01 8.67 2.02 8.34 1 8 C0.67 5.36 0.34 2.72 0 0 Z " fill="#F8CD67" transform="translate(72,28)"/>
<path d="M0 0 C0.99 0 1.98 0 3 0 C5 3 5 3 5 7 C3.0625 6.3125 3.0625 6.3125 1 5 C0.25 2.375 0.25 2.375 0 0 Z " fill="#F8CF6B" transform="translate(58,27)"/>
<path d="M0 0 C0.66 0 1.32 0 2 0 C2.042721 1.66611905 2.04063832 3.33382885 2 5 C1 6 1 6 -1.28515625 6.09765625 C-2.65994141 6.08025391 -2.65994141 6.08025391 -4.0625 6.0625 C-4.98160156 6.05347656 -5.90070313 6.04445312 -6.84765625 6.03515625 C-7.55792969 6.02355469 -8.26820312 6.01195312 -9 6 C-9 5.67 -9 5.34 -9 5 C-6.36 5 -3.72 5 -1 5 C-0.67 3.35 -0.34 1.7 0 0 Z " fill="#B76359" transform="translate(124,164)"/>
<path d="M0 0 C0.33 0.66 0.66 1.32 1 2 C1.66 2 2.32 2 3 2 C3 3.98 3 5.96 3 8 C2.01 8.33 1.02 8.66 0 9 C-1.125 2.25 -1.125 2.25 0 0 Z " fill="#B2554B" transform="translate(175,157)"/>
<path d="M0 0 C3.63 0 7.26 0 11 0 C11 0.33 11 0.66 11 1 C3.57142857 3.14285714 3.57142857 3.14285714 0 4 C0 2.66666667 0 1.33333333 0 0 Z " fill="#BC6F66" transform="translate(33,135)"/>
<path d="M0 0 C0.99 0 1.98 0 3 0 C3.66 1.98 4.32 3.96 5 6 C3.68 6 2.36 6 1 6 C0.67 4.02 0.34 2.04 0 0 Z " fill="#F9D06E" transform="translate(53,46)"/>
<path d="M0 0 C1.875 0.25 1.875 0.25 4 1 C5.25 3.0625 5.25 3.0625 6 5 C4.35 4.67 2.7 4.34 1 4 C0.67 2.68 0.34 1.36 0 0 Z " fill="#F8CF6C" transform="translate(45,37)"/>
<path d="M0 0 C0.99 0 1.98 0 3 0 C2.67 1.65 2.34 3.3 2 5 C0.68 5.33 -0.64 5.66 -2 6 C-1.49396008 3.83125748 -1.00016187 2.00032373 0 0 Z " fill="#F9D070" transform="translate(140,35)"/>
<path d="M0 0 C0.66 0 1.32 0 2 0 C2 2.64 2 5.28 2 8 C1.34 8 0.68 8 0 8 C-1.125 5.6875 -1.125 5.6875 -2 3 C-1.34 2.01 -0.68 1.02 0 0 Z " fill="#A2ACA4" transform="translate(103,182)"/>
<path d="M0 0 C0.66 0.66 1.32 1.32 2 2 C4.10820797 1.6814823 4.10820797 1.6814823 6 1 C6.33 1.99 6.66 2.98 7 4 C5.35 4 3.7 4 2 4 C2 4.66 2 5.32 2 6 C1.34 6 0.68 6 0 6 C0 4.02 0 2.04 0 0 Z " fill="#F9D684" transform="translate(83,77)"/>
<path d="M0 0 C1.32 0.66 2.64 1.32 4 2 C3.1875 3.9375 3.1875 3.9375 2 6 C1.01 6.33 0.02 6.66 -1 7 C-0.67 4.69 -0.34 2.38 0 0 Z " fill="#F9D47C" transform="translate(113,27)"/>
<path d="M0 0 C2.125 0.9375 2.125 0.9375 4 2 C2.6875 3.5 2.6875 3.5 1 5 C0.01 5 -0.98 5 -2 5 C-2 3.68 -2 2.36 -2 1 C-1.34 0.67 -0.68 0.34 0 0 Z " fill="#FADA91" transform="translate(145,73)"/>
<path d="M0 0 C0.33 0 0.66 0 1 0 C1 2.31 1 4.62 1 7 C-1.60582371 7.93065133 -2.64198224 8.14917407 -5.25 7.0625 C-5.8275 6.711875 -6.405 6.36125 -7 6 C-5.5459375 5.62875 -5.5459375 5.62875 -4.0625 5.25 C-2.5465625 4.63125 -2.5465625 4.63125 -1 4 C-0.03122943 1.96756452 -0.03122943 1.96756452 0 0 Z " fill="#C17B73" transform="translate(28,162)"/>
<path d="M0 0 C2.86724686 0.57344937 3.8614515 0.8614515 6 3 C6 3.99 6 4.98 6 6 C5.01 6 4.02 6 3 6 C2.01 4.02 1.02 2.04 0 0 Z " fill="#B3574C" transform="translate(24,148)"/>
<path d="M0 0 C2.475 0.495 2.475 0.495 5 1 C5 2.32 5 3.64 5 5 C2.525 4.01 2.525 4.01 0 3 C0 2.01 0 1.02 0 0 Z " fill="#F8CF6D" transform="translate(32,72)"/>
<path d="M0 0 C0.99 0.33 1.98 0.66 3 1 C2.67 1.99 2.34 2.98 2 4 C0.35 4 -1.3 4 -3 4 C-2.67 3.01 -2.34 2.02 -2 1 C-1.34 0.67 -0.68 0.34 0 0 Z " fill="#F8CE68" transform="translate(191,71)"/>
<path d="M0 0 C2.4375 0.375 2.4375 0.375 5 1 C5.33 1.66 5.66 2.32 6 3 C5.34 3.66 4.68 4.32 4 5 C2 3.625 2 3.625 0 2 C0 1.34 0 0.68 0 0 Z " fill="#F8CB60" transform="translate(32,57)"/>
</svg>
