<?xml version="1.0" encoding="UTF-8"?>
<svg version="1.1" xmlns="http://www.w3.org/2000/svg" width="204" height="192">
<path d="M0 0 C67.32 0 134.64 0 204 0 C204 63.36 204 126.72 204 192 C136.68 192 69.36 192 0 192 C0 128.64 0 65.28 0 0 Z " fill="#264793" transform="translate(0,0)"/>
<path d="M0 0 C5.41101775 3.11941135 8.66405321 7.10544089 10.65625 13.08203125 C11.50646718 18.44162814 10.95488508 22.27625651 8.03125 26.89453125 C5.25658128 30.56839817 2.9731293 33.24336044 -1.34375 35.08203125 C-11.52637806 35.99071722 -11.52637806 35.99071722 -15.34375 34.08203125 C-13.96941615 30.07355752 -12.39907129 27.05477629 -9.34375 24.08203125 C-5.59375 23.26953125 -5.59375 23.26953125 -2.34375 23.08203125 C-2.14801392 21.64562954 -1.96247184 20.20783621 -1.78125 18.76953125 C-1.67683594 17.96902344 -1.57242188 17.16851562 -1.46484375 16.34375 C-1.19619822 13.91386009 -1.19619822 13.91386009 -2.34375 11.08203125 C-2.95863281 11.08203125 -3.57351562 11.08203125 -4.20703125 11.08203125 C-14.71875 11.08203125 -14.71875 11.08203125 -18.03125 8.58203125 C-18.65386719 8.11796875 -19.27648437 7.65390625 -19.91796875 7.17578125 C-20.38847656 6.81484375 -20.85898438 6.45390625 -21.34375 6.08203125 C-20.17187176 2.56639653 -18.78983482 1.59440781 -15.56640625 -0.11328125 C-10.46924416 -1.958651 -5.05393824 -1.97945914 0 0 Z " fill="#1A1B17" transform="translate(174.34375,67.91796875)"/>
<path d="M0 0 C2.5625 1.3125 2.5625 1.3125 4 3 C4 3.99 4 4.98 4 6 C4.99 5.34 5.98 4.68 7 4 C7 8.95 7 13.9 7 19 C6.34 19 5.68 19 5 19 C4.731875 19.61875 4.46375 20.2375 4.1875 20.875 C3 23 3 23 0 25 C-4.63221499 25.75880093 -8.16983489 25.41508256 -12.375 23.3125 C-16.45859857 19.71504412 -17.80796473 17.51227778 -18.5 12.0625 C-18.31982427 7.29685192 -16.39164952 5.23748363 -13 2 C-8.78569622 -0.55122109 -4.80734436 -0.58217381 0 0 Z " fill="#284995" transform="translate(115,79)"/>
<path d="M0 0 C9.24 0 18.48 0 28 0 C23.15915833 9.76661039 18.21939615 19.43110705 13 29 C17.95 29.33 22.9 29.66 28 30 C28 31.32 28 32.64 28 34 C18.43 34 8.86 34 -1 34 C3.72401614 23.80607043 8.57370266 13.83516392 14 4 C9.38 4 4.76 4 0 4 C0 2.68 0 1.36 0 0 Z " fill="#D1D5D6" transform="translate(20,69)"/>
<path d="M0 0 C2.31 0 4.62 0 7 0 C7 6.6 7 13.2 7 20 C9.97 20 12.94 20 16 20 C16 17.69 16 15.38 16 13 C17.98 13 19.96 13 22 13 C22 20.59 22 28.18 22 36 C19.69 36 17.38 36 15 36 C15 31.71 15 27.42 15 23 C12.36 23 9.72 23 7 23 C7 27.29 7 31.58 7 36 C4.69 36 2.38 36 0 36 C0 24.12 0 12.24 0 0 Z " fill="#D5D8D8" transform="translate(124,67)"/>
<path d="M0 0 C1.90845703 0.04060547 1.90845703 0.04060547 3.85546875 0.08203125 C5.31919922 0.13423828 5.31919922 0.13423828 6.8125 0.1875 C6.8125 1.1775 6.8125 2.1675 6.8125 3.1875 C3.8425 3.1875 0.8725 3.1875 -2.1875 3.1875 C-2.1875 5.4975 -2.1875 7.8075 -2.1875 10.1875 C0.4525 10.1875 3.0925 10.1875 5.8125 10.1875 C5.8125 11.5075 5.8125 12.8275 5.8125 14.1875 C3.1725 14.1875 0.5325 14.1875 -2.1875 14.1875 C-2.1875 16.4975 -2.1875 18.8075 -2.1875 21.1875 C1.1125 21.1875 4.4125 21.1875 7.8125 21.1875 C7.8125 22.1775 7.8125 23.1675 7.8125 24.1875 C5.37433415 24.2684723 2.93885616 24.32796972 0.5 24.375 C-0.53543945 24.41270508 -0.53543945 24.41270508 -1.59179688 24.45117188 C-6.73183181 24.52566513 -6.73183181 24.52566513 -8.88598633 22.92700195 C-10.47331119 20.80550699 -10.57357394 19.69063963 -10.5859375 17.0625 C-10.58980469 16.27359375 -10.59367187 15.4846875 -10.59765625 14.671875 C-10.58605469 13.85203125 -10.57445313 13.0321875 -10.5625 12.1875 C-10.57410156 11.36765625 -10.58570312 10.5478125 -10.59765625 9.703125 C-10.59185547 8.51976563 -10.59185547 8.51976563 -10.5859375 7.3125 C-10.58255371 6.59320313 -10.57916992 5.87390625 -10.57568359 5.1328125 C-9.42899154 -0.61362917 -4.96263664 -0.13658633 0 0 Z " fill="#C8CED3" transform="translate(86.1875,78.8125)"/>
<path d="M0 0 C7.26 0 14.52 0 22 0 C22 0.99 22 1.98 22 3 C19.69 3 17.38 3 15 3 C15 9.93 15 16.86 15 24 C12.36 24 9.72 24 7 24 C7 17.4 7 10.8 7 4 C4.69 4 2.38 4 0 4 C0 2.68 0 1.36 0 0 Z " fill="#C7CCD3" transform="translate(52,79)"/>
<path d="M0 0 C2.5625 1.5 2.5625 1.5 4 3 C3.67 3.99 3.34 4.98 3 6 C2.46375 5.67 1.9275 5.34 1.375 5 C-1.65696965 3.7233812 -3.74003936 3.58383481 -7 4 C-9.35101344 5.80244364 -9.89686881 7.21935419 -10.28125 10.12890625 C-10.4206966 13.65574309 -10.30326835 16.30922209 -8.875 19.5625 C-7.00464301 21.23565653 -7.00464301 21.23565653 -4.125 21.4375 C-0.72304541 20.96122636 1.21587419 19.96526528 4 18 C4 22 4 22 2.5625 23.75 C-1.29468056 25.63155149 -4.78952544 25.65788665 -9 25 C-13.38410756 22.80794622 -16.13092657 20.56884617 -18 16 C-18.82639885 9.49210904 -18.82639885 9.49210904 -17.015625 6.22265625 C-12.25823905 0.21719066 -7.33631794 -0.92881823 0 0 Z " fill="#D1D6D6" transform="translate(115,79)"/>
<path d="M0 0 C4.06937112 0.6260571 6.90763736 2.31995238 10 5 C10.61344949 7.04623221 10.80712977 8.8690686 10.89453125 11 C10.9141771 13.03617496 10.9141771 13.03617496 11.6640625 15.015625 C12 17 12 17 11.00390625 18.921875 C10.52824219 19.52515625 10.05257812 20.1284375 9.5625 20.75 C9.08941406 21.36359375 8.61632812 21.9771875 8.12890625 22.609375 C7.75636719 23.06828125 7.38382813 23.5271875 7 24 C3.24698481 22.79367369 1.57283522 20.48636631 -0.24609375 17.0625 C-2.23386146 11.62446192 -1.13547105 5.53542138 0 0 Z " fill="#D2D6D7" transform="translate(150,76)"/>
<path d="M0 0 C0.99 0.33 1.98 0.66 3 1 C3 3.64 3 6.28 3 9 C4.32 9 5.64 9 7 9 C7 6.69 7 4.38 7 2 C7.66 2 8.32 2 9 2 C9 4.97 9 7.94 9 11 C2.73 11 -3.54 11 -10 11 C-8.79140866 6.16563466 -7.39488548 4.55654669 -4 1 C-3.01 1 -2.02 1 -1 1 C-0.67 0.67 -0.34 0.34 0 0 Z " fill="#254690" transform="translate(23,113)"/>
<path d="M0 0 C0.66 0 1.32 0 2 0 C2 0.99 2 1.98 2 3 C2.804375 2.979375 3.60875 2.95875 4.4375 2.9375 C7 3 7 3 8 4 C8.07179964 5.51928038 8.08392007 7.04167482 8.0625 8.5625 C8.05347656 9.38878906 8.04445313 10.21507813 8.03515625 11.06640625 C8.02355469 11.70449219 8.01195313 12.34257813 8 13 C7.67 13 7.34 13 7 13 C7 10.36 7 7.72 7 5 C5.35 5 3.7 5 2 5 C2 7.64 2 10.28 2 13 C1.01 12.34 0.02 11.68 -1 11 C-1.33 11.66 -1.66 12.32 -2 13 C-3.99954746 13.04254356 -6.00041636 13.04080783 -8 13 C-9 12 -9 12 -9.1875 8.5625 C-9 5 -9 5 -7 3 C-2.44444444 3.55555556 -2.44444444 3.55555556 -1 5 C-0.67 3.35 -0.34 1.7 0 0 Z " fill="#203461" transform="translate(87,111)"/>
<path d="M0 0 C1.134375 0.020625 2.26875 0.04125 3.4375 0.0625 C3.49139087 2.02053507 3.53024217 3.97898909 3.5625 5.9375 C3.58570313 7.02804688 3.60890625 8.11859375 3.6328125 9.2421875 C3.4375 12.0625 3.4375 12.0625 1.4375 14.0625 C-1.1875 14.1875 -1.1875 14.1875 -3.5625 14.0625 C-3.5625 13.0725 -3.5625 12.0825 -3.5625 11.0625 C-1.9125 11.3925 -0.2625 11.7225 1.4375 12.0625 C1.1075 11.4025 0.7775 10.7425 0.4375 10.0625 C-2.08983235 9.40694881 -2.08983235 9.40694881 -4.5625 9.0625 C-4.66015625 2.91015625 -4.66015625 2.91015625 -4.5625 1.0625 C-3.5625 0.0625 -3.5625 0.0625 0 0 Z " fill="#1D2A45" transform="translate(135.5625,113.9375)"/>
<path d="M0 0 C0.66 0 1.32 0 2 0 C2 4.29 2 8.58 2 13 C-4.75 13 -4.75 13 -8 12 C-8 11.01 -8 10.02 -8 9 C-7.34 9 -6.68 9 -6 9 C-5.67 7.35 -5.34 5.7 -5 4 C-3.35 3.67 -1.7 3.34 0 3 C0 2.01 0 1.02 0 0 Z " fill="#233E7E" transform="translate(189,111)"/>
<path d="M0 0 C0.33 1.32 0.66 2.64 1 4 C2.175625 3.690625 2.175625 3.690625 3.375 3.375 C4.674375 3.189375 4.674375 3.189375 6 3 C8 5 8 5 8.1875 8 C8 11 8 11 7 13 C4.69 13 2.38 13 0 13 C0 8.71 0 4.42 0 0 Z " fill="#1C2842" transform="translate(34,111)"/>
<path d="M0 0 C2.375 -0.125 2.375 -0.125 5 0 C7 2 7 2 7.1875 5 C7 8 7 8 6 10 C4.00045254 10.04254356 1.99958364 10.04080783 0 10 C-1 9 -1 9 -1.125 5.5625 C-1 2 -1 2 0 0 Z " fill="#1D2B47" transform="translate(122,114)"/>
<path d="M0 0 C2.4375 0.1875 2.4375 0.1875 3.4375 1.1875 C3.5703125 3 3.5703125 3 3.5625 5.1875 C3.56507812 5.909375 3.56765625 6.63125 3.5703125 7.375 C3.4375 9.1875 3.4375 9.1875 2.4375 10.1875 C0 10.4375 0 10.4375 -2.5625 10.1875 C-4.71165785 6.96376323 -4.94536803 5.92046326 -4.5625 2.1875 C-2.5625 0.1875 -2.5625 0.1875 0 0 Z " fill="#1B2639" transform="translate(111.5625,113.8125)"/>
<path d="M0 0 C0.78375 0.04125 1.5675 0.0825 2.375 0.125 C3.5 6.75 3.5 6.75 2.375 10.125 C0 10.25 0 10.25 -2.625 10.125 C-4.625 8.125 -4.625 8.125 -4.875 5.125 C-4.55416156 1.2749387 -3.94115238 0.18767392 0 0 Z " fill="#1E2E50" transform="translate(148.625,113.875)"/>
<path d="M0 0 C1.66611905 -0.042721 3.33382885 -0.04063832 5 0 C6 1 6 1 6.09765625 2.84765625 C6.06510417 4.8984375 6.03255208 6.94921875 6 9 C4.02 9.33 2.04 9.66 0 10 C-0.38218767 8.34385343 -0.71395102 6.67542976 -1 5 C0 4 0 4 2.5625 3.9375 C3.7690625 3.9684375 3.7690625 3.9684375 5 4 C5 3.34 5 2.68 5 2 C3.02 2.33 1.04 2.66 -1 3 C-0.67 2.01 -0.34 1.02 0 0 Z " fill="#1E2F52" transform="translate(45,114)"/>
<path d="M0 0 C0.66 0 1.32 0 2 0 C2 2.31 2 4.62 2 7 C3.32 7 4.64 7 6 7 C6 4.69 6 2.38 6 0 C6.66 0 7.32 0 8 0 C8 2.97 8 5.94 8 9 C5.66705225 9.04241723 3.33297433 9.04092937 1 9 C0 8 0 8 -0.09765625 6.15234375 C-0.06510417 4.1015625 -0.03255208 2.05078125 0 0 Z " fill="#1D2A49" transform="translate(24,115)"/>
<path d="M0 0 C2.5625 0.25 2.5625 0.25 5 1 C5.33 1.66 5.66 2.32 6 3 C3.03 2.505 3.03 2.505 0 2 C0.33 3.98 0.66 5.96 1 8 C1.66 8 2.32 8 3 8 C3.33 7.34 3.66 6.68 4 6 C4.66 6 5.32 6 6 6 C5.67 7.32 5.34 8.64 5 10 C3.00045254 10.04254356 0.99958364 10.04080783 -1 10 C-2 9 -2 9 -2.1875 5.5625 C-2 2 -2 2 0 0 Z " fill="#1C2943" transform="translate(80,114)"/>
<path d="M0 0 C0.33 0 0.66 0 1 0 C1 4.29 1 8.58 1 13 C-5.75 13 -5.75 13 -9 12 C-9 11.01 -9 10.02 -9 9 C-8.34 9 -7.68 9 -7 9 C-6.67 7.35 -6.34 5.7 -6 4 C-5.34 4.33 -4.68 4.66 -4 5 C-4 6.98 -4 8.96 -4 11 C-3.01 11 -2.02 11 -1 11 C-0.67 7.37 -0.34 3.74 0 0 Z " fill="#1B222E" transform="translate(190,111)"/>
<path d="M0 0 C0.66 0 1.32 0 2 0 C2 3.63 2 7.26 2 11 C3.98 11 5.96 11 8 11 C8 11.66 8 12.32 8 13 C5.36 13 2.72 13 0 13 C0 8.71 0 4.42 0 0 Z " fill="#1C2841" transform="translate(168,111)"/>
<path d="M0 0 C0 3.51716303 -0.82445585 4.37121748 -3 7 C-0.69 7.33 1.62 7.66 4 8 C4 8.66 4 9.32 4 10 C0.7 10 -2.6 10 -6 10 C-4.80655062 5.22620248 -3.20354235 3.61425291 0 0 Z " fill="#1C253A" transform="translate(19,114)"/>
<path d="M0 0 C1.65 0 3.3 0 5 0 C5 1.98 5 3.96 5 6 C3.0625 6.5625 3.0625 6.5625 1 7 C0 6 0 6 -0.0625 2.9375 C-0.041875 1.968125 -0.02125 0.99875 0 0 Z " fill="#24448D" transform="translate(109,116)"/>
<path d="M0 0 C0.66 0 1.32 0 2 0 C2 0.66 2 1.32 2 2 C2.99 2 3.98 2 5 2 C5 2.66 5 3.32 5 4 C4.01 4 3.02 4 2 4 C2 6.31 2 8.62 2 11 C2.66 11.33 3.32 11.66 4 12 C2.68 11.67 1.36 11.34 0 11 C-0.19491452 9.54263913 -0.38069358 8.08405407 -0.5625 6.625 C-0.66691406 5.81289062 -0.77132812 5.00078125 -0.87890625 4.1640625 C-1 2 -1 2 0 0 Z " fill="#1D2B4B" transform="translate(177,112)"/>
<path d="M0 0 C0.66 0.33 1.32 0.66 2 1 C1.67 1.66 1.34 2.32 1 3 C2.65 3 4.3 3 6 3 C6.33 2.34 6.66 1.68 7 1 C7 1.99 7 2.98 7 4 C5.02 4 3.04 4 1 4 C1.33 4.99 1.66 5.98 2 7 C3.65 6.67 5.3 6.34 7 6 C6.67 6.99 6.34 7.98 6 9 C3.625 9.125 3.625 9.125 1 9 C-1 7 -1 7 -1.1875 3.9375 C-1 1 -1 1 0 0 Z " fill="#1B2330" transform="translate(69,115)"/>
<path d="M0 0 C2.475 0.495 2.475 0.495 5 1 C5 2.65 5 4.3 5 6 C3.0625 6.5625 3.0625 6.5625 1 7 C0 6 0 6 -0.0625 2.9375 C-0.041875 1.968125 -0.02125 0.99875 0 0 Z " fill="#24438C" transform="translate(132,116)"/>
<path d="M0 0 C0.33 0.99 0.66 1.98 1 3 C3.97 3.495 3.97 3.495 7 4 C6.67 4.99 6.34 5.98 6 7 C5.401875 6.835 4.80375 6.67 4.1875 6.5 C1.88655664 5.8885876 1.88655664 5.8885876 -1 6 C-1.66 5.34 -2.32 4.68 -3 4 C-2.34 4 -1.68 4 -1 4 C-0.67 2.68 -0.34 1.36 0 0 Z " fill="#234185" transform="translate(153,116)"/>
<path d="M0 0 C1.32 0 2.64 0 4 0 C4 1.98 4 3.96 4 6 C2.35 5.67 0.7 5.34 -1 5 C-0.67 3.35 -0.34 1.7 0 0 Z " fill="#24448C" transform="translate(36,116)"/>
<path d="M0 0 C0.66 0.33 1.32 0.66 2 1 C0.63016497 4.16115776 0.0109362 4.9927092 -3 7 C-3.99 7 -4.98 7 -6 7 C-4.60667426 3.63279613 -3.0210714 2.0140476 0 0 Z " fill="#C8CED2" transform="translate(118,97)"/>
<path d="M0 0 C1.32 0 2.64 0 4 0 C4 1.98 4 3.96 4 6 C2.68 6 1.36 6 0 6 C0 4.02 0 2.04 0 0 Z " fill="#254693" transform="translate(123,116)"/>
<path d="M0 0 C1.65 0 3.3 0 5 0 C5.33 0.99 5.66 1.98 6 3 C5 4 5 4 2.4375 4.0625 C1.2309375 4.0315625 1.2309375 4.0315625 0 4 C0 2.68 0 1.36 0 0 Z " fill="#20386C" transform="translate(146,114)"/>
<path d="M0 0 C1.98 0 3.96 0 6 0 C5.34 1.32 4.68 2.64 4 4 C2.68 3.67 1.36 3.34 0 3 C0 2.01 0 1.02 0 0 Z " fill="#233F80" transform="translate(70,119)"/>
<path d="M0 0 C1.65 0 3.3 0 5 0 C5.33 0.66 5.66 1.32 6 2 C5.67 2.66 5.34 3.32 5 4 C3.35 4 1.7 4 0 4 C0 2.68 0 1.36 0 0 Z " fill="#213970" transform="translate(70,114)"/>
<path d="M0 0 C0 0.66 0 1.32 0 2 C-0.78375 2.103125 -1.5675 2.20625 -2.375 2.3125 C-5.33045181 2.77595022 -5.33045181 2.77595022 -7 6 C-7.33 4.68 -7.66 3.36 -8 2 C-4.91190305 0.23537317 -3.76687864 0 0 0 Z " fill="#234186" transform="translate(50,116)"/>
</svg>
